<?xml version="1.0" encoding="utf-8" standalone="no"?>
<!DOCTYPE svg PUBLIC "-//W3C//DTD SVG 1.1//EN"
  "http://www.w3.org/Graphics/SVG/1.1/DTD/svg11.dtd">
<svg xmlns:xlink="http://www.w3.org/1999/xlink" width="477.11875pt" height="442.525pt" viewBox="0 0 477.11875 442.525" xmlns="http://www.w3.org/2000/svg" version="1.1">
 <metadata>
  <rdf:RDF xmlns:dc="http://purl.org/dc/elements/1.1/" xmlns:cc="http://creativecommons.org/ns#" xmlns:rdf="http://www.w3.org/1999/02/22-rdf-syntax-ns#">
   <cc:Work>
    <dc:type rdf:resource="http://purl.org/dc/dcmitype/StillImage"/>
    <dc:date>2024-06-02T16:48:38.201472</dc:date>
    <dc:format>image/svg+xml</dc:format>
    <dc:creator>
     <cc:Agent>
      <dc:title>Matplotlib v3.5.2, https://matplotlib.org/</dc:title>
     </cc:Agent>
    </dc:creator>
   </cc:Work>
  </rdf:RDF>
 </metadata>
 <defs>
  <style type="text/css">*{stroke-linejoin: round; stroke-linecap: butt}</style>
 </defs>
 <g id="figure_1">
  <g id="patch_1">
   <path d="M 0 442.525 
L 477.11875 442.525 
L 477.11875 -0 
L 0 -0 
z
" style="fill: #ffffff"/>
  </g>
  <g id="axes_1">
   <g id="patch_2">
    <path d="M 94.559375 379.434375 
L 382.559375 379.434375 
L 382.559375 19.434375 
L 94.559375 19.434375 
z
" style="fill: #ffffff"/>
   </g>
   <g id="matplotlib.axis_1">
    <g id="xtick_1">
     <g id="line2d_1">
      <defs>
       <path id="mfa68f6705d" d="M 0 0 
L 0 -4 
" style="stroke: #000000; stroke-width: 2"/>
      </defs>
      <g>
       <use xlink:href="#mfa68f6705d" x="100.559375" y="379.434375" style="stroke: #000000; stroke-width: 2"/>
      </g>
     </g>
     <g id="text_1">
      <!-- 0 -->
      <g transform="translate(92.60625 401.930469)scale(0.25 -0.25)">
       <defs>
        <path id="DejaVuSans-30" d="M 2034 4250 
Q 1547 4250 1301 3770 
Q 1056 3291 1056 2328 
Q 1056 1369 1301 889 
Q 1547 409 2034 409 
Q 2525 409 2770 889 
Q 3016 1369 3016 2328 
Q 3016 3291 2770 3770 
Q 2525 4250 2034 4250 
z
M 2034 4750 
Q 2819 4750 3233 4129 
Q 3647 3509 3647 2328 
Q 3647 1150 3233 529 
Q 2819 -91 2034 -91 
Q 1250 -91 836 529 
Q 422 1150 422 2328 
Q 422 3509 836 4129 
Q 1250 4750 2034 4750 
z
" transform="scale(0.015625)"/>
       </defs>
       <use xlink:href="#DejaVuSans-30"/>
      </g>
     </g>
    </g>
    <g id="xtick_2">
     <g id="line2d_2">
      <g>
       <use xlink:href="#mfa68f6705d" x="220.559375" y="379.434375" style="stroke: #000000; stroke-width: 2"/>
      </g>
     </g>
     <g id="text_2">
      <!-- 20 -->
      <g transform="translate(204.653125 401.930469)scale(0.25 -0.25)">
       <defs>
        <path id="DejaVuSans-32" d="M 1228 531 
L 3431 531 
L 3431 0 
L 469 0 
L 469 531 
Q 828 903 1448 1529 
Q 2069 2156 2228 2338 
Q 2531 2678 2651 2914 
Q 2772 3150 2772 3378 
Q 2772 3750 2511 3984 
Q 2250 4219 1831 4219 
Q 1534 4219 1204 4116 
Q 875 4013 500 3803 
L 500 4441 
Q 881 4594 1212 4672 
Q 1544 4750 1819 4750 
Q 2544 4750 2975 4387 
Q 3406 4025 3406 3419 
Q 3406 3131 3298 2873 
Q 3191 2616 2906 2266 
Q 2828 2175 2409 1742 
Q 1991 1309 1228 531 
z
" transform="scale(0.015625)"/>
       </defs>
       <use xlink:href="#DejaVuSans-32"/>
       <use xlink:href="#DejaVuSans-30" x="63.623047"/>
      </g>
     </g>
    </g>
    <g id="xtick_3">
     <g id="line2d_3">
      <g>
       <use xlink:href="#mfa68f6705d" x="340.559375" y="379.434375" style="stroke: #000000; stroke-width: 2"/>
      </g>
     </g>
     <g id="text_3">
      <!-- 40 -->
      <g transform="translate(324.653125 401.930469)scale(0.25 -0.25)">
       <defs>
        <path id="DejaVuSans-34" d="M 2419 4116 
L 825 1625 
L 2419 1625 
L 2419 4116 
z
M 2253 4666 
L 3047 4666 
L 3047 1625 
L 3713 1625 
L 3713 1100 
L 3047 1100 
L 3047 0 
L 2419 0 
L 2419 1100 
L 313 1100 
L 313 1709 
L 2253 4666 
z
" transform="scale(0.015625)"/>
       </defs>
       <use xlink:href="#DejaVuSans-34"/>
       <use xlink:href="#DejaVuSans-30" x="63.623047"/>
      </g>
     </g>
    </g>
    <g id="text_4">
     <!-- z-direction [μm] -->
     <g transform="translate(138.860156 430.125781)scale(0.25 -0.25)">
      <defs>
       <path id="DejaVuSans-7a" d="M 353 3500 
L 3084 3500 
L 3084 2975 
L 922 459 
L 3084 459 
L 3084 0 
L 275 0 
L 275 525 
L 2438 3041 
L 353 3041 
L 353 3500 
z
" transform="scale(0.015625)"/>
       <path id="DejaVuSans-2d" d="M 313 2009 
L 1997 2009 
L 1997 1497 
L 313 1497 
L 313 2009 
z
" transform="scale(0.015625)"/>
       <path id="DejaVuSans-64" d="M 2906 2969 
L 2906 4863 
L 3481 4863 
L 3481 0 
L 2906 0 
L 2906 525 
Q 2725 213 2448 61 
Q 2172 -91 1784 -91 
Q 1150 -91 751 415 
Q 353 922 353 1747 
Q 353 2572 751 3078 
Q 1150 3584 1784 3584 
Q 2172 3584 2448 3432 
Q 2725 3281 2906 2969 
z
M 947 1747 
Q 947 1113 1208 752 
Q 1469 391 1925 391 
Q 2381 391 2643 752 
Q 2906 1113 2906 1747 
Q 2906 2381 2643 2742 
Q 2381 3103 1925 3103 
Q 1469 3103 1208 2742 
Q 947 2381 947 1747 
z
" transform="scale(0.015625)"/>
       <path id="DejaVuSans-69" d="M 603 3500 
L 1178 3500 
L 1178 0 
L 603 0 
L 603 3500 
z
M 603 4863 
L 1178 4863 
L 1178 4134 
L 603 4134 
L 603 4863 
z
" transform="scale(0.015625)"/>
       <path id="DejaVuSans-72" d="M 2631 2963 
Q 2534 3019 2420 3045 
Q 2306 3072 2169 3072 
Q 1681 3072 1420 2755 
Q 1159 2438 1159 1844 
L 1159 0 
L 581 0 
L 581 3500 
L 1159 3500 
L 1159 2956 
Q 1341 3275 1631 3429 
Q 1922 3584 2338 3584 
Q 2397 3584 2469 3576 
Q 2541 3569 2628 3553 
L 2631 2963 
z
" transform="scale(0.015625)"/>
       <path id="DejaVuSans-65" d="M 3597 1894 
L 3597 1613 
L 953 1613 
Q 991 1019 1311 708 
Q 1631 397 2203 397 
Q 2534 397 2845 478 
Q 3156 559 3463 722 
L 3463 178 
Q 3153 47 2828 -22 
Q 2503 -91 2169 -91 
Q 1331 -91 842 396 
Q 353 884 353 1716 
Q 353 2575 817 3079 
Q 1281 3584 2069 3584 
Q 2775 3584 3186 3129 
Q 3597 2675 3597 1894 
z
M 3022 2063 
Q 3016 2534 2758 2815 
Q 2500 3097 2075 3097 
Q 1594 3097 1305 2825 
Q 1016 2553 972 2059 
L 3022 2063 
z
" transform="scale(0.015625)"/>
       <path id="DejaVuSans-63" d="M 3122 3366 
L 3122 2828 
Q 2878 2963 2633 3030 
Q 2388 3097 2138 3097 
Q 1578 3097 1268 2742 
Q 959 2388 959 1747 
Q 959 1106 1268 751 
Q 1578 397 2138 397 
Q 2388 397 2633 464 
Q 2878 531 3122 666 
L 3122 134 
Q 2881 22 2623 -34 
Q 2366 -91 2075 -91 
Q 1284 -91 818 406 
Q 353 903 353 1747 
Q 353 2603 823 3093 
Q 1294 3584 2113 3584 
Q 2378 3584 2631 3529 
Q 2884 3475 3122 3366 
z
" transform="scale(0.015625)"/>
       <path id="DejaVuSans-74" d="M 1172 4494 
L 1172 3500 
L 2356 3500 
L 2356 3053 
L 1172 3053 
L 1172 1153 
Q 1172 725 1289 603 
Q 1406 481 1766 481 
L 2356 481 
L 2356 0 
L 1766 0 
Q 1100 0 847 248 
Q 594 497 594 1153 
L 594 3053 
L 172 3053 
L 172 3500 
L 594 3500 
L 594 4494 
L 1172 4494 
z
" transform="scale(0.015625)"/>
       <path id="DejaVuSans-6f" d="M 1959 3097 
Q 1497 3097 1228 2736 
Q 959 2375 959 1747 
Q 959 1119 1226 758 
Q 1494 397 1959 397 
Q 2419 397 2687 759 
Q 2956 1122 2956 1747 
Q 2956 2369 2687 2733 
Q 2419 3097 1959 3097 
z
M 1959 3584 
Q 2709 3584 3137 3096 
Q 3566 2609 3566 1747 
Q 3566 888 3137 398 
Q 2709 -91 1959 -91 
Q 1206 -91 779 398 
Q 353 888 353 1747 
Q 353 2609 779 3096 
Q 1206 3584 1959 3584 
z
" transform="scale(0.015625)"/>
       <path id="DejaVuSans-6e" d="M 3513 2113 
L 3513 0 
L 2938 0 
L 2938 2094 
Q 2938 2591 2744 2837 
Q 2550 3084 2163 3084 
Q 1697 3084 1428 2787 
Q 1159 2491 1159 1978 
L 1159 0 
L 581 0 
L 581 3500 
L 1159 3500 
L 1159 2956 
Q 1366 3272 1645 3428 
Q 1925 3584 2291 3584 
Q 2894 3584 3203 3211 
Q 3513 2838 3513 2113 
z
" transform="scale(0.015625)"/>
       <path id="DejaVuSans-20" transform="scale(0.015625)"/>
       <path id="DejaVuSans-5b" d="M 550 4863 
L 1875 4863 
L 1875 4416 
L 1125 4416 
L 1125 -397 
L 1875 -397 
L 1875 -844 
L 550 -844 
L 550 4863 
z
" transform="scale(0.015625)"/>
       <path id="DejaVuSans-3bc" d="M 544 -1331 
L 544 3500 
L 1119 3500 
L 1119 1325 
Q 1119 872 1334 640 
Q 1550 409 1972 409 
Q 2434 409 2667 671 
Q 2900 934 2900 1459 
L 2900 3500 
L 3475 3500 
L 3475 806 
Q 3475 619 3529 530 
Q 3584 441 3700 441 
Q 3728 441 3778 458 
Q 3828 475 3916 513 
L 3916 50 
Q 3788 -22 3673 -56 
Q 3559 -91 3450 -91 
Q 3234 -91 3106 31 
Q 2978 153 2931 403 
Q 2775 156 2548 32 
Q 2322 -91 2016 -91 
Q 1697 -91 1473 31 
Q 1250 153 1119 397 
L 1119 -1331 
L 544 -1331 
z
" transform="scale(0.015625)"/>
       <path id="DejaVuSans-6d" d="M 3328 2828 
Q 3544 3216 3844 3400 
Q 4144 3584 4550 3584 
Q 5097 3584 5394 3201 
Q 5691 2819 5691 2113 
L 5691 0 
L 5113 0 
L 5113 2094 
Q 5113 2597 4934 2840 
Q 4756 3084 4391 3084 
Q 3944 3084 3684 2787 
Q 3425 2491 3425 1978 
L 3425 0 
L 2847 0 
L 2847 2094 
Q 2847 2600 2669 2842 
Q 2491 3084 2119 3084 
Q 1678 3084 1418 2786 
Q 1159 2488 1159 1978 
L 1159 0 
L 581 0 
L 581 3500 
L 1159 3500 
L 1159 2956 
Q 1356 3278 1631 3431 
Q 1906 3584 2284 3584 
Q 2666 3584 2933 3390 
Q 3200 3197 3328 2828 
z
" transform="scale(0.015625)"/>
       <path id="DejaVuSans-5d" d="M 1947 4863 
L 1947 -844 
L 622 -844 
L 622 -397 
L 1369 -397 
L 1369 4416 
L 622 4416 
L 622 4863 
L 1947 4863 
z
" transform="scale(0.015625)"/>
      </defs>
      <use xlink:href="#DejaVuSans-7a"/>
      <use xlink:href="#DejaVuSans-2d" x="52.490234"/>
      <use xlink:href="#DejaVuSans-64" x="88.574219"/>
      <use xlink:href="#DejaVuSans-69" x="152.050781"/>
      <use xlink:href="#DejaVuSans-72" x="179.833984"/>
      <use xlink:href="#DejaVuSans-65" x="218.697266"/>
      <use xlink:href="#DejaVuSans-63" x="280.220703"/>
      <use xlink:href="#DejaVuSans-74" x="335.201172"/>
      <use xlink:href="#DejaVuSans-69" x="374.410156"/>
      <use xlink:href="#DejaVuSans-6f" x="402.193359"/>
      <use xlink:href="#DejaVuSans-6e" x="463.375"/>
      <use xlink:href="#DejaVuSans-20" x="526.753906"/>
      <use xlink:href="#DejaVuSans-5b" x="558.541016"/>
      <use xlink:href="#DejaVuSans-3bc" x="597.554688"/>
      <use xlink:href="#DejaVuSans-6d" x="661.177734"/>
      <use xlink:href="#DejaVuSans-5d" x="758.589844"/>
     </g>
    </g>
   </g>
   <g id="matplotlib.axis_2">
    <g id="ytick_1">
     <g id="line2d_4">
      <defs>
       <path id="m1f1cb86719" d="M 0 0 
L 4 0 
" style="stroke: #000000; stroke-width: 2"/>
      </defs>
      <g>
       <use xlink:href="#m1f1cb86719" x="94.559375" y="379.434375" style="stroke: #000000; stroke-width: 2"/>
      </g>
     </g>
     <g id="text_5">
      <!-- 0.00 -->
      <g transform="translate(35.395313 388.932422)scale(0.25 -0.25)">
       <defs>
        <path id="DejaVuSans-2e" d="M 684 794 
L 1344 794 
L 1344 0 
L 684 0 
L 684 794 
z
" transform="scale(0.015625)"/>
       </defs>
       <use xlink:href="#DejaVuSans-30"/>
       <use xlink:href="#DejaVuSans-2e" x="63.623047"/>
       <use xlink:href="#DejaVuSans-30" x="95.410156"/>
       <use xlink:href="#DejaVuSans-30" x="159.033203"/>
      </g>
     </g>
    </g>
    <g id="ytick_2">
     <g id="line2d_5">
      <g>
       <use xlink:href="#m1f1cb86719" x="94.559375" y="289.434375" style="stroke: #000000; stroke-width: 2"/>
      </g>
     </g>
     <g id="text_6">
      <!-- 0.02 -->
      <g transform="translate(35.395313 298.932422)scale(0.25 -0.25)">
       <use xlink:href="#DejaVuSans-30"/>
       <use xlink:href="#DejaVuSans-2e" x="63.623047"/>
       <use xlink:href="#DejaVuSans-30" x="95.410156"/>
       <use xlink:href="#DejaVuSans-32" x="159.033203"/>
      </g>
     </g>
    </g>
    <g id="ytick_3">
     <g id="line2d_6">
      <g>
       <use xlink:href="#m1f1cb86719" x="94.559375" y="199.434375" style="stroke: #000000; stroke-width: 2"/>
      </g>
     </g>
     <g id="text_7">
      <!-- 0.04 -->
      <g transform="translate(35.395313 208.932422)scale(0.25 -0.25)">
       <use xlink:href="#DejaVuSans-30"/>
       <use xlink:href="#DejaVuSans-2e" x="63.623047"/>
       <use xlink:href="#DejaVuSans-30" x="95.410156"/>
       <use xlink:href="#DejaVuSans-34" x="159.033203"/>
      </g>
     </g>
    </g>
    <g id="ytick_4">
     <g id="line2d_7">
      <g>
       <use xlink:href="#m1f1cb86719" x="94.559375" y="109.434375" style="stroke: #000000; stroke-width: 2"/>
      </g>
     </g>
     <g id="text_8">
      <!-- 0.06 -->
      <g transform="translate(35.395313 118.932422)scale(0.25 -0.25)">
       <defs>
        <path id="DejaVuSans-36" d="M 2113 2584 
Q 1688 2584 1439 2293 
Q 1191 2003 1191 1497 
Q 1191 994 1439 701 
Q 1688 409 2113 409 
Q 2538 409 2786 701 
Q 3034 994 3034 1497 
Q 3034 2003 2786 2293 
Q 2538 2584 2113 2584 
z
M 3366 4563 
L 3366 3988 
Q 3128 4100 2886 4159 
Q 2644 4219 2406 4219 
Q 1781 4219 1451 3797 
Q 1122 3375 1075 2522 
Q 1259 2794 1537 2939 
Q 1816 3084 2150 3084 
Q 2853 3084 3261 2657 
Q 3669 2231 3669 1497 
Q 3669 778 3244 343 
Q 2819 -91 2113 -91 
Q 1303 -91 875 529 
Q 447 1150 447 2328 
Q 447 3434 972 4092 
Q 1497 4750 2381 4750 
Q 2619 4750 2861 4703 
Q 3103 4656 3366 4563 
z
" transform="scale(0.015625)"/>
       </defs>
       <use xlink:href="#DejaVuSans-30"/>
       <use xlink:href="#DejaVuSans-2e" x="63.623047"/>
       <use xlink:href="#DejaVuSans-30" x="95.410156"/>
       <use xlink:href="#DejaVuSans-36" x="159.033203"/>
      </g>
     </g>
    </g>
    <g id="ytick_5">
     <g id="line2d_8">
      <g>
       <use xlink:href="#m1f1cb86719" x="94.559375" y="19.434375" style="stroke: #000000; stroke-width: 2"/>
      </g>
     </g>
     <g id="text_9">
      <!-- 0.08 -->
      <g transform="translate(35.395313 28.932422)scale(0.25 -0.25)">
       <defs>
        <path id="DejaVuSans-38" d="M 2034 2216 
Q 1584 2216 1326 1975 
Q 1069 1734 1069 1313 
Q 1069 891 1326 650 
Q 1584 409 2034 409 
Q 2484 409 2743 651 
Q 3003 894 3003 1313 
Q 3003 1734 2745 1975 
Q 2488 2216 2034 2216 
z
M 1403 2484 
Q 997 2584 770 2862 
Q 544 3141 544 3541 
Q 544 4100 942 4425 
Q 1341 4750 2034 4750 
Q 2731 4750 3128 4425 
Q 3525 4100 3525 3541 
Q 3525 3141 3298 2862 
Q 3072 2584 2669 2484 
Q 3125 2378 3379 2068 
Q 3634 1759 3634 1313 
Q 3634 634 3220 271 
Q 2806 -91 2034 -91 
Q 1263 -91 848 271 
Q 434 634 434 1313 
Q 434 1759 690 2068 
Q 947 2378 1403 2484 
z
M 1172 3481 
Q 1172 3119 1398 2916 
Q 1625 2713 2034 2713 
Q 2441 2713 2670 2916 
Q 2900 3119 2900 3481 
Q 2900 3844 2670 4047 
Q 2441 4250 2034 4250 
Q 1625 4250 1398 4047 
Q 1172 3844 1172 3481 
z
" transform="scale(0.015625)"/>
       </defs>
       <use xlink:href="#DejaVuSans-30"/>
       <use xlink:href="#DejaVuSans-2e" x="63.623047"/>
       <use xlink:href="#DejaVuSans-30" x="95.410156"/>
       <use xlink:href="#DejaVuSans-38" x="159.033203"/>
      </g>
     </g>
    </g>
    <g id="text_10">
     <!-- Estimated Concentration [mM] -->
     <g transform="translate(26.196094 391.66875)rotate(-90)scale(0.25 -0.25)">
      <defs>
       <path id="DejaVuSans-45" d="M 628 4666 
L 3578 4666 
L 3578 4134 
L 1259 4134 
L 1259 2753 
L 3481 2753 
L 3481 2222 
L 1259 2222 
L 1259 531 
L 3634 531 
L 3634 0 
L 628 0 
L 628 4666 
z
" transform="scale(0.015625)"/>
       <path id="DejaVuSans-73" d="M 2834 3397 
L 2834 2853 
Q 2591 2978 2328 3040 
Q 2066 3103 1784 3103 
Q 1356 3103 1142 2972 
Q 928 2841 928 2578 
Q 928 2378 1081 2264 
Q 1234 2150 1697 2047 
L 1894 2003 
Q 2506 1872 2764 1633 
Q 3022 1394 3022 966 
Q 3022 478 2636 193 
Q 2250 -91 1575 -91 
Q 1294 -91 989 -36 
Q 684 19 347 128 
L 347 722 
Q 666 556 975 473 
Q 1284 391 1588 391 
Q 1994 391 2212 530 
Q 2431 669 2431 922 
Q 2431 1156 2273 1281 
Q 2116 1406 1581 1522 
L 1381 1569 
Q 847 1681 609 1914 
Q 372 2147 372 2553 
Q 372 3047 722 3315 
Q 1072 3584 1716 3584 
Q 2034 3584 2315 3537 
Q 2597 3491 2834 3397 
z
" transform="scale(0.015625)"/>
       <path id="DejaVuSans-61" d="M 2194 1759 
Q 1497 1759 1228 1600 
Q 959 1441 959 1056 
Q 959 750 1161 570 
Q 1363 391 1709 391 
Q 2188 391 2477 730 
Q 2766 1069 2766 1631 
L 2766 1759 
L 2194 1759 
z
M 3341 1997 
L 3341 0 
L 2766 0 
L 2766 531 
Q 2569 213 2275 61 
Q 1981 -91 1556 -91 
Q 1019 -91 701 211 
Q 384 513 384 1019 
Q 384 1609 779 1909 
Q 1175 2209 1959 2209 
L 2766 2209 
L 2766 2266 
Q 2766 2663 2505 2880 
Q 2244 3097 1772 3097 
Q 1472 3097 1187 3025 
Q 903 2953 641 2809 
L 641 3341 
Q 956 3463 1253 3523 
Q 1550 3584 1831 3584 
Q 2591 3584 2966 3190 
Q 3341 2797 3341 1997 
z
" transform="scale(0.015625)"/>
       <path id="DejaVuSans-43" d="M 4122 4306 
L 4122 3641 
Q 3803 3938 3442 4084 
Q 3081 4231 2675 4231 
Q 1875 4231 1450 3742 
Q 1025 3253 1025 2328 
Q 1025 1406 1450 917 
Q 1875 428 2675 428 
Q 3081 428 3442 575 
Q 3803 722 4122 1019 
L 4122 359 
Q 3791 134 3420 21 
Q 3050 -91 2638 -91 
Q 1578 -91 968 557 
Q 359 1206 359 2328 
Q 359 3453 968 4101 
Q 1578 4750 2638 4750 
Q 3056 4750 3426 4639 
Q 3797 4528 4122 4306 
z
" transform="scale(0.015625)"/>
       <path id="DejaVuSans-4d" d="M 628 4666 
L 1569 4666 
L 2759 1491 
L 3956 4666 
L 4897 4666 
L 4897 0 
L 4281 0 
L 4281 4097 
L 3078 897 
L 2444 897 
L 1241 4097 
L 1241 0 
L 628 0 
L 628 4666 
z
" transform="scale(0.015625)"/>
      </defs>
      <use xlink:href="#DejaVuSans-45"/>
      <use xlink:href="#DejaVuSans-73" x="63.183594"/>
      <use xlink:href="#DejaVuSans-74" x="115.283203"/>
      <use xlink:href="#DejaVuSans-69" x="154.492188"/>
      <use xlink:href="#DejaVuSans-6d" x="182.275391"/>
      <use xlink:href="#DejaVuSans-61" x="279.6875"/>
      <use xlink:href="#DejaVuSans-74" x="340.966797"/>
      <use xlink:href="#DejaVuSans-65" x="380.175781"/>
      <use xlink:href="#DejaVuSans-64" x="441.699219"/>
      <use xlink:href="#DejaVuSans-20" x="505.175781"/>
      <use xlink:href="#DejaVuSans-43" x="536.962891"/>
      <use xlink:href="#DejaVuSans-6f" x="606.787109"/>
      <use xlink:href="#DejaVuSans-6e" x="667.96875"/>
      <use xlink:href="#DejaVuSans-63" x="731.347656"/>
      <use xlink:href="#DejaVuSans-65" x="786.328125"/>
      <use xlink:href="#DejaVuSans-6e" x="847.851562"/>
      <use xlink:href="#DejaVuSans-74" x="911.230469"/>
      <use xlink:href="#DejaVuSans-72" x="950.439453"/>
      <use xlink:href="#DejaVuSans-61" x="991.552734"/>
      <use xlink:href="#DejaVuSans-74" x="1052.832031"/>
      <use xlink:href="#DejaVuSans-69" x="1092.041016"/>
      <use xlink:href="#DejaVuSans-6f" x="1119.824219"/>
      <use xlink:href="#DejaVuSans-6e" x="1181.005859"/>
      <use xlink:href="#DejaVuSans-20" x="1244.384766"/>
      <use xlink:href="#DejaVuSans-5b" x="1276.171875"/>
      <use xlink:href="#DejaVuSans-6d" x="1315.185547"/>
      <use xlink:href="#DejaVuSans-4d" x="1412.597656"/>
      <use xlink:href="#DejaVuSans-5d" x="1498.876953"/>
     </g>
    </g>
   </g>
   <g id="line2d_9">
    <path d="M 100.559375 376.310268 
L 102.20786 376.330656 
L 103.856345 376.379818 
L 105.50483 376.439911 
L 107.153314 376.497529 
L 108.801799 376.544168 
L 110.450284 376.574466 
L 112.098769 376.597626 
L 113.747254 376.627145 
L 115.395739 376.664424 
L 117.044223 376.694496 
L 118.692708 376.70207 
L 120.341193 376.677215 
L 121.989678 376.612299 
L 123.638163 376.513531 
L 125.286648 376.410093 
L 126.935133 376.330879 
L 128.583617 376.284727 
L 130.232102 376.270671 
L 131.880587 376.285791 
L 133.529072 376.323301 
L 135.177557 376.374985 
L 136.826042 376.422442 
L 138.474527 376.441169 
L 140.123011 376.417371 
L 141.771496 376.364702 
L 143.419981 376.301191 
L 145.068466 376.245936 
L 146.716951 376.218827 
L 148.365436 376.230224 
L 150.01392 376.260141 
L 151.662405 376.283828 
L 153.31089 376.300882 
L 154.959375 376.332918 
L 156.60786 376.392283 
L 158.256345 376.451064 
L 159.90483 376.472336 
L 161.553314 376.448304 
L 163.201799 376.403383 
L 164.850284 376.360063 
L 166.498769 376.322722 
L 168.147254 376.289942 
L 169.795739 376.256123 
L 171.444223 376.210003 
L 173.092708 376.142666 
L 174.741193 376.062718 
L 176.389678 375.985766 
L 178.038163 375.935036 
L 179.686648 375.946387 
L 181.335133 376.046547 
L 182.983617 376.177968 
L 184.632102 376.242319 
L 186.280587 376.195457 
L 187.929072 376.104784 
L 189.577557 376.045231 
L 191.226042 376.026724 
L 192.874527 376.020067 
L 194.523011 376.009204 
L 196.171496 376.012855 
L 197.819981 376.053968 
L 199.468466 376.138314 
L 201.116951 376.258962 
L 202.765436 376.402676 
L 204.41392 376.5371 
L 206.062405 376.627643 
L 207.71089 376.669755 
L 209.359375 376.686062 
L 211.00786 376.695341 
L 212.656345 376.697061 
L 214.30483 376.686062 
L 215.953314 376.662637 
L 217.601799 376.633109 
L 219.250284 376.601636 
L 220.898769 376.559895 
L 222.547254 376.496109 
L 224.195739 376.41852 
L 225.844223 376.362454 
L 227.492708 376.356745 
L 229.141193 376.376479 
L 230.789678 376.37597 
L 232.438163 376.336326 
L 234.086648 376.283219 
L 235.735133 376.24279 
L 237.383617 376.21069 
L 239.032102 376.167801 
L 240.680587 376.112105 
L 242.329072 376.076818 
L 243.977557 376.09541 
L 245.626042 376.158303 
L 247.274527 376.230008 
L 248.923011 376.281243 
L 250.571496 376.299422 
L 252.219981 376.275572 
L 253.868466 376.214798 
L 255.516951 376.132614 
L 257.165436 376.051116 
L 258.81392 376.012546 
L 260.462405 376.059318 
L 262.11089 376.159887 
L 263.759375 376.21582 
" clip-path="url(#p2a9f7c65e9)" style="fill: none; stroke: #1f77b4; stroke-width: 3; stroke-linecap: square"/>
   </g>
   <g id="line2d_10">
    <path d="M 100.559375 355.00875 
L 102.20786 355.323128 
L 103.856345 356.049105 
L 105.50483 356.867179 
L 107.153314 357.630699 
L 108.801799 358.38412 
L 110.450284 359.162777 
L 112.098769 359.906139 
L 113.747254 360.525367 
L 115.395739 361.009786 
L 117.044223 361.454488 
L 118.692708 361.940277 
L 120.341193 362.408788 
L 121.989678 362.747944 
L 123.638163 362.920024 
L 125.286648 363.010976 
L 126.935133 363.109911 
L 128.583617 363.236566 
L 130.232102 363.376932 
L 131.880587 363.536221 
L 133.529072 363.759486 
L 135.177557 364.087773 
L 136.826042 364.467956 
L 138.474527 364.790311 
L 140.123011 364.999119 
L 141.771496 365.177943 
L 143.419981 365.423393 
L 145.068466 365.708598 
L 146.716951 365.915421 
L 148.365436 365.972786 
L 150.01392 365.966071 
L 151.662405 366.007434 
L 153.31089 366.127051 
L 154.959375 366.280944 
L 156.60786 366.429729 
L 158.256345 366.563092 
L 159.90483 366.677532 
L 161.553314 366.756802 
L 163.201799 366.770573 
L 164.850284 366.695156 
L 166.498769 366.544028 
L 168.147254 366.342489 
L 169.795739 366.12168 
L 171.444223 365.920638 
L 173.092708 365.775456 
L 174.741193 365.699852 
L 176.389678 365.698663 
L 178.038163 365.771046 
L 179.686648 365.906753 
L 181.335133 366.089545 
L 182.983617 366.261457 
L 184.632102 366.344429 
L 186.280587 366.300932 
L 187.929072 366.176716 
L 189.577557 366.025406 
L 191.226042 365.875964 
L 192.874527 365.742442 
L 194.523011 365.616902 
L 196.171496 365.436007 
L 197.819981 365.137131 
L 199.468466 364.789907 
L 201.116951 364.561704 
L 202.765436 364.54674 
L 204.41392 364.599329 
L 206.062405 364.533851 
L 207.71089 364.312511 
L 209.359375 364.031216 
L 211.00786 363.764696 
L 212.656345 363.483701 
L 214.30483 363.134436 
L 215.953314 362.703376 
L 217.601799 362.221516 
L 219.250284 361.712853 
L 220.898769 361.154475 
L 222.547254 360.510072 
L 224.195739 359.800929 
L 225.844223 359.126256 
L 227.492708 358.56718 
L 229.141193 358.054008 
L 230.789678 357.458623 
L 232.438163 356.717525 
L 234.086648 355.87474 
L 235.735133 354.97495 
L 237.383617 353.985425 
L 239.032102 352.836047 
L 240.680587 351.517019 
L 242.329072 350.142606 
L 243.977557 348.829131 
L 245.626042 347.553659 
L 247.274527 346.209481 
L 248.923011 344.731839 
L 250.571496 343.165569 
L 252.219981 341.570259 
L 253.868466 339.971522 
L 255.516951 338.369836 
L 257.165436 336.696436 
L 258.81392 334.664244 
L 260.462405 331.990336 
L 262.11089 329.308784 
L 263.759375 328.083074 
" clip-path="url(#p2a9f7c65e9)" style="fill: none; stroke: #ff7f0e; stroke-width: 3; stroke-linecap: square"/>
   </g>
   <g id="line2d_11">
    <path d="M 100.559375 219.256444 
L 102.20786 221.487813 
L 103.856345 226.339462 
L 105.50483 231.108026 
L 107.153314 234.764244 
L 108.801799 238.129732 
L 110.450284 241.931092 
L 112.098769 245.932891 
L 113.747254 249.60247 
L 115.395739 252.633597 
L 117.044223 255.02649 
L 118.692708 256.84635 
L 120.341193 258.434454 
L 121.989678 260.237081 
L 123.638163 262.440386 
L 125.286648 264.798213 
L 126.935133 267.051517 
L 128.583617 269.168924 
L 130.232102 271.229853 
L 131.880587 273.259755 
L 133.529072 275.172014 
L 135.177557 276.873219 
L 136.826042 278.343457 
L 138.474527 279.607135 
L 140.123011 280.711416 
L 141.771496 281.759777 
L 143.419981 282.858658 
L 145.068466 284.032026 
L 146.716951 285.242882 
L 148.365436 286.460895 
L 150.01392 287.681468 
L 151.662405 288.904869 
L 153.31089 290.126644 
L 154.959375 291.338069 
L 156.60786 292.507567 
L 158.256345 293.512753 
L 159.90483 294.215057 
L 161.553314 294.656716 
L 163.201799 295.079868 
L 164.850284 295.657352 
L 166.498769 296.160438 
L 168.147254 296.240156 
L 169.795739 295.805317 
L 171.444223 295.113517 
L 173.092708 294.435892 
L 174.741193 293.971926 
L 176.389678 293.890819 
L 178.038163 294.208495 
L 179.686648 294.686507 
L 181.335133 295.080497 
L 182.983617 295.293721 
L 184.632102 295.301559 
L 186.280587 295.087146 
L 187.929072 294.64849 
L 189.577557 293.992324 
L 191.226042 293.198606 
L 192.874527 292.39124 
L 194.523011 291.630493 
L 196.171496 290.813279 
L 197.819981 289.81458 
L 199.468466 288.560735 
L 201.116951 287.016076 
L 202.765436 285.222588 
L 204.41392 283.466359 
L 206.062405 282.056489 
L 207.71089 280.81133 
L 209.359375 279.105356 
L 211.00786 276.472556 
L 212.656345 273.148963 
L 214.30483 269.539395 
L 215.953314 265.86208 
L 217.601799 262.128949 
L 219.250284 258.358706 
L 220.898769 254.65804 
L 222.547254 251.157334 
L 224.195739 247.81757 
L 225.844223 244.370551 
L 227.492708 240.556022 
L 229.141193 236.268338 
L 230.789678 231.464794 
L 232.438163 226.258076 
L 234.086648 221.018615 
L 235.735133 216.071405 
L 237.383617 211.171856 
L 239.032102 205.79964 
L 240.680587 199.785596 
L 242.329072 193.68358 
L 243.977557 188.093775 
L 245.626042 183.168742 
L 247.274527 178.79142 
L 248.923011 174.831363 
L 250.571496 171.133522 
L 252.219981 167.555066 
L 253.868466 164.179539 
L 255.516951 161.25778 
L 257.165436 158.912214 
L 258.81392 156.844433 
L 260.462405 154.705577 
L 262.11089 152.784573 
L 263.759375 151.947219 
" clip-path="url(#p2a9f7c65e9)" style="fill: none; stroke: #2ca02c; stroke-width: 3; stroke-linecap: square"/>
   </g>
   <g id="line2d_12">
    <path d="M 100.559375 147.573059 
L 102.20786 148.434722 
L 103.856345 150.336252 
L 105.50483 152.273191 
L 107.153314 153.81642 
L 108.801799 155.172902 
L 110.450284 156.540767 
L 112.098769 157.907613 
L 113.747254 159.196845 
L 115.395739 160.417638 
L 117.044223 161.695235 
L 118.692708 163.146326 
L 120.341193 164.780395 
L 121.989678 166.563695 
L 123.638163 168.384561 
L 125.286648 170.002132 
L 126.935133 171.223405 
L 128.583617 172.345696 
L 130.232102 173.903514 
L 131.880587 176.102911 
L 133.529072 178.47397 
L 135.177557 180.514466 
L 136.826042 182.257358 
L 138.474527 184.057509 
L 140.123011 186.091837 
L 141.771496 188.073543 
L 143.419981 189.666493 
L 145.068466 190.862515 
L 146.716951 191.895856 
L 148.365436 192.968278 
L 150.01392 194.160172 
L 151.662405 195.517139 
L 153.31089 196.877692 
L 154.959375 197.893032 
L 156.60786 198.360645 
L 158.256345 198.690168 
L 159.90483 199.42765 
L 161.553314 200.657816 
L 163.201799 201.955352 
L 164.850284 202.92377 
L 166.498769 203.444997 
L 168.147254 203.49308 
L 169.795739 203.236794 
L 171.444223 203.1083 
L 173.092708 203.480272 
L 174.741193 204.226096 
L 176.389678 205.024539 
L 178.038163 205.680804 
L 179.686648 206.210801 
L 181.335133 206.650775 
L 182.983617 207.040799 
L 184.632102 207.422091 
L 186.280587 207.728995 
L 187.929072 207.676953 
L 189.577557 207.006152 
L 191.226042 206.003475 
L 192.874527 205.284286 
L 194.523011 205.136593 
L 196.171496 205.004541 
L 197.819981 204.239532 
L 199.468466 202.747935 
L 201.116951 200.846345 
L 202.765436 198.815984 
L 204.41392 196.795023 
L 206.062405 194.876013 
L 207.71089 192.818236 
L 209.359375 190.079541 
L 211.00786 186.338642 
L 212.656345 182.201169 
L 214.30483 178.482215 
L 215.953314 175.378965 
L 217.601799 172.405442 
L 219.250284 169.154818 
L 220.898769 165.797589 
L 222.547254 162.681909 
L 224.195739 159.989734 
L 225.844223 157.678099 
L 227.492708 155.677744 
L 229.141193 153.85342 
L 230.789678 152.045008 
L 232.438163 150.171116 
L 234.086648 148.281158 
L 235.735133 146.431717 
L 237.383617 144.637193 
L 239.032102 142.891357 
L 240.680587 141.183025 
L 242.329072 139.491156 
L 243.977557 137.797492 
L 245.626042 136.126072 
L 247.274527 134.526356 
L 248.923011 133.025467 
L 250.571496 131.592835 
L 252.219981 130.192569 
L 253.868466 128.841099 
L 255.516951 127.593518 
L 257.165436 126.468137 
L 258.81392 125.363422 
L 260.462405 124.170337 
L 262.11089 123.094135 
L 263.759375 122.624341 
" clip-path="url(#p2a9f7c65e9)" style="fill: none; stroke: #d62728; stroke-width: 3; stroke-linecap: square"/>
   </g>
   <g id="line2d_13">
    <path d="M 100.559375 103.002246 
L 102.20786 103.679001 
L 103.856345 105.146202 
L 105.50483 106.577359 
L 107.153314 107.648453 
L 108.801799 108.59099 
L 110.450284 109.617965 
L 112.098769 110.704094 
L 113.747254 111.750161 
L 115.395739 112.699641 
L 117.044223 113.553802 
L 118.692708 114.318045 
L 120.341193 114.997989 
L 121.989678 115.599466 
L 123.638163 116.137931 
L 125.286648 116.644808 
L 126.935133 117.148901 
L 128.583617 117.645327 
L 130.232102 118.112834 
L 131.880587 118.541951 
L 133.529072 118.94757 
L 135.177557 119.346268 
L 136.826042 119.740881 
L 138.474527 120.12597 
L 140.123011 120.498155 
L 141.771496 120.85957 
L 143.419981 121.21331 
L 145.068466 121.563882 
L 146.716951 121.916829 
L 148.365436 122.277357 
L 150.01392 122.649518 
L 151.662405 123.036805 
L 153.31089 123.43635 
L 154.959375 123.839531 
L 156.60786 124.238901 
L 158.256345 124.632539 
L 159.90483 125.019257 
L 161.553314 125.379809 
L 163.201799 125.674985 
L 164.850284 125.875405 
L 166.498769 126.00646 
L 168.147254 126.110849 
L 169.795739 126.23495 
L 171.444223 126.430106 
L 173.092708 126.73949 
L 174.741193 127.151867 
L 176.389678 127.634596 
L 178.038163 128.154591 
L 179.686648 128.678114 
L 181.335133 129.176988 
L 182.983617 129.668958 
L 184.632102 130.193932 
L 186.280587 130.753308 
L 187.929072 131.269303 
L 189.577557 131.661461 
L 191.226042 131.923755 
L 192.874527 132.094948 
L 194.523011 132.195639 
L 196.171496 132.198689 
L 197.819981 132.071197 
L 199.468466 131.804399 
L 201.116951 131.407378 
L 202.765436 130.895849 
L 204.41392 130.305291 
L 206.062405 129.672816 
L 207.71089 128.991327 
L 209.359375 128.213741 
L 211.00786 127.300519 
L 212.656345 126.248062 
L 214.30483 125.062385 
L 215.953314 123.767035 
L 217.601799 122.404949 
L 219.250284 121.017326 
L 220.898769 119.631561 
L 222.547254 118.270392 
L 224.195739 116.943103 
L 225.844223 115.640784 
L 227.492708 114.355117 
L 229.141193 113.089835 
L 230.789678 111.853139 
L 232.438163 110.63353 
L 234.086648 109.386787 
L 235.735133 108.073807 
L 237.383617 106.722468 
L 239.032102 105.39319 
L 240.680587 104.122293 
L 242.329072 102.896287 
L 243.977557 101.698782 
L 245.626042 100.547345 
L 247.274527 99.47993 
L 248.923011 98.507211 
L 250.571496 97.569802 
L 252.219981 96.603207 
L 253.868466 95.625585 
L 255.516951 94.716173 
L 257.165436 93.915411 
L 258.81392 93.135795 
L 260.462405 92.277288 
L 262.11089 91.487956 
L 263.759375 91.140276 
" clip-path="url(#p2a9f7c65e9)" style="fill: none; stroke: #9467bd; stroke-width: 3; stroke-linecap: square"/>
   </g>
   <g id="patch_3">
    <path d="M 94.559375 379.434375 
L 94.559375 19.434375 
" style="fill: none; stroke: #000000; stroke-width: 2; stroke-linejoin: miter; stroke-linecap: square"/>
   </g>
   <g id="patch_4">
    <path d="M 382.559375 379.434375 
L 382.559375 19.434375 
" style="fill: none; stroke: #000000; stroke-width: 2; stroke-linejoin: miter; stroke-linecap: square"/>
   </g>
   <g id="patch_5">
    <path d="M 94.559375 379.434375 
L 382.559375 379.434375 
" style="fill: none; stroke: #000000; stroke-width: 2; stroke-linejoin: miter; stroke-linecap: square"/>
   </g>
   <g id="patch_6">
    <path d="M 94.559375 19.434375 
L 382.559375 19.434375 
" style="fill: none; stroke: #000000; stroke-width: 2; stroke-linejoin: miter; stroke-linecap: square"/>
   </g>
   <g id="text_11">
    <!-- 7 sec -->
    <g style="fill: #1f77b4" transform="translate(290.157422 376.215818)scale(0.25 -0.25)">
     <defs>
      <path id="DejaVuSans-37" d="M 525 4666 
L 3525 4666 
L 3525 4397 
L 1831 0 
L 1172 0 
L 2766 4134 
L 525 4134 
L 525 4666 
z
" transform="scale(0.015625)"/>
     </defs>
     <use xlink:href="#DejaVuSans-37"/>
     <use xlink:href="#DejaVuSans-20" x="63.623047"/>
     <use xlink:href="#DejaVuSans-73" x="95.410156"/>
     <use xlink:href="#DejaVuSans-65" x="147.509766"/>
     <use xlink:href="#DejaVuSans-63" x="209.033203"/>
    </g>
   </g>
   <g id="text_12">
    <!-- 367 sec -->
    <g style="fill: #ff7f0e" transform="translate(274.251172 328.083071)scale(0.25 -0.25)">
     <defs>
      <path id="DejaVuSans-33" d="M 2597 2516 
Q 3050 2419 3304 2112 
Q 3559 1806 3559 1356 
Q 3559 666 3084 287 
Q 2609 -91 1734 -91 
Q 1441 -91 1130 -33 
Q 819 25 488 141 
L 488 750 
Q 750 597 1062 519 
Q 1375 441 1716 441 
Q 2309 441 2620 675 
Q 2931 909 2931 1356 
Q 2931 1769 2642 2001 
Q 2353 2234 1838 2234 
L 1294 2234 
L 1294 2753 
L 1863 2753 
Q 2328 2753 2575 2939 
Q 2822 3125 2822 3475 
Q 2822 3834 2567 4026 
Q 2313 4219 1838 4219 
Q 1578 4219 1281 4162 
Q 984 4106 628 3988 
L 628 4550 
Q 988 4650 1302 4700 
Q 1616 4750 1894 4750 
Q 2613 4750 3031 4423 
Q 3450 4097 3450 3541 
Q 3450 3153 3228 2886 
Q 3006 2619 2597 2516 
z
" transform="scale(0.015625)"/>
     </defs>
     <use xlink:href="#DejaVuSans-33"/>
     <use xlink:href="#DejaVuSans-36" x="63.623047"/>
     <use xlink:href="#DejaVuSans-37" x="127.246094"/>
     <use xlink:href="#DejaVuSans-20" x="190.869141"/>
     <use xlink:href="#DejaVuSans-73" x="222.65625"/>
     <use xlink:href="#DejaVuSans-65" x="274.755859"/>
     <use xlink:href="#DejaVuSans-63" x="336.279297"/>
    </g>
   </g>
   <g id="text_13">
    <!-- 847 sec -->
    <g style="fill: #2ca02c" transform="translate(274.251172 151.947216)scale(0.25 -0.25)">
     <use xlink:href="#DejaVuSans-38"/>
     <use xlink:href="#DejaVuSans-34" x="63.623047"/>
     <use xlink:href="#DejaVuSans-37" x="127.246094"/>
     <use xlink:href="#DejaVuSans-20" x="190.869141"/>
     <use xlink:href="#DejaVuSans-73" x="222.65625"/>
     <use xlink:href="#DejaVuSans-65" x="274.755859"/>
     <use xlink:href="#DejaVuSans-63" x="336.279297"/>
    </g>
   </g>
   <g id="text_14">
    <!-- 1327 sec -->
    <g style="fill: #d62728" transform="translate(266.298047 122.624338)scale(0.25 -0.25)">
     <defs>
      <path id="DejaVuSans-31" d="M 794 531 
L 1825 531 
L 1825 4091 
L 703 3866 
L 703 4441 
L 1819 4666 
L 2450 4666 
L 2450 531 
L 3481 531 
L 3481 0 
L 794 0 
L 794 531 
z
" transform="scale(0.015625)"/>
     </defs>
     <use xlink:href="#DejaVuSans-31"/>
     <use xlink:href="#DejaVuSans-33" x="63.623047"/>
     <use xlink:href="#DejaVuSans-32" x="127.246094"/>
     <use xlink:href="#DejaVuSans-37" x="190.869141"/>
     <use xlink:href="#DejaVuSans-20" x="254.492188"/>
     <use xlink:href="#DejaVuSans-73" x="286.279297"/>
     <use xlink:href="#DejaVuSans-65" x="338.378906"/>
     <use xlink:href="#DejaVuSans-63" x="399.902344"/>
    </g>
   </g>
   <g id="text_15">
    <!-- 1807 sec -->
    <g style="fill: #9467bd" transform="translate(266.298047 91.140274)scale(0.25 -0.25)">
     <use xlink:href="#DejaVuSans-31"/>
     <use xlink:href="#DejaVuSans-38" x="63.623047"/>
     <use xlink:href="#DejaVuSans-30" x="127.246094"/>
     <use xlink:href="#DejaVuSans-37" x="190.869141"/>
     <use xlink:href="#DejaVuSans-20" x="254.492188"/>
     <use xlink:href="#DejaVuSans-73" x="286.279297"/>
     <use xlink:href="#DejaVuSans-65" x="338.378906"/>
     <use xlink:href="#DejaVuSans-63" x="399.902344"/>
    </g>
   </g>
  </g>
  <g id="axes_2">
   <g id="matplotlib.axis_3">
    <g id="ytick_6">
     <g id="line2d_14">
      <defs>
       <path id="ma61193c223" d="M 0 0 
L -4 0 
" style="stroke: #000000; stroke-width: 2"/>
      </defs>
      <g>
       <use xlink:href="#ma61193c223" x="382.559375" y="379.434375" style="stroke: #000000; stroke-width: 2"/>
      </g>
     </g>
     <g id="text_16">
      <!-- 0.00 -->
      <g transform="translate(386.059375 388.932422)scale(0.25 -0.25)">
       <use xlink:href="#DejaVuSans-30"/>
       <use xlink:href="#DejaVuSans-2e" x="63.623047"/>
       <use xlink:href="#DejaVuSans-30" x="95.410156"/>
       <use xlink:href="#DejaVuSans-30" x="159.033203"/>
      </g>
     </g>
    </g>
    <g id="ytick_7">
     <g id="line2d_15">
      <g>
       <use xlink:href="#ma61193c223" x="382.559375" y="326.20206" style="stroke: #000000; stroke-width: 2"/>
      </g>
     </g>
     <g id="text_17">
      <!-- 0.01 -->
      <g transform="translate(386.059375 335.700107)scale(0.25 -0.25)">
       <use xlink:href="#DejaVuSans-30"/>
       <use xlink:href="#DejaVuSans-2e" x="63.623047"/>
       <use xlink:href="#DejaVuSans-30" x="95.410156"/>
       <use xlink:href="#DejaVuSans-31" x="159.033203"/>
      </g>
     </g>
    </g>
    <g id="ytick_8">
     <g id="line2d_16">
      <g>
       <use xlink:href="#ma61193c223" x="382.559375" y="272.969746" style="stroke: #000000; stroke-width: 2"/>
      </g>
     </g>
     <g id="text_18">
      <!-- 0.02 -->
      <g transform="translate(386.059375 282.467793)scale(0.25 -0.25)">
       <use xlink:href="#DejaVuSans-30"/>
       <use xlink:href="#DejaVuSans-2e" x="63.623047"/>
       <use xlink:href="#DejaVuSans-30" x="95.410156"/>
       <use xlink:href="#DejaVuSans-32" x="159.033203"/>
      </g>
     </g>
    </g>
    <g id="ytick_9">
     <g id="line2d_17">
      <g>
       <use xlink:href="#ma61193c223" x="382.559375" y="219.737431" style="stroke: #000000; stroke-width: 2"/>
      </g>
     </g>
     <g id="text_19">
      <!-- 0.03 -->
      <g transform="translate(386.059375 229.235478)scale(0.25 -0.25)">
       <use xlink:href="#DejaVuSans-30"/>
       <use xlink:href="#DejaVuSans-2e" x="63.623047"/>
       <use xlink:href="#DejaVuSans-30" x="95.410156"/>
       <use xlink:href="#DejaVuSans-33" x="159.033203"/>
      </g>
     </g>
    </g>
    <g id="ytick_10">
     <g id="line2d_18">
      <g>
       <use xlink:href="#ma61193c223" x="382.559375" y="166.505116" style="stroke: #000000; stroke-width: 2"/>
      </g>
     </g>
     <g id="text_20">
      <!-- 0.04 -->
      <g transform="translate(386.059375 176.003163)scale(0.25 -0.25)">
       <use xlink:href="#DejaVuSans-30"/>
       <use xlink:href="#DejaVuSans-2e" x="63.623047"/>
       <use xlink:href="#DejaVuSans-30" x="95.410156"/>
       <use xlink:href="#DejaVuSans-34" x="159.033203"/>
      </g>
     </g>
    </g>
    <g id="ytick_11">
     <g id="line2d_19">
      <g>
       <use xlink:href="#ma61193c223" x="382.559375" y="113.272802" style="stroke: #000000; stroke-width: 2"/>
      </g>
     </g>
     <g id="text_21">
      <!-- 0.05 -->
      <g transform="translate(386.059375 122.770849)scale(0.25 -0.25)">
       <defs>
        <path id="DejaVuSans-35" d="M 691 4666 
L 3169 4666 
L 3169 4134 
L 1269 4134 
L 1269 2991 
Q 1406 3038 1543 3061 
Q 1681 3084 1819 3084 
Q 2600 3084 3056 2656 
Q 3513 2228 3513 1497 
Q 3513 744 3044 326 
Q 2575 -91 1722 -91 
Q 1428 -91 1123 -41 
Q 819 9 494 109 
L 494 744 
Q 775 591 1075 516 
Q 1375 441 1709 441 
Q 2250 441 2565 725 
Q 2881 1009 2881 1497 
Q 2881 1984 2565 2268 
Q 2250 2553 1709 2553 
Q 1456 2553 1204 2497 
Q 953 2441 691 2322 
L 691 4666 
z
" transform="scale(0.015625)"/>
       </defs>
       <use xlink:href="#DejaVuSans-30"/>
       <use xlink:href="#DejaVuSans-2e" x="63.623047"/>
       <use xlink:href="#DejaVuSans-30" x="95.410156"/>
       <use xlink:href="#DejaVuSans-35" x="159.033203"/>
      </g>
     </g>
    </g>
    <g id="ytick_12">
     <g id="line2d_20">
      <g>
       <use xlink:href="#ma61193c223" x="382.559375" y="60.040487" style="stroke: #000000; stroke-width: 2"/>
      </g>
     </g>
     <g id="text_22">
      <!-- 0.06 -->
      <g transform="translate(386.059375 69.538534)scale(0.25 -0.25)">
       <use xlink:href="#DejaVuSans-30"/>
       <use xlink:href="#DejaVuSans-2e" x="63.623047"/>
       <use xlink:href="#DejaVuSans-30" x="95.410156"/>
       <use xlink:href="#DejaVuSans-36" x="159.033203"/>
      </g>
     </g>
    </g>
    <g id="text_23">
     <!-- Estimated DNA duplexes/UCN -->
     <g transform="translate(464.719531 385.442187)rotate(-90)scale(0.25 -0.25)">
      <defs>
       <path id="DejaVuSans-44" d="M 1259 4147 
L 1259 519 
L 2022 519 
Q 2988 519 3436 956 
Q 3884 1394 3884 2338 
Q 3884 3275 3436 3711 
Q 2988 4147 2022 4147 
L 1259 4147 
z
M 628 4666 
L 1925 4666 
Q 3281 4666 3915 4102 
Q 4550 3538 4550 2338 
Q 4550 1131 3912 565 
Q 3275 0 1925 0 
L 628 0 
L 628 4666 
z
" transform="scale(0.015625)"/>
       <path id="DejaVuSans-4e" d="M 628 4666 
L 1478 4666 
L 3547 763 
L 3547 4666 
L 4159 4666 
L 4159 0 
L 3309 0 
L 1241 3903 
L 1241 0 
L 628 0 
L 628 4666 
z
" transform="scale(0.015625)"/>
       <path id="DejaVuSans-41" d="M 2188 4044 
L 1331 1722 
L 3047 1722 
L 2188 4044 
z
M 1831 4666 
L 2547 4666 
L 4325 0 
L 3669 0 
L 3244 1197 
L 1141 1197 
L 716 0 
L 50 0 
L 1831 4666 
z
" transform="scale(0.015625)"/>
       <path id="DejaVuSans-75" d="M 544 1381 
L 544 3500 
L 1119 3500 
L 1119 1403 
Q 1119 906 1312 657 
Q 1506 409 1894 409 
Q 2359 409 2629 706 
Q 2900 1003 2900 1516 
L 2900 3500 
L 3475 3500 
L 3475 0 
L 2900 0 
L 2900 538 
Q 2691 219 2414 64 
Q 2138 -91 1772 -91 
Q 1169 -91 856 284 
Q 544 659 544 1381 
z
M 1991 3584 
L 1991 3584 
z
" transform="scale(0.015625)"/>
       <path id="DejaVuSans-70" d="M 1159 525 
L 1159 -1331 
L 581 -1331 
L 581 3500 
L 1159 3500 
L 1159 2969 
Q 1341 3281 1617 3432 
Q 1894 3584 2278 3584 
Q 2916 3584 3314 3078 
Q 3713 2572 3713 1747 
Q 3713 922 3314 415 
Q 2916 -91 2278 -91 
Q 1894 -91 1617 61 
Q 1341 213 1159 525 
z
M 3116 1747 
Q 3116 2381 2855 2742 
Q 2594 3103 2138 3103 
Q 1681 3103 1420 2742 
Q 1159 2381 1159 1747 
Q 1159 1113 1420 752 
Q 1681 391 2138 391 
Q 2594 391 2855 752 
Q 3116 1113 3116 1747 
z
" transform="scale(0.015625)"/>
       <path id="DejaVuSans-6c" d="M 603 4863 
L 1178 4863 
L 1178 0 
L 603 0 
L 603 4863 
z
" transform="scale(0.015625)"/>
       <path id="DejaVuSans-78" d="M 3513 3500 
L 2247 1797 
L 3578 0 
L 2900 0 
L 1881 1375 
L 863 0 
L 184 0 
L 1544 1831 
L 300 3500 
L 978 3500 
L 1906 2253 
L 2834 3500 
L 3513 3500 
z
" transform="scale(0.015625)"/>
       <path id="DejaVuSans-2f" d="M 1625 4666 
L 2156 4666 
L 531 -594 
L 0 -594 
L 1625 4666 
z
" transform="scale(0.015625)"/>
       <path id="DejaVuSans-55" d="M 556 4666 
L 1191 4666 
L 1191 1831 
Q 1191 1081 1462 751 
Q 1734 422 2344 422 
Q 2950 422 3222 751 
Q 3494 1081 3494 1831 
L 3494 4666 
L 4128 4666 
L 4128 1753 
Q 4128 841 3676 375 
Q 3225 -91 2344 -91 
Q 1459 -91 1007 375 
Q 556 841 556 1753 
L 556 4666 
z
" transform="scale(0.015625)"/>
      </defs>
      <use xlink:href="#DejaVuSans-45"/>
      <use xlink:href="#DejaVuSans-73" x="63.183594"/>
      <use xlink:href="#DejaVuSans-74" x="115.283203"/>
      <use xlink:href="#DejaVuSans-69" x="154.492188"/>
      <use xlink:href="#DejaVuSans-6d" x="182.275391"/>
      <use xlink:href="#DejaVuSans-61" x="279.6875"/>
      <use xlink:href="#DejaVuSans-74" x="340.966797"/>
      <use xlink:href="#DejaVuSans-65" x="380.175781"/>
      <use xlink:href="#DejaVuSans-64" x="441.699219"/>
      <use xlink:href="#DejaVuSans-20" x="505.175781"/>
      <use xlink:href="#DejaVuSans-44" x="536.962891"/>
      <use xlink:href="#DejaVuSans-4e" x="613.964844"/>
      <use xlink:href="#DejaVuSans-41" x="688.769531"/>
      <use xlink:href="#DejaVuSans-20" x="757.177734"/>
      <use xlink:href="#DejaVuSans-64" x="788.964844"/>
      <use xlink:href="#DejaVuSans-75" x="852.441406"/>
      <use xlink:href="#DejaVuSans-70" x="915.820312"/>
      <use xlink:href="#DejaVuSans-6c" x="979.296875"/>
      <use xlink:href="#DejaVuSans-65" x="1007.080078"/>
      <use xlink:href="#DejaVuSans-78" x="1066.853516"/>
      <use xlink:href="#DejaVuSans-65" x="1122.908203"/>
      <use xlink:href="#DejaVuSans-73" x="1184.431641"/>
      <use xlink:href="#DejaVuSans-2f" x="1236.53125"/>
      <use xlink:href="#DejaVuSans-55" x="1270.222656"/>
      <use xlink:href="#DejaVuSans-43" x="1343.416016"/>
      <use xlink:href="#DejaVuSans-4e" x="1413.240234"/>
     </g>
    </g>
   </g>
   <g id="line2d_21">
    <path d="M 100.559375 376.310268 
L 102.20786 376.330656 
L 103.856345 376.379818 
L 105.50483 376.439911 
L 107.153314 376.497529 
L 108.801799 376.544168 
L 110.450284 376.574466 
L 112.098769 376.597626 
L 113.747254 376.627145 
L 115.395739 376.664424 
L 117.044223 376.694496 
L 118.692708 376.70207 
L 120.341193 376.677215 
L 121.989678 376.612299 
L 123.638163 376.513531 
L 125.286648 376.410093 
L 126.935133 376.330879 
L 128.583617 376.284727 
L 130.232102 376.270671 
L 131.880587 376.285791 
L 133.529072 376.323301 
L 135.177557 376.374985 
L 136.826042 376.422442 
L 138.474527 376.441169 
L 140.123011 376.417371 
L 141.771496 376.364702 
L 143.419981 376.301191 
L 145.068466 376.245936 
L 146.716951 376.218827 
L 148.365436 376.230224 
L 150.01392 376.260141 
L 151.662405 376.283828 
L 153.31089 376.300882 
L 154.959375 376.332918 
L 156.60786 376.392283 
L 158.256345 376.451064 
L 159.90483 376.472336 
L 161.553314 376.448304 
L 163.201799 376.403383 
L 164.850284 376.360063 
L 166.498769 376.322722 
L 168.147254 376.289942 
L 169.795739 376.256123 
L 171.444223 376.210003 
L 173.092708 376.142666 
L 174.741193 376.062718 
L 176.389678 375.985766 
L 178.038163 375.935036 
L 179.686648 375.946387 
L 181.335133 376.046547 
L 182.983617 376.177968 
L 184.632102 376.242319 
L 186.280587 376.195457 
L 187.929072 376.104784 
L 189.577557 376.045231 
L 191.226042 376.026724 
L 192.874527 376.020067 
L 194.523011 376.009204 
L 196.171496 376.012855 
L 197.819981 376.053968 
L 199.468466 376.138314 
L 201.116951 376.258962 
L 202.765436 376.402676 
L 204.41392 376.5371 
L 206.062405 376.627643 
L 207.71089 376.669755 
L 209.359375 376.686062 
L 211.00786 376.695341 
L 212.656345 376.697061 
L 214.30483 376.686062 
L 215.953314 376.662637 
L 217.601799 376.633109 
L 219.250284 376.601636 
L 220.898769 376.559895 
L 222.547254 376.496109 
L 224.195739 376.41852 
L 225.844223 376.362454 
L 227.492708 376.356745 
L 229.141193 376.376479 
L 230.789678 376.37597 
L 232.438163 376.336326 
L 234.086648 376.283219 
L 235.735133 376.24279 
L 237.383617 376.21069 
L 239.032102 376.167801 
L 240.680587 376.112105 
L 242.329072 376.076818 
L 243.977557 376.09541 
L 245.626042 376.158303 
L 247.274527 376.230008 
L 248.923011 376.281243 
L 250.571496 376.299422 
L 252.219981 376.275572 
L 253.868466 376.214798 
L 255.516951 376.132614 
L 257.165436 376.051116 
L 258.81392 376.012546 
L 260.462405 376.059318 
L 262.11089 376.159887 
L 263.759375 376.21582 
" clip-path="url(#p2a9f7c65e9)" style="fill: none; stroke: #1f77b4; stroke-width: 0.01; stroke-linecap: square"/>
   </g>
   <g id="line2d_22">
    <path d="M 100.559375 376.059299 
L 102.20786 376.044776 
L 103.856345 376.031394 
L 105.50483 376.019117 
L 107.153314 376.00791 
L 108.801799 375.997739 
L 110.450284 375.988567 
L 112.098769 375.980359 
L 113.747254 375.973081 
L 115.395739 375.966697 
L 117.044223 375.961172 
L 118.692708 375.95647 
L 120.341193 375.952557 
L 121.989678 375.949397 
L 123.638163 375.946954 
L 125.286648 375.945195 
L 126.935133 375.944083 
L 128.583617 375.943583 
L 130.232102 375.94366 
L 131.880587 375.944279 
L 133.529072 375.945404 
L 135.177557 375.947001 
L 136.826042 375.949033 
L 138.474527 375.951467 
L 140.123011 375.954266 
L 141.771496 375.957395 
L 143.419981 375.96082 
L 145.068466 375.964504 
L 146.716951 375.968414 
L 148.365436 375.972512 
L 150.01392 375.976765 
L 151.662405 375.981137 
L 153.31089 375.985592 
L 154.959375 375.990096 
L 156.60786 375.994614 
L 158.256345 375.999109 
L 159.90483 376.003547 
L 161.553314 376.007893 
L 163.201799 376.012111 
L 164.850284 376.016166 
L 166.498769 376.020024 
L 168.147254 376.023647 
L 169.795739 376.027003 
L 171.444223 376.030054 
L 173.092708 376.032767 
L 174.741193 376.035105 
L 176.389678 376.037033 
L 178.038163 376.038517 
L 179.686648 376.039521 
L 181.335133 376.04001 
L 182.983617 376.039949 
L 184.632102 376.039301 
L 186.280587 376.038033 
L 187.929072 376.036109 
L 189.577557 376.033494 
L 191.226042 376.030151 
L 192.874527 376.026048 
L 194.523011 376.021147 
L 196.171496 376.015413 
L 197.819981 376.008813 
L 199.468466 376.001309 
L 201.116951 375.992868 
L 202.765436 375.983453 
L 204.41392 375.97303 
L 206.062405 375.961564 
L 207.71089 375.949018 
L 209.359375 375.935359 
L 211.00786 375.92055 
L 212.656345 375.904556 
L 214.30483 375.887343 
L 215.953314 375.868874 
L 217.601799 375.849116 
L 219.250284 375.828032 
L 220.898769 375.805587 
L 222.547254 375.781746 
L 224.195739 375.756474 
L 225.844223 375.729736 
L 227.492708 375.701495 
L 229.141193 375.671718 
L 230.789678 375.640369 
L 232.438163 375.607413 
L 234.086648 375.572814 
L 235.735133 375.536537 
L 237.383617 375.498547 
L 239.032102 375.458809 
L 240.680587 375.417288 
L 242.329072 375.373947 
L 243.977557 375.328753 
L 245.626042 375.28167 
L 247.274527 375.232662 
L 248.923011 375.181694 
L 250.571496 375.128732 
L 252.219981 375.073739 
L 253.868466 375.016681 
L 255.516951 374.957523 
L 257.165436 374.896228 
L 258.81392 374.832763 
L 260.462405 374.767091 
L 262.11089 374.699178 
L 263.759375 374.628988 
" clip-path="url(#p2a9f7c65e9)" style="fill: none; stroke-dasharray: 11.1,4.8; stroke-dashoffset: 0; stroke: #000000; stroke-width: 3"/>
   </g>
   <g id="line2d_23">
    <path d="M 100.559375 355.00875 
L 102.20786 355.323128 
L 103.856345 356.049105 
L 105.50483 356.867179 
L 107.153314 357.630699 
L 108.801799 358.38412 
L 110.450284 359.162777 
L 112.098769 359.906139 
L 113.747254 360.525367 
L 115.395739 361.009786 
L 117.044223 361.454488 
L 118.692708 361.940277 
L 120.341193 362.408788 
L 121.989678 362.747944 
L 123.638163 362.920024 
L 125.286648 363.010976 
L 126.935133 363.109911 
L 128.583617 363.236566 
L 130.232102 363.376932 
L 131.880587 363.536221 
L 133.529072 363.759486 
L 135.177557 364.087773 
L 136.826042 364.467956 
L 138.474527 364.790311 
L 140.123011 364.999119 
L 141.771496 365.177943 
L 143.419981 365.423393 
L 145.068466 365.708598 
L 146.716951 365.915421 
L 148.365436 365.972786 
L 150.01392 365.966071 
L 151.662405 366.007434 
L 153.31089 366.127051 
L 154.959375 366.280944 
L 156.60786 366.429729 
L 158.256345 366.563092 
L 159.90483 366.677532 
L 161.553314 366.756802 
L 163.201799 366.770573 
L 164.850284 366.695156 
L 166.498769 366.544028 
L 168.147254 366.342489 
L 169.795739 366.12168 
L 171.444223 365.920638 
L 173.092708 365.775456 
L 174.741193 365.699852 
L 176.389678 365.698663 
L 178.038163 365.771046 
L 179.686648 365.906753 
L 181.335133 366.089545 
L 182.983617 366.261457 
L 184.632102 366.344429 
L 186.280587 366.300932 
L 187.929072 366.176716 
L 189.577557 366.025406 
L 191.226042 365.875964 
L 192.874527 365.742442 
L 194.523011 365.616902 
L 196.171496 365.436007 
L 197.819981 365.137131 
L 199.468466 364.789907 
L 201.116951 364.561704 
L 202.765436 364.54674 
L 204.41392 364.599329 
L 206.062405 364.533851 
L 207.71089 364.312511 
L 209.359375 364.031216 
L 211.00786 363.764696 
L 212.656345 363.483701 
L 214.30483 363.134436 
L 215.953314 362.703376 
L 217.601799 362.221516 
L 219.250284 361.712853 
L 220.898769 361.154475 
L 222.547254 360.510072 
L 224.195739 359.800929 
L 225.844223 359.126256 
L 227.492708 358.56718 
L 229.141193 358.054008 
L 230.789678 357.458623 
L 232.438163 356.717525 
L 234.086648 355.87474 
L 235.735133 354.97495 
L 237.383617 353.985425 
L 239.032102 352.836047 
L 240.680587 351.517019 
L 242.329072 350.142606 
L 243.977557 348.829131 
L 245.626042 347.553659 
L 247.274527 346.209481 
L 248.923011 344.731839 
L 250.571496 343.165569 
L 252.219981 341.570259 
L 253.868466 339.971522 
L 255.516951 338.369836 
L 257.165436 336.696436 
L 258.81392 334.664244 
L 260.462405 331.990336 
L 262.11089 329.308784 
L 263.759375 328.083074 
" clip-path="url(#p2a9f7c65e9)" style="fill: none; stroke: #ff7f0e; stroke-width: 0.01; stroke-linecap: square"/>
   </g>
   <g id="line2d_24">
    <path d="M 100.559375 354.100412 
L 102.20786 354.452106 
L 103.856345 354.806261 
L 105.50483 355.162407 
L 107.153314 355.520076 
L 108.801799 355.878798 
L 110.450284 356.238105 
L 112.098769 356.597528 
L 113.747254 356.956598 
L 115.395739 357.314845 
L 117.044223 357.671801 
L 118.692708 358.026996 
L 120.341193 358.379962 
L 121.989678 358.730229 
L 123.638163 359.07733 
L 125.286648 359.420793 
L 126.935133 359.760152 
L 128.583617 360.094936 
L 130.232102 360.424676 
L 131.880587 360.748904 
L 133.529072 361.067151 
L 135.177557 361.378947 
L 136.826042 361.683823 
L 138.474527 361.981312 
L 140.123011 362.270942 
L 141.771496 362.552247 
L 143.419981 362.824755 
L 145.068466 363.088 
L 146.716951 363.341511 
L 148.365436 363.584819 
L 150.01392 363.817456 
L 151.662405 364.038952 
L 153.31089 364.248839 
L 154.959375 364.446647 
L 156.60786 364.631908 
L 158.256345 364.804152 
L 159.90483 364.962911 
L 161.553314 365.107715 
L 163.201799 365.238095 
L 164.850284 365.353583 
L 166.498769 365.45371 
L 168.147254 365.538006 
L 169.795739 365.606002 
L 171.444223 365.65723 
L 173.092708 365.69122 
L 174.741193 365.707503 
L 176.389678 365.705611 
L 178.038163 365.685075 
L 179.686648 365.645424 
L 181.335133 365.586192 
L 182.983617 365.506907 
L 184.632102 365.407102 
L 186.280587 365.286307 
L 187.929072 365.144054 
L 189.577557 364.979873 
L 191.226042 364.793295 
L 192.874527 364.583851 
L 194.523011 364.351073 
L 196.171496 364.094492 
L 197.819981 363.813637 
L 199.468466 363.508041 
L 201.116951 363.177234 
L 202.765436 362.820748 
L 204.41392 362.438113 
L 206.062405 362.02886 
L 207.71089 361.59252 
L 209.359375 361.128625 
L 211.00786 360.636705 
L 212.656345 360.116291 
L 214.30483 359.566914 
L 215.953314 358.988106 
L 217.601799 358.379397 
L 219.250284 357.740318 
L 220.898769 357.070401 
L 222.547254 356.369175 
L 224.195739 355.636173 
L 225.844223 354.870925 
L 227.492708 354.072963 
L 229.141193 353.241816 
L 230.789678 352.377017 
L 232.438163 351.478096 
L 234.086648 350.544584 
L 235.735133 349.576012 
L 237.383617 348.571912 
L 239.032102 347.531813 
L 240.680587 346.455248 
L 242.329072 345.341747 
L 243.977557 344.190841 
L 245.626042 343.002061 
L 247.274527 341.774939 
L 248.923011 340.509004 
L 250.571496 339.203789 
L 252.219981 337.858824 
L 253.868466 336.473639 
L 255.516951 335.047767 
L 257.165436 333.580738 
L 258.81392 332.072084 
L 260.462405 330.521334 
L 262.11089 328.92802 
L 263.759375 327.291674 
" clip-path="url(#p2a9f7c65e9)" style="fill: none; stroke-dasharray: 11.1,4.8; stroke-dashoffset: 0; stroke: #000000; stroke-width: 3"/>
   </g>
   <g id="line2d_25">
    <path d="M 100.559375 219.256444 
L 102.20786 221.487813 
L 103.856345 226.339462 
L 105.50483 231.108026 
L 107.153314 234.764244 
L 108.801799 238.129732 
L 110.450284 241.931092 
L 112.098769 245.932891 
L 113.747254 249.60247 
L 115.395739 252.633597 
L 117.044223 255.02649 
L 118.692708 256.84635 
L 120.341193 258.434454 
L 121.989678 260.237081 
L 123.638163 262.440386 
L 125.286648 264.798213 
L 126.935133 267.051517 
L 128.583617 269.168924 
L 130.232102 271.229853 
L 131.880587 273.259755 
L 133.529072 275.172014 
L 135.177557 276.873219 
L 136.826042 278.343457 
L 138.474527 279.607135 
L 140.123011 280.711416 
L 141.771496 281.759777 
L 143.419981 282.858658 
L 145.068466 284.032026 
L 146.716951 285.242882 
L 148.365436 286.460895 
L 150.01392 287.681468 
L 151.662405 288.904869 
L 153.31089 290.126644 
L 154.959375 291.338069 
L 156.60786 292.507567 
L 158.256345 293.512753 
L 159.90483 294.215057 
L 161.553314 294.656716 
L 163.201799 295.079868 
L 164.850284 295.657352 
L 166.498769 296.160438 
L 168.147254 296.240156 
L 169.795739 295.805317 
L 171.444223 295.113517 
L 173.092708 294.435892 
L 174.741193 293.971926 
L 176.389678 293.890819 
L 178.038163 294.208495 
L 179.686648 294.686507 
L 181.335133 295.080497 
L 182.983617 295.293721 
L 184.632102 295.301559 
L 186.280587 295.087146 
L 187.929072 294.64849 
L 189.577557 293.992324 
L 191.226042 293.198606 
L 192.874527 292.39124 
L 194.523011 291.630493 
L 196.171496 290.813279 
L 197.819981 289.81458 
L 199.468466 288.560735 
L 201.116951 287.016076 
L 202.765436 285.222588 
L 204.41392 283.466359 
L 206.062405 282.056489 
L 207.71089 280.81133 
L 209.359375 279.105356 
L 211.00786 276.472556 
L 212.656345 273.148963 
L 214.30483 269.539395 
L 215.953314 265.86208 
L 217.601799 262.128949 
L 219.250284 258.358706 
L 220.898769 254.65804 
L 222.547254 251.157334 
L 224.195739 247.81757 
L 225.844223 244.370551 
L 227.492708 240.556022 
L 229.141193 236.268338 
L 230.789678 231.464794 
L 232.438163 226.258076 
L 234.086648 221.018615 
L 235.735133 216.071405 
L 237.383617 211.171856 
L 239.032102 205.79964 
L 240.680587 199.785596 
L 242.329072 193.68358 
L 243.977557 188.093775 
L 245.626042 183.168742 
L 247.274527 178.79142 
L 248.923011 174.831363 
L 250.571496 171.133522 
L 252.219981 167.555066 
L 253.868466 164.179539 
L 255.516951 161.25778 
L 257.165436 158.912214 
L 258.81392 156.844433 
L 260.462405 154.705577 
L 262.11089 152.784573 
L 263.759375 151.947219 
" clip-path="url(#p2a9f7c65e9)" style="fill: none; stroke: #2ca02c; stroke-width: 0.01; stroke-linecap: square"/>
   </g>
   <g id="line2d_26">
    <path d="M 100.559375 230.065171 
L 102.20786 233.071034 
L 103.856345 236.015326 
L 105.50483 238.897557 
L 107.153314 241.717233 
L 108.801799 244.473861 
L 110.450284 247.16695 
L 112.098769 249.796007 
L 113.747254 252.360539 
L 115.395739 254.860055 
L 117.044223 257.294061 
L 118.692708 259.662066 
L 120.341193 261.963577 
L 121.989678 264.198101 
L 123.638163 266.365147 
L 125.286648 268.464221 
L 126.935133 270.494831 
L 128.583617 272.456485 
L 130.232102 274.348691 
L 131.880587 276.170956 
L 133.529072 277.922787 
L 135.177557 279.603693 
L 136.826042 281.21318 
L 138.474527 282.750757 
L 140.123011 284.215931 
L 141.771496 285.608209 
L 143.419981 286.9271 
L 145.068466 288.17211 
L 146.716951 289.342748 
L 148.365436 290.43852 
L 150.01392 291.458935 
L 151.662405 292.4035 
L 153.31089 293.271723 
L 154.959375 294.063111 
L 156.60786 294.777172 
L 158.256345 295.413414 
L 159.90483 295.971343 
L 161.553314 296.450468 
L 163.201799 296.850296 
L 164.850284 297.170336 
L 166.498769 297.410093 
L 168.147254 297.569076 
L 169.795739 297.646793 
L 171.444223 297.642752 
L 173.092708 297.556458 
L 174.741193 297.387422 
L 176.389678 297.135149 
L 178.038163 296.799147 
L 179.686648 296.378925 
L 181.335133 295.873989 
L 182.983617 295.283848 
L 184.632102 294.608008 
L 186.280587 293.845978 
L 187.929072 292.997265 
L 189.577557 292.061377 
L 191.226042 291.03782 
L 192.874527 289.926104 
L 194.523011 288.725735 
L 196.171496 287.43622 
L 197.819981 286.057069 
L 199.468466 284.587787 
L 201.116951 283.027883 
L 202.765436 281.376865 
L 204.41392 279.634239 
L 206.062405 277.799514 
L 207.71089 275.872197 
L 209.359375 273.851796 
L 211.00786 271.737817 
L 212.656345 269.52977 
L 214.30483 267.227161 
L 215.953314 264.829498 
L 217.601799 262.336289 
L 219.250284 259.747041 
L 220.898769 257.061261 
L 222.547254 254.278458 
L 224.195739 251.398139 
L 225.844223 248.419811 
L 227.492708 245.342983 
L 229.141193 242.167161 
L 230.789678 238.891853 
L 232.438163 235.516568 
L 234.086648 232.040812 
L 235.735133 228.464093 
L 237.383617 224.785918 
L 239.032102 221.005796 
L 240.680587 217.123233 
L 242.329072 213.137738 
L 243.977557 209.048818 
L 245.626042 204.855981 
L 247.274527 200.558733 
L 248.923011 196.156584 
L 250.571496 191.64904 
L 252.219981 187.035608 
L 253.868466 182.315797 
L 255.516951 177.489115 
L 257.165436 172.555068 
L 258.81392 167.513164 
L 260.462405 162.362911 
L 262.11089 157.103817 
L 263.759375 151.735388 
" clip-path="url(#p2a9f7c65e9)" style="fill: none; stroke-dasharray: 11.1,4.8; stroke-dashoffset: 0; stroke: #000000; stroke-width: 3"/>
   </g>
   <g id="line2d_27">
    <path d="M 100.559375 147.573059 
L 102.20786 148.434722 
L 103.856345 150.336252 
L 105.50483 152.273191 
L 107.153314 153.81642 
L 108.801799 155.172902 
L 110.450284 156.540767 
L 112.098769 157.907613 
L 113.747254 159.196845 
L 115.395739 160.417638 
L 117.044223 161.695235 
L 118.692708 163.146326 
L 120.341193 164.780395 
L 121.989678 166.563695 
L 123.638163 168.384561 
L 125.286648 170.002132 
L 126.935133 171.223405 
L 128.583617 172.345696 
L 130.232102 173.903514 
L 131.880587 176.102911 
L 133.529072 178.47397 
L 135.177557 180.514466 
L 136.826042 182.257358 
L 138.474527 184.057509 
L 140.123011 186.091837 
L 141.771496 188.073543 
L 143.419981 189.666493 
L 145.068466 190.862515 
L 146.716951 191.895856 
L 148.365436 192.968278 
L 150.01392 194.160172 
L 151.662405 195.517139 
L 153.31089 196.877692 
L 154.959375 197.893032 
L 156.60786 198.360645 
L 158.256345 198.690168 
L 159.90483 199.42765 
L 161.553314 200.657816 
L 163.201799 201.955352 
L 164.850284 202.92377 
L 166.498769 203.444997 
L 168.147254 203.49308 
L 169.795739 203.236794 
L 171.444223 203.1083 
L 173.092708 203.480272 
L 174.741193 204.226096 
L 176.389678 205.024539 
L 178.038163 205.680804 
L 179.686648 206.210801 
L 181.335133 206.650775 
L 182.983617 207.040799 
L 184.632102 207.422091 
L 186.280587 207.728995 
L 187.929072 207.676953 
L 189.577557 207.006152 
L 191.226042 206.003475 
L 192.874527 205.284286 
L 194.523011 205.136593 
L 196.171496 205.004541 
L 197.819981 204.239532 
L 199.468466 202.747935 
L 201.116951 200.846345 
L 202.765436 198.815984 
L 204.41392 196.795023 
L 206.062405 194.876013 
L 207.71089 192.818236 
L 209.359375 190.079541 
L 211.00786 186.338642 
L 212.656345 182.201169 
L 214.30483 178.482215 
L 215.953314 175.378965 
L 217.601799 172.405442 
L 219.250284 169.154818 
L 220.898769 165.797589 
L 222.547254 162.681909 
L 224.195739 159.989734 
L 225.844223 157.678099 
L 227.492708 155.677744 
L 229.141193 153.85342 
L 230.789678 152.045008 
L 232.438163 150.171116 
L 234.086648 148.281158 
L 235.735133 146.431717 
L 237.383617 144.637193 
L 239.032102 142.891357 
L 240.680587 141.183025 
L 242.329072 139.491156 
L 243.977557 137.797492 
L 245.626042 136.126072 
L 247.274527 134.526356 
L 248.923011 133.025467 
L 250.571496 131.592835 
L 252.219981 130.192569 
L 253.868466 128.841099 
L 255.516951 127.593518 
L 257.165436 126.468137 
L 258.81392 125.363422 
L 260.462405 124.170337 
L 262.11089 123.094135 
L 263.759375 122.624341 
" clip-path="url(#p2a9f7c65e9)" style="fill: none; stroke: #d62728; stroke-width: 0.01; stroke-linecap: square"/>
   </g>
   <g id="line2d_28">
    <path d="M 100.559375 132.28033 
L 102.20786 134.95023 
L 103.856345 137.551544 
L 105.50483 140.084534 
L 107.153314 142.549459 
L 108.801799 144.946582 
L 110.450284 147.276163 
L 112.098769 149.538462 
L 113.747254 151.73374 
L 115.395739 153.862259 
L 117.044223 155.924278 
L 118.692708 157.92006 
L 120.341193 159.849864 
L 121.989678 161.713952 
L 123.638163 163.512585 
L 125.286648 165.246022 
L 126.935133 166.914526 
L 128.583617 168.518356 
L 130.232102 170.057774 
L 131.880587 171.533041 
L 133.529072 172.944417 
L 135.177557 174.292163 
L 136.826042 175.57654 
L 138.474527 176.797809 
L 140.123011 177.956231 
L 141.771496 179.052066 
L 143.419981 180.085576 
L 145.068466 181.057021 
L 146.716951 181.966661 
L 148.365436 182.814759 
L 150.01392 183.601574 
L 151.662405 184.327368 
L 153.31089 184.992401 
L 154.959375 185.596934 
L 156.60786 186.141228 
L 158.256345 186.625544 
L 159.90483 187.050142 
L 161.553314 187.415284 
L 163.201799 187.72123 
L 164.850284 187.968242 
L 166.498769 188.156579 
L 168.147254 188.286503 
L 169.795739 188.358274 
L 171.444223 188.372154 
L 173.092708 188.328404 
L 174.741193 188.227283 
L 176.389678 188.069053 
L 178.038163 187.853975 
L 179.686648 187.58231 
L 181.335133 187.254317 
L 182.983617 186.870259 
L 184.632102 186.430397 
L 186.280587 185.93499 
L 187.929072 185.384299 
L 189.577557 184.778587 
L 191.226042 184.118112 
L 192.874527 183.403137 
L 194.523011 182.633922 
L 196.171496 181.810728 
L 197.819981 180.933815 
L 199.468466 180.003445 
L 201.116951 179.019878 
L 202.765436 177.983375 
L 204.41392 176.894198 
L 206.062405 175.752606 
L 207.71089 174.55886 
L 209.359375 173.313223 
L 211.00786 172.015953 
L 212.656345 170.667313 
L 214.30483 169.267563 
L 215.953314 167.816963 
L 217.601799 166.315775 
L 219.250284 164.76426 
L 220.898769 163.162678 
L 222.547254 161.511289 
L 224.195739 159.810356 
L 225.844223 158.060139 
L 227.492708 156.260898 
L 229.141193 154.412895 
L 230.789678 152.51639 
L 232.438163 150.571644 
L 234.086648 148.578917 
L 235.735133 146.538472 
L 237.383617 144.450568 
L 239.032102 142.315467 
L 240.680587 140.133428 
L 242.329072 137.904714 
L 243.977557 135.629585 
L 245.626042 133.308301 
L 247.274527 130.941124 
L 248.923011 128.528314 
L 250.571496 126.070133 
L 252.219981 123.56684 
L 253.868466 121.018698 
L 255.516951 118.425966 
L 257.165436 115.788905 
L 258.81392 113.107777 
L 260.462405 110.382842 
L 262.11089 107.614361 
L 263.759375 104.802595 
" clip-path="url(#p2a9f7c65e9)" style="fill: none; stroke-dasharray: 11.1,4.8; stroke-dashoffset: 0; stroke: #000000; stroke-width: 3"/>
   </g>
   <g id="line2d_29">
    <path d="M 100.559375 103.002246 
L 102.20786 103.679001 
L 103.856345 105.146202 
L 105.50483 106.577359 
L 107.153314 107.648453 
L 108.801799 108.59099 
L 110.450284 109.617965 
L 112.098769 110.704094 
L 113.747254 111.750161 
L 115.395739 112.699641 
L 117.044223 113.553802 
L 118.692708 114.318045 
L 120.341193 114.997989 
L 121.989678 115.599466 
L 123.638163 116.137931 
L 125.286648 116.644808 
L 126.935133 117.148901 
L 128.583617 117.645327 
L 130.232102 118.112834 
L 131.880587 118.541951 
L 133.529072 118.94757 
L 135.177557 119.346268 
L 136.826042 119.740881 
L 138.474527 120.12597 
L 140.123011 120.498155 
L 141.771496 120.85957 
L 143.419981 121.21331 
L 145.068466 121.563882 
L 146.716951 121.916829 
L 148.365436 122.277357 
L 150.01392 122.649518 
L 151.662405 123.036805 
L 153.31089 123.43635 
L 154.959375 123.839531 
L 156.60786 124.238901 
L 158.256345 124.632539 
L 159.90483 125.019257 
L 161.553314 125.379809 
L 163.201799 125.674985 
L 164.850284 125.875405 
L 166.498769 126.00646 
L 168.147254 126.110849 
L 169.795739 126.23495 
L 171.444223 126.430106 
L 173.092708 126.73949 
L 174.741193 127.151867 
L 176.389678 127.634596 
L 178.038163 128.154591 
L 179.686648 128.678114 
L 181.335133 129.176988 
L 182.983617 129.668958 
L 184.632102 130.193932 
L 186.280587 130.753308 
L 187.929072 131.269303 
L 189.577557 131.661461 
L 191.226042 131.923755 
L 192.874527 132.094948 
L 194.523011 132.195639 
L 196.171496 132.198689 
L 197.819981 132.071197 
L 199.468466 131.804399 
L 201.116951 131.407378 
L 202.765436 130.895849 
L 204.41392 130.305291 
L 206.062405 129.672816 
L 207.71089 128.991327 
L 209.359375 128.213741 
L 211.00786 127.300519 
L 212.656345 126.248062 
L 214.30483 125.062385 
L 215.953314 123.767035 
L 217.601799 122.404949 
L 219.250284 121.017326 
L 220.898769 119.631561 
L 222.547254 118.270392 
L 224.195739 116.943103 
L 225.844223 115.640784 
L 227.492708 114.355117 
L 229.141193 113.089835 
L 230.789678 111.853139 
L 232.438163 110.63353 
L 234.086648 109.386787 
L 235.735133 108.073807 
L 237.383617 106.722468 
L 239.032102 105.39319 
L 240.680587 104.122293 
L 242.329072 102.896287 
L 243.977557 101.698782 
L 245.626042 100.547345 
L 247.274527 99.47993 
L 248.923011 98.507211 
L 250.571496 97.569802 
L 252.219981 96.603207 
L 253.868466 95.625585 
L 255.516951 94.716173 
L 257.165436 93.915411 
L 258.81392 93.135795 
L 260.462405 92.277288 
L 262.11089 91.487956 
L 263.759375 91.140276 
" clip-path="url(#p2a9f7c65e9)" style="fill: none; stroke: #9467bd; stroke-width: 0.01; stroke-linecap: square"/>
   </g>
   <g id="line2d_30">
    <path d="M 100.559375 109.569469 
L 102.20786 110.426199 
L 103.856345 111.273748 
L 105.50483 112.111736 
L 107.153314 112.939785 
L 108.801799 113.757512 
L 110.450284 114.56454 
L 112.098769 115.360488 
L 113.747254 116.144976 
L 115.395739 116.917625 
L 117.044223 117.678054 
L 118.692708 118.425884 
L 120.341193 119.160735 
L 121.989678 119.882228 
L 123.638163 120.589982 
L 125.286648 121.283617 
L 126.935133 121.962754 
L 128.583617 122.627014 
L 130.232102 123.276015 
L 131.880587 123.909379 
L 133.529072 124.526725 
L 135.177557 125.127674 
L 136.826042 125.711846 
L 138.474527 126.27886 
L 140.123011 126.828339 
L 141.771496 127.3599 
L 143.419981 127.873165 
L 145.068466 128.367755 
L 146.716951 128.843288 
L 148.365436 129.299385 
L 150.01392 129.735667 
L 151.662405 130.151753 
L 153.31089 130.547264 
L 154.959375 130.92182 
L 156.60786 131.275041 
L 158.256345 131.606547 
L 159.90483 131.915959 
L 161.553314 132.202897 
L 163.201799 132.46698 
L 164.850284 132.70783 
L 166.498769 132.925066 
L 168.147254 133.118308 
L 169.795739 133.287176 
L 171.444223 133.431292 
L 173.092708 133.550275 
L 174.741193 133.643744 
L 176.389678 133.711322 
L 178.038163 133.752626 
L 179.686648 133.767279 
L 181.335133 133.754899 
L 182.983617 133.715107 
L 184.632102 133.647524 
L 186.280587 133.551769 
L 187.929072 133.427463 
L 189.577557 133.274226 
L 191.226042 133.091677 
L 192.874527 132.879438 
L 194.523011 132.637129 
L 196.171496 132.364369 
L 197.819981 132.060778 
L 199.468466 131.725978 
L 201.116951 131.359588 
L 202.765436 130.961228 
L 204.41392 130.530519 
L 206.062405 130.06708 
L 207.71089 129.570532 
L 209.359375 129.040496 
L 211.00786 128.47659 
L 212.656345 127.878436 
L 214.30483 127.245654 
L 215.953314 126.577863 
L 217.601799 125.874685 
L 219.250284 125.135739 
L 220.898769 124.360645 
L 222.547254 123.549023 
L 224.195739 122.700495 
L 225.844223 121.814679 
L 227.492708 120.891196 
L 229.141193 119.929667 
L 230.789678 118.929711 
L 232.438163 117.890949 
L 234.086648 116.813001 
L 235.735133 115.695487 
L 237.383617 114.538027 
L 239.032102 113.340242 
L 240.680587 112.101751 
L 242.329072 110.822175 
L 243.977557 109.501133 
L 245.626042 108.138247 
L 247.274527 106.733137 
L 248.923011 105.285422 
L 250.571496 103.794722 
L 252.219981 102.260659 
L 253.868466 100.682852 
L 255.516951 99.060921 
L 257.165436 97.394486 
L 258.81392 95.683168 
L 260.462405 93.926587 
L 262.11089 92.124363 
L 263.759375 90.276116 
" clip-path="url(#p2a9f7c65e9)" style="fill: none; stroke-dasharray: 11.1,4.8; stroke-dashoffset: 0; stroke: #000000; stroke-width: 3"/>
   </g>
   <g id="patch_7">
    <path d="M 94.559375 379.434375 
L 94.559375 19.434375 
" style="fill: none; stroke: #000000; stroke-width: 2; stroke-linejoin: miter; stroke-linecap: square"/>
   </g>
   <g id="patch_8">
    <path d="M 382.559375 379.434375 
L 382.559375 19.434375 
" style="fill: none; stroke: #000000; stroke-width: 2; stroke-linejoin: miter; stroke-linecap: square"/>
   </g>
   <g id="patch_9">
    <path d="M 94.559375 379.434375 
L 382.559375 379.434375 
" style="fill: none; stroke: #000000; stroke-width: 2; stroke-linejoin: miter; stroke-linecap: square"/>
   </g>
   <g id="patch_10">
    <path d="M 94.559375 19.434375 
L 382.559375 19.434375 
" style="fill: none; stroke: #000000; stroke-width: 2; stroke-linejoin: miter; stroke-linecap: square"/>
   </g>
   <g id="legend_1">
    <g id="patch_11">
     <path d="M 172.942188 78.129687 
L 367.059375 78.129687 
Q 372.059375 78.129687 372.059375 73.129687 
L 372.059375 38.934375 
Q 372.059375 33.934375 367.059375 33.934375 
L 172.942188 33.934375 
Q 167.942188 33.934375 167.942188 38.934375 
L 167.942188 73.129687 
Q 167.942188 78.129687 172.942188 78.129687 
z
" style="fill: #4c4c4c; opacity: 0.5; stroke: #4c4c4c; stroke-linejoin: miter"/>
    </g>
    <g id="patch_12">
     <path d="M 170.942188 76.129687 
L 365.059375 76.129687 
Q 370.059375 76.129687 370.059375 71.129687 
L 370.059375 36.934375 
Q 370.059375 31.934375 365.059375 31.934375 
L 170.942188 31.934375 
Q 165.942188 31.934375 165.942188 36.934375 
L 165.942188 71.129687 
Q 165.942188 76.129687 170.942188 76.129687 
z
" style="fill: #ffffff; stroke: #cccccc; stroke-linejoin: miter"/>
    </g>
    <g id="line2d_31">
     <path d="M 175.942188 52.180469 
L 200.942188 52.180469 
L 225.942188 52.180469 
" style="fill: none; stroke-dasharray: 11.1,4.8; stroke-dashoffset: 0; stroke: #000000; stroke-width: 3"/>
    </g>
    <g id="text_24">
     <!-- Spline Fit -->
     <g transform="translate(245.942188 60.930469)scale(0.25 -0.25)">
      <defs>
       <path id="DejaVuSans-53" d="M 3425 4513 
L 3425 3897 
Q 3066 4069 2747 4153 
Q 2428 4238 2131 4238 
Q 1616 4238 1336 4038 
Q 1056 3838 1056 3469 
Q 1056 3159 1242 3001 
Q 1428 2844 1947 2747 
L 2328 2669 
Q 3034 2534 3370 2195 
Q 3706 1856 3706 1288 
Q 3706 609 3251 259 
Q 2797 -91 1919 -91 
Q 1588 -91 1214 -16 
Q 841 59 441 206 
L 441 856 
Q 825 641 1194 531 
Q 1563 422 1919 422 
Q 2459 422 2753 634 
Q 3047 847 3047 1241 
Q 3047 1584 2836 1778 
Q 2625 1972 2144 2069 
L 1759 2144 
Q 1053 2284 737 2584 
Q 422 2884 422 3419 
Q 422 4038 858 4394 
Q 1294 4750 2059 4750 
Q 2388 4750 2728 4690 
Q 3069 4631 3425 4513 
z
" transform="scale(0.015625)"/>
       <path id="DejaVuSans-46" d="M 628 4666 
L 3309 4666 
L 3309 4134 
L 1259 4134 
L 1259 2759 
L 3109 2759 
L 3109 2228 
L 1259 2228 
L 1259 0 
L 628 0 
L 628 4666 
z
" transform="scale(0.015625)"/>
      </defs>
      <use xlink:href="#DejaVuSans-53"/>
      <use xlink:href="#DejaVuSans-70" x="63.476562"/>
      <use xlink:href="#DejaVuSans-6c" x="126.953125"/>
      <use xlink:href="#DejaVuSans-69" x="154.736328"/>
      <use xlink:href="#DejaVuSans-6e" x="182.519531"/>
      <use xlink:href="#DejaVuSans-65" x="245.898438"/>
      <use xlink:href="#DejaVuSans-20" x="307.421875"/>
      <use xlink:href="#DejaVuSans-46" x="339.208984"/>
      <use xlink:href="#DejaVuSans-69" x="389.478516"/>
      <use xlink:href="#DejaVuSans-74" x="417.261719"/>
     </g>
    </g>
   </g>
  </g>
 </g>
 <defs>
  <clipPath id="p2a9f7c65e9">
   <rect x="94.559375" y="19.434375" width="288" height="360"/>
  </clipPath>
 </defs>
</svg>
