<?xml version="1.0" encoding="utf-8" standalone="no"?>
<!DOCTYPE svg PUBLIC "-//W3C//DTD SVG 1.1//EN"
  "http://www.w3.org/Graphics/SVG/1.1/DTD/svg11.dtd">
<svg xmlns:xlink="http://www.w3.org/1999/xlink" width="477.11875pt" height="442.525pt" viewBox="0 0 477.11875 442.525" xmlns="http://www.w3.org/2000/svg" version="1.1">
 <metadata>
  <rdf:RDF xmlns:dc="http://purl.org/dc/elements/1.1/" xmlns:cc="http://creativecommons.org/ns#" xmlns:rdf="http://www.w3.org/1999/02/22-rdf-syntax-ns#">
   <cc:Work>
    <dc:type rdf:resource="http://purl.org/dc/dcmitype/StillImage"/>
    <dc:date>2024-06-02T16:49:19.272757</dc:date>
    <dc:format>image/svg+xml</dc:format>
    <dc:creator>
     <cc:Agent>
      <dc:title>Matplotlib v3.5.2, https://matplotlib.org/</dc:title>
     </cc:Agent>
    </dc:creator>
   </cc:Work>
  </rdf:RDF>
 </metadata>
 <defs>
  <style type="text/css">*{stroke-linejoin: round; stroke-linecap: butt}</style>
 </defs>
 <g id="figure_1">
  <g id="patch_1">
   <path d="M 0 442.525 
L 477.11875 442.525 
L 477.11875 -0 
L 0 -0 
z
" style="fill: #ffffff"/>
  </g>
  <g id="axes_1">
   <g id="patch_2">
    <path d="M 94.559375 379.434375 
L 382.559375 379.434375 
L 382.559375 19.434375 
L 94.559375 19.434375 
z
" style="fill: #ffffff"/>
   </g>
   <g id="matplotlib.axis_1">
    <g id="xtick_1">
     <g id="line2d_1">
      <defs>
       <path id="m665c0df5d1" d="M 0 0 
L 0 -4 
" style="stroke: #000000; stroke-width: 2"/>
      </defs>
      <g>
       <use xlink:href="#m665c0df5d1" x="102.343159" y="379.434375" style="stroke: #000000; stroke-width: 2"/>
      </g>
     </g>
     <g id="text_1">
      <!-- 0 -->
      <g transform="translate(94.390034 401.930469)scale(0.25 -0.25)">
       <defs>
        <path id="DejaVuSans-30" d="M 2034 4250 
Q 1547 4250 1301 3770 
Q 1056 3291 1056 2328 
Q 1056 1369 1301 889 
Q 1547 409 2034 409 
Q 2525 409 2770 889 
Q 3016 1369 3016 2328 
Q 3016 3291 2770 3770 
Q 2525 4250 2034 4250 
z
M 2034 4750 
Q 2819 4750 3233 4129 
Q 3647 3509 3647 2328 
Q 3647 1150 3233 529 
Q 2819 -91 2034 -91 
Q 1250 -91 836 529 
Q 422 1150 422 2328 
Q 422 3509 836 4129 
Q 1250 4750 2034 4750 
z
" transform="scale(0.015625)"/>
       </defs>
       <use xlink:href="#DejaVuSans-30"/>
      </g>
     </g>
    </g>
    <g id="xtick_2">
     <g id="line2d_2">
      <g>
       <use xlink:href="#m665c0df5d1" x="258.018834" y="379.434375" style="stroke: #000000; stroke-width: 2"/>
      </g>
     </g>
     <g id="text_2">
      <!-- 20 -->
      <g transform="translate(242.112584 401.930469)scale(0.25 -0.25)">
       <defs>
        <path id="DejaVuSans-32" d="M 1228 531 
L 3431 531 
L 3431 0 
L 469 0 
L 469 531 
Q 828 903 1448 1529 
Q 2069 2156 2228 2338 
Q 2531 2678 2651 2914 
Q 2772 3150 2772 3378 
Q 2772 3750 2511 3984 
Q 2250 4219 1831 4219 
Q 1534 4219 1204 4116 
Q 875 4013 500 3803 
L 500 4441 
Q 881 4594 1212 4672 
Q 1544 4750 1819 4750 
Q 2544 4750 2975 4387 
Q 3406 4025 3406 3419 
Q 3406 3131 3298 2873 
Q 3191 2616 2906 2266 
Q 2828 2175 2409 1742 
Q 1991 1309 1228 531 
z
" transform="scale(0.015625)"/>
       </defs>
       <use xlink:href="#DejaVuSans-32"/>
       <use xlink:href="#DejaVuSans-30" x="63.623047"/>
      </g>
     </g>
    </g>
    <g id="text_3">
     <!-- z-direction [μm] -->
     <g transform="translate(138.860156 430.125781)scale(0.25 -0.25)">
      <defs>
       <path id="DejaVuSans-7a" d="M 353 3500 
L 3084 3500 
L 3084 2975 
L 922 459 
L 3084 459 
L 3084 0 
L 275 0 
L 275 525 
L 2438 3041 
L 353 3041 
L 353 3500 
z
" transform="scale(0.015625)"/>
       <path id="DejaVuSans-2d" d="M 313 2009 
L 1997 2009 
L 1997 1497 
L 313 1497 
L 313 2009 
z
" transform="scale(0.015625)"/>
       <path id="DejaVuSans-64" d="M 2906 2969 
L 2906 4863 
L 3481 4863 
L 3481 0 
L 2906 0 
L 2906 525 
Q 2725 213 2448 61 
Q 2172 -91 1784 -91 
Q 1150 -91 751 415 
Q 353 922 353 1747 
Q 353 2572 751 3078 
Q 1150 3584 1784 3584 
Q 2172 3584 2448 3432 
Q 2725 3281 2906 2969 
z
M 947 1747 
Q 947 1113 1208 752 
Q 1469 391 1925 391 
Q 2381 391 2643 752 
Q 2906 1113 2906 1747 
Q 2906 2381 2643 2742 
Q 2381 3103 1925 3103 
Q 1469 3103 1208 2742 
Q 947 2381 947 1747 
z
" transform="scale(0.015625)"/>
       <path id="DejaVuSans-69" d="M 603 3500 
L 1178 3500 
L 1178 0 
L 603 0 
L 603 3500 
z
M 603 4863 
L 1178 4863 
L 1178 4134 
L 603 4134 
L 603 4863 
z
" transform="scale(0.015625)"/>
       <path id="DejaVuSans-72" d="M 2631 2963 
Q 2534 3019 2420 3045 
Q 2306 3072 2169 3072 
Q 1681 3072 1420 2755 
Q 1159 2438 1159 1844 
L 1159 0 
L 581 0 
L 581 3500 
L 1159 3500 
L 1159 2956 
Q 1341 3275 1631 3429 
Q 1922 3584 2338 3584 
Q 2397 3584 2469 3576 
Q 2541 3569 2628 3553 
L 2631 2963 
z
" transform="scale(0.015625)"/>
       <path id="DejaVuSans-65" d="M 3597 1894 
L 3597 1613 
L 953 1613 
Q 991 1019 1311 708 
Q 1631 397 2203 397 
Q 2534 397 2845 478 
Q 3156 559 3463 722 
L 3463 178 
Q 3153 47 2828 -22 
Q 2503 -91 2169 -91 
Q 1331 -91 842 396 
Q 353 884 353 1716 
Q 353 2575 817 3079 
Q 1281 3584 2069 3584 
Q 2775 3584 3186 3129 
Q 3597 2675 3597 1894 
z
M 3022 2063 
Q 3016 2534 2758 2815 
Q 2500 3097 2075 3097 
Q 1594 3097 1305 2825 
Q 1016 2553 972 2059 
L 3022 2063 
z
" transform="scale(0.015625)"/>
       <path id="DejaVuSans-63" d="M 3122 3366 
L 3122 2828 
Q 2878 2963 2633 3030 
Q 2388 3097 2138 3097 
Q 1578 3097 1268 2742 
Q 959 2388 959 1747 
Q 959 1106 1268 751 
Q 1578 397 2138 397 
Q 2388 397 2633 464 
Q 2878 531 3122 666 
L 3122 134 
Q 2881 22 2623 -34 
Q 2366 -91 2075 -91 
Q 1284 -91 818 406 
Q 353 903 353 1747 
Q 353 2603 823 3093 
Q 1294 3584 2113 3584 
Q 2378 3584 2631 3529 
Q 2884 3475 3122 3366 
z
" transform="scale(0.015625)"/>
       <path id="DejaVuSans-74" d="M 1172 4494 
L 1172 3500 
L 2356 3500 
L 2356 3053 
L 1172 3053 
L 1172 1153 
Q 1172 725 1289 603 
Q 1406 481 1766 481 
L 2356 481 
L 2356 0 
L 1766 0 
Q 1100 0 847 248 
Q 594 497 594 1153 
L 594 3053 
L 172 3053 
L 172 3500 
L 594 3500 
L 594 4494 
L 1172 4494 
z
" transform="scale(0.015625)"/>
       <path id="DejaVuSans-6f" d="M 1959 3097 
Q 1497 3097 1228 2736 
Q 959 2375 959 1747 
Q 959 1119 1226 758 
Q 1494 397 1959 397 
Q 2419 397 2687 759 
Q 2956 1122 2956 1747 
Q 2956 2369 2687 2733 
Q 2419 3097 1959 3097 
z
M 1959 3584 
Q 2709 3584 3137 3096 
Q 3566 2609 3566 1747 
Q 3566 888 3137 398 
Q 2709 -91 1959 -91 
Q 1206 -91 779 398 
Q 353 888 353 1747 
Q 353 2609 779 3096 
Q 1206 3584 1959 3584 
z
" transform="scale(0.015625)"/>
       <path id="DejaVuSans-6e" d="M 3513 2113 
L 3513 0 
L 2938 0 
L 2938 2094 
Q 2938 2591 2744 2837 
Q 2550 3084 2163 3084 
Q 1697 3084 1428 2787 
Q 1159 2491 1159 1978 
L 1159 0 
L 581 0 
L 581 3500 
L 1159 3500 
L 1159 2956 
Q 1366 3272 1645 3428 
Q 1925 3584 2291 3584 
Q 2894 3584 3203 3211 
Q 3513 2838 3513 2113 
z
" transform="scale(0.015625)"/>
       <path id="DejaVuSans-20" transform="scale(0.015625)"/>
       <path id="DejaVuSans-5b" d="M 550 4863 
L 1875 4863 
L 1875 4416 
L 1125 4416 
L 1125 -397 
L 1875 -397 
L 1875 -844 
L 550 -844 
L 550 4863 
z
" transform="scale(0.015625)"/>
       <path id="DejaVuSans-3bc" d="M 544 -1331 
L 544 3500 
L 1119 3500 
L 1119 1325 
Q 1119 872 1334 640 
Q 1550 409 1972 409 
Q 2434 409 2667 671 
Q 2900 934 2900 1459 
L 2900 3500 
L 3475 3500 
L 3475 806 
Q 3475 619 3529 530 
Q 3584 441 3700 441 
Q 3728 441 3778 458 
Q 3828 475 3916 513 
L 3916 50 
Q 3788 -22 3673 -56 
Q 3559 -91 3450 -91 
Q 3234 -91 3106 31 
Q 2978 153 2931 403 
Q 2775 156 2548 32 
Q 2322 -91 2016 -91 
Q 1697 -91 1473 31 
Q 1250 153 1119 397 
L 1119 -1331 
L 544 -1331 
z
" transform="scale(0.015625)"/>
       <path id="DejaVuSans-6d" d="M 3328 2828 
Q 3544 3216 3844 3400 
Q 4144 3584 4550 3584 
Q 5097 3584 5394 3201 
Q 5691 2819 5691 2113 
L 5691 0 
L 5113 0 
L 5113 2094 
Q 5113 2597 4934 2840 
Q 4756 3084 4391 3084 
Q 3944 3084 3684 2787 
Q 3425 2491 3425 1978 
L 3425 0 
L 2847 0 
L 2847 2094 
Q 2847 2600 2669 2842 
Q 2491 3084 2119 3084 
Q 1678 3084 1418 2786 
Q 1159 2488 1159 1978 
L 1159 0 
L 581 0 
L 581 3500 
L 1159 3500 
L 1159 2956 
Q 1356 3278 1631 3431 
Q 1906 3584 2284 3584 
Q 2666 3584 2933 3390 
Q 3200 3197 3328 2828 
z
" transform="scale(0.015625)"/>
       <path id="DejaVuSans-5d" d="M 1947 4863 
L 1947 -844 
L 622 -844 
L 622 -397 
L 1369 -397 
L 1369 4416 
L 622 4416 
L 622 4863 
L 1947 4863 
z
" transform="scale(0.015625)"/>
      </defs>
      <use xlink:href="#DejaVuSans-7a"/>
      <use xlink:href="#DejaVuSans-2d" x="52.490234"/>
      <use xlink:href="#DejaVuSans-64" x="88.574219"/>
      <use xlink:href="#DejaVuSans-69" x="152.050781"/>
      <use xlink:href="#DejaVuSans-72" x="179.833984"/>
      <use xlink:href="#DejaVuSans-65" x="218.697266"/>
      <use xlink:href="#DejaVuSans-63" x="280.220703"/>
      <use xlink:href="#DejaVuSans-74" x="335.201172"/>
      <use xlink:href="#DejaVuSans-69" x="374.410156"/>
      <use xlink:href="#DejaVuSans-6f" x="402.193359"/>
      <use xlink:href="#DejaVuSans-6e" x="463.375"/>
      <use xlink:href="#DejaVuSans-20" x="526.753906"/>
      <use xlink:href="#DejaVuSans-5b" x="558.541016"/>
      <use xlink:href="#DejaVuSans-3bc" x="597.554688"/>
      <use xlink:href="#DejaVuSans-6d" x="661.177734"/>
      <use xlink:href="#DejaVuSans-5d" x="758.589844"/>
     </g>
    </g>
   </g>
   <g id="matplotlib.axis_2">
    <g id="ytick_1">
     <g id="line2d_3">
      <defs>
       <path id="m37f7cbab1a" d="M 0 0 
L 4 0 
" style="stroke: #000000; stroke-width: 2"/>
      </defs>
      <g>
       <use xlink:href="#m37f7cbab1a" x="94.559375" y="379.434375" style="stroke: #000000; stroke-width: 2"/>
      </g>
     </g>
     <g id="text_4">
      <!-- 0.00 -->
      <g transform="translate(35.395313 388.932422)scale(0.25 -0.25)">
       <defs>
        <path id="DejaVuSans-2e" d="M 684 794 
L 1344 794 
L 1344 0 
L 684 0 
L 684 794 
z
" transform="scale(0.015625)"/>
       </defs>
       <use xlink:href="#DejaVuSans-30"/>
       <use xlink:href="#DejaVuSans-2e" x="63.623047"/>
       <use xlink:href="#DejaVuSans-30" x="95.410156"/>
       <use xlink:href="#DejaVuSans-30" x="159.033203"/>
      </g>
     </g>
    </g>
    <g id="ytick_2">
     <g id="line2d_4">
      <g>
       <use xlink:href="#m37f7cbab1a" x="94.559375" y="307.434375" style="stroke: #000000; stroke-width: 2"/>
      </g>
     </g>
     <g id="text_5">
      <!-- 0.01 -->
      <g transform="translate(35.395313 316.932422)scale(0.25 -0.25)">
       <defs>
        <path id="DejaVuSans-31" d="M 794 531 
L 1825 531 
L 1825 4091 
L 703 3866 
L 703 4441 
L 1819 4666 
L 2450 4666 
L 2450 531 
L 3481 531 
L 3481 0 
L 794 0 
L 794 531 
z
" transform="scale(0.015625)"/>
       </defs>
       <use xlink:href="#DejaVuSans-30"/>
       <use xlink:href="#DejaVuSans-2e" x="63.623047"/>
       <use xlink:href="#DejaVuSans-30" x="95.410156"/>
       <use xlink:href="#DejaVuSans-31" x="159.033203"/>
      </g>
     </g>
    </g>
    <g id="ytick_3">
     <g id="line2d_5">
      <g>
       <use xlink:href="#m37f7cbab1a" x="94.559375" y="235.434375" style="stroke: #000000; stroke-width: 2"/>
      </g>
     </g>
     <g id="text_6">
      <!-- 0.02 -->
      <g transform="translate(35.395313 244.932422)scale(0.25 -0.25)">
       <use xlink:href="#DejaVuSans-30"/>
       <use xlink:href="#DejaVuSans-2e" x="63.623047"/>
       <use xlink:href="#DejaVuSans-30" x="95.410156"/>
       <use xlink:href="#DejaVuSans-32" x="159.033203"/>
      </g>
     </g>
    </g>
    <g id="ytick_4">
     <g id="line2d_6">
      <g>
       <use xlink:href="#m37f7cbab1a" x="94.559375" y="163.434375" style="stroke: #000000; stroke-width: 2"/>
      </g>
     </g>
     <g id="text_7">
      <!-- 0.03 -->
      <g transform="translate(35.395313 172.932422)scale(0.25 -0.25)">
       <defs>
        <path id="DejaVuSans-33" d="M 2597 2516 
Q 3050 2419 3304 2112 
Q 3559 1806 3559 1356 
Q 3559 666 3084 287 
Q 2609 -91 1734 -91 
Q 1441 -91 1130 -33 
Q 819 25 488 141 
L 488 750 
Q 750 597 1062 519 
Q 1375 441 1716 441 
Q 2309 441 2620 675 
Q 2931 909 2931 1356 
Q 2931 1769 2642 2001 
Q 2353 2234 1838 2234 
L 1294 2234 
L 1294 2753 
L 1863 2753 
Q 2328 2753 2575 2939 
Q 2822 3125 2822 3475 
Q 2822 3834 2567 4026 
Q 2313 4219 1838 4219 
Q 1578 4219 1281 4162 
Q 984 4106 628 3988 
L 628 4550 
Q 988 4650 1302 4700 
Q 1616 4750 1894 4750 
Q 2613 4750 3031 4423 
Q 3450 4097 3450 3541 
Q 3450 3153 3228 2886 
Q 3006 2619 2597 2516 
z
" transform="scale(0.015625)"/>
       </defs>
       <use xlink:href="#DejaVuSans-30"/>
       <use xlink:href="#DejaVuSans-2e" x="63.623047"/>
       <use xlink:href="#DejaVuSans-30" x="95.410156"/>
       <use xlink:href="#DejaVuSans-33" x="159.033203"/>
      </g>
     </g>
    </g>
    <g id="ytick_5">
     <g id="line2d_7">
      <g>
       <use xlink:href="#m37f7cbab1a" x="94.559375" y="91.434375" style="stroke: #000000; stroke-width: 2"/>
      </g>
     </g>
     <g id="text_8">
      <!-- 0.04 -->
      <g transform="translate(35.395313 100.932422)scale(0.25 -0.25)">
       <defs>
        <path id="DejaVuSans-34" d="M 2419 4116 
L 825 1625 
L 2419 1625 
L 2419 4116 
z
M 2253 4666 
L 3047 4666 
L 3047 1625 
L 3713 1625 
L 3713 1100 
L 3047 1100 
L 3047 0 
L 2419 0 
L 2419 1100 
L 313 1100 
L 313 1709 
L 2253 4666 
z
" transform="scale(0.015625)"/>
       </defs>
       <use xlink:href="#DejaVuSans-30"/>
       <use xlink:href="#DejaVuSans-2e" x="63.623047"/>
       <use xlink:href="#DejaVuSans-30" x="95.410156"/>
       <use xlink:href="#DejaVuSans-34" x="159.033203"/>
      </g>
     </g>
    </g>
    <g id="ytick_6">
     <g id="line2d_8">
      <g>
       <use xlink:href="#m37f7cbab1a" x="94.559375" y="19.434375" style="stroke: #000000; stroke-width: 2"/>
      </g>
     </g>
     <g id="text_9">
      <!-- 0.05 -->
      <g transform="translate(35.395313 28.932422)scale(0.25 -0.25)">
       <defs>
        <path id="DejaVuSans-35" d="M 691 4666 
L 3169 4666 
L 3169 4134 
L 1269 4134 
L 1269 2991 
Q 1406 3038 1543 3061 
Q 1681 3084 1819 3084 
Q 2600 3084 3056 2656 
Q 3513 2228 3513 1497 
Q 3513 744 3044 326 
Q 2575 -91 1722 -91 
Q 1428 -91 1123 -41 
Q 819 9 494 109 
L 494 744 
Q 775 591 1075 516 
Q 1375 441 1709 441 
Q 2250 441 2565 725 
Q 2881 1009 2881 1497 
Q 2881 1984 2565 2268 
Q 2250 2553 1709 2553 
Q 1456 2553 1204 2497 
Q 953 2441 691 2322 
L 691 4666 
z
" transform="scale(0.015625)"/>
       </defs>
       <use xlink:href="#DejaVuSans-30"/>
       <use xlink:href="#DejaVuSans-2e" x="63.623047"/>
       <use xlink:href="#DejaVuSans-30" x="95.410156"/>
       <use xlink:href="#DejaVuSans-35" x="159.033203"/>
      </g>
     </g>
    </g>
    <g id="text_10">
     <!-- Estimated Concentration [mM] -->
     <g transform="translate(26.196094 391.66875)rotate(-90)scale(0.25 -0.25)">
      <defs>
       <path id="DejaVuSans-45" d="M 628 4666 
L 3578 4666 
L 3578 4134 
L 1259 4134 
L 1259 2753 
L 3481 2753 
L 3481 2222 
L 1259 2222 
L 1259 531 
L 3634 531 
L 3634 0 
L 628 0 
L 628 4666 
z
" transform="scale(0.015625)"/>
       <path id="DejaVuSans-73" d="M 2834 3397 
L 2834 2853 
Q 2591 2978 2328 3040 
Q 2066 3103 1784 3103 
Q 1356 3103 1142 2972 
Q 928 2841 928 2578 
Q 928 2378 1081 2264 
Q 1234 2150 1697 2047 
L 1894 2003 
Q 2506 1872 2764 1633 
Q 3022 1394 3022 966 
Q 3022 478 2636 193 
Q 2250 -91 1575 -91 
Q 1294 -91 989 -36 
Q 684 19 347 128 
L 347 722 
Q 666 556 975 473 
Q 1284 391 1588 391 
Q 1994 391 2212 530 
Q 2431 669 2431 922 
Q 2431 1156 2273 1281 
Q 2116 1406 1581 1522 
L 1381 1569 
Q 847 1681 609 1914 
Q 372 2147 372 2553 
Q 372 3047 722 3315 
Q 1072 3584 1716 3584 
Q 2034 3584 2315 3537 
Q 2597 3491 2834 3397 
z
" transform="scale(0.015625)"/>
       <path id="DejaVuSans-61" d="M 2194 1759 
Q 1497 1759 1228 1600 
Q 959 1441 959 1056 
Q 959 750 1161 570 
Q 1363 391 1709 391 
Q 2188 391 2477 730 
Q 2766 1069 2766 1631 
L 2766 1759 
L 2194 1759 
z
M 3341 1997 
L 3341 0 
L 2766 0 
L 2766 531 
Q 2569 213 2275 61 
Q 1981 -91 1556 -91 
Q 1019 -91 701 211 
Q 384 513 384 1019 
Q 384 1609 779 1909 
Q 1175 2209 1959 2209 
L 2766 2209 
L 2766 2266 
Q 2766 2663 2505 2880 
Q 2244 3097 1772 3097 
Q 1472 3097 1187 3025 
Q 903 2953 641 2809 
L 641 3341 
Q 956 3463 1253 3523 
Q 1550 3584 1831 3584 
Q 2591 3584 2966 3190 
Q 3341 2797 3341 1997 
z
" transform="scale(0.015625)"/>
       <path id="DejaVuSans-43" d="M 4122 4306 
L 4122 3641 
Q 3803 3938 3442 4084 
Q 3081 4231 2675 4231 
Q 1875 4231 1450 3742 
Q 1025 3253 1025 2328 
Q 1025 1406 1450 917 
Q 1875 428 2675 428 
Q 3081 428 3442 575 
Q 3803 722 4122 1019 
L 4122 359 
Q 3791 134 3420 21 
Q 3050 -91 2638 -91 
Q 1578 -91 968 557 
Q 359 1206 359 2328 
Q 359 3453 968 4101 
Q 1578 4750 2638 4750 
Q 3056 4750 3426 4639 
Q 3797 4528 4122 4306 
z
" transform="scale(0.015625)"/>
       <path id="DejaVuSans-4d" d="M 628 4666 
L 1569 4666 
L 2759 1491 
L 3956 4666 
L 4897 4666 
L 4897 0 
L 4281 0 
L 4281 4097 
L 3078 897 
L 2444 897 
L 1241 4097 
L 1241 0 
L 628 0 
L 628 4666 
z
" transform="scale(0.015625)"/>
      </defs>
      <use xlink:href="#DejaVuSans-45"/>
      <use xlink:href="#DejaVuSans-73" x="63.183594"/>
      <use xlink:href="#DejaVuSans-74" x="115.283203"/>
      <use xlink:href="#DejaVuSans-69" x="154.492188"/>
      <use xlink:href="#DejaVuSans-6d" x="182.275391"/>
      <use xlink:href="#DejaVuSans-61" x="279.6875"/>
      <use xlink:href="#DejaVuSans-74" x="340.966797"/>
      <use xlink:href="#DejaVuSans-65" x="380.175781"/>
      <use xlink:href="#DejaVuSans-64" x="441.699219"/>
      <use xlink:href="#DejaVuSans-20" x="505.175781"/>
      <use xlink:href="#DejaVuSans-43" x="536.962891"/>
      <use xlink:href="#DejaVuSans-6f" x="606.787109"/>
      <use xlink:href="#DejaVuSans-6e" x="667.96875"/>
      <use xlink:href="#DejaVuSans-63" x="731.347656"/>
      <use xlink:href="#DejaVuSans-65" x="786.328125"/>
      <use xlink:href="#DejaVuSans-6e" x="847.851562"/>
      <use xlink:href="#DejaVuSans-74" x="911.230469"/>
      <use xlink:href="#DejaVuSans-72" x="950.439453"/>
      <use xlink:href="#DejaVuSans-61" x="991.552734"/>
      <use xlink:href="#DejaVuSans-74" x="1052.832031"/>
      <use xlink:href="#DejaVuSans-69" x="1092.041016"/>
      <use xlink:href="#DejaVuSans-6f" x="1119.824219"/>
      <use xlink:href="#DejaVuSans-6e" x="1181.005859"/>
      <use xlink:href="#DejaVuSans-20" x="1244.384766"/>
      <use xlink:href="#DejaVuSans-5b" x="1276.171875"/>
      <use xlink:href="#DejaVuSans-6d" x="1315.185547"/>
      <use xlink:href="#DejaVuSans-4d" x="1412.597656"/>
      <use xlink:href="#DejaVuSans-5d" x="1498.876953"/>
     </g>
    </g>
   </g>
   <g id="line2d_9">
    <path d="M 102.343159 375.742969 
L 103.94709 375.747777 
L 105.551021 375.760246 
L 107.154952 375.77744 
L 108.758884 375.796435 
L 110.362815 375.814475 
L 111.966746 375.828933 
L 113.570677 375.837192 
L 115.174608 375.837659 
L 116.77854 375.831214 
L 118.382471 375.819103 
L 119.986402 375.802848 
L 121.590333 375.786287 
L 123.194264 375.774422 
L 124.798196 375.772225 
L 126.402127 375.782385 
L 128.006058 375.804159 
L 129.609989 375.83652 
L 131.21392 375.877471 
L 132.817852 375.920238 
L 134.421783 375.956579 
L 136.025714 375.97851 
L 137.629645 375.983563 
L 139.233576 375.974543 
L 140.837508 375.954465 
L 142.441439 375.926883 
L 144.04537 375.896929 
L 145.649301 375.870025 
L 147.253232 375.851108 
L 148.857164 375.839912 
L 150.461095 375.833018 
L 152.065026 375.826969 
L 153.668957 375.818992 
L 155.272889 375.807559 
L 156.87682 375.791269 
L 158.480751 375.769617 
L 160.084682 375.747533 
L 161.688613 375.731986 
L 163.292545 375.729809 
L 164.896476 375.743606 
L 166.500407 375.771136 
L 168.104338 375.809898 
L 169.708269 375.856414 
L 171.312201 375.903694 
L 172.916132 375.943958 
L 174.520063 375.970037 
L 176.123994 375.983186 
L 177.727925 375.990805 
L 179.331857 376.00042 
L 180.935788 376.016766 
L 182.539719 376.038478 
L 184.14365 376.063383 
L 185.747581 376.089408 
L 187.351513 376.115215 
L 188.955444 376.139806 
L 190.559375 376.162192 
L 192.163306 376.181764 
L 193.767237 376.198425 
L 195.371169 376.212119 
L 196.9751 376.222883 
L 198.579031 376.23117 
L 200.182962 376.237549 
L 201.786893 376.242628 
L 203.390825 376.24771 
L 204.994756 376.254705 
L 206.598687 376.265539 
L 208.202618 376.280587 
L 209.806549 376.296082 
L 211.410481 376.307579 
L 213.014412 376.311011 
L 214.618343 376.305917 
L 216.222274 376.293825 
L 217.826205 376.276305 
L 219.430137 376.256204 
L 221.034068 376.23848 
L 222.637999 376.228287 
L 224.24193 376.229536 
L 225.845861 376.239342 
L 227.449793 376.252511 
L 229.053724 376.263967 
L 230.657655 376.27164 
L 232.261586 376.276602 
L 233.865518 376.280075 
L 235.469449 376.283246 
L 237.07338 376.287192 
L 238.677311 376.29297 
L 240.281242 376.301519 
L 241.885174 376.312383 
L 243.489105 376.324175 
L 245.093036 376.335486 
L 246.696967 376.344079 
L 248.300898 376.346069 
L 249.90483 376.337376 
L 251.508761 376.315968 
L 253.112692 376.293662 
L 254.716623 376.288021 
L 256.320554 376.316045 
L 257.924486 376.373924 
L 259.528417 376.431775 
L 261.132348 376.458065 
" clip-path="url(#pa7ada5df1d)" style="fill: none; stroke: #1f77b4; stroke-width: 3; stroke-linecap: square"/>
   </g>
   <g id="line2d_10">
    <path d="M 102.343159 365.939334 
L 103.94709 366.020208 
L 105.551021 366.2112 
L 107.154952 366.434861 
L 108.758884 366.617494 
L 110.362815 366.744679 
L 111.966746 366.849313 
L 113.570677 366.965568 
L 115.174608 367.11382 
L 116.77854 367.281172 
L 118.382471 367.449813 
L 119.986402 367.603272 
L 121.590333 367.736411 
L 123.194264 367.849791 
L 124.798196 367.943969 
L 126.402127 368.016862 
L 128.006058 368.062413 
L 129.609989 368.074243 
L 131.21392 368.050116 
L 132.817852 368.008219 
L 134.421783 367.97301 
L 136.025714 367.968146 
L 137.629645 368.000242 
L 139.233576 368.059624 
L 140.837508 368.135964 
L 142.441439 368.218543 
L 144.04537 368.295488 
L 145.649301 368.354716 
L 147.253232 368.385504 
L 148.857164 368.391707 
L 150.461095 368.386019 
L 152.065026 368.381214 
L 153.668957 368.385679 
L 155.272889 368.399869 
L 156.87682 368.423401 
L 158.480751 368.456273 
L 160.084682 368.500775 
L 161.688613 368.560061 
L 163.292545 368.637024 
L 164.896476 368.726741 
L 166.500407 368.815342 
L 168.104338 368.888466 
L 169.708269 368.936982 
L 171.312201 368.970624 
L 172.916132 369.003376 
L 174.520063 369.04809 
L 176.123994 369.101992 
L 177.727925 369.150912 
L 179.331857 369.180455 
L 180.935788 369.182068 
L 182.539719 369.159994 
L 184.14365 369.120166 
L 185.747581 369.069276 
L 187.351513 369.019731 
L 188.955444 368.986556 
L 190.559375 368.984534 
L 192.163306 369.017427 
L 193.767237 369.073867 
L 195.371169 369.141391 
L 196.9751 369.207738 
L 198.579031 369.261541 
L 200.182962 369.29168 
L 201.786893 369.28782 
L 203.390825 369.253938 
L 204.994756 369.206515 
L 206.598687 369.162442 
L 208.202618 369.13321 
L 209.806549 369.115938 
L 211.410481 369.105379 
L 213.014412 369.096344 
L 214.618343 369.084166 
L 216.222274 369.064473 
L 217.826205 369.032991 
L 219.430137 368.992374 
L 221.034068 368.956699 
L 222.637999 368.94111 
L 224.24193 368.955998 
L 225.845861 368.985768 
L 227.449793 369.005997 
L 229.053724 368.993074 
L 230.657655 368.94394 
L 232.261586 368.877029 
L 233.865518 368.811787 
L 235.469449 368.763122 
L 237.07338 368.73117 
L 238.677311 368.713063 
L 240.281242 368.705457 
L 241.885174 368.699186 
L 243.489105 368.681219 
L 245.093036 368.638531 
L 246.696967 368.568566 
L 248.300898 368.489584 
L 249.90483 368.422307 
L 251.508761 368.38221 
L 253.112692 368.349255 
L 254.716623 368.288678 
L 256.320554 368.166912 
L 257.924486 367.995059 
L 259.528417 367.840175 
L 261.132348 367.772859 
" clip-path="url(#pa7ada5df1d)" style="fill: none; stroke: #ff7f0e; stroke-width: 3; stroke-linecap: square"/>
   </g>
   <g id="line2d_11">
    <path d="M 102.343159 328.523389 
L 103.94709 328.828029 
L 105.551021 329.562538 
L 107.154952 330.457798 
L 108.758884 331.256584 
L 110.362815 331.889729 
L 111.966746 332.438184 
L 113.570677 332.986984 
L 115.174608 333.59209 
L 116.77854 334.239331 
L 118.382471 334.90418 
L 119.986402 335.563838 
L 121.590333 336.210117 
L 123.194264 336.842181 
L 124.798196 337.459267 
L 126.402127 338.061686 
L 128.006058 338.651362 
L 129.609989 339.230354 
L 131.21392 339.794523 
L 132.817852 340.309236 
L 134.421783 340.730491 
L 136.025714 341.016801 
L 137.629645 341.180148 
L 139.233576 341.283627 
L 140.837508 341.392366 
L 142.441439 341.552084 
L 144.04537 341.751409 
L 145.649301 341.968527 
L 147.253232 342.184046 
L 148.857164 342.404515 
L 150.461095 342.65222 
L 152.065026 342.949479 
L 153.668957 343.300721 
L 155.272889 343.678005 
L 156.87682 344.04998 
L 158.480751 344.389401 
L 160.084682 344.693977 
L 161.688613 344.970792 
L 163.292545 345.226941 
L 164.896476 345.469338 
L 166.500407 345.704692 
L 168.104338 345.939696 
L 169.708269 346.1747 
L 171.312201 346.387149 
L 172.916132 346.549329 
L 174.520063 346.635277 
L 176.123994 346.643232 
L 177.727925 346.589074 
L 179.331857 346.489123 
L 180.935788 346.367955 
L 182.539719 346.2682 
L 184.14365 346.23488 
L 185.747581 346.303485 
L 187.351513 346.437498 
L 188.955444 346.56749 
L 190.559375 346.624805 
L 192.163306 346.582041 
L 193.767237 346.468394 
L 195.371169 346.317163 
L 196.9751 346.15568 
L 198.579031 345.984812 
L 200.182962 345.798092 
L 201.786893 345.589015 
L 203.390825 345.350453 
L 204.994756 345.074728 
L 206.598687 344.754169 
L 208.202618 344.395634 
L 209.806549 344.044639 
L 211.410481 343.753066 
L 213.014412 343.566508 
L 214.618343 343.470869 
L 216.222274 343.419065 
L 217.826205 343.363863 
L 219.430137 343.272009 
L 221.034068 343.133297 
L 222.637999 342.939672 
L 224.24193 342.685188 
L 225.845861 342.375419 
L 227.449793 342.019855 
L 229.053724 341.627192 
L 230.657655 341.186219 
L 232.261586 340.664901 
L 233.865518 340.03023 
L 235.469449 339.276702 
L 237.07338 338.488353 
L 238.677311 337.767412 
L 240.281242 337.207517 
L 241.885174 336.798154 
L 243.489105 336.459525 
L 245.093036 336.110716 
L 246.696967 335.689216 
L 248.300898 335.169112 
L 249.90483 334.528817 
L 251.508761 333.748674 
L 253.112692 332.822094 
L 254.716623 331.747907 
L 256.320554 330.528512 
L 257.924486 329.293762 
L 259.528417 328.333186 
L 261.132348 327.94641 
" clip-path="url(#pa7ada5df1d)" style="fill: none; stroke: #2ca02c; stroke-width: 3; stroke-linecap: square"/>
   </g>
   <g id="line2d_12">
    <path d="M 102.343159 247.590866 
L 103.94709 247.917102 
L 105.551021 248.782434 
L 107.154952 250.016793 
L 108.758884 251.45606 
L 110.362815 253.030136 
L 111.966746 254.743978 
L 113.570677 256.604506 
L 115.174608 258.579724 
L 116.77854 260.54378 
L 118.382471 262.356958 
L 119.986402 263.897788 
L 121.590333 265.199115 
L 123.194264 266.371377 
L 124.798196 267.524588 
L 126.402127 268.712744 
L 128.006058 269.905632 
L 129.609989 271.066095 
L 131.21392 272.160488 
L 132.817852 273.172458 
L 134.421783 274.09096 
L 136.025714 274.906728 
L 137.629645 275.648214 
L 139.233576 276.379925 
L 140.837508 277.167788 
L 142.441439 278.046163 
L 144.04537 278.956556 
L 145.649301 279.823487 
L 147.253232 280.579874 
L 148.857164 281.248574 
L 150.461095 281.906997 
L 152.065026 282.632724 
L 153.668957 283.44677 
L 155.272889 284.267788 
L 156.87682 285.003653 
L 158.480751 285.576163 
L 160.084682 285.991721 
L 161.688613 286.28852 
L 163.292545 286.505109 
L 164.896476 286.688941 
L 166.500407 286.897657 
L 168.104338 287.189458 
L 169.708269 287.597741 
L 171.312201 288.06643 
L 172.916132 288.519282 
L 174.520063 288.884652 
L 176.123994 289.154351 
L 177.727925 289.36645 
L 179.331857 289.559886 
L 180.935788 289.738276 
L 182.539719 289.827933 
L 184.14365 289.744939 
L 185.747581 289.42398 
L 187.351513 288.940299 
L 188.955444 288.433365 
L 190.559375 288.040916 
L 192.163306 287.809796 
L 193.767237 287.662154 
L 195.371169 287.511103 
L 196.9751 287.282656 
L 198.579031 286.960047 
L 200.182962 286.54237 
L 201.786893 286.02944 
L 203.390825 285.434172 
L 204.994756 284.780926 
L 206.598687 284.094447 
L 208.202618 283.398949 
L 209.806549 282.717224 
L 211.410481 282.071836 
L 213.014412 281.480108 
L 214.618343 280.909612 
L 216.222274 280.300434 
L 217.826205 279.593 
L 219.430137 278.772991 
L 221.034068 277.900687 
L 222.637999 277.043337 
L 224.24193 276.251027 
L 225.845861 275.480047 
L 227.449793 274.6548 
L 229.053724 273.702964 
L 230.657655 272.634707 
L 232.261586 271.546479 
L 233.865518 270.538781 
L 235.469449 269.666723 
L 237.07338 268.83764 
L 238.677311 267.928844 
L 240.281242 266.825015 
L 241.885174 265.500134 
L 243.489105 263.987591 
L 245.093036 262.321952 
L 246.696967 260.551003 
L 248.300898 258.748829 
L 249.90483 256.992625 
L 251.508761 255.330574 
L 253.112692 253.614472 
L 254.716623 251.614685 
L 256.320554 249.1137 
L 257.924486 246.338465 
L 259.528417 244.072741 
L 261.132348 243.135505 
" clip-path="url(#pa7ada5df1d)" style="fill: none; stroke: #d62728; stroke-width: 3; stroke-linecap: square"/>
   </g>
   <g id="line2d_13">
    <path d="M 102.343159 137.503251 
L 103.94709 138.375432 
L 105.551021 140.53933 
L 107.154952 143.315974 
L 108.758884 146.050585 
L 110.362815 148.47087 
L 111.966746 150.609843 
L 113.570677 152.509126 
L 115.174608 154.240767 
L 116.77854 155.950192 
L 118.382471 157.793667 
L 119.986402 159.901273 
L 121.590333 162.181624 
L 123.194264 164.431978 
L 124.798196 166.450631 
L 126.402127 168.140163 
L 128.006058 169.559912 
L 129.609989 170.782143 
L 131.21392 171.888733 
L 132.817852 173.008852 
L 134.421783 174.286196 
L 136.025714 175.858336 
L 137.629645 177.732627 
L 139.233576 179.791937 
L 140.837508 181.914147 
L 142.441439 183.974211 
L 144.04537 185.838466 
L 145.649301 187.371675 
L 147.253232 188.45417 
L 148.857164 189.132981 
L 150.461095 189.556259 
L 152.065026 189.873258 
L 153.668957 190.203226 
L 155.272889 190.611118 
L 156.87682 191.156168 
L 158.480751 191.88535 
L 160.084682 192.771101 
L 161.688613 193.757855 
L 163.292545 194.78927 
L 164.896476 195.787379 
L 166.500407 196.649475 
L 168.104338 197.271493 
L 169.708269 197.591982 
L 171.312201 197.703206 
L 172.916132 197.732084 
L 174.520063 197.799547 
L 176.123994 197.94394 
L 177.727925 198.143406 
L 179.331857 198.374677 
L 180.935788 198.606012 
L 182.539719 198.787125 
L 184.14365 198.865274 
L 185.747581 198.793515 
L 187.351513 198.568706 
L 188.955444 198.207723 
L 190.559375 197.728362 
L 192.163306 197.184547 
L 193.767237 196.679757 
L 195.371169 196.321065 
L 196.9751 196.163051 
L 198.579031 196.027428 
L 200.182962 195.671356 
L 201.786893 194.865473 
L 203.390825 193.62635 
L 204.994756 192.185427 
L 206.598687 190.781256 
L 208.202618 189.584779 
L 209.806549 188.587003 
L 211.410481 187.74933 
L 213.014412 187.029877 
L 214.618343 186.355562 
L 216.222274 185.636059 
L 217.826205 184.781588 
L 219.430137 183.753979 
L 221.034068 182.600144 
L 222.637999 181.374945 
L 224.24193 180.122611 
L 225.845861 178.829267 
L 227.449793 177.461283 
L 229.053724 175.986575 
L 230.657655 174.412082 
L 232.261586 172.785557 
L 233.865518 171.156671 
L 235.469449 169.565983 
L 237.07338 168.024379 
L 238.677311 166.536718 
L 240.281242 165.101509 
L 241.885174 163.640275 
L 243.489105 162.023328 
L 245.093036 160.120723 
L 246.696967 157.8909 
L 248.300898 155.468081 
L 249.90483 153.007268 
L 251.508761 150.611166 
L 253.112692 148.028453 
L 254.716623 144.861005 
L 256.320554 140.73194 
L 257.924486 136.043575 
L 259.528417 132.174393 
L 261.132348 130.564617 
" clip-path="url(#pa7ada5df1d)" style="fill: none; stroke: #9467bd; stroke-width: 3; stroke-linecap: square"/>
   </g>
   <g id="patch_3">
    <path d="M 94.559375 379.434375 
L 94.559375 19.434375 
" style="fill: none; stroke: #000000; stroke-width: 2; stroke-linejoin: miter; stroke-linecap: square"/>
   </g>
   <g id="patch_4">
    <path d="M 382.559375 379.434375 
L 382.559375 19.434375 
" style="fill: none; stroke: #000000; stroke-width: 2; stroke-linejoin: miter; stroke-linecap: square"/>
   </g>
   <g id="patch_5">
    <path d="M 94.559375 379.434375 
L 382.559375 379.434375 
" style="fill: none; stroke: #000000; stroke-width: 2; stroke-linejoin: miter; stroke-linecap: square"/>
   </g>
   <g id="patch_6">
    <path d="M 94.559375 19.434375 
L 382.559375 19.434375 
" style="fill: none; stroke: #000000; stroke-width: 2; stroke-linejoin: miter; stroke-linecap: square"/>
   </g>
   <g id="text_11">
    <!-- 7 sec -->
    <g style="fill: #1f77b4" transform="translate(288.843908 376.458062)scale(0.25 -0.25)">
     <defs>
      <path id="DejaVuSans-37" d="M 525 4666 
L 3525 4666 
L 3525 4397 
L 1831 0 
L 1172 0 
L 2766 4134 
L 525 4134 
L 525 4666 
z
" transform="scale(0.015625)"/>
     </defs>
     <use xlink:href="#DejaVuSans-37"/>
     <use xlink:href="#DejaVuSans-20" x="63.623047"/>
     <use xlink:href="#DejaVuSans-73" x="95.410156"/>
     <use xlink:href="#DejaVuSans-65" x="147.509766"/>
     <use xlink:href="#DejaVuSans-63" x="209.033203"/>
    </g>
   </g>
   <g id="text_12">
    <!-- 367 sec -->
    <g style="fill: #ff7f0e" transform="translate(272.937658 367.772855)scale(0.25 -0.25)">
     <defs>
      <path id="DejaVuSans-36" d="M 2113 2584 
Q 1688 2584 1439 2293 
Q 1191 2003 1191 1497 
Q 1191 994 1439 701 
Q 1688 409 2113 409 
Q 2538 409 2786 701 
Q 3034 994 3034 1497 
Q 3034 2003 2786 2293 
Q 2538 2584 2113 2584 
z
M 3366 4563 
L 3366 3988 
Q 3128 4100 2886 4159 
Q 2644 4219 2406 4219 
Q 1781 4219 1451 3797 
Q 1122 3375 1075 2522 
Q 1259 2794 1537 2939 
Q 1816 3084 2150 3084 
Q 2853 3084 3261 2657 
Q 3669 2231 3669 1497 
Q 3669 778 3244 343 
Q 2819 -91 2113 -91 
Q 1303 -91 875 529 
Q 447 1150 447 2328 
Q 447 3434 972 4092 
Q 1497 4750 2381 4750 
Q 2619 4750 2861 4703 
Q 3103 4656 3366 4563 
z
" transform="scale(0.015625)"/>
     </defs>
     <use xlink:href="#DejaVuSans-33"/>
     <use xlink:href="#DejaVuSans-36" x="63.623047"/>
     <use xlink:href="#DejaVuSans-37" x="127.246094"/>
     <use xlink:href="#DejaVuSans-20" x="190.869141"/>
     <use xlink:href="#DejaVuSans-73" x="222.65625"/>
     <use xlink:href="#DejaVuSans-65" x="274.755859"/>
     <use xlink:href="#DejaVuSans-63" x="336.279297"/>
    </g>
   </g>
   <g id="text_13">
    <!-- 847 sec -->
    <g style="fill: #2ca02c" transform="translate(272.937658 327.946407)scale(0.25 -0.25)">
     <defs>
      <path id="DejaVuSans-38" d="M 2034 2216 
Q 1584 2216 1326 1975 
Q 1069 1734 1069 1313 
Q 1069 891 1326 650 
Q 1584 409 2034 409 
Q 2484 409 2743 651 
Q 3003 894 3003 1313 
Q 3003 1734 2745 1975 
Q 2488 2216 2034 2216 
z
M 1403 2484 
Q 997 2584 770 2862 
Q 544 3141 544 3541 
Q 544 4100 942 4425 
Q 1341 4750 2034 4750 
Q 2731 4750 3128 4425 
Q 3525 4100 3525 3541 
Q 3525 3141 3298 2862 
Q 3072 2584 2669 2484 
Q 3125 2378 3379 2068 
Q 3634 1759 3634 1313 
Q 3634 634 3220 271 
Q 2806 -91 2034 -91 
Q 1263 -91 848 271 
Q 434 634 434 1313 
Q 434 1759 690 2068 
Q 947 2378 1403 2484 
z
M 1172 3481 
Q 1172 3119 1398 2916 
Q 1625 2713 2034 2713 
Q 2441 2713 2670 2916 
Q 2900 3119 2900 3481 
Q 2900 3844 2670 4047 
Q 2441 4250 2034 4250 
Q 1625 4250 1398 4047 
Q 1172 3844 1172 3481 
z
" transform="scale(0.015625)"/>
     </defs>
     <use xlink:href="#DejaVuSans-38"/>
     <use xlink:href="#DejaVuSans-34" x="63.623047"/>
     <use xlink:href="#DejaVuSans-37" x="127.246094"/>
     <use xlink:href="#DejaVuSans-20" x="190.869141"/>
     <use xlink:href="#DejaVuSans-73" x="222.65625"/>
     <use xlink:href="#DejaVuSans-65" x="274.755859"/>
     <use xlink:href="#DejaVuSans-63" x="336.279297"/>
    </g>
   </g>
   <g id="text_14">
    <!-- 1327 sec -->
    <g style="fill: #d62728" transform="translate(264.984533 243.135502)scale(0.25 -0.25)">
     <use xlink:href="#DejaVuSans-31"/>
     <use xlink:href="#DejaVuSans-33" x="63.623047"/>
     <use xlink:href="#DejaVuSans-32" x="127.246094"/>
     <use xlink:href="#DejaVuSans-37" x="190.869141"/>
     <use xlink:href="#DejaVuSans-20" x="254.492188"/>
     <use xlink:href="#DejaVuSans-73" x="286.279297"/>
     <use xlink:href="#DejaVuSans-65" x="338.378906"/>
     <use xlink:href="#DejaVuSans-63" x="399.902344"/>
    </g>
   </g>
   <g id="text_15">
    <!-- 1807 sec -->
    <g style="fill: #9467bd" transform="translate(264.984533 130.564614)scale(0.25 -0.25)">
     <use xlink:href="#DejaVuSans-31"/>
     <use xlink:href="#DejaVuSans-38" x="63.623047"/>
     <use xlink:href="#DejaVuSans-30" x="127.246094"/>
     <use xlink:href="#DejaVuSans-37" x="190.869141"/>
     <use xlink:href="#DejaVuSans-20" x="254.492188"/>
     <use xlink:href="#DejaVuSans-73" x="286.279297"/>
     <use xlink:href="#DejaVuSans-65" x="338.378906"/>
     <use xlink:href="#DejaVuSans-63" x="399.902344"/>
    </g>
   </g>
  </g>
  <g id="axes_2">
   <g id="matplotlib.axis_3">
    <g id="ytick_7">
     <g id="line2d_14">
      <defs>
       <path id="m69431fe1c2" d="M 0 0 
L -4 0 
" style="stroke: #000000; stroke-width: 2"/>
      </defs>
      <g>
       <use xlink:href="#m69431fe1c2" x="382.559375" y="379.434375" style="stroke: #000000; stroke-width: 2"/>
      </g>
     </g>
     <g id="text_16">
      <!-- 0.00 -->
      <g transform="translate(386.059375 388.932422)scale(0.25 -0.25)">
       <use xlink:href="#DejaVuSans-30"/>
       <use xlink:href="#DejaVuSans-2e" x="63.623047"/>
       <use xlink:href="#DejaVuSans-30" x="95.410156"/>
       <use xlink:href="#DejaVuSans-30" x="159.033203"/>
      </g>
     </g>
    </g>
    <g id="ytick_8">
     <g id="line2d_15">
      <g>
       <use xlink:href="#m69431fe1c2" x="382.559375" y="294.262672" style="stroke: #000000; stroke-width: 2"/>
      </g>
     </g>
     <g id="text_17">
      <!-- 0.01 -->
      <g transform="translate(386.059375 303.760718)scale(0.25 -0.25)">
       <use xlink:href="#DejaVuSans-30"/>
       <use xlink:href="#DejaVuSans-2e" x="63.623047"/>
       <use xlink:href="#DejaVuSans-30" x="95.410156"/>
       <use xlink:href="#DejaVuSans-31" x="159.033203"/>
      </g>
     </g>
    </g>
    <g id="ytick_9">
     <g id="line2d_16">
      <g>
       <use xlink:href="#m69431fe1c2" x="382.559375" y="209.090968" style="stroke: #000000; stroke-width: 2"/>
      </g>
     </g>
     <g id="text_18">
      <!-- 0.02 -->
      <g transform="translate(386.059375 218.589015)scale(0.25 -0.25)">
       <use xlink:href="#DejaVuSans-30"/>
       <use xlink:href="#DejaVuSans-2e" x="63.623047"/>
       <use xlink:href="#DejaVuSans-30" x="95.410156"/>
       <use xlink:href="#DejaVuSans-32" x="159.033203"/>
      </g>
     </g>
    </g>
    <g id="ytick_10">
     <g id="line2d_17">
      <g>
       <use xlink:href="#m69431fe1c2" x="382.559375" y="123.919265" style="stroke: #000000; stroke-width: 2"/>
      </g>
     </g>
     <g id="text_19">
      <!-- 0.03 -->
      <g transform="translate(386.059375 133.417312)scale(0.25 -0.25)">
       <use xlink:href="#DejaVuSans-30"/>
       <use xlink:href="#DejaVuSans-2e" x="63.623047"/>
       <use xlink:href="#DejaVuSans-30" x="95.410156"/>
       <use xlink:href="#DejaVuSans-33" x="159.033203"/>
      </g>
     </g>
    </g>
    <g id="ytick_11">
     <g id="line2d_18">
      <g>
       <use xlink:href="#m69431fe1c2" x="382.559375" y="38.747561" style="stroke: #000000; stroke-width: 2"/>
      </g>
     </g>
     <g id="text_20">
      <!-- 0.04 -->
      <g transform="translate(386.059375 48.245608)scale(0.25 -0.25)">
       <use xlink:href="#DejaVuSans-30"/>
       <use xlink:href="#DejaVuSans-2e" x="63.623047"/>
       <use xlink:href="#DejaVuSans-30" x="95.410156"/>
       <use xlink:href="#DejaVuSans-34" x="159.033203"/>
      </g>
     </g>
    </g>
    <g id="text_21">
     <!-- Estimated DNA duplexes/UCN -->
     <g transform="translate(464.719531 385.442187)rotate(-90)scale(0.25 -0.25)">
      <defs>
       <path id="DejaVuSans-44" d="M 1259 4147 
L 1259 519 
L 2022 519 
Q 2988 519 3436 956 
Q 3884 1394 3884 2338 
Q 3884 3275 3436 3711 
Q 2988 4147 2022 4147 
L 1259 4147 
z
M 628 4666 
L 1925 4666 
Q 3281 4666 3915 4102 
Q 4550 3538 4550 2338 
Q 4550 1131 3912 565 
Q 3275 0 1925 0 
L 628 0 
L 628 4666 
z
" transform="scale(0.015625)"/>
       <path id="DejaVuSans-4e" d="M 628 4666 
L 1478 4666 
L 3547 763 
L 3547 4666 
L 4159 4666 
L 4159 0 
L 3309 0 
L 1241 3903 
L 1241 0 
L 628 0 
L 628 4666 
z
" transform="scale(0.015625)"/>
       <path id="DejaVuSans-41" d="M 2188 4044 
L 1331 1722 
L 3047 1722 
L 2188 4044 
z
M 1831 4666 
L 2547 4666 
L 4325 0 
L 3669 0 
L 3244 1197 
L 1141 1197 
L 716 0 
L 50 0 
L 1831 4666 
z
" transform="scale(0.015625)"/>
       <path id="DejaVuSans-75" d="M 544 1381 
L 544 3500 
L 1119 3500 
L 1119 1403 
Q 1119 906 1312 657 
Q 1506 409 1894 409 
Q 2359 409 2629 706 
Q 2900 1003 2900 1516 
L 2900 3500 
L 3475 3500 
L 3475 0 
L 2900 0 
L 2900 538 
Q 2691 219 2414 64 
Q 2138 -91 1772 -91 
Q 1169 -91 856 284 
Q 544 659 544 1381 
z
M 1991 3584 
L 1991 3584 
z
" transform="scale(0.015625)"/>
       <path id="DejaVuSans-70" d="M 1159 525 
L 1159 -1331 
L 581 -1331 
L 581 3500 
L 1159 3500 
L 1159 2969 
Q 1341 3281 1617 3432 
Q 1894 3584 2278 3584 
Q 2916 3584 3314 3078 
Q 3713 2572 3713 1747 
Q 3713 922 3314 415 
Q 2916 -91 2278 -91 
Q 1894 -91 1617 61 
Q 1341 213 1159 525 
z
M 3116 1747 
Q 3116 2381 2855 2742 
Q 2594 3103 2138 3103 
Q 1681 3103 1420 2742 
Q 1159 2381 1159 1747 
Q 1159 1113 1420 752 
Q 1681 391 2138 391 
Q 2594 391 2855 752 
Q 3116 1113 3116 1747 
z
" transform="scale(0.015625)"/>
       <path id="DejaVuSans-6c" d="M 603 4863 
L 1178 4863 
L 1178 0 
L 603 0 
L 603 4863 
z
" transform="scale(0.015625)"/>
       <path id="DejaVuSans-78" d="M 3513 3500 
L 2247 1797 
L 3578 0 
L 2900 0 
L 1881 1375 
L 863 0 
L 184 0 
L 1544 1831 
L 300 3500 
L 978 3500 
L 1906 2253 
L 2834 3500 
L 3513 3500 
z
" transform="scale(0.015625)"/>
       <path id="DejaVuSans-2f" d="M 1625 4666 
L 2156 4666 
L 531 -594 
L 0 -594 
L 1625 4666 
z
" transform="scale(0.015625)"/>
       <path id="DejaVuSans-55" d="M 556 4666 
L 1191 4666 
L 1191 1831 
Q 1191 1081 1462 751 
Q 1734 422 2344 422 
Q 2950 422 3222 751 
Q 3494 1081 3494 1831 
L 3494 4666 
L 4128 4666 
L 4128 1753 
Q 4128 841 3676 375 
Q 3225 -91 2344 -91 
Q 1459 -91 1007 375 
Q 556 841 556 1753 
L 556 4666 
z
" transform="scale(0.015625)"/>
      </defs>
      <use xlink:href="#DejaVuSans-45"/>
      <use xlink:href="#DejaVuSans-73" x="63.183594"/>
      <use xlink:href="#DejaVuSans-74" x="115.283203"/>
      <use xlink:href="#DejaVuSans-69" x="154.492188"/>
      <use xlink:href="#DejaVuSans-6d" x="182.275391"/>
      <use xlink:href="#DejaVuSans-61" x="279.6875"/>
      <use xlink:href="#DejaVuSans-74" x="340.966797"/>
      <use xlink:href="#DejaVuSans-65" x="380.175781"/>
      <use xlink:href="#DejaVuSans-64" x="441.699219"/>
      <use xlink:href="#DejaVuSans-20" x="505.175781"/>
      <use xlink:href="#DejaVuSans-44" x="536.962891"/>
      <use xlink:href="#DejaVuSans-4e" x="613.964844"/>
      <use xlink:href="#DejaVuSans-41" x="688.769531"/>
      <use xlink:href="#DejaVuSans-20" x="757.177734"/>
      <use xlink:href="#DejaVuSans-64" x="788.964844"/>
      <use xlink:href="#DejaVuSans-75" x="852.441406"/>
      <use xlink:href="#DejaVuSans-70" x="915.820312"/>
      <use xlink:href="#DejaVuSans-6c" x="979.296875"/>
      <use xlink:href="#DejaVuSans-65" x="1007.080078"/>
      <use xlink:href="#DejaVuSans-78" x="1066.853516"/>
      <use xlink:href="#DejaVuSans-65" x="1122.908203"/>
      <use xlink:href="#DejaVuSans-73" x="1184.431641"/>
      <use xlink:href="#DejaVuSans-2f" x="1236.53125"/>
      <use xlink:href="#DejaVuSans-55" x="1270.222656"/>
      <use xlink:href="#DejaVuSans-43" x="1343.416016"/>
      <use xlink:href="#DejaVuSans-4e" x="1413.240234"/>
     </g>
    </g>
   </g>
   <g id="line2d_19">
    <path d="M 102.343159 375.742969 
L 103.94709 375.747777 
L 105.551021 375.760246 
L 107.154952 375.77744 
L 108.758884 375.796435 
L 110.362815 375.814475 
L 111.966746 375.828933 
L 113.570677 375.837192 
L 115.174608 375.837659 
L 116.77854 375.831214 
L 118.382471 375.819103 
L 119.986402 375.802848 
L 121.590333 375.786287 
L 123.194264 375.774422 
L 124.798196 375.772225 
L 126.402127 375.782385 
L 128.006058 375.804159 
L 129.609989 375.83652 
L 131.21392 375.877471 
L 132.817852 375.920238 
L 134.421783 375.956579 
L 136.025714 375.97851 
L 137.629645 375.983563 
L 139.233576 375.974543 
L 140.837508 375.954465 
L 142.441439 375.926883 
L 144.04537 375.896929 
L 145.649301 375.870025 
L 147.253232 375.851108 
L 148.857164 375.839912 
L 150.461095 375.833018 
L 152.065026 375.826969 
L 153.668957 375.818992 
L 155.272889 375.807559 
L 156.87682 375.791269 
L 158.480751 375.769617 
L 160.084682 375.747533 
L 161.688613 375.731986 
L 163.292545 375.729809 
L 164.896476 375.743606 
L 166.500407 375.771136 
L 168.104338 375.809898 
L 169.708269 375.856414 
L 171.312201 375.903694 
L 172.916132 375.943958 
L 174.520063 375.970037 
L 176.123994 375.983186 
L 177.727925 375.990805 
L 179.331857 376.00042 
L 180.935788 376.016766 
L 182.539719 376.038478 
L 184.14365 376.063383 
L 185.747581 376.089408 
L 187.351513 376.115215 
L 188.955444 376.139806 
L 190.559375 376.162192 
L 192.163306 376.181764 
L 193.767237 376.198425 
L 195.371169 376.212119 
L 196.9751 376.222883 
L 198.579031 376.23117 
L 200.182962 376.237549 
L 201.786893 376.242628 
L 203.390825 376.24771 
L 204.994756 376.254705 
L 206.598687 376.265539 
L 208.202618 376.280587 
L 209.806549 376.296082 
L 211.410481 376.307579 
L 213.014412 376.311011 
L 214.618343 376.305917 
L 216.222274 376.293825 
L 217.826205 376.276305 
L 219.430137 376.256204 
L 221.034068 376.23848 
L 222.637999 376.228287 
L 224.24193 376.229536 
L 225.845861 376.239342 
L 227.449793 376.252511 
L 229.053724 376.263967 
L 230.657655 376.27164 
L 232.261586 376.276602 
L 233.865518 376.280075 
L 235.469449 376.283246 
L 237.07338 376.287192 
L 238.677311 376.29297 
L 240.281242 376.301519 
L 241.885174 376.312383 
L 243.489105 376.324175 
L 245.093036 376.335486 
L 246.696967 376.344079 
L 248.300898 376.346069 
L 249.90483 376.337376 
L 251.508761 376.315968 
L 253.112692 376.293662 
L 254.716623 376.288021 
L 256.320554 376.316045 
L 257.924486 376.373924 
L 259.528417 376.431775 
L 261.132348 376.458065 
" clip-path="url(#pa7ada5df1d)" style="fill: none; stroke: #1f77b4; stroke-width: 0.01; stroke-linecap: square"/>
   </g>
   <g id="line2d_20">
    <path d="M 102.343159 375.613061 
L 103.94709 375.613908 
L 105.551021 375.615115 
L 107.154952 375.616676 
L 108.758884 375.618581 
L 110.362815 375.620822 
L 111.966746 375.623391 
L 113.570677 375.626281 
L 115.174608 375.629483 
L 116.77854 375.632988 
L 118.382471 375.636789 
L 119.986402 375.640878 
L 121.590333 375.645246 
L 123.194264 375.649885 
L 124.798196 375.654788 
L 126.402127 375.659945 
L 128.006058 375.665349 
L 129.609989 375.670992 
L 131.21392 375.676865 
L 132.817852 375.68296 
L 134.421783 375.68927 
L 136.025714 375.695786 
L 137.629645 375.702499 
L 139.233576 375.709402 
L 140.837508 375.716487 
L 142.441439 375.723745 
L 144.04537 375.731169 
L 145.649301 375.738749 
L 147.253232 375.746479 
L 148.857164 375.754349 
L 150.461095 375.762352 
L 152.065026 375.770479 
L 153.668957 375.778723 
L 155.272889 375.787075 
L 156.87682 375.795527 
L 158.480751 375.804071 
L 160.084682 375.812699 
L 161.688613 375.821402 
L 163.292545 375.830173 
L 164.896476 375.839002 
L 166.500407 375.847884 
L 168.104338 375.856808 
L 169.708269 375.865767 
L 171.312201 375.874752 
L 172.916132 375.883756 
L 174.520063 375.892771 
L 176.123994 375.901788 
L 177.727925 375.910799 
L 179.331857 375.919795 
L 180.935788 375.92877 
L 182.539719 375.937714 
L 184.14365 375.94662 
L 185.747581 375.955479 
L 187.351513 375.964283 
L 188.955444 375.973024 
L 190.559375 375.981694 
L 192.163306 375.990285 
L 193.767237 375.998788 
L 195.371169 376.007196 
L 196.9751 376.0155 
L 198.579031 376.023692 
L 200.182962 376.031764 
L 201.786893 376.039708 
L 203.390825 376.047516 
L 204.994756 376.055179 
L 206.598687 376.062689 
L 208.202618 376.070039 
L 209.806549 376.077219 
L 211.410481 376.084223 
L 213.014412 376.091041 
L 214.618343 376.097666 
L 216.222274 376.104089 
L 217.826205 376.110303 
L 219.430137 376.116299 
L 221.034068 376.122069 
L 222.637999 376.127604 
L 224.24193 376.132898 
L 225.845861 376.137941 
L 227.449793 376.142725 
L 229.053724 376.147242 
L 230.657655 376.151485 
L 232.261586 376.155445 
L 233.865518 376.159113 
L 235.469449 376.162482 
L 237.07338 376.165543 
L 238.677311 376.168289 
L 240.281242 376.170711 
L 241.885174 376.172801 
L 243.489105 376.174551 
L 245.093036 376.175952 
L 246.696967 376.176997 
L 248.300898 376.177678 
L 249.90483 376.177986 
L 251.508761 376.177913 
L 253.112692 376.177451 
L 254.716623 376.176592 
L 256.320554 376.175327 
L 257.924486 376.173649 
L 259.528417 376.171549 
L 261.132348 376.16902 
" clip-path="url(#pa7ada5df1d)" style="fill: none; stroke-dasharray: 11.1,4.8; stroke-dashoffset: 0; stroke: #000000; stroke-width: 3"/>
   </g>
   <g id="line2d_21">
    <path d="M 102.343159 365.939334 
L 103.94709 366.020208 
L 105.551021 366.2112 
L 107.154952 366.434861 
L 108.758884 366.617494 
L 110.362815 366.744679 
L 111.966746 366.849313 
L 113.570677 366.965568 
L 115.174608 367.11382 
L 116.77854 367.281172 
L 118.382471 367.449813 
L 119.986402 367.603272 
L 121.590333 367.736411 
L 123.194264 367.849791 
L 124.798196 367.943969 
L 126.402127 368.016862 
L 128.006058 368.062413 
L 129.609989 368.074243 
L 131.21392 368.050116 
L 132.817852 368.008219 
L 134.421783 367.97301 
L 136.025714 367.968146 
L 137.629645 368.000242 
L 139.233576 368.059624 
L 140.837508 368.135964 
L 142.441439 368.218543 
L 144.04537 368.295488 
L 145.649301 368.354716 
L 147.253232 368.385504 
L 148.857164 368.391707 
L 150.461095 368.386019 
L 152.065026 368.381214 
L 153.668957 368.385679 
L 155.272889 368.399869 
L 156.87682 368.423401 
L 158.480751 368.456273 
L 160.084682 368.500775 
L 161.688613 368.560061 
L 163.292545 368.637024 
L 164.896476 368.726741 
L 166.500407 368.815342 
L 168.104338 368.888466 
L 169.708269 368.936982 
L 171.312201 368.970624 
L 172.916132 369.003376 
L 174.520063 369.04809 
L 176.123994 369.101992 
L 177.727925 369.150912 
L 179.331857 369.180455 
L 180.935788 369.182068 
L 182.539719 369.159994 
L 184.14365 369.120166 
L 185.747581 369.069276 
L 187.351513 369.019731 
L 188.955444 368.986556 
L 190.559375 368.984534 
L 192.163306 369.017427 
L 193.767237 369.073867 
L 195.371169 369.141391 
L 196.9751 369.207738 
L 198.579031 369.261541 
L 200.182962 369.29168 
L 201.786893 369.28782 
L 203.390825 369.253938 
L 204.994756 369.206515 
L 206.598687 369.162442 
L 208.202618 369.13321 
L 209.806549 369.115938 
L 211.410481 369.105379 
L 213.014412 369.096344 
L 214.618343 369.084166 
L 216.222274 369.064473 
L 217.826205 369.032991 
L 219.430137 368.992374 
L 221.034068 368.956699 
L 222.637999 368.94111 
L 224.24193 368.955998 
L 225.845861 368.985768 
L 227.449793 369.005997 
L 229.053724 368.993074 
L 230.657655 368.94394 
L 232.261586 368.877029 
L 233.865518 368.811787 
L 235.469449 368.763122 
L 237.07338 368.73117 
L 238.677311 368.713063 
L 240.281242 368.705457 
L 241.885174 368.699186 
L 243.489105 368.681219 
L 245.093036 368.638531 
L 246.696967 368.568566 
L 248.300898 368.489584 
L 249.90483 368.422307 
L 251.508761 368.38221 
L 253.112692 368.349255 
L 254.716623 368.288678 
L 256.320554 368.166912 
L 257.924486 367.995059 
L 259.528417 367.840175 
L 261.132348 367.772859 
" clip-path="url(#pa7ada5df1d)" style="fill: none; stroke: #ff7f0e; stroke-width: 0.01; stroke-linecap: square"/>
   </g>
   <g id="line2d_22">
    <path d="M 102.343159 367.406283 
L 103.94709 367.508835 
L 105.551021 367.609472 
L 107.154952 367.708197 
L 108.758884 367.805012 
L 110.362815 367.899922 
L 111.966746 367.99293 
L 113.570677 368.084037 
L 115.174608 368.173248 
L 116.77854 368.260566 
L 118.382471 368.345993 
L 119.986402 368.429533 
L 121.590333 368.511189 
L 123.194264 368.590964 
L 124.798196 368.668861 
L 126.402127 368.744883 
L 128.006058 368.819033 
L 129.609989 368.891315 
L 131.21392 368.961731 
L 132.817852 369.030285 
L 134.421783 369.096979 
L 136.025714 369.161817 
L 137.629645 369.224802 
L 139.233576 369.285937 
L 140.837508 369.345226 
L 142.441439 369.40267 
L 144.04537 369.458274 
L 145.649301 369.51204 
L 147.253232 369.563971 
L 148.857164 369.614071 
L 150.461095 369.662343 
L 152.065026 369.70879 
L 153.668957 369.753414 
L 155.272889 369.79622 
L 156.87682 369.83721 
L 158.480751 369.876386 
L 160.084682 369.913754 
L 161.688613 369.949314 
L 163.292545 369.983071 
L 164.896476 370.015028 
L 166.500407 370.045188 
L 168.104338 370.073553 
L 169.708269 370.100127 
L 171.312201 370.124913 
L 172.916132 370.147915 
L 174.520063 370.169135 
L 176.123994 370.188575 
L 177.727925 370.206241 
L 179.331857 370.222134 
L 180.935788 370.236257 
L 182.539719 370.248615 
L 184.14365 370.259209 
L 185.747581 370.268043 
L 187.351513 370.27512 
L 188.955444 370.280444 
L 190.559375 370.284016 
L 192.163306 370.285841 
L 193.767237 370.285922 
L 195.371169 370.284261 
L 196.9751 370.280861 
L 198.579031 370.275727 
L 200.182962 370.26886 
L 201.786893 370.260264 
L 203.390825 370.249943 
L 204.994756 370.237898 
L 206.598687 370.224134 
L 208.202618 370.208653 
L 209.806549 370.191459 
L 211.410481 370.172554 
L 213.014412 370.151942 
L 214.618343 370.129626 
L 216.222274 370.105608 
L 217.826205 370.079893 
L 219.430137 370.052483 
L 221.034068 370.023381 
L 222.637999 369.99259 
L 224.24193 369.960114 
L 225.845861 369.925955 
L 227.449793 369.890116 
L 229.053724 369.852602 
L 230.657655 369.813414 
L 232.261586 369.772556 
L 233.865518 369.730032 
L 235.469449 369.685843 
L 237.07338 369.639993 
L 238.677311 369.592486 
L 240.281242 369.543325 
L 241.885174 369.492511 
L 243.489105 369.44005 
L 245.093036 369.385943 
L 246.696967 369.330194 
L 248.300898 369.272806 
L 249.90483 369.213782 
L 251.508761 369.153125 
L 253.112692 369.090839 
L 254.716623 369.026925 
L 256.320554 368.961388 
L 257.924486 368.894231 
L 259.528417 368.825457 
L 261.132348 368.755068 
" clip-path="url(#pa7ada5df1d)" style="fill: none; stroke-dasharray: 11.1,4.8; stroke-dashoffset: 0; stroke: #000000; stroke-width: 3"/>
   </g>
   <g id="line2d_23">
    <path d="M 102.343159 328.523389 
L 103.94709 328.828029 
L 105.551021 329.562538 
L 107.154952 330.457798 
L 108.758884 331.256584 
L 110.362815 331.889729 
L 111.966746 332.438184 
L 113.570677 332.986984 
L 115.174608 333.59209 
L 116.77854 334.239331 
L 118.382471 334.90418 
L 119.986402 335.563838 
L 121.590333 336.210117 
L 123.194264 336.842181 
L 124.798196 337.459267 
L 126.402127 338.061686 
L 128.006058 338.651362 
L 129.609989 339.230354 
L 131.21392 339.794523 
L 132.817852 340.309236 
L 134.421783 340.730491 
L 136.025714 341.016801 
L 137.629645 341.180148 
L 139.233576 341.283627 
L 140.837508 341.392366 
L 142.441439 341.552084 
L 144.04537 341.751409 
L 145.649301 341.968527 
L 147.253232 342.184046 
L 148.857164 342.404515 
L 150.461095 342.65222 
L 152.065026 342.949479 
L 153.668957 343.300721 
L 155.272889 343.678005 
L 156.87682 344.04998 
L 158.480751 344.389401 
L 160.084682 344.693977 
L 161.688613 344.970792 
L 163.292545 345.226941 
L 164.896476 345.469338 
L 166.500407 345.704692 
L 168.104338 345.939696 
L 169.708269 346.1747 
L 171.312201 346.387149 
L 172.916132 346.549329 
L 174.520063 346.635277 
L 176.123994 346.643232 
L 177.727925 346.589074 
L 179.331857 346.489123 
L 180.935788 346.367955 
L 182.539719 346.2682 
L 184.14365 346.23488 
L 185.747581 346.303485 
L 187.351513 346.437498 
L 188.955444 346.56749 
L 190.559375 346.624805 
L 192.163306 346.582041 
L 193.767237 346.468394 
L 195.371169 346.317163 
L 196.9751 346.15568 
L 198.579031 345.984812 
L 200.182962 345.798092 
L 201.786893 345.589015 
L 203.390825 345.350453 
L 204.994756 345.074728 
L 206.598687 344.754169 
L 208.202618 344.395634 
L 209.806549 344.044639 
L 211.410481 343.753066 
L 213.014412 343.566508 
L 214.618343 343.470869 
L 216.222274 343.419065 
L 217.826205 343.363863 
L 219.430137 343.272009 
L 221.034068 343.133297 
L 222.637999 342.939672 
L 224.24193 342.685188 
L 225.845861 342.375419 
L 227.449793 342.019855 
L 229.053724 341.627192 
L 230.657655 341.186219 
L 232.261586 340.664901 
L 233.865518 340.03023 
L 235.469449 339.276702 
L 237.07338 338.488353 
L 238.677311 337.767412 
L 240.281242 337.207517 
L 241.885174 336.798154 
L 243.489105 336.459525 
L 245.093036 336.110716 
L 246.696967 335.689216 
L 248.300898 335.169112 
L 249.90483 334.528817 
L 251.508761 333.748674 
L 253.112692 332.822094 
L 254.716623 331.747907 
L 256.320554 330.528512 
L 257.924486 329.293762 
L 259.528417 328.333186 
L 261.132348 327.94641 
" clip-path="url(#pa7ada5df1d)" style="fill: none; stroke: #2ca02c; stroke-width: 0.01; stroke-linecap: square"/>
   </g>
   <g id="line2d_24">
    <path d="M 102.343159 324.243885 
L 103.94709 324.935824 
L 105.551021 325.615686 
L 107.154952 326.283409 
L 108.758884 326.93893 
L 110.362815 327.582187 
L 111.966746 328.213118 
L 113.570677 328.831661 
L 115.174608 329.437752 
L 116.77854 330.031331 
L 118.382471 330.612335 
L 119.986402 331.180701 
L 121.590333 331.736367 
L 123.194264 332.279272 
L 124.798196 332.809352 
L 126.402127 333.326545 
L 128.006058 333.83079 
L 129.609989 334.322023 
L 131.21392 334.800183 
L 132.817852 335.265208 
L 134.421783 335.717035 
L 136.025714 336.155601 
L 137.629645 336.580846 
L 139.233576 336.992705 
L 140.837508 337.391118 
L 142.441439 337.776021 
L 144.04537 338.147353 
L 145.649301 338.505051 
L 147.253232 338.849053 
L 148.857164 339.179297 
L 150.461095 339.495721 
L 152.065026 339.798261 
L 153.668957 340.086857 
L 155.272889 340.361445 
L 156.87682 340.621964 
L 158.480751 340.868351 
L 160.084682 341.100544 
L 161.688613 341.31848 
L 163.292545 341.522098 
L 164.896476 341.711335 
L 166.500407 341.886128 
L 168.104338 342.046417 
L 169.708269 342.192137 
L 171.312201 342.323228 
L 172.916132 342.439627 
L 174.520063 342.541271 
L 176.123994 342.628098 
L 177.727925 342.700046 
L 179.331857 342.757053 
L 180.935788 342.799056 
L 182.539719 342.825994 
L 184.14365 342.837804 
L 185.747581 342.834423 
L 187.351513 342.81579 
L 188.955444 342.781841 
L 190.559375 342.732516 
L 192.163306 342.667751 
L 193.767237 342.587485 
L 195.371169 342.491655 
L 196.9751 342.380198 
L 198.579031 342.253053 
L 200.182962 342.110158 
L 201.786893 341.951449 
L 203.390825 341.776866 
L 204.994756 341.586344 
L 206.598687 341.379823 
L 208.202618 341.15724 
L 209.806549 340.918533 
L 211.410481 340.663639 
L 213.014412 340.392496 
L 214.618343 340.105043 
L 216.222274 339.801215 
L 217.826205 339.480953 
L 219.430137 339.144192 
L 221.034068 338.790871 
L 222.637999 338.420928 
L 224.24193 338.0343 
L 225.845861 337.630926 
L 227.449793 337.210742 
L 229.053724 336.773686 
L 230.657655 336.319697 
L 232.261586 335.848712 
L 233.865518 335.360669 
L 235.469449 334.855505 
L 237.07338 334.333159 
L 238.677311 333.793567 
L 240.281242 333.236668 
L 241.885174 332.6624 
L 243.489105 332.070699 
L 245.093036 331.461505 
L 246.696967 330.834754 
L 248.300898 330.190385 
L 249.90483 329.528334 
L 251.508761 328.848541 
L 253.112692 328.150942 
L 254.716623 327.435475 
L 256.320554 326.702079 
L 257.924486 325.95069 
L 259.528417 325.181247 
L 261.132348 324.393687 
" clip-path="url(#pa7ada5df1d)" style="fill: none; stroke-dasharray: 11.1,4.8; stroke-dashoffset: 0; stroke: #000000; stroke-width: 3"/>
   </g>
   <g id="line2d_25">
    <path d="M 102.343159 247.590866 
L 103.94709 247.917102 
L 105.551021 248.782434 
L 107.154952 250.016793 
L 108.758884 251.45606 
L 110.362815 253.030136 
L 111.966746 254.743978 
L 113.570677 256.604506 
L 115.174608 258.579724 
L 116.77854 260.54378 
L 118.382471 262.356958 
L 119.986402 263.897788 
L 121.590333 265.199115 
L 123.194264 266.371377 
L 124.798196 267.524588 
L 126.402127 268.712744 
L 128.006058 269.905632 
L 129.609989 271.066095 
L 131.21392 272.160488 
L 132.817852 273.172458 
L 134.421783 274.09096 
L 136.025714 274.906728 
L 137.629645 275.648214 
L 139.233576 276.379925 
L 140.837508 277.167788 
L 142.441439 278.046163 
L 144.04537 278.956556 
L 145.649301 279.823487 
L 147.253232 280.579874 
L 148.857164 281.248574 
L 150.461095 281.906997 
L 152.065026 282.632724 
L 153.668957 283.44677 
L 155.272889 284.267788 
L 156.87682 285.003653 
L 158.480751 285.576163 
L 160.084682 285.991721 
L 161.688613 286.28852 
L 163.292545 286.505109 
L 164.896476 286.688941 
L 166.500407 286.897657 
L 168.104338 287.189458 
L 169.708269 287.597741 
L 171.312201 288.06643 
L 172.916132 288.519282 
L 174.520063 288.884652 
L 176.123994 289.154351 
L 177.727925 289.36645 
L 179.331857 289.559886 
L 180.935788 289.738276 
L 182.539719 289.827933 
L 184.14365 289.744939 
L 185.747581 289.42398 
L 187.351513 288.940299 
L 188.955444 288.433365 
L 190.559375 288.040916 
L 192.163306 287.809796 
L 193.767237 287.662154 
L 195.371169 287.511103 
L 196.9751 287.282656 
L 198.579031 286.960047 
L 200.182962 286.54237 
L 201.786893 286.02944 
L 203.390825 285.434172 
L 204.994756 284.780926 
L 206.598687 284.094447 
L 208.202618 283.398949 
L 209.806549 282.717224 
L 211.410481 282.071836 
L 213.014412 281.480108 
L 214.618343 280.909612 
L 216.222274 280.300434 
L 217.826205 279.593 
L 219.430137 278.772991 
L 221.034068 277.900687 
L 222.637999 277.043337 
L 224.24193 276.251027 
L 225.845861 275.480047 
L 227.449793 274.6548 
L 229.053724 273.702964 
L 230.657655 272.634707 
L 232.261586 271.546479 
L 233.865518 270.538781 
L 235.469449 269.666723 
L 237.07338 268.83764 
L 238.677311 267.928844 
L 240.281242 266.825015 
L 241.885174 265.500134 
L 243.489105 263.987591 
L 245.093036 262.321952 
L 246.696967 260.551003 
L 248.300898 258.748829 
L 249.90483 256.992625 
L 251.508761 255.330574 
L 253.112692 253.614472 
L 254.716623 251.614685 
L 256.320554 249.1137 
L 257.924486 246.338465 
L 259.528417 244.072741 
L 261.132348 243.135505 
" clip-path="url(#pa7ada5df1d)" style="fill: none; stroke: #d62728; stroke-width: 0.01; stroke-linecap: square"/>
   </g>
   <g id="line2d_26">
    <path d="M 102.343159 249.842366 
L 103.94709 251.384059 
L 105.551021 252.896606 
L 107.154952 254.379923 
L 108.758884 255.833923 
L 110.362815 257.258522 
L 111.966746 258.653634 
L 113.570677 260.019174 
L 115.174608 261.355057 
L 116.77854 262.661197 
L 118.382471 263.937508 
L 119.986402 265.183906 
L 121.590333 266.400305 
L 123.194264 267.586619 
L 124.798196 268.742764 
L 126.402127 269.868654 
L 128.006058 270.964204 
L 129.609989 272.029328 
L 131.21392 273.06394 
L 132.817852 274.067957 
L 134.421783 275.041291 
L 136.025714 275.983858 
L 137.629645 276.895573 
L 139.233576 277.77635 
L 140.837508 278.626104 
L 142.441439 279.444749 
L 144.04537 280.2322 
L 145.649301 280.988372 
L 147.253232 281.71318 
L 148.857164 282.406537 
L 150.461095 283.068359 
L 152.065026 283.69856 
L 153.668957 284.297055 
L 155.272889 284.863759 
L 156.87682 285.398586 
L 158.480751 285.90145 
L 160.084682 286.372268 
L 161.688613 286.810952 
L 163.292545 287.217418 
L 164.896476 287.591581 
L 166.500407 287.933355 
L 168.104338 288.242654 
L 169.708269 288.519394 
L 171.312201 288.763489 
L 172.916132 288.974854 
L 174.520063 289.153402 
L 176.123994 289.29905 
L 177.727925 289.411712 
L 179.331857 289.491301 
L 180.935788 289.537734 
L 182.539719 289.550924 
L 184.14365 289.530786 
L 185.747581 289.477235 
L 187.351513 289.390185 
L 188.955444 289.269552 
L 190.559375 289.115249 
L 192.163306 288.927192 
L 193.767237 288.705294 
L 195.371169 288.449472 
L 196.9751 288.159638 
L 198.579031 287.835709 
L 200.182962 287.477598 
L 201.786893 287.08522 
L 203.390825 286.658491 
L 204.994756 286.197324 
L 206.598687 285.701634 
L 208.202618 285.171336 
L 209.806549 284.606344 
L 211.410481 284.006574 
L 213.014412 283.371939 
L 214.618343 282.702354 
L 216.222274 281.997735 
L 217.826205 281.257996 
L 219.430137 280.48305 
L 221.034068 279.672814 
L 222.637999 278.827201 
L 224.24193 277.946127 
L 225.845861 277.029505 
L 227.449793 276.077251 
L 229.053724 275.089279 
L 230.657655 274.065505 
L 232.261586 273.005841 
L 233.865518 271.910204 
L 235.469449 270.778507 
L 237.07338 269.610666 
L 238.677311 268.406595 
L 240.281242 267.166209 
L 241.885174 265.889422 
L 243.489105 264.576149 
L 245.093036 263.226304 
L 246.696967 261.839803 
L 248.300898 260.41656 
L 249.90483 258.956489 
L 251.508761 257.459506 
L 253.112692 255.925524 
L 254.716623 254.354459 
L 256.320554 252.746225 
L 257.924486 251.100737 
L 259.528417 249.417909 
L 261.132348 247.697657 
" clip-path="url(#pa7ada5df1d)" style="fill: none; stroke-dasharray: 11.1,4.8; stroke-dashoffset: 0; stroke: #000000; stroke-width: 3"/>
   </g>
   <g id="line2d_27">
    <path d="M 102.343159 137.503251 
L 103.94709 138.375432 
L 105.551021 140.53933 
L 107.154952 143.315974 
L 108.758884 146.050585 
L 110.362815 148.47087 
L 111.966746 150.609843 
L 113.570677 152.509126 
L 115.174608 154.240767 
L 116.77854 155.950192 
L 118.382471 157.793667 
L 119.986402 159.901273 
L 121.590333 162.181624 
L 123.194264 164.431978 
L 124.798196 166.450631 
L 126.402127 168.140163 
L 128.006058 169.559912 
L 129.609989 170.782143 
L 131.21392 171.888733 
L 132.817852 173.008852 
L 134.421783 174.286196 
L 136.025714 175.858336 
L 137.629645 177.732627 
L 139.233576 179.791937 
L 140.837508 181.914147 
L 142.441439 183.974211 
L 144.04537 185.838466 
L 145.649301 187.371675 
L 147.253232 188.45417 
L 148.857164 189.132981 
L 150.461095 189.556259 
L 152.065026 189.873258 
L 153.668957 190.203226 
L 155.272889 190.611118 
L 156.87682 191.156168 
L 158.480751 191.88535 
L 160.084682 192.771101 
L 161.688613 193.757855 
L 163.292545 194.78927 
L 164.896476 195.787379 
L 166.500407 196.649475 
L 168.104338 197.271493 
L 169.708269 197.591982 
L 171.312201 197.703206 
L 172.916132 197.732084 
L 174.520063 197.799547 
L 176.123994 197.94394 
L 177.727925 198.143406 
L 179.331857 198.374677 
L 180.935788 198.606012 
L 182.539719 198.787125 
L 184.14365 198.865274 
L 185.747581 198.793515 
L 187.351513 198.568706 
L 188.955444 198.207723 
L 190.559375 197.728362 
L 192.163306 197.184547 
L 193.767237 196.679757 
L 195.371169 196.321065 
L 196.9751 196.163051 
L 198.579031 196.027428 
L 200.182962 195.671356 
L 201.786893 194.865473 
L 203.390825 193.62635 
L 204.994756 192.185427 
L 206.598687 190.781256 
L 208.202618 189.584779 
L 209.806549 188.587003 
L 211.410481 187.74933 
L 213.014412 187.029877 
L 214.618343 186.355562 
L 216.222274 185.636059 
L 217.826205 184.781588 
L 219.430137 183.753979 
L 221.034068 182.600144 
L 222.637999 181.374945 
L 224.24193 180.122611 
L 225.845861 178.829267 
L 227.449793 177.461283 
L 229.053724 175.986575 
L 230.657655 174.412082 
L 232.261586 172.785557 
L 233.865518 171.156671 
L 235.469449 169.565983 
L 237.07338 168.024379 
L 238.677311 166.536718 
L 240.281242 165.101509 
L 241.885174 163.640275 
L 243.489105 162.023328 
L 245.093036 160.120723 
L 246.696967 157.8909 
L 248.300898 155.468081 
L 249.90483 153.007268 
L 251.508761 150.611166 
L 253.112692 148.028453 
L 254.716623 144.861005 
L 256.320554 140.73194 
L 257.924486 136.043575 
L 259.528417 132.174393 
L 261.132348 130.564617 
" clip-path="url(#pa7ada5df1d)" style="fill: none; stroke: #9467bd; stroke-width: 0.01; stroke-linecap: square"/>
   </g>
   <g id="line2d_28">
    <path d="M 102.343159 161.375841 
L 103.94709 163.54439 
L 105.551021 165.671063 
L 107.154952 167.755767 
L 108.758884 169.79841 
L 110.362815 171.798903 
L 111.966746 173.757153 
L 113.570677 175.67307 
L 115.174608 177.546562 
L 116.77854 179.377537 
L 118.382471 181.165905 
L 119.986402 182.911574 
L 121.590333 184.614453 
L 123.194264 186.274451 
L 124.798196 187.891477 
L 126.402127 189.465439 
L 128.006058 190.996245 
L 129.609989 192.483805 
L 131.21392 193.928028 
L 132.817852 195.328822 
L 134.421783 196.686096 
L 136.025714 197.999758 
L 137.629645 199.269718 
L 139.233576 200.495884 
L 140.837508 201.678165 
L 142.441439 202.81647 
L 144.04537 203.910706 
L 145.649301 204.960784 
L 147.253232 205.966612 
L 148.857164 206.928098 
L 150.461095 207.845152 
L 152.065026 208.717681 
L 153.668957 209.545595 
L 155.272889 210.328803 
L 156.87682 211.067213 
L 158.480751 211.760734 
L 160.084682 212.409275 
L 161.688613 213.012744 
L 163.292545 213.571051 
L 164.896476 214.084103 
L 166.500407 214.55181 
L 168.104338 214.974081 
L 169.708269 215.350823 
L 171.312201 215.681947 
L 172.916132 215.96736 
L 174.520063 216.206971 
L 176.123994 216.40069 
L 177.727925 216.548425 
L 179.331857 216.650084 
L 180.935788 216.705576 
L 182.539719 216.71481 
L 184.14365 216.677696 
L 185.747581 216.59414 
L 187.351513 216.464053 
L 188.955444 216.287343 
L 190.559375 216.063919 
L 192.163306 215.793689 
L 193.767237 215.476563 
L 195.371169 215.112448 
L 196.9751 214.701255 
L 198.579031 214.24289 
L 200.182962 213.737264 
L 201.786893 213.184285 
L 203.390825 212.583861 
L 204.994756 211.935902 
L 206.598687 211.240316 
L 208.202618 210.497011 
L 209.806549 209.705898 
L 211.410481 208.866884 
L 213.014412 207.979877 
L 214.618343 207.044788 
L 216.222274 206.061524 
L 217.826205 205.029995 
L 219.430137 203.950108 
L 221.034068 202.821773 
L 222.637999 201.644899 
L 224.24193 200.419394 
L 225.845861 199.145168 
L 227.449793 197.822127 
L 229.053724 196.450183 
L 230.657655 195.029242 
L 232.261586 193.559215 
L 233.865518 192.040009 
L 235.469449 190.471533 
L 237.07338 188.853697 
L 238.677311 187.186409 
L 240.281242 185.469577 
L 241.885174 183.70311 
L 243.489105 181.886918 
L 245.093036 180.020909 
L 246.696967 178.104991 
L 248.300898 176.139073 
L 249.90483 174.123065 
L 251.508761 172.056874 
L 253.112692 169.94041 
L 254.716623 167.773582 
L 256.320554 165.556297 
L 257.924486 163.288465 
L 259.528417 160.969994 
L 261.132348 158.600794 
" clip-path="url(#pa7ada5df1d)" style="fill: none; stroke-dasharray: 11.1,4.8; stroke-dashoffset: 0; stroke: #000000; stroke-width: 3"/>
   </g>
   <g id="patch_7">
    <path d="M 94.559375 379.434375 
L 94.559375 19.434375 
" style="fill: none; stroke: #000000; stroke-width: 2; stroke-linejoin: miter; stroke-linecap: square"/>
   </g>
   <g id="patch_8">
    <path d="M 382.559375 379.434375 
L 382.559375 19.434375 
" style="fill: none; stroke: #000000; stroke-width: 2; stroke-linejoin: miter; stroke-linecap: square"/>
   </g>
   <g id="patch_9">
    <path d="M 94.559375 379.434375 
L 382.559375 379.434375 
" style="fill: none; stroke: #000000; stroke-width: 2; stroke-linejoin: miter; stroke-linecap: square"/>
   </g>
   <g id="patch_10">
    <path d="M 94.559375 19.434375 
L 382.559375 19.434375 
" style="fill: none; stroke: #000000; stroke-width: 2; stroke-linejoin: miter; stroke-linecap: square"/>
   </g>
   <g id="legend_1">
    <g id="patch_11">
     <path d="M 172.942188 78.129687 
L 367.059375 78.129687 
Q 372.059375 78.129687 372.059375 73.129687 
L 372.059375 38.934375 
Q 372.059375 33.934375 367.059375 33.934375 
L 172.942188 33.934375 
Q 167.942188 33.934375 167.942188 38.934375 
L 167.942188 73.129687 
Q 167.942188 78.129687 172.942188 78.129687 
z
" style="fill: #4c4c4c; opacity: 0.5; stroke: #4c4c4c; stroke-linejoin: miter"/>
    </g>
    <g id="patch_12">
     <path d="M 170.942188 76.129687 
L 365.059375 76.129687 
Q 370.059375 76.129687 370.059375 71.129687 
L 370.059375 36.934375 
Q 370.059375 31.934375 365.059375 31.934375 
L 170.942188 31.934375 
Q 165.942188 31.934375 165.942188 36.934375 
L 165.942188 71.129687 
Q 165.942188 76.129687 170.942188 76.129687 
z
" style="fill: #ffffff; stroke: #cccccc; stroke-linejoin: miter"/>
    </g>
    <g id="line2d_29">
     <path d="M 175.942188 52.180469 
L 200.942188 52.180469 
L 225.942188 52.180469 
" style="fill: none; stroke-dasharray: 11.1,4.8; stroke-dashoffset: 0; stroke: #000000; stroke-width: 3"/>
    </g>
    <g id="text_22">
     <!-- Spline Fit -->
     <g transform="translate(245.942188 60.930469)scale(0.25 -0.25)">
      <defs>
       <path id="DejaVuSans-53" d="M 3425 4513 
L 3425 3897 
Q 3066 4069 2747 4153 
Q 2428 4238 2131 4238 
Q 1616 4238 1336 4038 
Q 1056 3838 1056 3469 
Q 1056 3159 1242 3001 
Q 1428 2844 1947 2747 
L 2328 2669 
Q 3034 2534 3370 2195 
Q 3706 1856 3706 1288 
Q 3706 609 3251 259 
Q 2797 -91 1919 -91 
Q 1588 -91 1214 -16 
Q 841 59 441 206 
L 441 856 
Q 825 641 1194 531 
Q 1563 422 1919 422 
Q 2459 422 2753 634 
Q 3047 847 3047 1241 
Q 3047 1584 2836 1778 
Q 2625 1972 2144 2069 
L 1759 2144 
Q 1053 2284 737 2584 
Q 422 2884 422 3419 
Q 422 4038 858 4394 
Q 1294 4750 2059 4750 
Q 2388 4750 2728 4690 
Q 3069 4631 3425 4513 
z
" transform="scale(0.015625)"/>
       <path id="DejaVuSans-46" d="M 628 4666 
L 3309 4666 
L 3309 4134 
L 1259 4134 
L 1259 2759 
L 3109 2759 
L 3109 2228 
L 1259 2228 
L 1259 0 
L 628 0 
L 628 4666 
z
" transform="scale(0.015625)"/>
      </defs>
      <use xlink:href="#DejaVuSans-53"/>
      <use xlink:href="#DejaVuSans-70" x="63.476562"/>
      <use xlink:href="#DejaVuSans-6c" x="126.953125"/>
      <use xlink:href="#DejaVuSans-69" x="154.736328"/>
      <use xlink:href="#DejaVuSans-6e" x="182.519531"/>
      <use xlink:href="#DejaVuSans-65" x="245.898438"/>
      <use xlink:href="#DejaVuSans-20" x="307.421875"/>
      <use xlink:href="#DejaVuSans-46" x="339.208984"/>
      <use xlink:href="#DejaVuSans-69" x="389.478516"/>
      <use xlink:href="#DejaVuSans-74" x="417.261719"/>
     </g>
    </g>
   </g>
  </g>
 </g>
 <defs>
  <clipPath id="pa7ada5df1d">
   <rect x="94.559375" y="19.434375" width="288" height="360"/>
  </clipPath>
 </defs>
</svg>
