<?xml version="1.0" encoding="utf-8" standalone="no"?>
<!DOCTYPE svg PUBLIC "-//W3C//DTD SVG 1.1//EN"
  "http://www.w3.org/Graphics/SVG/1.1/DTD/svg11.dtd">
<svg xmlns:xlink="http://www.w3.org/1999/xlink" width="413.626562pt" height="430.290625pt" viewBox="0 0 413.626562 430.290625" xmlns="http://www.w3.org/2000/svg" version="1.1">
 <metadata>
  <rdf:RDF xmlns:dc="http://purl.org/dc/elements/1.1/" xmlns:cc="http://creativecommons.org/ns#" xmlns:rdf="http://www.w3.org/1999/02/22-rdf-syntax-ns#">
   <cc:Work>
    <dc:type rdf:resource="http://purl.org/dc/dcmitype/StillImage"/>
    <dc:date>2024-06-02T16:49:39.690195</dc:date>
    <dc:format>image/svg+xml</dc:format>
    <dc:creator>
     <cc:Agent>
      <dc:title>Matplotlib v3.5.2, https://matplotlib.org/</dc:title>
     </cc:Agent>
    </dc:creator>
   </cc:Work>
  </rdf:RDF>
 </metadata>
 <defs>
  <style type="text/css">*{stroke-linejoin: round; stroke-linecap: butt}</style>
 </defs>
 <g id="figure_1">
  <g id="patch_1">
   <path d="M 0 430.290625 
L 413.626562 430.290625 
L 413.626562 0 
L 0 0 
z
" style="fill: #ffffff"/>
  </g>
  <g id="axes_1">
   <g id="patch_2">
    <path d="M 118.426563 367.2 
L 406.426562 367.2 
L 406.426562 7.2 
L 118.426563 7.2 
z
" style="fill: #ffffff"/>
   </g>
   <g id="matplotlib.axis_1">
    <g id="xtick_1">
     <g id="line2d_1">
      <defs>
       <path id="m629c74d1a7" d="M 0 0 
L 0 -4 
" style="stroke: #000000; stroke-width: 2"/>
      </defs>
      <g>
       <use xlink:href="#m629c74d1a7" x="123.894917" y="367.2" style="stroke: #000000; stroke-width: 2"/>
      </g>
     </g>
     <g id="text_1">
      <!-- 0 -->
      <g transform="translate(115.941792 389.696094)scale(0.25 -0.25)">
       <defs>
        <path id="DejaVuSans-30" d="M 2034 4250 
Q 1547 4250 1301 3770 
Q 1056 3291 1056 2328 
Q 1056 1369 1301 889 
Q 1547 409 2034 409 
Q 2525 409 2770 889 
Q 3016 1369 3016 2328 
Q 3016 3291 2770 3770 
Q 2525 4250 2034 4250 
z
M 2034 4750 
Q 2819 4750 3233 4129 
Q 3647 3509 3647 2328 
Q 3647 1150 3233 529 
Q 2819 -91 2034 -91 
Q 1250 -91 836 529 
Q 422 1150 422 2328 
Q 422 3509 836 4129 
Q 1250 4750 2034 4750 
z
" transform="scale(0.015625)"/>
       </defs>
       <use xlink:href="#DejaVuSans-30"/>
      </g>
     </g>
    </g>
    <g id="xtick_2">
     <g id="line2d_2">
      <g>
       <use xlink:href="#m629c74d1a7" x="306.173398" y="367.2" style="stroke: #000000; stroke-width: 2"/>
      </g>
     </g>
     <g id="text_2">
      <!-- 100 -->
      <g transform="translate(282.314023 389.696094)scale(0.25 -0.25)">
       <defs>
        <path id="DejaVuSans-31" d="M 794 531 
L 1825 531 
L 1825 4091 
L 703 3866 
L 703 4441 
L 1819 4666 
L 2450 4666 
L 2450 531 
L 3481 531 
L 3481 0 
L 794 0 
L 794 531 
z
" transform="scale(0.015625)"/>
       </defs>
       <use xlink:href="#DejaVuSans-31"/>
       <use xlink:href="#DejaVuSans-30" x="63.623047"/>
       <use xlink:href="#DejaVuSans-30" x="127.246094"/>
      </g>
     </g>
    </g>
    <g id="text_3">
     <!-- pixel # -->
     <g transform="translate(218.399219 417.891406)scale(0.25 -0.25)">
      <defs>
       <path id="DejaVuSans-70" d="M 1159 525 
L 1159 -1331 
L 581 -1331 
L 581 3500 
L 1159 3500 
L 1159 2969 
Q 1341 3281 1617 3432 
Q 1894 3584 2278 3584 
Q 2916 3584 3314 3078 
Q 3713 2572 3713 1747 
Q 3713 922 3314 415 
Q 2916 -91 2278 -91 
Q 1894 -91 1617 61 
Q 1341 213 1159 525 
z
M 3116 1747 
Q 3116 2381 2855 2742 
Q 2594 3103 2138 3103 
Q 1681 3103 1420 2742 
Q 1159 2381 1159 1747 
Q 1159 1113 1420 752 
Q 1681 391 2138 391 
Q 2594 391 2855 752 
Q 3116 1113 3116 1747 
z
" transform="scale(0.015625)"/>
       <path id="DejaVuSans-69" d="M 603 3500 
L 1178 3500 
L 1178 0 
L 603 0 
L 603 3500 
z
M 603 4863 
L 1178 4863 
L 1178 4134 
L 603 4134 
L 603 4863 
z
" transform="scale(0.015625)"/>
       <path id="DejaVuSans-78" d="M 3513 3500 
L 2247 1797 
L 3578 0 
L 2900 0 
L 1881 1375 
L 863 0 
L 184 0 
L 1544 1831 
L 300 3500 
L 978 3500 
L 1906 2253 
L 2834 3500 
L 3513 3500 
z
" transform="scale(0.015625)"/>
       <path id="DejaVuSans-65" d="M 3597 1894 
L 3597 1613 
L 953 1613 
Q 991 1019 1311 708 
Q 1631 397 2203 397 
Q 2534 397 2845 478 
Q 3156 559 3463 722 
L 3463 178 
Q 3153 47 2828 -22 
Q 2503 -91 2169 -91 
Q 1331 -91 842 396 
Q 353 884 353 1716 
Q 353 2575 817 3079 
Q 1281 3584 2069 3584 
Q 2775 3584 3186 3129 
Q 3597 2675 3597 1894 
z
M 3022 2063 
Q 3016 2534 2758 2815 
Q 2500 3097 2075 3097 
Q 1594 3097 1305 2825 
Q 1016 2553 972 2059 
L 3022 2063 
z
" transform="scale(0.015625)"/>
       <path id="DejaVuSans-6c" d="M 603 4863 
L 1178 4863 
L 1178 0 
L 603 0 
L 603 4863 
z
" transform="scale(0.015625)"/>
       <path id="DejaVuSans-20" transform="scale(0.015625)"/>
       <path id="DejaVuSans-23" d="M 3272 2816 
L 2363 2816 
L 2100 1772 
L 3016 1772 
L 3272 2816 
z
M 2803 4594 
L 2478 3297 
L 3391 3297 
L 3719 4594 
L 4219 4594 
L 3897 3297 
L 4872 3297 
L 4872 2816 
L 3775 2816 
L 3519 1772 
L 4513 1772 
L 4513 1294 
L 3397 1294 
L 3072 0 
L 2572 0 
L 2894 1294 
L 1978 1294 
L 1656 0 
L 1153 0 
L 1478 1294 
L 494 1294 
L 494 1772 
L 1594 1772 
L 1856 2816 
L 850 2816 
L 850 3297 
L 1978 3297 
L 2297 4594 
L 2803 4594 
z
" transform="scale(0.015625)"/>
      </defs>
      <use xlink:href="#DejaVuSans-70"/>
      <use xlink:href="#DejaVuSans-69" x="63.476562"/>
      <use xlink:href="#DejaVuSans-78" x="91.259766"/>
      <use xlink:href="#DejaVuSans-65" x="147.314453"/>
      <use xlink:href="#DejaVuSans-6c" x="208.837891"/>
      <use xlink:href="#DejaVuSans-20" x="236.621094"/>
      <use xlink:href="#DejaVuSans-23" x="268.408203"/>
     </g>
    </g>
   </g>
   <g id="matplotlib.axis_2">
    <g id="ytick_1">
     <g id="line2d_3">
      <defs>
       <path id="mbc1bc84675" d="M 0 0 
L 4 0 
" style="stroke: #000000; stroke-width: 2"/>
      </defs>
      <g>
       <use xlink:href="#mbc1bc84675" x="118.426563" y="344.7" style="stroke: #000000; stroke-width: 2"/>
      </g>
     </g>
     <g id="text_4">
      <!-- 10000 -->
      <g transform="translate(35.395313 354.198047)scale(0.25 -0.25)">
       <use xlink:href="#DejaVuSans-31"/>
       <use xlink:href="#DejaVuSans-30" x="63.623047"/>
       <use xlink:href="#DejaVuSans-30" x="127.246094"/>
       <use xlink:href="#DejaVuSans-30" x="190.869141"/>
       <use xlink:href="#DejaVuSans-30" x="254.492188"/>
      </g>
     </g>
    </g>
    <g id="ytick_2">
     <g id="line2d_4">
      <g>
       <use xlink:href="#mbc1bc84675" x="118.426563" y="269.7" style="stroke: #000000; stroke-width: 2"/>
      </g>
     </g>
     <g id="text_5">
      <!-- 20000 -->
      <g transform="translate(35.395313 279.198047)scale(0.25 -0.25)">
       <defs>
        <path id="DejaVuSans-32" d="M 1228 531 
L 3431 531 
L 3431 0 
L 469 0 
L 469 531 
Q 828 903 1448 1529 
Q 2069 2156 2228 2338 
Q 2531 2678 2651 2914 
Q 2772 3150 2772 3378 
Q 2772 3750 2511 3984 
Q 2250 4219 1831 4219 
Q 1534 4219 1204 4116 
Q 875 4013 500 3803 
L 500 4441 
Q 881 4594 1212 4672 
Q 1544 4750 1819 4750 
Q 2544 4750 2975 4387 
Q 3406 4025 3406 3419 
Q 3406 3131 3298 2873 
Q 3191 2616 2906 2266 
Q 2828 2175 2409 1742 
Q 1991 1309 1228 531 
z
" transform="scale(0.015625)"/>
       </defs>
       <use xlink:href="#DejaVuSans-32"/>
       <use xlink:href="#DejaVuSans-30" x="63.623047"/>
       <use xlink:href="#DejaVuSans-30" x="127.246094"/>
       <use xlink:href="#DejaVuSans-30" x="190.869141"/>
       <use xlink:href="#DejaVuSans-30" x="254.492188"/>
      </g>
     </g>
    </g>
    <g id="ytick_3">
     <g id="line2d_5">
      <g>
       <use xlink:href="#mbc1bc84675" x="118.426563" y="194.7" style="stroke: #000000; stroke-width: 2"/>
      </g>
     </g>
     <g id="text_6">
      <!-- 30000 -->
      <g transform="translate(35.395313 204.198047)scale(0.25 -0.25)">
       <defs>
        <path id="DejaVuSans-33" d="M 2597 2516 
Q 3050 2419 3304 2112 
Q 3559 1806 3559 1356 
Q 3559 666 3084 287 
Q 2609 -91 1734 -91 
Q 1441 -91 1130 -33 
Q 819 25 488 141 
L 488 750 
Q 750 597 1062 519 
Q 1375 441 1716 441 
Q 2309 441 2620 675 
Q 2931 909 2931 1356 
Q 2931 1769 2642 2001 
Q 2353 2234 1838 2234 
L 1294 2234 
L 1294 2753 
L 1863 2753 
Q 2328 2753 2575 2939 
Q 2822 3125 2822 3475 
Q 2822 3834 2567 4026 
Q 2313 4219 1838 4219 
Q 1578 4219 1281 4162 
Q 984 4106 628 3988 
L 628 4550 
Q 988 4650 1302 4700 
Q 1616 4750 1894 4750 
Q 2613 4750 3031 4423 
Q 3450 4097 3450 3541 
Q 3450 3153 3228 2886 
Q 3006 2619 2597 2516 
z
" transform="scale(0.015625)"/>
       </defs>
       <use xlink:href="#DejaVuSans-33"/>
       <use xlink:href="#DejaVuSans-30" x="63.623047"/>
       <use xlink:href="#DejaVuSans-30" x="127.246094"/>
       <use xlink:href="#DejaVuSans-30" x="190.869141"/>
       <use xlink:href="#DejaVuSans-30" x="254.492188"/>
      </g>
     </g>
    </g>
    <g id="ytick_4">
     <g id="line2d_6">
      <g>
       <use xlink:href="#mbc1bc84675" x="118.426563" y="119.7" style="stroke: #000000; stroke-width: 2"/>
      </g>
     </g>
     <g id="text_7">
      <!-- 40000 -->
      <g transform="translate(35.395313 129.198047)scale(0.25 -0.25)">
       <defs>
        <path id="DejaVuSans-34" d="M 2419 4116 
L 825 1625 
L 2419 1625 
L 2419 4116 
z
M 2253 4666 
L 3047 4666 
L 3047 1625 
L 3713 1625 
L 3713 1100 
L 3047 1100 
L 3047 0 
L 2419 0 
L 2419 1100 
L 313 1100 
L 313 1709 
L 2253 4666 
z
" transform="scale(0.015625)"/>
       </defs>
       <use xlink:href="#DejaVuSans-34"/>
       <use xlink:href="#DejaVuSans-30" x="63.623047"/>
       <use xlink:href="#DejaVuSans-30" x="127.246094"/>
       <use xlink:href="#DejaVuSans-30" x="190.869141"/>
       <use xlink:href="#DejaVuSans-30" x="254.492188"/>
      </g>
     </g>
    </g>
    <g id="ytick_5">
     <g id="line2d_7">
      <g>
       <use xlink:href="#mbc1bc84675" x="118.426563" y="44.7" style="stroke: #000000; stroke-width: 2"/>
      </g>
     </g>
     <g id="text_8">
      <!-- 50000 -->
      <g transform="translate(35.395313 54.198047)scale(0.25 -0.25)">
       <defs>
        <path id="DejaVuSans-35" d="M 691 4666 
L 3169 4666 
L 3169 4134 
L 1269 4134 
L 1269 2991 
Q 1406 3038 1543 3061 
Q 1681 3084 1819 3084 
Q 2600 3084 3056 2656 
Q 3513 2228 3513 1497 
Q 3513 744 3044 326 
Q 2575 -91 1722 -91 
Q 1428 -91 1123 -41 
Q 819 9 494 109 
L 494 744 
Q 775 591 1075 516 
Q 1375 441 1709 441 
Q 2250 441 2565 725 
Q 2881 1009 2881 1497 
Q 2881 1984 2565 2268 
Q 2250 2553 1709 2553 
Q 1456 2553 1204 2497 
Q 953 2441 691 2322 
L 691 4666 
z
" transform="scale(0.015625)"/>
       </defs>
       <use xlink:href="#DejaVuSans-35"/>
       <use xlink:href="#DejaVuSans-30" x="63.623047"/>
       <use xlink:href="#DejaVuSans-30" x="127.246094"/>
       <use xlink:href="#DejaVuSans-30" x="190.869141"/>
       <use xlink:href="#DejaVuSans-30" x="254.492188"/>
      </g>
     </g>
    </g>
    <g id="text_9">
     <!-- Intensity -->
     <g transform="translate(26.196094 241.60625)rotate(-90)scale(0.25 -0.25)">
      <defs>
       <path id="DejaVuSans-49" d="M 628 4666 
L 1259 4666 
L 1259 0 
L 628 0 
L 628 4666 
z
" transform="scale(0.015625)"/>
       <path id="DejaVuSans-6e" d="M 3513 2113 
L 3513 0 
L 2938 0 
L 2938 2094 
Q 2938 2591 2744 2837 
Q 2550 3084 2163 3084 
Q 1697 3084 1428 2787 
Q 1159 2491 1159 1978 
L 1159 0 
L 581 0 
L 581 3500 
L 1159 3500 
L 1159 2956 
Q 1366 3272 1645 3428 
Q 1925 3584 2291 3584 
Q 2894 3584 3203 3211 
Q 3513 2838 3513 2113 
z
" transform="scale(0.015625)"/>
       <path id="DejaVuSans-74" d="M 1172 4494 
L 1172 3500 
L 2356 3500 
L 2356 3053 
L 1172 3053 
L 1172 1153 
Q 1172 725 1289 603 
Q 1406 481 1766 481 
L 2356 481 
L 2356 0 
L 1766 0 
Q 1100 0 847 248 
Q 594 497 594 1153 
L 594 3053 
L 172 3053 
L 172 3500 
L 594 3500 
L 594 4494 
L 1172 4494 
z
" transform="scale(0.015625)"/>
       <path id="DejaVuSans-73" d="M 2834 3397 
L 2834 2853 
Q 2591 2978 2328 3040 
Q 2066 3103 1784 3103 
Q 1356 3103 1142 2972 
Q 928 2841 928 2578 
Q 928 2378 1081 2264 
Q 1234 2150 1697 2047 
L 1894 2003 
Q 2506 1872 2764 1633 
Q 3022 1394 3022 966 
Q 3022 478 2636 193 
Q 2250 -91 1575 -91 
Q 1294 -91 989 -36 
Q 684 19 347 128 
L 347 722 
Q 666 556 975 473 
Q 1284 391 1588 391 
Q 1994 391 2212 530 
Q 2431 669 2431 922 
Q 2431 1156 2273 1281 
Q 2116 1406 1581 1522 
L 1381 1569 
Q 847 1681 609 1914 
Q 372 2147 372 2553 
Q 372 3047 722 3315 
Q 1072 3584 1716 3584 
Q 2034 3584 2315 3537 
Q 2597 3491 2834 3397 
z
" transform="scale(0.015625)"/>
       <path id="DejaVuSans-79" d="M 2059 -325 
Q 1816 -950 1584 -1140 
Q 1353 -1331 966 -1331 
L 506 -1331 
L 506 -850 
L 844 -850 
Q 1081 -850 1212 -737 
Q 1344 -625 1503 -206 
L 1606 56 
L 191 3500 
L 800 3500 
L 1894 763 
L 2988 3500 
L 3597 3500 
L 2059 -325 
z
" transform="scale(0.015625)"/>
      </defs>
      <use xlink:href="#DejaVuSans-49"/>
      <use xlink:href="#DejaVuSans-6e" x="29.492188"/>
      <use xlink:href="#DejaVuSans-74" x="92.871094"/>
      <use xlink:href="#DejaVuSans-65" x="132.080078"/>
      <use xlink:href="#DejaVuSans-6e" x="193.603516"/>
      <use xlink:href="#DejaVuSans-73" x="256.982422"/>
      <use xlink:href="#DejaVuSans-69" x="309.082031"/>
      <use xlink:href="#DejaVuSans-74" x="336.865234"/>
      <use xlink:href="#DejaVuSans-79" x="376.074219"/>
     </g>
    </g>
   </g>
   <g id="line2d_8">
    <path d="M 123.894917 338.970833 
L 125.717702 339.801667 
L 127.540487 339.028333 
L 129.363271 341.906667 
L 131.186056 345.965833 
L 133.008841 349.470833 
L 134.831626 349.979167 
L 136.654411 346.785 
L 138.477195 343.414167 
L 140.29998 345.0725 
L 142.122765 343.848333 
L 143.94555 343.701667 
L 145.768335 345.8275 
L 147.591119 348.400833 
L 149.413904 350.936667 
L 151.236689 352.0975 
L 153.059474 352.7875 
L 154.882259 351.576667 
L 156.705044 351.964167 
L 158.527828 353.806667 
L 160.350613 353.843333 
L 162.173398 355.734167 
L 163.996183 356.7225 
L 165.818968 356.64 
L 167.641752 353.6325 
L 169.464537 350.834167 
L 171.287322 352.6325 
L 173.110107 352.880833 
L 174.932892 353.820833 
L 176.755676 356.345833 
L 178.578461 357.059167 
L 180.401246 356.010833 
L 182.224031 355.078333 
L 184.046816 350.578333 
L 185.8696 352.656667 
L 187.692385 355.460833 
L 189.51517 357.184167 
L 191.337955 360.170833 
L 193.16074 359.119167 
L 194.983525 359.170833 
L 196.806309 355.196667 
L 198.629094 351.769167 
L 200.451879 352.5825 
L 202.274664 354.589167 
L 204.097449 357.236667 
L 205.920233 358.5025 
L 207.743018 359.33 
L 209.565803 361.8125 
L 211.388588 360.936667 
L 213.211373 357.8175 
L 215.034157 353.036667 
L 216.856942 351.87 
L 218.679727 351.888333 
L 220.502512 350.97 
L 222.325297 353.530833 
L 224.148081 353.464167 
L 225.970866 350.626667 
L 227.793651 350.196667 
L 229.616436 351.27 
L 231.439221 353.924167 
L 233.262006 357.5775 
L 235.08479 361.5125 
L 236.907575 361.345833 
L 238.73036 362.4875 
L 240.553145 362.1825 
L 242.37593 362.399167 
L 244.198714 360.899167 
L 246.021499 357.96 
L 247.844284 356.07 
L 249.667069 356.4575 
L 251.489854 357.8075 
L 253.312638 357.646667 
L 255.135423 353.94 
L 256.958208 350.745 
L 258.780993 352.170833 
L 260.603778 352.27 
L 262.426562 353.234167 
L 264.249347 354.135 
L 266.072132 351.898333 
L 267.894917 352.191667 
L 269.717702 351.638333 
L 271.540487 350.0425 
L 273.363271 351.11 
L 275.186056 349.21 
L 277.008841 346.25 
L 278.831626 347.385 
L 280.654411 349.420833 
L 282.477195 348.043333 
L 284.29998 345.325833 
L 286.122765 341.331667 
L 287.94555 338.18 
" clip-path="url(#pa24fa977fd)" style="fill: none; stroke: #1f77b4; stroke-width: 3; stroke-linecap: square"/>
   </g>
   <g id="line2d_9">
    <path d="M 123.894917 307.541667 
L 125.717702 308.884167 
L 127.540487 307.223333 
L 129.363271 307.599167 
L 131.186056 309.269167 
L 133.008841 310.435 
L 134.831626 316.986667 
L 136.654411 323.7725 
L 138.477195 326.034167 
L 140.29998 322.601667 
L 142.122765 319.160833 
L 143.94555 317.078333 
L 145.768335 317.400833 
L 147.591119 317.5325 
L 149.413904 319.505 
L 151.236689 325.025833 
L 153.059474 328.3725 
L 154.882259 331.36 
L 156.705044 330.9675 
L 158.527828 332.749167 
L 160.350613 333.41 
L 162.173398 332.119167 
L 163.996183 334.045833 
L 165.818968 335.701667 
L 167.641752 336.420833 
L 169.464537 334.4525 
L 171.287322 332.653333 
L 173.110107 333.828333 
L 174.932892 335.116667 
L 176.755676 336.166667 
L 178.578461 337.569167 
L 180.401246 339.045 
L 182.224031 336.72 
L 184.046816 335.475 
L 185.8696 335.426667 
L 187.692385 337.549167 
L 189.51517 340.605833 
L 191.337955 341.389167 
L 193.16074 341.089167 
L 194.983525 339.453333 
L 196.806309 336.15 
L 198.629094 333.496667 
L 200.451879 334.7375 
L 202.274664 337.5125 
L 204.097449 341.116667 
L 205.920233 342.473333 
L 207.743018 344.905 
L 209.565803 347.5525 
L 211.388588 346.179167 
L 213.211373 342.034167 
L 215.034157 338.603333 
L 216.856942 335.429167 
L 218.679727 336.225 
L 220.502512 338.819167 
L 222.325297 336.62 
L 224.148081 336.414167 
L 225.970866 335.513333 
L 227.793651 335.445 
L 229.616436 337.47 
L 231.439221 342.404167 
L 233.262006 343.469167 
L 235.08479 344.8075 
L 236.907575 345.766667 
L 238.73036 346.9825 
L 240.553145 346.639167 
L 242.37593 345.295 
L 244.198714 340.355 
L 246.021499 338.805 
L 247.844284 339.1 
L 249.667069 339.521667 
L 251.489854 339.806667 
L 253.312638 334.925 
L 255.135423 332.603333 
L 256.958208 333.099167 
L 258.780993 333.513333 
L 260.603778 334.124167 
L 262.426562 334.245 
L 264.249347 330.800833 
L 266.072132 330.755833 
L 267.894917 329.774167 
L 269.717702 327.453333 
L 271.540487 325.364167 
L 273.363271 324.605833 
L 275.186056 324.304167 
L 277.008841 325.0775 
L 278.831626 321.993333 
L 280.654411 316.395 
L 282.477195 315.050833 
L 284.29998 315.16 
L 286.122765 315.295833 
L 287.94555 316.458333 
" clip-path="url(#pa24fa977fd)" style="fill: none; stroke: #ff7f0e; stroke-width: 3; stroke-linecap: square"/>
   </g>
   <g id="line2d_10">
    <path d="M 123.894917 156.33 
L 125.717702 162.475 
L 127.540487 167.690833 
L 129.363271 171.205833 
L 131.186056 174.734167 
L 133.008841 177.463333 
L 134.831626 183.269167 
L 136.654411 191.531667 
L 138.477195 197.6175 
L 140.29998 199.375833 
L 142.122765 200.2575 
L 143.94555 202.044167 
L 145.768335 202.736667 
L 147.591119 205.270833 
L 149.413904 208.581667 
L 151.236689 213.949167 
L 153.059474 220.414167 
L 154.882259 225.025 
L 156.705044 228.185833 
L 158.527828 230.844167 
L 160.350613 230.8525 
L 162.173398 233.625 
L 163.996183 233.838333 
L 165.818968 234.773333 
L 167.641752 236.1525 
L 169.464537 236.995833 
L 171.287322 239.543333 
L 173.110107 239.463333 
L 174.932892 243.6425 
L 176.755676 245.316667 
L 178.578461 246.240833 
L 180.401246 250.776667 
L 182.224031 252.154167 
L 184.046816 248.095833 
L 185.8696 247.955 
L 187.692385 250.324167 
L 189.51517 253.3025 
L 191.337955 253.625 
L 193.16074 254.874167 
L 194.983525 253.0575 
L 196.806309 251.224167 
L 198.629094 247.7275 
L 200.451879 247.129167 
L 202.274664 252.308333 
L 204.097449 257.638333 
L 205.920233 261.4675 
L 207.743018 262.065833 
L 209.565803 265.101667 
L 211.388588 261.214167 
L 213.211373 260.170833 
L 215.034157 255.555 
L 216.856942 255.835833 
L 218.679727 251.684167 
L 220.502512 251.408333 
L 222.325297 251.479167 
L 224.148081 248.260833 
L 225.970866 245.369167 
L 227.793651 242.435 
L 229.616436 246.126667 
L 231.439221 250.3575 
L 233.262006 250.143333 
L 235.08479 251.156667 
L 236.907575 250.738333 
L 238.73036 250.345833 
L 240.553145 245.858333 
L 242.37593 242.466667 
L 244.198714 237.726667 
L 246.021499 236.1375 
L 247.844284 232.289167 
L 249.667069 231.690833 
L 251.489854 228.921667 
L 253.312638 226.6975 
L 255.135423 223.6375 
L 256.958208 226.266667 
L 258.780993 224.314167 
L 260.603778 222.428333 
L 262.426562 217.325 
L 264.249347 215.546667 
L 266.072132 213.521667 
L 267.894917 209.345833 
L 269.717702 208.784167 
L 271.540487 207.544167 
L 273.363271 201.624167 
L 275.186056 198.385 
L 277.008841 194.26 
L 278.831626 186.683333 
L 280.654411 181.818333 
L 282.477195 179.476667 
L 284.29998 180.0075 
L 286.122765 179.304167 
L 287.94555 178.515833 
" clip-path="url(#pa24fa977fd)" style="fill: none; stroke: #2ca02c; stroke-width: 3; stroke-linecap: square"/>
   </g>
   <g id="line2d_11">
    <path d="M 123.894917 74.680833 
L 125.717702 76.895 
L 127.540487 79.763333 
L 129.363271 81.155 
L 131.186056 82.929167 
L 133.008841 83.150833 
L 134.831626 85.5775 
L 136.654411 89.750833 
L 138.477195 91.640833 
L 140.29998 91.808333 
L 142.122765 91.75 
L 143.94555 92.39 
L 145.768335 91.8 
L 147.591119 95.819167 
L 149.413904 102.3 
L 151.236689 107.85 
L 153.059474 114.878333 
L 154.882259 119.866667 
L 156.705044 121.308333 
L 158.527828 123.408333 
L 160.350613 125.4925 
L 162.173398 124.084167 
L 163.996183 124.615833 
L 165.818968 130.993333 
L 167.641752 131.073333 
L 169.464537 131.328333 
L 171.287322 133.7425 
L 173.110107 135.115833 
L 174.932892 138.645833 
L 176.755676 139.3775 
L 178.578461 140.321667 
L 180.401246 143.733333 
L 182.224031 145.210833 
L 184.046816 146.4925 
L 185.8696 145.690833 
L 187.692385 146.721667 
L 189.51517 148.654167 
L 191.337955 153.395 
L 193.16074 152.129167 
L 194.983525 151.435 
L 196.806309 147.706667 
L 198.629094 146.769167 
L 200.451879 149.056667 
L 202.274664 156.466667 
L 204.097449 156.73 
L 205.920233 158.7625 
L 207.743018 160.595833 
L 209.565803 163.719167 
L 211.388588 162.855 
L 213.211373 161.256667 
L 215.034157 155.145833 
L 216.856942 152.198333 
L 218.679727 150.678333 
L 220.502512 150.595833 
L 222.325297 150.7875 
L 224.148081 146.461667 
L 225.970866 142.495 
L 227.793651 139.939167 
L 229.616436 137.99 
L 231.439221 141.400833 
L 233.262006 140.463333 
L 235.08479 140.851667 
L 236.907575 140.166667 
L 238.73036 137.3675 
L 240.553145 137.284167 
L 242.37593 131.364167 
L 244.198714 125.5575 
L 246.021499 122.203333 
L 247.844284 121.165 
L 249.667069 119.319167 
L 251.489854 116.47 
L 253.312638 113.390833 
L 255.135423 111.95 
L 256.958208 111.019167 
L 258.780993 109.38 
L 260.603778 109.5925 
L 262.426562 107.4825 
L 264.249347 103.500833 
L 266.072132 100.5525 
L 267.894917 100.159167 
L 269.717702 96.535 
L 271.540487 96.0825 
L 273.363271 94.160833 
L 275.186056 91.0025 
L 277.008841 88.853333 
L 278.831626 86.438333 
L 280.654411 85.6125 
L 282.477195 84.703333 
L 284.29998 83.604167 
L 286.122765 83.334167 
L 287.94555 82.568333 
" clip-path="url(#pa24fa977fd)" style="fill: none; stroke: #d62728; stroke-width: 3; stroke-linecap: square"/>
   </g>
   <g id="line2d_12">
    <path d="M 123.894917 46.970833 
L 125.717702 48.3375 
L 127.540487 49.585 
L 129.363271 50.4375 
L 131.186056 51.24 
L 133.008841 52.424167 
L 134.831626 54.241667 
L 136.654411 56.210833 
L 138.477195 56.8325 
L 140.29998 56.34 
L 142.122765 56.800833 
L 143.94555 57.859167 
L 145.768335 59.678333 
L 147.591119 61.596667 
L 149.413904 63.751667 
L 151.236689 65.6025 
L 153.059474 67.476667 
L 154.882259 68.515833 
L 156.705044 68.045 
L 158.527828 68.623333 
L 160.350613 69.540833 
L 162.173398 69.993333 
L 163.996183 70.718333 
L 165.818968 72.306667 
L 167.641752 72.601667 
L 169.464537 72.869167 
L 171.287322 73.87 
L 173.110107 75.180833 
L 174.932892 75.910833 
L 176.755676 76.684167 
L 178.578461 77.214167 
L 180.401246 78.288333 
L 182.224031 79.120833 
L 184.046816 78.856667 
L 185.8696 78.795833 
L 187.692385 78.558333 
L 189.51517 78.955833 
L 191.337955 80.2275 
L 193.16074 81.2775 
L 194.983525 81.349167 
L 196.806309 80.684167 
L 198.629094 80.298333 
L 200.451879 80.805 
L 202.274664 82.164167 
L 204.097449 84.233333 
L 205.920233 85.975 
L 207.743018 87.040833 
L 209.565803 87.6625 
L 211.388588 86.17 
L 213.211373 83.728333 
L 215.034157 83.1225 
L 216.856942 81.6675 
L 218.679727 81.193333 
L 220.502512 80.5325 
L 222.325297 80.500833 
L 224.148081 79.8575 
L 225.970866 78.35 
L 227.793651 77.140833 
L 229.616436 76.379167 
L 231.439221 76.265833 
L 233.262006 75.734167 
L 235.08479 75.484167 
L 236.907575 75.220833 
L 238.73036 74.5475 
L 240.553145 73.5575 
L 242.37593 72.03 
L 244.198714 70.02 
L 246.021499 68.533333 
L 247.844284 67.674167 
L 249.667069 67.003333 
L 251.489854 66.199167 
L 253.312638 65.425 
L 255.135423 64.496667 
L 256.958208 64.368333 
L 258.780993 64.028333 
L 260.603778 63.351667 
L 262.426562 62.37 
L 264.249347 61.474167 
L 266.072132 60.994167 
L 267.894917 60.396667 
L 269.717702 59.44 
L 271.540487 58.0725 
L 273.363271 57.061667 
L 275.186056 56.5025 
L 277.008841 55.121667 
L 278.831626 53.478333 
L 280.654411 52.434167 
L 282.477195 51.985833 
L 284.29998 51.731667 
L 286.122765 51.386667 
L 287.94555 50.885 
" clip-path="url(#pa24fa977fd)" style="fill: none; stroke: #9467bd; stroke-width: 3; stroke-linecap: square"/>
   </g>
   <g id="patch_3">
    <path d="M 118.426563 367.2 
L 118.426563 7.2 
" style="fill: none; stroke: #000000; stroke-width: 2; stroke-linejoin: miter; stroke-linecap: square"/>
   </g>
   <g id="patch_4">
    <path d="M 406.426562 367.2 
L 406.426562 7.2 
" style="fill: none; stroke: #000000; stroke-width: 2; stroke-linejoin: miter; stroke-linecap: square"/>
   </g>
   <g id="patch_5">
    <path d="M 118.426563 367.2 
L 406.426562 367.2 
" style="fill: none; stroke: #000000; stroke-width: 2; stroke-linejoin: miter; stroke-linecap: square"/>
   </g>
   <g id="patch_6">
    <path d="M 118.426563 7.2 
L 406.426562 7.2 
" style="fill: none; stroke: #000000; stroke-width: 2; stroke-linejoin: miter; stroke-linecap: square"/>
   </g>
   <g id="text_10">
    <!-- 17 sec -->
    <g style="fill: #1f77b4" transform="translate(306.230978 338.18)scale(0.25 -0.25)">
     <defs>
      <path id="DejaVuSans-37" d="M 525 4666 
L 3525 4666 
L 3525 4397 
L 1831 0 
L 1172 0 
L 2766 4134 
L 525 4134 
L 525 4666 
z
" transform="scale(0.015625)"/>
      <path id="DejaVuSans-63" d="M 3122 3366 
L 3122 2828 
Q 2878 2963 2633 3030 
Q 2388 3097 2138 3097 
Q 1578 3097 1268 2742 
Q 959 2388 959 1747 
Q 959 1106 1268 751 
Q 1578 397 2138 397 
Q 2388 397 2633 464 
Q 2878 531 3122 666 
L 3122 134 
Q 2881 22 2623 -34 
Q 2366 -91 2075 -91 
Q 1284 -91 818 406 
Q 353 903 353 1747 
Q 353 2603 823 3093 
Q 1294 3584 2113 3584 
Q 2378 3584 2631 3529 
Q 2884 3475 3122 3366 
z
" transform="scale(0.015625)"/>
     </defs>
     <use xlink:href="#DejaVuSans-31"/>
     <use xlink:href="#DejaVuSans-37" x="63.623047"/>
     <use xlink:href="#DejaVuSans-20" x="127.246094"/>
     <use xlink:href="#DejaVuSans-73" x="159.033203"/>
     <use xlink:href="#DejaVuSans-65" x="211.132812"/>
     <use xlink:href="#DejaVuSans-63" x="272.65625"/>
    </g>
   </g>
   <g id="text_11">
    <!-- 377 sec -->
    <g style="fill: #ff7f0e" transform="translate(298.277853 316.458333)scale(0.25 -0.25)">
     <use xlink:href="#DejaVuSans-33"/>
     <use xlink:href="#DejaVuSans-37" x="63.623047"/>
     <use xlink:href="#DejaVuSans-37" x="127.246094"/>
     <use xlink:href="#DejaVuSans-20" x="190.869141"/>
     <use xlink:href="#DejaVuSans-73" x="222.65625"/>
     <use xlink:href="#DejaVuSans-65" x="274.755859"/>
     <use xlink:href="#DejaVuSans-63" x="336.279297"/>
    </g>
   </g>
   <g id="text_12">
    <!-- 857 sec -->
    <g style="fill: #2ca02c" transform="translate(298.277853 178.515833)scale(0.25 -0.25)">
     <defs>
      <path id="DejaVuSans-38" d="M 2034 2216 
Q 1584 2216 1326 1975 
Q 1069 1734 1069 1313 
Q 1069 891 1326 650 
Q 1584 409 2034 409 
Q 2484 409 2743 651 
Q 3003 894 3003 1313 
Q 3003 1734 2745 1975 
Q 2488 2216 2034 2216 
z
M 1403 2484 
Q 997 2584 770 2862 
Q 544 3141 544 3541 
Q 544 4100 942 4425 
Q 1341 4750 2034 4750 
Q 2731 4750 3128 4425 
Q 3525 4100 3525 3541 
Q 3525 3141 3298 2862 
Q 3072 2584 2669 2484 
Q 3125 2378 3379 2068 
Q 3634 1759 3634 1313 
Q 3634 634 3220 271 
Q 2806 -91 2034 -91 
Q 1263 -91 848 271 
Q 434 634 434 1313 
Q 434 1759 690 2068 
Q 947 2378 1403 2484 
z
M 1172 3481 
Q 1172 3119 1398 2916 
Q 1625 2713 2034 2713 
Q 2441 2713 2670 2916 
Q 2900 3119 2900 3481 
Q 2900 3844 2670 4047 
Q 2441 4250 2034 4250 
Q 1625 4250 1398 4047 
Q 1172 3844 1172 3481 
z
" transform="scale(0.015625)"/>
     </defs>
     <use xlink:href="#DejaVuSans-38"/>
     <use xlink:href="#DejaVuSans-35" x="63.623047"/>
     <use xlink:href="#DejaVuSans-37" x="127.246094"/>
     <use xlink:href="#DejaVuSans-20" x="190.869141"/>
     <use xlink:href="#DejaVuSans-73" x="222.65625"/>
     <use xlink:href="#DejaVuSans-65" x="274.755859"/>
     <use xlink:href="#DejaVuSans-63" x="336.279297"/>
    </g>
   </g>
   <g id="text_13">
    <!-- 1337 sec -->
    <g style="fill: #d62728" transform="translate(290.324728 82.568333)scale(0.25 -0.25)">
     <use xlink:href="#DejaVuSans-31"/>
     <use xlink:href="#DejaVuSans-33" x="63.623047"/>
     <use xlink:href="#DejaVuSans-33" x="127.246094"/>
     <use xlink:href="#DejaVuSans-37" x="190.869141"/>
     <use xlink:href="#DejaVuSans-20" x="254.492188"/>
     <use xlink:href="#DejaVuSans-73" x="286.279297"/>
     <use xlink:href="#DejaVuSans-65" x="338.378906"/>
     <use xlink:href="#DejaVuSans-63" x="399.902344"/>
    </g>
   </g>
   <g id="text_14">
    <!-- 1817 sec -->
    <g style="fill: #9467bd" transform="translate(290.324728 50.885)scale(0.25 -0.25)">
     <use xlink:href="#DejaVuSans-31"/>
     <use xlink:href="#DejaVuSans-38" x="63.623047"/>
     <use xlink:href="#DejaVuSans-31" x="127.246094"/>
     <use xlink:href="#DejaVuSans-37" x="190.869141"/>
     <use xlink:href="#DejaVuSans-20" x="254.492188"/>
     <use xlink:href="#DejaVuSans-73" x="286.279297"/>
     <use xlink:href="#DejaVuSans-65" x="338.378906"/>
     <use xlink:href="#DejaVuSans-63" x="399.902344"/>
    </g>
   </g>
  </g>
 </g>
 <defs>
  <clipPath id="pa24fa977fd">
   <rect x="118.426563" y="7.2" width="288" height="360"/>
  </clipPath>
 </defs>
</svg>
