<?xml version="1.0" encoding="utf-8" standalone="no"?>
<!DOCTYPE svg PUBLIC "-//W3C//DTD SVG 1.1//EN"
  "http://www.w3.org/Graphics/SVG/1.1/DTD/svg11.dtd">
<svg xmlns:xlink="http://www.w3.org/1999/xlink" width="477.11875pt" height="442.525pt" viewBox="0 0 477.11875 442.525" xmlns="http://www.w3.org/2000/svg" version="1.1">
 <metadata>
  <rdf:RDF xmlns:dc="http://purl.org/dc/elements/1.1/" xmlns:cc="http://creativecommons.org/ns#" xmlns:rdf="http://www.w3.org/1999/02/22-rdf-syntax-ns#">
   <cc:Work>
    <dc:type rdf:resource="http://purl.org/dc/dcmitype/StillImage"/>
    <dc:date>2024-06-02T16:49:40.248588</dc:date>
    <dc:format>image/svg+xml</dc:format>
    <dc:creator>
     <cc:Agent>
      <dc:title>Matplotlib v3.5.2, https://matplotlib.org/</dc:title>
     </cc:Agent>
    </dc:creator>
   </cc:Work>
  </rdf:RDF>
 </metadata>
 <defs>
  <style type="text/css">*{stroke-linejoin: round; stroke-linecap: butt}</style>
 </defs>
 <g id="figure_1">
  <g id="patch_1">
   <path d="M 0 442.525 
L 477.11875 442.525 
L 477.11875 -0 
L 0 -0 
z
" style="fill: #ffffff"/>
  </g>
  <g id="axes_1">
   <g id="patch_2">
    <path d="M 94.559375 379.434375 
L 382.559375 379.434375 
L 382.559375 19.434375 
L 94.559375 19.434375 
z
" style="fill: #ffffff"/>
   </g>
   <g id="matplotlib.axis_1">
    <g id="xtick_1">
     <g id="line2d_1">
      <defs>
       <path id="m127c27e609" d="M 0 0 
L 0 -4 
" style="stroke: #000000; stroke-width: 2"/>
      </defs>
      <g>
       <use xlink:href="#m127c27e609" x="97.15397" y="379.434375" style="stroke: #000000; stroke-width: 2"/>
      </g>
     </g>
     <g id="text_1">
      <!-- 0 -->
      <g transform="translate(89.200845 401.930469)scale(0.25 -0.25)">
       <defs>
        <path id="DejaVuSans-30" d="M 2034 4250 
Q 1547 4250 1301 3770 
Q 1056 3291 1056 2328 
Q 1056 1369 1301 889 
Q 1547 409 2034 409 
Q 2525 409 2770 889 
Q 3016 1369 3016 2328 
Q 3016 3291 2770 3770 
Q 2525 4250 2034 4250 
z
M 2034 4750 
Q 2819 4750 3233 4129 
Q 3647 3509 3647 2328 
Q 3647 1150 3233 529 
Q 2819 -91 2034 -91 
Q 1250 -91 836 529 
Q 422 1150 422 2328 
Q 422 3509 836 4129 
Q 1250 4750 2034 4750 
z
" transform="scale(0.015625)"/>
       </defs>
       <use xlink:href="#DejaVuSans-30"/>
      </g>
     </g>
    </g>
    <g id="xtick_2">
     <g id="line2d_2">
      <g>
       <use xlink:href="#m127c27e609" x="226.883699" y="379.434375" style="stroke: #000000; stroke-width: 2"/>
      </g>
     </g>
     <g id="text_2">
      <!-- 50 -->
      <g transform="translate(210.977449 401.930469)scale(0.25 -0.25)">
       <defs>
        <path id="DejaVuSans-35" d="M 691 4666 
L 3169 4666 
L 3169 4134 
L 1269 4134 
L 1269 2991 
Q 1406 3038 1543 3061 
Q 1681 3084 1819 3084 
Q 2600 3084 3056 2656 
Q 3513 2228 3513 1497 
Q 3513 744 3044 326 
Q 2575 -91 1722 -91 
Q 1428 -91 1123 -41 
Q 819 9 494 109 
L 494 744 
Q 775 591 1075 516 
Q 1375 441 1709 441 
Q 2250 441 2565 725 
Q 2881 1009 2881 1497 
Q 2881 1984 2565 2268 
Q 2250 2553 1709 2553 
Q 1456 2553 1204 2497 
Q 953 2441 691 2322 
L 691 4666 
z
" transform="scale(0.015625)"/>
       </defs>
       <use xlink:href="#DejaVuSans-35"/>
       <use xlink:href="#DejaVuSans-30" x="63.623047"/>
      </g>
     </g>
    </g>
    <g id="xtick_3">
     <g id="line2d_3">
      <g>
       <use xlink:href="#m127c27e609" x="356.613429" y="379.434375" style="stroke: #000000; stroke-width: 2"/>
      </g>
     </g>
     <g id="text_3">
      <!-- 100 -->
      <g transform="translate(332.754054 401.930469)scale(0.25 -0.25)">
       <defs>
        <path id="DejaVuSans-31" d="M 794 531 
L 1825 531 
L 1825 4091 
L 703 3866 
L 703 4441 
L 1819 4666 
L 2450 4666 
L 2450 531 
L 3481 531 
L 3481 0 
L 794 0 
L 794 531 
z
" transform="scale(0.015625)"/>
       </defs>
       <use xlink:href="#DejaVuSans-31"/>
       <use xlink:href="#DejaVuSans-30" x="63.623047"/>
       <use xlink:href="#DejaVuSans-30" x="127.246094"/>
      </g>
     </g>
    </g>
    <g id="text_4">
     <!-- z-direction [μm] -->
     <g transform="translate(138.860156 430.125781)scale(0.25 -0.25)">
      <defs>
       <path id="DejaVuSans-7a" d="M 353 3500 
L 3084 3500 
L 3084 2975 
L 922 459 
L 3084 459 
L 3084 0 
L 275 0 
L 275 525 
L 2438 3041 
L 353 3041 
L 353 3500 
z
" transform="scale(0.015625)"/>
       <path id="DejaVuSans-2d" d="M 313 2009 
L 1997 2009 
L 1997 1497 
L 313 1497 
L 313 2009 
z
" transform="scale(0.015625)"/>
       <path id="DejaVuSans-64" d="M 2906 2969 
L 2906 4863 
L 3481 4863 
L 3481 0 
L 2906 0 
L 2906 525 
Q 2725 213 2448 61 
Q 2172 -91 1784 -91 
Q 1150 -91 751 415 
Q 353 922 353 1747 
Q 353 2572 751 3078 
Q 1150 3584 1784 3584 
Q 2172 3584 2448 3432 
Q 2725 3281 2906 2969 
z
M 947 1747 
Q 947 1113 1208 752 
Q 1469 391 1925 391 
Q 2381 391 2643 752 
Q 2906 1113 2906 1747 
Q 2906 2381 2643 2742 
Q 2381 3103 1925 3103 
Q 1469 3103 1208 2742 
Q 947 2381 947 1747 
z
" transform="scale(0.015625)"/>
       <path id="DejaVuSans-69" d="M 603 3500 
L 1178 3500 
L 1178 0 
L 603 0 
L 603 3500 
z
M 603 4863 
L 1178 4863 
L 1178 4134 
L 603 4134 
L 603 4863 
z
" transform="scale(0.015625)"/>
       <path id="DejaVuSans-72" d="M 2631 2963 
Q 2534 3019 2420 3045 
Q 2306 3072 2169 3072 
Q 1681 3072 1420 2755 
Q 1159 2438 1159 1844 
L 1159 0 
L 581 0 
L 581 3500 
L 1159 3500 
L 1159 2956 
Q 1341 3275 1631 3429 
Q 1922 3584 2338 3584 
Q 2397 3584 2469 3576 
Q 2541 3569 2628 3553 
L 2631 2963 
z
" transform="scale(0.015625)"/>
       <path id="DejaVuSans-65" d="M 3597 1894 
L 3597 1613 
L 953 1613 
Q 991 1019 1311 708 
Q 1631 397 2203 397 
Q 2534 397 2845 478 
Q 3156 559 3463 722 
L 3463 178 
Q 3153 47 2828 -22 
Q 2503 -91 2169 -91 
Q 1331 -91 842 396 
Q 353 884 353 1716 
Q 353 2575 817 3079 
Q 1281 3584 2069 3584 
Q 2775 3584 3186 3129 
Q 3597 2675 3597 1894 
z
M 3022 2063 
Q 3016 2534 2758 2815 
Q 2500 3097 2075 3097 
Q 1594 3097 1305 2825 
Q 1016 2553 972 2059 
L 3022 2063 
z
" transform="scale(0.015625)"/>
       <path id="DejaVuSans-63" d="M 3122 3366 
L 3122 2828 
Q 2878 2963 2633 3030 
Q 2388 3097 2138 3097 
Q 1578 3097 1268 2742 
Q 959 2388 959 1747 
Q 959 1106 1268 751 
Q 1578 397 2138 397 
Q 2388 397 2633 464 
Q 2878 531 3122 666 
L 3122 134 
Q 2881 22 2623 -34 
Q 2366 -91 2075 -91 
Q 1284 -91 818 406 
Q 353 903 353 1747 
Q 353 2603 823 3093 
Q 1294 3584 2113 3584 
Q 2378 3584 2631 3529 
Q 2884 3475 3122 3366 
z
" transform="scale(0.015625)"/>
       <path id="DejaVuSans-74" d="M 1172 4494 
L 1172 3500 
L 2356 3500 
L 2356 3053 
L 1172 3053 
L 1172 1153 
Q 1172 725 1289 603 
Q 1406 481 1766 481 
L 2356 481 
L 2356 0 
L 1766 0 
Q 1100 0 847 248 
Q 594 497 594 1153 
L 594 3053 
L 172 3053 
L 172 3500 
L 594 3500 
L 594 4494 
L 1172 4494 
z
" transform="scale(0.015625)"/>
       <path id="DejaVuSans-6f" d="M 1959 3097 
Q 1497 3097 1228 2736 
Q 959 2375 959 1747 
Q 959 1119 1226 758 
Q 1494 397 1959 397 
Q 2419 397 2687 759 
Q 2956 1122 2956 1747 
Q 2956 2369 2687 2733 
Q 2419 3097 1959 3097 
z
M 1959 3584 
Q 2709 3584 3137 3096 
Q 3566 2609 3566 1747 
Q 3566 888 3137 398 
Q 2709 -91 1959 -91 
Q 1206 -91 779 398 
Q 353 888 353 1747 
Q 353 2609 779 3096 
Q 1206 3584 1959 3584 
z
" transform="scale(0.015625)"/>
       <path id="DejaVuSans-6e" d="M 3513 2113 
L 3513 0 
L 2938 0 
L 2938 2094 
Q 2938 2591 2744 2837 
Q 2550 3084 2163 3084 
Q 1697 3084 1428 2787 
Q 1159 2491 1159 1978 
L 1159 0 
L 581 0 
L 581 3500 
L 1159 3500 
L 1159 2956 
Q 1366 3272 1645 3428 
Q 1925 3584 2291 3584 
Q 2894 3584 3203 3211 
Q 3513 2838 3513 2113 
z
" transform="scale(0.015625)"/>
       <path id="DejaVuSans-20" transform="scale(0.015625)"/>
       <path id="DejaVuSans-5b" d="M 550 4863 
L 1875 4863 
L 1875 4416 
L 1125 4416 
L 1125 -397 
L 1875 -397 
L 1875 -844 
L 550 -844 
L 550 4863 
z
" transform="scale(0.015625)"/>
       <path id="DejaVuSans-3bc" d="M 544 -1331 
L 544 3500 
L 1119 3500 
L 1119 1325 
Q 1119 872 1334 640 
Q 1550 409 1972 409 
Q 2434 409 2667 671 
Q 2900 934 2900 1459 
L 2900 3500 
L 3475 3500 
L 3475 806 
Q 3475 619 3529 530 
Q 3584 441 3700 441 
Q 3728 441 3778 458 
Q 3828 475 3916 513 
L 3916 50 
Q 3788 -22 3673 -56 
Q 3559 -91 3450 -91 
Q 3234 -91 3106 31 
Q 2978 153 2931 403 
Q 2775 156 2548 32 
Q 2322 -91 2016 -91 
Q 1697 -91 1473 31 
Q 1250 153 1119 397 
L 1119 -1331 
L 544 -1331 
z
" transform="scale(0.015625)"/>
       <path id="DejaVuSans-6d" d="M 3328 2828 
Q 3544 3216 3844 3400 
Q 4144 3584 4550 3584 
Q 5097 3584 5394 3201 
Q 5691 2819 5691 2113 
L 5691 0 
L 5113 0 
L 5113 2094 
Q 5113 2597 4934 2840 
Q 4756 3084 4391 3084 
Q 3944 3084 3684 2787 
Q 3425 2491 3425 1978 
L 3425 0 
L 2847 0 
L 2847 2094 
Q 2847 2600 2669 2842 
Q 2491 3084 2119 3084 
Q 1678 3084 1418 2786 
Q 1159 2488 1159 1978 
L 1159 0 
L 581 0 
L 581 3500 
L 1159 3500 
L 1159 2956 
Q 1356 3278 1631 3431 
Q 1906 3584 2284 3584 
Q 2666 3584 2933 3390 
Q 3200 3197 3328 2828 
z
" transform="scale(0.015625)"/>
       <path id="DejaVuSans-5d" d="M 1947 4863 
L 1947 -844 
L 622 -844 
L 622 -397 
L 1369 -397 
L 1369 4416 
L 622 4416 
L 622 4863 
L 1947 4863 
z
" transform="scale(0.015625)"/>
      </defs>
      <use xlink:href="#DejaVuSans-7a"/>
      <use xlink:href="#DejaVuSans-2d" x="52.490234"/>
      <use xlink:href="#DejaVuSans-64" x="88.574219"/>
      <use xlink:href="#DejaVuSans-69" x="152.050781"/>
      <use xlink:href="#DejaVuSans-72" x="179.833984"/>
      <use xlink:href="#DejaVuSans-65" x="218.697266"/>
      <use xlink:href="#DejaVuSans-63" x="280.220703"/>
      <use xlink:href="#DejaVuSans-74" x="335.201172"/>
      <use xlink:href="#DejaVuSans-69" x="374.410156"/>
      <use xlink:href="#DejaVuSans-6f" x="402.193359"/>
      <use xlink:href="#DejaVuSans-6e" x="463.375"/>
      <use xlink:href="#DejaVuSans-20" x="526.753906"/>
      <use xlink:href="#DejaVuSans-5b" x="558.541016"/>
      <use xlink:href="#DejaVuSans-3bc" x="597.554688"/>
      <use xlink:href="#DejaVuSans-6d" x="661.177734"/>
      <use xlink:href="#DejaVuSans-5d" x="758.589844"/>
     </g>
    </g>
   </g>
   <g id="matplotlib.axis_2">
    <g id="ytick_1">
     <g id="line2d_4">
      <defs>
       <path id="m023a7b638a" d="M 0 0 
L 4 0 
" style="stroke: #000000; stroke-width: 2"/>
      </defs>
      <g>
       <use xlink:href="#m023a7b638a" x="94.559375" y="379.434375" style="stroke: #000000; stroke-width: 2"/>
      </g>
     </g>
     <g id="text_5">
      <!-- 0.00 -->
      <g transform="translate(35.395313 388.932422)scale(0.25 -0.25)">
       <defs>
        <path id="DejaVuSans-2e" d="M 684 794 
L 1344 794 
L 1344 0 
L 684 0 
L 684 794 
z
" transform="scale(0.015625)"/>
       </defs>
       <use xlink:href="#DejaVuSans-30"/>
       <use xlink:href="#DejaVuSans-2e" x="63.623047"/>
       <use xlink:href="#DejaVuSans-30" x="95.410156"/>
       <use xlink:href="#DejaVuSans-30" x="159.033203"/>
      </g>
     </g>
    </g>
    <g id="ytick_2">
     <g id="line2d_5">
      <g>
       <use xlink:href="#m023a7b638a" x="94.559375" y="307.434375" style="stroke: #000000; stroke-width: 2"/>
      </g>
     </g>
     <g id="text_6">
      <!-- 0.02 -->
      <g transform="translate(35.395313 316.932422)scale(0.25 -0.25)">
       <defs>
        <path id="DejaVuSans-32" d="M 1228 531 
L 3431 531 
L 3431 0 
L 469 0 
L 469 531 
Q 828 903 1448 1529 
Q 2069 2156 2228 2338 
Q 2531 2678 2651 2914 
Q 2772 3150 2772 3378 
Q 2772 3750 2511 3984 
Q 2250 4219 1831 4219 
Q 1534 4219 1204 4116 
Q 875 4013 500 3803 
L 500 4441 
Q 881 4594 1212 4672 
Q 1544 4750 1819 4750 
Q 2544 4750 2975 4387 
Q 3406 4025 3406 3419 
Q 3406 3131 3298 2873 
Q 3191 2616 2906 2266 
Q 2828 2175 2409 1742 
Q 1991 1309 1228 531 
z
" transform="scale(0.015625)"/>
       </defs>
       <use xlink:href="#DejaVuSans-30"/>
       <use xlink:href="#DejaVuSans-2e" x="63.623047"/>
       <use xlink:href="#DejaVuSans-30" x="95.410156"/>
       <use xlink:href="#DejaVuSans-32" x="159.033203"/>
      </g>
     </g>
    </g>
    <g id="ytick_3">
     <g id="line2d_6">
      <g>
       <use xlink:href="#m023a7b638a" x="94.559375" y="235.434375" style="stroke: #000000; stroke-width: 2"/>
      </g>
     </g>
     <g id="text_7">
      <!-- 0.04 -->
      <g transform="translate(35.395313 244.932422)scale(0.25 -0.25)">
       <defs>
        <path id="DejaVuSans-34" d="M 2419 4116 
L 825 1625 
L 2419 1625 
L 2419 4116 
z
M 2253 4666 
L 3047 4666 
L 3047 1625 
L 3713 1625 
L 3713 1100 
L 3047 1100 
L 3047 0 
L 2419 0 
L 2419 1100 
L 313 1100 
L 313 1709 
L 2253 4666 
z
" transform="scale(0.015625)"/>
       </defs>
       <use xlink:href="#DejaVuSans-30"/>
       <use xlink:href="#DejaVuSans-2e" x="63.623047"/>
       <use xlink:href="#DejaVuSans-30" x="95.410156"/>
       <use xlink:href="#DejaVuSans-34" x="159.033203"/>
      </g>
     </g>
    </g>
    <g id="ytick_4">
     <g id="line2d_7">
      <g>
       <use xlink:href="#m023a7b638a" x="94.559375" y="163.434375" style="stroke: #000000; stroke-width: 2"/>
      </g>
     </g>
     <g id="text_8">
      <!-- 0.06 -->
      <g transform="translate(35.395313 172.932422)scale(0.25 -0.25)">
       <defs>
        <path id="DejaVuSans-36" d="M 2113 2584 
Q 1688 2584 1439 2293 
Q 1191 2003 1191 1497 
Q 1191 994 1439 701 
Q 1688 409 2113 409 
Q 2538 409 2786 701 
Q 3034 994 3034 1497 
Q 3034 2003 2786 2293 
Q 2538 2584 2113 2584 
z
M 3366 4563 
L 3366 3988 
Q 3128 4100 2886 4159 
Q 2644 4219 2406 4219 
Q 1781 4219 1451 3797 
Q 1122 3375 1075 2522 
Q 1259 2794 1537 2939 
Q 1816 3084 2150 3084 
Q 2853 3084 3261 2657 
Q 3669 2231 3669 1497 
Q 3669 778 3244 343 
Q 2819 -91 2113 -91 
Q 1303 -91 875 529 
Q 447 1150 447 2328 
Q 447 3434 972 4092 
Q 1497 4750 2381 4750 
Q 2619 4750 2861 4703 
Q 3103 4656 3366 4563 
z
" transform="scale(0.015625)"/>
       </defs>
       <use xlink:href="#DejaVuSans-30"/>
       <use xlink:href="#DejaVuSans-2e" x="63.623047"/>
       <use xlink:href="#DejaVuSans-30" x="95.410156"/>
       <use xlink:href="#DejaVuSans-36" x="159.033203"/>
      </g>
     </g>
    </g>
    <g id="ytick_5">
     <g id="line2d_8">
      <g>
       <use xlink:href="#m023a7b638a" x="94.559375" y="91.434375" style="stroke: #000000; stroke-width: 2"/>
      </g>
     </g>
     <g id="text_9">
      <!-- 0.08 -->
      <g transform="translate(35.395313 100.932422)scale(0.25 -0.25)">
       <defs>
        <path id="DejaVuSans-38" d="M 2034 2216 
Q 1584 2216 1326 1975 
Q 1069 1734 1069 1313 
Q 1069 891 1326 650 
Q 1584 409 2034 409 
Q 2484 409 2743 651 
Q 3003 894 3003 1313 
Q 3003 1734 2745 1975 
Q 2488 2216 2034 2216 
z
M 1403 2484 
Q 997 2584 770 2862 
Q 544 3141 544 3541 
Q 544 4100 942 4425 
Q 1341 4750 2034 4750 
Q 2731 4750 3128 4425 
Q 3525 4100 3525 3541 
Q 3525 3141 3298 2862 
Q 3072 2584 2669 2484 
Q 3125 2378 3379 2068 
Q 3634 1759 3634 1313 
Q 3634 634 3220 271 
Q 2806 -91 2034 -91 
Q 1263 -91 848 271 
Q 434 634 434 1313 
Q 434 1759 690 2068 
Q 947 2378 1403 2484 
z
M 1172 3481 
Q 1172 3119 1398 2916 
Q 1625 2713 2034 2713 
Q 2441 2713 2670 2916 
Q 2900 3119 2900 3481 
Q 2900 3844 2670 4047 
Q 2441 4250 2034 4250 
Q 1625 4250 1398 4047 
Q 1172 3844 1172 3481 
z
" transform="scale(0.015625)"/>
       </defs>
       <use xlink:href="#DejaVuSans-30"/>
       <use xlink:href="#DejaVuSans-2e" x="63.623047"/>
       <use xlink:href="#DejaVuSans-30" x="95.410156"/>
       <use xlink:href="#DejaVuSans-38" x="159.033203"/>
      </g>
     </g>
    </g>
    <g id="ytick_6">
     <g id="line2d_9">
      <g>
       <use xlink:href="#m023a7b638a" x="94.559375" y="19.434375" style="stroke: #000000; stroke-width: 2"/>
      </g>
     </g>
     <g id="text_10">
      <!-- 0.10 -->
      <g transform="translate(35.395313 28.932422)scale(0.25 -0.25)">
       <use xlink:href="#DejaVuSans-30"/>
       <use xlink:href="#DejaVuSans-2e" x="63.623047"/>
       <use xlink:href="#DejaVuSans-31" x="95.410156"/>
       <use xlink:href="#DejaVuSans-30" x="159.033203"/>
      </g>
     </g>
    </g>
    <g id="text_11">
     <!-- Estimated Concentration [mM] -->
     <g transform="translate(26.196094 391.66875)rotate(-90)scale(0.25 -0.25)">
      <defs>
       <path id="DejaVuSans-45" d="M 628 4666 
L 3578 4666 
L 3578 4134 
L 1259 4134 
L 1259 2753 
L 3481 2753 
L 3481 2222 
L 1259 2222 
L 1259 531 
L 3634 531 
L 3634 0 
L 628 0 
L 628 4666 
z
" transform="scale(0.015625)"/>
       <path id="DejaVuSans-73" d="M 2834 3397 
L 2834 2853 
Q 2591 2978 2328 3040 
Q 2066 3103 1784 3103 
Q 1356 3103 1142 2972 
Q 928 2841 928 2578 
Q 928 2378 1081 2264 
Q 1234 2150 1697 2047 
L 1894 2003 
Q 2506 1872 2764 1633 
Q 3022 1394 3022 966 
Q 3022 478 2636 193 
Q 2250 -91 1575 -91 
Q 1294 -91 989 -36 
Q 684 19 347 128 
L 347 722 
Q 666 556 975 473 
Q 1284 391 1588 391 
Q 1994 391 2212 530 
Q 2431 669 2431 922 
Q 2431 1156 2273 1281 
Q 2116 1406 1581 1522 
L 1381 1569 
Q 847 1681 609 1914 
Q 372 2147 372 2553 
Q 372 3047 722 3315 
Q 1072 3584 1716 3584 
Q 2034 3584 2315 3537 
Q 2597 3491 2834 3397 
z
" transform="scale(0.015625)"/>
       <path id="DejaVuSans-61" d="M 2194 1759 
Q 1497 1759 1228 1600 
Q 959 1441 959 1056 
Q 959 750 1161 570 
Q 1363 391 1709 391 
Q 2188 391 2477 730 
Q 2766 1069 2766 1631 
L 2766 1759 
L 2194 1759 
z
M 3341 1997 
L 3341 0 
L 2766 0 
L 2766 531 
Q 2569 213 2275 61 
Q 1981 -91 1556 -91 
Q 1019 -91 701 211 
Q 384 513 384 1019 
Q 384 1609 779 1909 
Q 1175 2209 1959 2209 
L 2766 2209 
L 2766 2266 
Q 2766 2663 2505 2880 
Q 2244 3097 1772 3097 
Q 1472 3097 1187 3025 
Q 903 2953 641 2809 
L 641 3341 
Q 956 3463 1253 3523 
Q 1550 3584 1831 3584 
Q 2591 3584 2966 3190 
Q 3341 2797 3341 1997 
z
" transform="scale(0.015625)"/>
       <path id="DejaVuSans-43" d="M 4122 4306 
L 4122 3641 
Q 3803 3938 3442 4084 
Q 3081 4231 2675 4231 
Q 1875 4231 1450 3742 
Q 1025 3253 1025 2328 
Q 1025 1406 1450 917 
Q 1875 428 2675 428 
Q 3081 428 3442 575 
Q 3803 722 4122 1019 
L 4122 359 
Q 3791 134 3420 21 
Q 3050 -91 2638 -91 
Q 1578 -91 968 557 
Q 359 1206 359 2328 
Q 359 3453 968 4101 
Q 1578 4750 2638 4750 
Q 3056 4750 3426 4639 
Q 3797 4528 4122 4306 
z
" transform="scale(0.015625)"/>
       <path id="DejaVuSans-4d" d="M 628 4666 
L 1569 4666 
L 2759 1491 
L 3956 4666 
L 4897 4666 
L 4897 0 
L 4281 0 
L 4281 4097 
L 3078 897 
L 2444 897 
L 1241 4097 
L 1241 0 
L 628 0 
L 628 4666 
z
" transform="scale(0.015625)"/>
      </defs>
      <use xlink:href="#DejaVuSans-45"/>
      <use xlink:href="#DejaVuSans-73" x="63.183594"/>
      <use xlink:href="#DejaVuSans-74" x="115.283203"/>
      <use xlink:href="#DejaVuSans-69" x="154.492188"/>
      <use xlink:href="#DejaVuSans-6d" x="182.275391"/>
      <use xlink:href="#DejaVuSans-61" x="279.6875"/>
      <use xlink:href="#DejaVuSans-74" x="340.966797"/>
      <use xlink:href="#DejaVuSans-65" x="380.175781"/>
      <use xlink:href="#DejaVuSans-64" x="441.699219"/>
      <use xlink:href="#DejaVuSans-20" x="505.175781"/>
      <use xlink:href="#DejaVuSans-43" x="536.962891"/>
      <use xlink:href="#DejaVuSans-6f" x="606.787109"/>
      <use xlink:href="#DejaVuSans-6e" x="667.96875"/>
      <use xlink:href="#DejaVuSans-63" x="731.347656"/>
      <use xlink:href="#DejaVuSans-65" x="786.328125"/>
      <use xlink:href="#DejaVuSans-6e" x="847.851562"/>
      <use xlink:href="#DejaVuSans-74" x="911.230469"/>
      <use xlink:href="#DejaVuSans-72" x="950.439453"/>
      <use xlink:href="#DejaVuSans-61" x="991.552734"/>
      <use xlink:href="#DejaVuSans-74" x="1052.832031"/>
      <use xlink:href="#DejaVuSans-69" x="1092.041016"/>
      <use xlink:href="#DejaVuSans-6f" x="1119.824219"/>
      <use xlink:href="#DejaVuSans-6e" x="1181.005859"/>
      <use xlink:href="#DejaVuSans-20" x="1244.384766"/>
      <use xlink:href="#DejaVuSans-5b" x="1276.171875"/>
      <use xlink:href="#DejaVuSans-6d" x="1315.185547"/>
      <use xlink:href="#DejaVuSans-4d" x="1412.597656"/>
      <use xlink:href="#DejaVuSans-5d" x="1498.876953"/>
     </g>
    </g>
   </g>
   <g id="line2d_10">
    <path d="M 97.15397 370.441824 
L 98.775722 370.664822 
L 100.397475 370.455386 
L 102.019228 370.942598 
L 103.64098 371.883659 
L 105.262733 372.747633 
L 106.884486 373.223062 
L 108.506238 372.996637 
L 110.127991 372.141881 
L 111.749744 371.632857 
L 113.371496 372.038567 
L 114.993249 371.723339 
L 116.615002 371.661239 
L 118.236754 372.099393 
L 119.858507 372.651472 
L 121.48026 373.211185 
L 123.102012 373.546746 
L 124.723765 373.741752 
L 126.345518 373.711299 
L 127.96727 373.49458 
L 129.589023 373.683661 
L 131.210775 374.007928 
L 132.832528 374.004042 
L 134.454281 374.348581 
L 136.076033 374.554167 
L 137.697786 374.609265 
L 139.319539 374.236373 
L 140.941291 373.536428 
L 142.563044 373.489738 
L 144.184797 373.818586 
L 145.806549 373.816527 
L 147.428302 374.083727 
L 149.050055 374.537172 
L 150.671807 374.639135 
L 152.29356 374.44658 
L 153.915313 374.356716 
L 155.537065 373.497872 
L 157.158818 373.477283 
L 158.780571 374.121569 
L 160.402323 374.461556 
L 162.024076 374.891188 
L 163.645829 375.202381 
L 165.267581 375.017225 
L 166.889334 374.997684 
L 168.511087 374.277167 
L 170.132839 373.5975 
L 171.754592 373.673734 
L 173.376345 374.02858 
L 174.998097 374.498135 
L 176.61985 374.840619 
L 178.241603 374.945956 
L 179.863355 375.222991 
L 181.485108 375.51353 
L 183.106861 375.270764 
L 184.728613 374.700166 
L 186.350366 373.837194 
L 187.972119 373.58803 
L 189.593871 373.620124 
L 191.215624 373.393235 
L 192.837377 373.723782 
L 194.459129 374.048475 
L 196.080882 373.649695 
L 197.702635 373.218572 
L 199.324387 373.263017 
L 200.94614 373.541849 
L 202.567893 374.07975 
L 204.189645 374.737003 
L 205.811398 375.407147 
L 207.433151 375.418641 
L 209.054903 375.553098 
L 210.676656 375.579657 
L 212.298409 375.575252 
L 213.920161 375.522105 
L 215.541914 375.154695 
L 217.163667 374.675748 
L 218.785419 374.43192 
L 220.407172 374.545771 
L 222.028925 374.78003 
L 223.650677 374.781341 
L 225.27243 374.189513 
L 226.894183 373.43644 
L 228.515935 373.512668 
L 230.137688 373.695482 
L 231.759441 373.726324 
L 233.381193 374.003942 
L 235.002946 373.960422 
L 236.624699 373.565042 
L 238.246451 373.668473 
L 239.868204 373.540805 
L 241.489956 373.197092 
L 243.111709 373.398991 
L 244.733462 373.197289 
L 246.355214 372.495255 
L 247.976967 372.356022 
L 249.59872 372.85489 
L 251.220472 373.018434 
L 252.842225 372.584154 
L 254.463978 371.9351 
L 256.08573 370.966134 
L 257.707483 370.223625 
" clip-path="url(#p73b43530f6)" style="fill: none; stroke: #1f77b4; stroke-width: 3; stroke-linecap: square"/>
   </g>
   <g id="line2d_11">
    <path d="M 97.15397 359.532837 
L 98.775722 360.07611 
L 100.397475 359.532282 
L 102.019228 359.394963 
L 103.64098 360.052114 
L 105.262733 360.363597 
L 106.884486 361.701662 
L 108.506238 364.314357 
L 110.127991 366.15609 
L 111.749744 366.396705 
L 113.371496 365.204271 
L 114.993249 364.100627 
L 116.615002 363.357271 
L 118.236754 363.412954 
L 119.858507 363.475016 
L 121.48026 363.791875 
L 123.102012 365.282953 
L 124.723765 366.75018 
L 126.345518 367.68608 
L 127.96727 368.243116 
L 129.589023 368.140342 
L 131.210775 368.700024 
L 132.832528 368.845902 
L 134.454281 368.458114 
L 136.076033 368.902351 
L 137.697786 369.413258 
L 139.319539 369.724941 
L 140.941291 369.487151 
L 142.563044 368.82688 
L 144.184797 368.672672 
L 145.806549 369.093798 
L 147.428302 369.407465 
L 149.050055 369.683021 
L 150.671807 370.0531 
L 152.29356 370.468424 
L 153.915313 369.94736 
L 155.537065 369.510037 
L 157.158818 369.390675 
L 158.780571 369.697897 
L 160.402323 370.463585 
L 162.024076 371.028002 
L 163.645829 371.089489 
L 165.267581 370.966847 
L 166.889334 370.506799 
L 168.511087 369.650222 
L 170.132839 368.898362 
L 171.754592 369.119505 
L 173.376345 369.784111 
L 174.998097 370.710865 
L 176.61985 371.245636 
L 178.241603 371.59886 
L 179.863355 372.272696 
L 181.485108 372.643353 
L 183.106861 372.132534 
L 184.728613 371.169758 
L 186.350366 370.340788 
L 187.972119 369.490138 
L 189.593871 369.537699 
L 191.215624 370.312474 
L 192.837377 370.041992 
L 194.459129 369.703342 
L 196.080882 369.633733 
L 197.702635 369.408913 
L 199.324387 369.516244 
L 200.94614 370.259678 
L 202.567893 371.42596 
L 204.189645 371.627679 
L 205.811398 371.932044 
L 207.433151 372.150119 
L 209.054903 372.434701 
L 210.676656 372.456381 
L 212.298409 372.333293 
L 213.920161 371.529241 
L 215.541914 370.53941 
L 217.163667 370.404895 
L 218.785419 370.48806 
L 220.407172 370.622076 
L 222.028925 370.66928 
L 223.650677 369.4223 
L 225.27243 368.641734 
L 226.894183 368.687748 
L 228.515935 368.842567 
L 230.137688 368.950055 
L 231.759441 369.19182 
L 233.381193 368.735052 
L 235.002946 367.948116 
L 236.624699 368.031601 
L 238.246451 367.667927 
L 239.868204 366.976975 
L 241.489956 366.326842 
L 243.111709 366.060881 
L 244.733462 365.898598 
L 246.355214 366.150114 
L 247.976967 365.821627 
L 249.59872 364.135083 
L 251.220472 362.702338 
L 252.842225 362.567716 
L 254.463978 362.589597 
L 256.08573 362.689597 
L 257.707483 363.094195 
" clip-path="url(#p73b43530f6)" style="fill: none; stroke: #ff7f0e; stroke-width: 3; stroke-linecap: square"/>
   </g>
   <g id="line2d_12">
    <path d="M 97.15397 242.87941 
L 98.775722 248.905622 
L 100.397475 254.583768 
L 102.019228 258.049395 
L 103.64098 261.535953 
L 105.262733 264.162741 
L 106.884486 267.774435 
L 108.506238 274.348095 
L 110.127991 281.483467 
L 111.749744 285.825687 
L 113.371496 286.959271 
L 114.993249 287.717495 
L 116.615002 289.246957 
L 118.236754 289.800733 
L 119.858507 291.528017 
L 121.48026 294.007097 
L 123.102012 297.524689 
L 124.723765 302.400228 
L 126.345518 306.887337 
L 127.96727 309.777898 
L 129.589023 312.038528 
L 131.210775 313.683786 
L 132.832528 313.649161 
L 134.454281 315.633278 
L 136.076033 315.972247 
L 137.697786 316.35872 
L 139.319539 317.402141 
L 140.941291 317.906498 
L 142.563044 319.292842 
L 144.184797 320.181021 
L 145.806549 320.765995 
L 147.428302 323.638889 
L 149.050055 324.406893 
L 150.671807 325.047879 
L 152.29356 327.918197 
L 153.915313 329.330257 
L 155.537065 327.063105 
L 157.158818 325.944252 
L 158.780571 327.004418 
L 160.402323 328.951463 
L 162.024076 330.072609 
L 163.645829 330.36545 
L 165.267581 330.88091 
L 166.889334 329.629007 
L 168.511087 328.503347 
L 170.132839 326.292671 
L 171.754592 325.422254 
L 173.376345 328.106635 
L 174.998097 331.577237 
L 176.61985 334.422216 
L 178.241603 335.356034 
L 179.863355 336.452793 
L 181.485108 337.115468 
L 183.106861 334.866653 
L 184.728613 334.208858 
L 186.350366 331.412643 
L 187.972119 331.664433 
L 189.593871 329.290995 
L 191.215624 328.439594 
L 192.837377 328.9098 
L 194.459129 327.579711 
L 196.080882 325.571624 
L 197.702635 323.417916 
L 199.324387 322.611977 
L 200.94614 325.66728 
L 202.567893 327.990274 
L 204.189645 327.763692 
L 205.811398 328.418914 
L 207.433151 328.20952 
L 209.054903 328.209863 
L 210.676656 325.995635 
L 212.298409 323.497414 
L 213.920161 320.672792 
L 215.541914 318.37442 
L 217.163667 316.945671 
L 218.785419 314.533034 
L 220.407172 314.1864 
L 222.028925 312.141222 
L 223.650677 310.612763 
L 225.27243 308.039312 
L 226.894183 309.550971 
L 228.515935 309.269867 
L 230.137688 307.81656 
L 231.759441 305.083614 
L 233.381193 301.843292 
L 235.002946 300.966891 
L 236.624699 298.850062 
L 238.246451 295.683371 
L 239.868204 295.38172 
L 241.489956 294.595679 
L 243.111709 289.901779 
L 244.733462 286.631361 
L 246.355214 283.97857 
L 247.976967 278.191257 
L 249.59872 272.233249 
L 251.220472 268.795184 
L 252.842225 267.625701 
L 254.463978 268.170111 
L 256.08573 267.338376 
L 257.707483 266.645881 
" clip-path="url(#p73b43530f6)" style="fill: none; stroke: #2ca02c; stroke-width: 3; stroke-linecap: square"/>
   </g>
   <g id="line2d_13">
    <path d="M 97.15397 135.714657 
L 98.775722 138.579518 
L 100.397475 142.701641 
L 102.019228 144.7707 
L 103.64098 147.179877 
L 105.262733 148.121298 
L 106.884486 149.317354 
L 108.506238 154.042129 
L 110.127991 158.959175 
L 111.749744 160.686236 
L 113.371496 160.726244 
L 114.993249 160.679206 
L 116.615002 161.616847 
L 118.236754 160.609246 
L 119.858507 164.247163 
L 121.48026 172.244132 
L 123.102012 179.504203 
L 124.723765 187.167197 
L 126.345518 195.301089 
L 127.96727 199.626749 
L 129.589023 201.044591 
L 131.210775 203.719286 
L 132.832528 206.045762 
L 134.454281 204.48209 
L 136.076033 204.097102 
L 137.697786 211.075203 
L 139.319539 213.652861 
L 140.941291 212.734312 
L 142.563044 214.716074 
L 144.184797 216.884051 
L 145.806549 219.086643 
L 147.428302 222.751027 
L 149.050055 223.177457 
L 150.671807 224.309931 
L 152.29356 228.058447 
L 153.915313 229.843623 
L 155.537065 231.414572 
L 157.158818 230.982313 
L 158.780571 231.145549 
L 160.402323 232.490428 
L 162.024076 236.292567 
L 163.645829 239.700257 
L 165.267581 237.929209 
L 166.889334 237.061327 
L 168.511087 233.024411 
L 170.132839 231.910754 
L 171.754592 233.505591 
L 173.376345 241.188119 
L 174.998097 243.619687 
L 176.61985 244.306641 
L 178.241603 246.444643 
L 179.863355 249.002509 
L 181.485108 251.140714 
L 183.106861 249.932454 
L 184.728613 247.892696 
L 186.350366 241.546578 
L 187.972119 238.388246 
L 189.593871 236.690299 
L 191.215624 236.182866 
L 192.837377 236.951037 
L 194.459129 234.255078 
L 196.080882 229.156512 
L 197.702635 225.781948 
L 199.324387 222.811853 
L 200.94614 222.010361 
L 202.567893 225.741186 
L 204.189645 224.479485 
L 205.811398 224.862988 
L 207.433151 224.592477 
L 209.054903 221.355105 
L 210.676656 221.047727 
L 212.298409 217.353964 
L 213.920161 209.754256 
L 215.541914 204.175213 
L 217.163667 201.345806 
L 218.785419 200.230251 
L 220.407172 197.849577 
L 222.028925 194.433291 
L 223.650677 190.682629 
L 225.27243 188.68198 
L 226.894183 187.710379 
L 228.515935 185.634406 
L 230.137688 185.195327 
L 231.759441 184.548253 
L 233.381193 180.652794 
L 235.002946 175.597629 
L 236.624699 172.902213 
L 238.246451 172.160138 
L 239.868204 167.434549 
L 241.489956 166.834101 
L 243.111709 164.83972 
L 244.733462 160.740752 
L 246.355214 157.642592 
L 247.976967 154.51359 
L 249.59872 152.299136 
L 251.220472 151.489433 
L 252.842225 150.031969 
L 254.463978 148.82542 
L 256.08573 148.443704 
L 257.707483 147.418805 
" clip-path="url(#p73b43530f6)" style="fill: none; stroke: #d62728; stroke-width: 3; stroke-linecap: square"/>
   </g>
   <g id="line2d_14">
    <path d="M 97.15397 92.3043 
L 98.775722 94.266696 
L 100.397475 96.264231 
L 102.019228 97.581958 
L 103.64098 98.722003 
L 105.262733 100.14925 
L 106.884486 102.334526 
L 108.506238 105.278075 
L 110.127991 107.714487 
L 111.749744 108.057175 
L 113.371496 107.368423 
L 114.993249 108.112306 
L 116.615002 109.583015 
L 118.236754 112.101045 
L 119.858507 114.809196 
L 121.48026 117.819816 
L 123.102012 120.612737 
L 124.723765 123.225202 
L 126.345518 125.631684 
L 127.96727 126.257886 
L 129.589023 125.646627 
L 131.210775 126.668907 
L 132.832528 127.931902 
L 134.454281 128.571656 
L 136.076033 129.390297 
L 137.697786 131.57458 
L 139.319539 132.583669 
L 140.941291 132.683928 
L 142.563044 133.539875 
L 144.184797 135.251821 
L 145.806549 136.827361 
L 147.428302 137.766057 
L 149.050055 138.793163 
L 150.671807 139.505349 
L 152.29356 140.941576 
L 153.915313 142.244416 
L 155.537065 142.088862 
L 157.158818 141.882644 
L 158.780571 141.648946 
L 160.402323 141.58797 
L 162.024076 142.694446 
L 163.645829 144.498423 
L 165.267581 145.658254 
L 166.889334 145.566418 
L 168.511087 144.649198 
L 170.132839 144.082479 
L 171.754592 144.595151 
L 173.376345 146.150843 
L 174.998097 148.723487 
L 176.61985 151.368029 
L 178.241603 153.150965 
L 179.863355 154.441743 
L 181.485108 154.572626 
L 183.106861 151.967632 
L 184.728613 148.949258 
L 186.350366 148.230256 
L 187.972119 146.257167 
L 189.593871 145.503508 
L 191.215624 144.643483 
L 192.837377 144.370604 
L 194.459129 144.064443 
L 196.080882 142.467591 
L 197.702635 140.4606 
L 199.324387 138.99419 
L 200.94614 138.196056 
L 202.567893 138.044972 
L 204.189645 137.294409 
L 205.811398 136.94032 
L 207.433151 136.636865 
L 209.054903 135.841901 
L 210.676656 134.635477 
L 212.298409 132.893609 
L 213.920161 130.33253 
L 215.541914 127.704915 
L 217.163667 125.960404 
L 218.785419 124.889217 
L 220.407172 123.938138 
L 222.028925 122.806248 
L 223.650677 121.741263 
L 225.27243 120.360504 
L 226.894183 119.987072 
L 228.515935 119.716334 
L 230.137688 118.939219 
L 231.759441 117.738465 
L 233.381193 116.299113 
L 235.002946 115.222886 
L 236.624699 114.582016 
L 238.246451 113.674504 
L 239.868204 112.279992 
L 241.489956 110.316795 
L 243.111709 108.729873 
L 244.733462 107.94724 
L 246.355214 106.384398 
L 247.976967 103.95611 
L 249.59872 101.914081 
L 251.220472 100.805927 
L 252.842225 100.301902 
L 254.463978 99.948011 
L 256.08573 99.372418 
L 257.707483 98.652625 
" clip-path="url(#p73b43530f6)" style="fill: none; stroke: #9467bd; stroke-width: 3; stroke-linecap: square"/>
   </g>
   <g id="patch_3">
    <path d="M 94.559375 379.434375 
L 94.559375 19.434375 
" style="fill: none; stroke: #000000; stroke-width: 2; stroke-linejoin: miter; stroke-linecap: square"/>
   </g>
   <g id="patch_4">
    <path d="M 382.559375 379.434375 
L 382.559375 19.434375 
" style="fill: none; stroke: #000000; stroke-width: 2; stroke-linejoin: miter; stroke-linecap: square"/>
   </g>
   <g id="patch_5">
    <path d="M 94.559375 379.434375 
L 382.559375 379.434375 
" style="fill: none; stroke: #000000; stroke-width: 2; stroke-linejoin: miter; stroke-linecap: square"/>
   </g>
   <g id="patch_6">
    <path d="M 94.559375 19.434375 
L 382.559375 19.434375 
" style="fill: none; stroke: #000000; stroke-width: 2; stroke-linejoin: miter; stroke-linecap: square"/>
   </g>
   <g id="text_12">
    <!-- 17 sec -->
    <g style="fill: #1f77b4" transform="translate(279.178351 370.223623)scale(0.25 -0.25)">
     <defs>
      <path id="DejaVuSans-37" d="M 525 4666 
L 3525 4666 
L 3525 4397 
L 1831 0 
L 1172 0 
L 2766 4134 
L 525 4134 
L 525 4666 
z
" transform="scale(0.015625)"/>
     </defs>
     <use xlink:href="#DejaVuSans-31"/>
     <use xlink:href="#DejaVuSans-37" x="63.623047"/>
     <use xlink:href="#DejaVuSans-20" x="127.246094"/>
     <use xlink:href="#DejaVuSans-73" x="159.033203"/>
     <use xlink:href="#DejaVuSans-65" x="211.132812"/>
     <use xlink:href="#DejaVuSans-63" x="272.65625"/>
    </g>
   </g>
   <g id="text_13">
    <!-- 377 sec -->
    <g style="fill: #ff7f0e" transform="translate(271.225226 363.094193)scale(0.25 -0.25)">
     <defs>
      <path id="DejaVuSans-33" d="M 2597 2516 
Q 3050 2419 3304 2112 
Q 3559 1806 3559 1356 
Q 3559 666 3084 287 
Q 2609 -91 1734 -91 
Q 1441 -91 1130 -33 
Q 819 25 488 141 
L 488 750 
Q 750 597 1062 519 
Q 1375 441 1716 441 
Q 2309 441 2620 675 
Q 2931 909 2931 1356 
Q 2931 1769 2642 2001 
Q 2353 2234 1838 2234 
L 1294 2234 
L 1294 2753 
L 1863 2753 
Q 2328 2753 2575 2939 
Q 2822 3125 2822 3475 
Q 2822 3834 2567 4026 
Q 2313 4219 1838 4219 
Q 1578 4219 1281 4162 
Q 984 4106 628 3988 
L 628 4550 
Q 988 4650 1302 4700 
Q 1616 4750 1894 4750 
Q 2613 4750 3031 4423 
Q 3450 4097 3450 3541 
Q 3450 3153 3228 2886 
Q 3006 2619 2597 2516 
z
" transform="scale(0.015625)"/>
     </defs>
     <use xlink:href="#DejaVuSans-33"/>
     <use xlink:href="#DejaVuSans-37" x="63.623047"/>
     <use xlink:href="#DejaVuSans-37" x="127.246094"/>
     <use xlink:href="#DejaVuSans-20" x="190.869141"/>
     <use xlink:href="#DejaVuSans-73" x="222.65625"/>
     <use xlink:href="#DejaVuSans-65" x="274.755859"/>
     <use xlink:href="#DejaVuSans-63" x="336.279297"/>
    </g>
   </g>
   <g id="text_14">
    <!-- 857 sec -->
    <g style="fill: #2ca02c" transform="translate(271.225226 266.645879)scale(0.25 -0.25)">
     <use xlink:href="#DejaVuSans-38"/>
     <use xlink:href="#DejaVuSans-35" x="63.623047"/>
     <use xlink:href="#DejaVuSans-37" x="127.246094"/>
     <use xlink:href="#DejaVuSans-20" x="190.869141"/>
     <use xlink:href="#DejaVuSans-73" x="222.65625"/>
     <use xlink:href="#DejaVuSans-65" x="274.755859"/>
     <use xlink:href="#DejaVuSans-63" x="336.279297"/>
    </g>
   </g>
   <g id="text_15">
    <!-- 1337 sec -->
    <g style="fill: #d62728" transform="translate(263.272101 147.418803)scale(0.25 -0.25)">
     <use xlink:href="#DejaVuSans-31"/>
     <use xlink:href="#DejaVuSans-33" x="63.623047"/>
     <use xlink:href="#DejaVuSans-33" x="127.246094"/>
     <use xlink:href="#DejaVuSans-37" x="190.869141"/>
     <use xlink:href="#DejaVuSans-20" x="254.492188"/>
     <use xlink:href="#DejaVuSans-73" x="286.279297"/>
     <use xlink:href="#DejaVuSans-65" x="338.378906"/>
     <use xlink:href="#DejaVuSans-63" x="399.902344"/>
    </g>
   </g>
   <g id="text_16">
    <!-- 1817 sec -->
    <g style="fill: #9467bd" transform="translate(263.272101 98.652623)scale(0.25 -0.25)">
     <use xlink:href="#DejaVuSans-31"/>
     <use xlink:href="#DejaVuSans-38" x="63.623047"/>
     <use xlink:href="#DejaVuSans-31" x="127.246094"/>
     <use xlink:href="#DejaVuSans-37" x="190.869141"/>
     <use xlink:href="#DejaVuSans-20" x="254.492188"/>
     <use xlink:href="#DejaVuSans-73" x="286.279297"/>
     <use xlink:href="#DejaVuSans-65" x="338.378906"/>
     <use xlink:href="#DejaVuSans-63" x="399.902344"/>
    </g>
   </g>
  </g>
  <g id="axes_2">
   <g id="matplotlib.axis_3">
    <g id="ytick_7">
     <g id="line2d_15">
      <defs>
       <path id="md1fea4b800" d="M 0 0 
L -4 0 
" style="stroke: #000000; stroke-width: 2"/>
      </defs>
      <g>
       <use xlink:href="#md1fea4b800" x="382.559375" y="379.434375" style="stroke: #000000; stroke-width: 2"/>
      </g>
     </g>
     <g id="text_17">
      <!-- 0.00 -->
      <g transform="translate(386.059375 388.932422)scale(0.25 -0.25)">
       <use xlink:href="#DejaVuSans-30"/>
       <use xlink:href="#DejaVuSans-2e" x="63.623047"/>
       <use xlink:href="#DejaVuSans-30" x="95.410156"/>
       <use xlink:href="#DejaVuSans-30" x="159.033203"/>
      </g>
     </g>
    </g>
    <g id="ytick_8">
     <g id="line2d_16">
      <g>
       <use xlink:href="#md1fea4b800" x="382.559375" y="294.262672" style="stroke: #000000; stroke-width: 2"/>
      </g>
     </g>
     <g id="text_18">
      <!-- 0.02 -->
      <g transform="translate(386.059375 303.760718)scale(0.25 -0.25)">
       <use xlink:href="#DejaVuSans-30"/>
       <use xlink:href="#DejaVuSans-2e" x="63.623047"/>
       <use xlink:href="#DejaVuSans-30" x="95.410156"/>
       <use xlink:href="#DejaVuSans-32" x="159.033203"/>
      </g>
     </g>
    </g>
    <g id="ytick_9">
     <g id="line2d_17">
      <g>
       <use xlink:href="#md1fea4b800" x="382.559375" y="209.090968" style="stroke: #000000; stroke-width: 2"/>
      </g>
     </g>
     <g id="text_19">
      <!-- 0.04 -->
      <g transform="translate(386.059375 218.589015)scale(0.25 -0.25)">
       <use xlink:href="#DejaVuSans-30"/>
       <use xlink:href="#DejaVuSans-2e" x="63.623047"/>
       <use xlink:href="#DejaVuSans-30" x="95.410156"/>
       <use xlink:href="#DejaVuSans-34" x="159.033203"/>
      </g>
     </g>
    </g>
    <g id="ytick_10">
     <g id="line2d_18">
      <g>
       <use xlink:href="#md1fea4b800" x="382.559375" y="123.919265" style="stroke: #000000; stroke-width: 2"/>
      </g>
     </g>
     <g id="text_20">
      <!-- 0.06 -->
      <g transform="translate(386.059375 133.417312)scale(0.25 -0.25)">
       <use xlink:href="#DejaVuSans-30"/>
       <use xlink:href="#DejaVuSans-2e" x="63.623047"/>
       <use xlink:href="#DejaVuSans-30" x="95.410156"/>
       <use xlink:href="#DejaVuSans-36" x="159.033203"/>
      </g>
     </g>
    </g>
    <g id="ytick_11">
     <g id="line2d_19">
      <g>
       <use xlink:href="#md1fea4b800" x="382.559375" y="38.747561" style="stroke: #000000; stroke-width: 2"/>
      </g>
     </g>
     <g id="text_21">
      <!-- 0.08 -->
      <g transform="translate(386.059375 48.245608)scale(0.25 -0.25)">
       <use xlink:href="#DejaVuSans-30"/>
       <use xlink:href="#DejaVuSans-2e" x="63.623047"/>
       <use xlink:href="#DejaVuSans-30" x="95.410156"/>
       <use xlink:href="#DejaVuSans-38" x="159.033203"/>
      </g>
     </g>
    </g>
    <g id="text_22">
     <!-- Estimated DNA duplexes/UCN -->
     <g transform="translate(464.719531 385.442187)rotate(-90)scale(0.25 -0.25)">
      <defs>
       <path id="DejaVuSans-44" d="M 1259 4147 
L 1259 519 
L 2022 519 
Q 2988 519 3436 956 
Q 3884 1394 3884 2338 
Q 3884 3275 3436 3711 
Q 2988 4147 2022 4147 
L 1259 4147 
z
M 628 4666 
L 1925 4666 
Q 3281 4666 3915 4102 
Q 4550 3538 4550 2338 
Q 4550 1131 3912 565 
Q 3275 0 1925 0 
L 628 0 
L 628 4666 
z
" transform="scale(0.015625)"/>
       <path id="DejaVuSans-4e" d="M 628 4666 
L 1478 4666 
L 3547 763 
L 3547 4666 
L 4159 4666 
L 4159 0 
L 3309 0 
L 1241 3903 
L 1241 0 
L 628 0 
L 628 4666 
z
" transform="scale(0.015625)"/>
       <path id="DejaVuSans-41" d="M 2188 4044 
L 1331 1722 
L 3047 1722 
L 2188 4044 
z
M 1831 4666 
L 2547 4666 
L 4325 0 
L 3669 0 
L 3244 1197 
L 1141 1197 
L 716 0 
L 50 0 
L 1831 4666 
z
" transform="scale(0.015625)"/>
       <path id="DejaVuSans-75" d="M 544 1381 
L 544 3500 
L 1119 3500 
L 1119 1403 
Q 1119 906 1312 657 
Q 1506 409 1894 409 
Q 2359 409 2629 706 
Q 2900 1003 2900 1516 
L 2900 3500 
L 3475 3500 
L 3475 0 
L 2900 0 
L 2900 538 
Q 2691 219 2414 64 
Q 2138 -91 1772 -91 
Q 1169 -91 856 284 
Q 544 659 544 1381 
z
M 1991 3584 
L 1991 3584 
z
" transform="scale(0.015625)"/>
       <path id="DejaVuSans-70" d="M 1159 525 
L 1159 -1331 
L 581 -1331 
L 581 3500 
L 1159 3500 
L 1159 2969 
Q 1341 3281 1617 3432 
Q 1894 3584 2278 3584 
Q 2916 3584 3314 3078 
Q 3713 2572 3713 1747 
Q 3713 922 3314 415 
Q 2916 -91 2278 -91 
Q 1894 -91 1617 61 
Q 1341 213 1159 525 
z
M 3116 1747 
Q 3116 2381 2855 2742 
Q 2594 3103 2138 3103 
Q 1681 3103 1420 2742 
Q 1159 2381 1159 1747 
Q 1159 1113 1420 752 
Q 1681 391 2138 391 
Q 2594 391 2855 752 
Q 3116 1113 3116 1747 
z
" transform="scale(0.015625)"/>
       <path id="DejaVuSans-6c" d="M 603 4863 
L 1178 4863 
L 1178 0 
L 603 0 
L 603 4863 
z
" transform="scale(0.015625)"/>
       <path id="DejaVuSans-78" d="M 3513 3500 
L 2247 1797 
L 3578 0 
L 2900 0 
L 1881 1375 
L 863 0 
L 184 0 
L 1544 1831 
L 300 3500 
L 978 3500 
L 1906 2253 
L 2834 3500 
L 3513 3500 
z
" transform="scale(0.015625)"/>
       <path id="DejaVuSans-2f" d="M 1625 4666 
L 2156 4666 
L 531 -594 
L 0 -594 
L 1625 4666 
z
" transform="scale(0.015625)"/>
       <path id="DejaVuSans-55" d="M 556 4666 
L 1191 4666 
L 1191 1831 
Q 1191 1081 1462 751 
Q 1734 422 2344 422 
Q 2950 422 3222 751 
Q 3494 1081 3494 1831 
L 3494 4666 
L 4128 4666 
L 4128 1753 
Q 4128 841 3676 375 
Q 3225 -91 2344 -91 
Q 1459 -91 1007 375 
Q 556 841 556 1753 
L 556 4666 
z
" transform="scale(0.015625)"/>
      </defs>
      <use xlink:href="#DejaVuSans-45"/>
      <use xlink:href="#DejaVuSans-73" x="63.183594"/>
      <use xlink:href="#DejaVuSans-74" x="115.283203"/>
      <use xlink:href="#DejaVuSans-69" x="154.492188"/>
      <use xlink:href="#DejaVuSans-6d" x="182.275391"/>
      <use xlink:href="#DejaVuSans-61" x="279.6875"/>
      <use xlink:href="#DejaVuSans-74" x="340.966797"/>
      <use xlink:href="#DejaVuSans-65" x="380.175781"/>
      <use xlink:href="#DejaVuSans-64" x="441.699219"/>
      <use xlink:href="#DejaVuSans-20" x="505.175781"/>
      <use xlink:href="#DejaVuSans-44" x="536.962891"/>
      <use xlink:href="#DejaVuSans-4e" x="613.964844"/>
      <use xlink:href="#DejaVuSans-41" x="688.769531"/>
      <use xlink:href="#DejaVuSans-20" x="757.177734"/>
      <use xlink:href="#DejaVuSans-64" x="788.964844"/>
      <use xlink:href="#DejaVuSans-75" x="852.441406"/>
      <use xlink:href="#DejaVuSans-70" x="915.820312"/>
      <use xlink:href="#DejaVuSans-6c" x="979.296875"/>
      <use xlink:href="#DejaVuSans-65" x="1007.080078"/>
      <use xlink:href="#DejaVuSans-78" x="1066.853516"/>
      <use xlink:href="#DejaVuSans-65" x="1122.908203"/>
      <use xlink:href="#DejaVuSans-73" x="1184.431641"/>
      <use xlink:href="#DejaVuSans-2f" x="1236.53125"/>
      <use xlink:href="#DejaVuSans-55" x="1270.222656"/>
      <use xlink:href="#DejaVuSans-43" x="1343.416016"/>
      <use xlink:href="#DejaVuSans-4e" x="1413.240234"/>
     </g>
    </g>
   </g>
   <g id="line2d_20">
    <path d="M 97.15397 370.441824 
L 98.775722 370.664822 
L 100.397475 370.455386 
L 102.019228 370.942598 
L 103.64098 371.883659 
L 105.262733 372.747633 
L 106.884486 373.223062 
L 108.506238 372.996637 
L 110.127991 372.141881 
L 111.749744 371.632857 
L 113.371496 372.038567 
L 114.993249 371.723339 
L 116.615002 371.661239 
L 118.236754 372.099393 
L 119.858507 372.651472 
L 121.48026 373.211185 
L 123.102012 373.546746 
L 124.723765 373.741752 
L 126.345518 373.711299 
L 127.96727 373.49458 
L 129.589023 373.683661 
L 131.210775 374.007928 
L 132.832528 374.004042 
L 134.454281 374.348581 
L 136.076033 374.554167 
L 137.697786 374.609265 
L 139.319539 374.236373 
L 140.941291 373.536428 
L 142.563044 373.489738 
L 144.184797 373.818586 
L 145.806549 373.816527 
L 147.428302 374.083727 
L 149.050055 374.537172 
L 150.671807 374.639135 
L 152.29356 374.44658 
L 153.915313 374.356716 
L 155.537065 373.497872 
L 157.158818 373.477283 
L 158.780571 374.121569 
L 160.402323 374.461556 
L 162.024076 374.891188 
L 163.645829 375.202381 
L 165.267581 375.017225 
L 166.889334 374.997684 
L 168.511087 374.277167 
L 170.132839 373.5975 
L 171.754592 373.673734 
L 173.376345 374.02858 
L 174.998097 374.498135 
L 176.61985 374.840619 
L 178.241603 374.945956 
L 179.863355 375.222991 
L 181.485108 375.51353 
L 183.106861 375.270764 
L 184.728613 374.700166 
L 186.350366 373.837194 
L 187.972119 373.58803 
L 189.593871 373.620124 
L 191.215624 373.393235 
L 192.837377 373.723782 
L 194.459129 374.048475 
L 196.080882 373.649695 
L 197.702635 373.218572 
L 199.324387 373.263017 
L 200.94614 373.541849 
L 202.567893 374.07975 
L 204.189645 374.737003 
L 205.811398 375.407147 
L 207.433151 375.418641 
L 209.054903 375.553098 
L 210.676656 375.579657 
L 212.298409 375.575252 
L 213.920161 375.522105 
L 215.541914 375.154695 
L 217.163667 374.675748 
L 218.785419 374.43192 
L 220.407172 374.545771 
L 222.028925 374.78003 
L 223.650677 374.781341 
L 225.27243 374.189513 
L 226.894183 373.43644 
L 228.515935 373.512668 
L 230.137688 373.695482 
L 231.759441 373.726324 
L 233.381193 374.003942 
L 235.002946 373.960422 
L 236.624699 373.565042 
L 238.246451 373.668473 
L 239.868204 373.540805 
L 241.489956 373.197092 
L 243.111709 373.398991 
L 244.733462 373.197289 
L 246.355214 372.495255 
L 247.976967 372.356022 
L 249.59872 372.85489 
L 251.220472 373.018434 
L 252.842225 372.584154 
L 254.463978 371.9351 
L 256.08573 370.966134 
L 257.707483 370.223625 
" clip-path="url(#p73b43530f6)" style="fill: none; stroke: #1f77b4; stroke-width: 0.01; stroke-linecap: square"/>
   </g>
   <g id="line2d_21">
    <path d="M 97.15397 370.693947 
L 98.775722 370.825425 
L 100.397475 370.955068 
L 102.019228 371.082854 
L 103.64098 371.208762 
L 105.262733 371.332769 
L 106.884486 371.454854 
L 108.506238 371.574995 
L 110.127991 371.69317 
L 111.749744 371.809357 
L 113.371496 371.923535 
L 114.993249 372.035681 
L 116.615002 372.145775 
L 118.236754 372.253794 
L 119.858507 372.359716 
L 121.48026 372.463519 
L 123.102012 372.565182 
L 124.723765 372.664684 
L 126.345518 372.762001 
L 127.96727 372.857113 
L 129.589023 372.949997 
L 131.210775 373.040632 
L 132.832528 373.128996 
L 134.454281 373.215067 
L 136.076033 373.298824 
L 137.697786 373.380244 
L 139.319539 373.459306 
L 140.941291 373.535988 
L 142.563044 373.610268 
L 144.184797 373.682124 
L 145.806549 373.751535 
L 147.428302 373.818478 
L 149.050055 373.882933 
L 150.671807 373.944877 
L 152.29356 374.004288 
L 153.915313 374.061144 
L 155.537065 374.115425 
L 157.158818 374.167107 
L 158.780571 374.21617 
L 160.402323 374.262591 
L 162.024076 374.306348 
L 163.645829 374.34742 
L 165.267581 374.385786 
L 166.889334 374.421422 
L 168.511087 374.454308 
L 170.132839 374.484421 
L 171.754592 374.51174 
L 173.376345 374.536243 
L 174.998097 374.557909 
L 176.61985 374.576714 
L 178.241603 374.592638 
L 179.863355 374.605659 
L 181.485108 374.615755 
L 183.106861 374.622904 
L 184.728613 374.627085 
L 186.350366 374.628275 
L 187.972119 374.626453 
L 189.593871 374.621597 
L 191.215624 374.613685 
L 192.837377 374.602695 
L 194.459129 374.588606 
L 196.080882 374.571396 
L 197.702635 374.551043 
L 199.324387 374.527525 
L 200.94614 374.50082 
L 202.567893 374.470907 
L 204.189645 374.437764 
L 205.811398 374.401368 
L 207.433151 374.361699 
L 209.054903 374.318735 
L 210.676656 374.272452 
L 212.298409 374.222831 
L 213.920161 374.169849 
L 215.541914 374.113484 
L 217.163667 374.053714 
L 218.785419 373.990518 
L 220.407172 373.923873 
L 222.028925 373.853759 
L 223.650677 373.780153 
L 225.27243 373.703033 
L 226.894183 373.622378 
L 228.515935 373.538165 
L 230.137688 373.450374 
L 231.759441 373.358982 
L 233.381193 373.263967 
L 235.002946 373.165308 
L 236.624699 373.062983 
L 238.246451 372.956969 
L 239.868204 372.847246 
L 241.489956 372.733791 
L 243.111709 372.616583 
L 244.733462 372.4956 
L 246.355214 372.37082 
L 247.976967 372.242221 
L 249.59872 372.109781 
L 251.220472 371.973479 
L 252.842225 371.833293 
L 254.463978 371.6892 
L 256.08573 371.54118 
L 257.707483 371.389211 
" clip-path="url(#p73b43530f6)" style="fill: none; stroke-dasharray: 11.1,4.8; stroke-dashoffset: 0; stroke: #000000; stroke-width: 3"/>
   </g>
   <g id="line2d_22">
    <path d="M 97.15397 359.532837 
L 98.775722 360.07611 
L 100.397475 359.532282 
L 102.019228 359.394963 
L 103.64098 360.052114 
L 105.262733 360.363597 
L 106.884486 361.701662 
L 108.506238 364.314357 
L 110.127991 366.15609 
L 111.749744 366.396705 
L 113.371496 365.204271 
L 114.993249 364.100627 
L 116.615002 363.357271 
L 118.236754 363.412954 
L 119.858507 363.475016 
L 121.48026 363.791875 
L 123.102012 365.282953 
L 124.723765 366.75018 
L 126.345518 367.68608 
L 127.96727 368.243116 
L 129.589023 368.140342 
L 131.210775 368.700024 
L 132.832528 368.845902 
L 134.454281 368.458114 
L 136.076033 368.902351 
L 137.697786 369.413258 
L 139.319539 369.724941 
L 140.941291 369.487151 
L 142.563044 368.82688 
L 144.184797 368.672672 
L 145.806549 369.093798 
L 147.428302 369.407465 
L 149.050055 369.683021 
L 150.671807 370.0531 
L 152.29356 370.468424 
L 153.915313 369.94736 
L 155.537065 369.510037 
L 157.158818 369.390675 
L 158.780571 369.697897 
L 160.402323 370.463585 
L 162.024076 371.028002 
L 163.645829 371.089489 
L 165.267581 370.966847 
L 166.889334 370.506799 
L 168.511087 369.650222 
L 170.132839 368.898362 
L 171.754592 369.119505 
L 173.376345 369.784111 
L 174.998097 370.710865 
L 176.61985 371.245636 
L 178.241603 371.59886 
L 179.863355 372.272696 
L 181.485108 372.643353 
L 183.106861 372.132534 
L 184.728613 371.169758 
L 186.350366 370.340788 
L 187.972119 369.490138 
L 189.593871 369.537699 
L 191.215624 370.312474 
L 192.837377 370.041992 
L 194.459129 369.703342 
L 196.080882 369.633733 
L 197.702635 369.408913 
L 199.324387 369.516244 
L 200.94614 370.259678 
L 202.567893 371.42596 
L 204.189645 371.627679 
L 205.811398 371.932044 
L 207.433151 372.150119 
L 209.054903 372.434701 
L 210.676656 372.456381 
L 212.298409 372.333293 
L 213.920161 371.529241 
L 215.541914 370.53941 
L 217.163667 370.404895 
L 218.785419 370.48806 
L 220.407172 370.622076 
L 222.028925 370.66928 
L 223.650677 369.4223 
L 225.27243 368.641734 
L 226.894183 368.687748 
L 228.515935 368.842567 
L 230.137688 368.950055 
L 231.759441 369.19182 
L 233.381193 368.735052 
L 235.002946 367.948116 
L 236.624699 368.031601 
L 238.246451 367.667927 
L 239.868204 366.976975 
L 241.489956 366.326842 
L 243.111709 366.060881 
L 244.733462 365.898598 
L 246.355214 366.150114 
L 247.976967 365.821627 
L 249.59872 364.135083 
L 251.220472 362.702338 
L 252.842225 362.567716 
L 254.463978 362.589597 
L 256.08573 362.689597 
L 257.707483 363.094195 
" clip-path="url(#p73b43530f6)" style="fill: none; stroke: #ff7f0e; stroke-width: 0.01; stroke-linecap: square"/>
   </g>
   <g id="line2d_23">
    <path d="M 97.15397 356.3969 
L 98.775722 356.927902 
L 100.397475 357.448669 
L 102.019228 357.959206 
L 103.64098 358.459518 
L 105.262733 358.949609 
L 106.884486 359.429483 
L 108.506238 359.899144 
L 110.127991 360.358597 
L 111.749744 360.807846 
L 113.371496 361.246895 
L 114.993249 361.675748 
L 116.615002 362.094411 
L 118.236754 362.502887 
L 119.858507 362.90118 
L 121.48026 363.289295 
L 123.102012 363.667236 
L 124.723765 364.035008 
L 126.345518 364.392615 
L 127.96727 364.74006 
L 129.589023 365.077349 
L 131.210775 365.404486 
L 132.832528 365.721474 
L 134.454281 366.028319 
L 136.076033 366.325025 
L 137.697786 366.611595 
L 139.319539 366.888035 
L 140.941291 367.154348 
L 142.563044 367.41054 
L 144.184797 367.656613 
L 145.806549 367.892573 
L 147.428302 368.118423 
L 149.050055 368.334169 
L 150.671807 368.539814 
L 152.29356 368.735363 
L 153.915313 368.92082 
L 155.537065 369.096189 
L 157.158818 369.261475 
L 158.780571 369.416682 
L 160.402323 369.561814 
L 162.024076 369.696876 
L 163.645829 369.821871 
L 165.267581 369.936805 
L 166.889334 370.041681 
L 168.511087 370.136504 
L 170.132839 370.221279 
L 171.754592 370.296008 
L 173.376345 370.360698 
L 174.998097 370.415351 
L 176.61985 370.459973 
L 178.241603 370.494567 
L 179.863355 370.519139 
L 181.485108 370.533691 
L 183.106861 370.53823 
L 184.728613 370.532758 
L 186.350366 370.517281 
L 187.972119 370.491802 
L 189.593871 370.456326 
L 191.215624 370.410857 
L 192.837377 370.355399 
L 194.459129 370.289957 
L 196.080882 370.214536 
L 197.702635 370.129138 
L 199.324387 370.03377 
L 200.94614 369.928434 
L 202.567893 369.813136 
L 204.189645 369.687879 
L 205.811398 369.552669 
L 207.433151 369.407508 
L 209.054903 369.252402 
L 210.676656 369.087355 
L 212.298409 368.912372 
L 213.920161 368.727455 
L 215.541914 368.532611 
L 217.163667 368.327842 
L 218.785419 368.113154 
L 220.407172 367.888551 
L 222.028925 367.654037 
L 223.650677 367.409616 
L 225.27243 367.155293 
L 226.894183 366.891071 
L 228.515935 366.616956 
L 230.137688 366.332952 
L 231.759441 366.039062 
L 233.381193 365.735292 
L 235.002946 365.421645 
L 236.624699 365.098126 
L 238.246451 364.764739 
L 239.868204 364.421489 
L 241.489956 364.068379 
L 243.111709 363.705415 
L 244.733462 363.332599 
L 246.355214 362.949938 
L 247.976967 362.557434 
L 249.59872 362.155093 
L 251.220472 361.742918 
L 252.842225 361.320915 
L 254.463978 360.889086 
L 256.08573 360.447437 
L 257.707483 359.995972 
" clip-path="url(#p73b43530f6)" style="fill: none; stroke-dasharray: 11.1,4.8; stroke-dashoffset: 0; stroke: #000000; stroke-width: 3"/>
   </g>
   <g id="line2d_24">
    <path d="M 97.15397 242.87941 
L 98.775722 248.905622 
L 100.397475 254.583768 
L 102.019228 258.049395 
L 103.64098 261.535953 
L 105.262733 264.162741 
L 106.884486 267.774435 
L 108.506238 274.348095 
L 110.127991 281.483467 
L 111.749744 285.825687 
L 113.371496 286.959271 
L 114.993249 287.717495 
L 116.615002 289.246957 
L 118.236754 289.800733 
L 119.858507 291.528017 
L 121.48026 294.007097 
L 123.102012 297.524689 
L 124.723765 302.400228 
L 126.345518 306.887337 
L 127.96727 309.777898 
L 129.589023 312.038528 
L 131.210775 313.683786 
L 132.832528 313.649161 
L 134.454281 315.633278 
L 136.076033 315.972247 
L 137.697786 316.35872 
L 139.319539 317.402141 
L 140.941291 317.906498 
L 142.563044 319.292842 
L 144.184797 320.181021 
L 145.806549 320.765995 
L 147.428302 323.638889 
L 149.050055 324.406893 
L 150.671807 325.047879 
L 152.29356 327.918197 
L 153.915313 329.330257 
L 155.537065 327.063105 
L 157.158818 325.944252 
L 158.780571 327.004418 
L 160.402323 328.951463 
L 162.024076 330.072609 
L 163.645829 330.36545 
L 165.267581 330.88091 
L 166.889334 329.629007 
L 168.511087 328.503347 
L 170.132839 326.292671 
L 171.754592 325.422254 
L 173.376345 328.106635 
L 174.998097 331.577237 
L 176.61985 334.422216 
L 178.241603 335.356034 
L 179.863355 336.452793 
L 181.485108 337.115468 
L 183.106861 334.866653 
L 184.728613 334.208858 
L 186.350366 331.412643 
L 187.972119 331.664433 
L 189.593871 329.290995 
L 191.215624 328.439594 
L 192.837377 328.9098 
L 194.459129 327.579711 
L 196.080882 325.571624 
L 197.702635 323.417916 
L 199.324387 322.611977 
L 200.94614 325.66728 
L 202.567893 327.990274 
L 204.189645 327.763692 
L 205.811398 328.418914 
L 207.433151 328.20952 
L 209.054903 328.209863 
L 210.676656 325.995635 
L 212.298409 323.497414 
L 213.920161 320.672792 
L 215.541914 318.37442 
L 217.163667 316.945671 
L 218.785419 314.533034 
L 220.407172 314.1864 
L 222.028925 312.141222 
L 223.650677 310.612763 
L 225.27243 308.039312 
L 226.894183 309.550971 
L 228.515935 309.269867 
L 230.137688 307.81656 
L 231.759441 305.083614 
L 233.381193 301.843292 
L 235.002946 300.966891 
L 236.624699 298.850062 
L 238.246451 295.683371 
L 239.868204 295.38172 
L 241.489956 294.595679 
L 243.111709 289.901779 
L 244.733462 286.631361 
L 246.355214 283.97857 
L 247.976967 278.191257 
L 249.59872 272.233249 
L 251.220472 268.795184 
L 252.842225 267.625701 
L 254.463978 268.170111 
L 256.08573 267.338376 
L 257.707483 266.645881 
" clip-path="url(#p73b43530f6)" style="fill: none; stroke: #2ca02c; stroke-width: 0.01; stroke-linecap: square"/>
   </g>
   <g id="line2d_25">
    <path d="M 97.15397 251.143504 
L 98.775722 254.571764 
L 100.397475 257.920322 
L 102.019228 261.189574 
L 103.64098 264.379917 
L 105.262733 267.491747 
L 106.884486 270.525463 
L 108.506238 273.481461 
L 110.127991 276.360137 
L 111.749744 279.16189 
L 113.371496 281.887115 
L 114.993249 284.536209 
L 116.615002 287.10957 
L 118.236754 289.607595 
L 119.858507 292.030681 
L 121.48026 294.379223 
L 123.102012 296.653621 
L 124.723765 298.854269 
L 126.345518 300.981566 
L 127.96727 303.035909 
L 129.589023 305.017693 
L 131.210775 306.927317 
L 132.832528 308.765177 
L 134.454281 310.53167 
L 136.076033 312.227192 
L 137.697786 313.852142 
L 139.319539 315.406916 
L 140.941291 316.891911 
L 142.563044 318.307523 
L 144.184797 319.654151 
L 145.806549 320.93219 
L 147.428302 322.142038 
L 149.050055 323.284091 
L 150.671807 324.358747 
L 152.29356 325.366402 
L 153.915313 326.307454 
L 155.537065 327.1823 
L 157.158818 327.991336 
L 158.780571 328.734959 
L 160.402323 329.413566 
L 162.024076 330.027555 
L 163.645829 330.577322 
L 165.267581 331.063264 
L 166.889334 331.485778 
L 168.511087 331.845261 
L 170.132839 332.14211 
L 171.754592 332.376722 
L 173.376345 332.549494 
L 174.998097 332.660823 
L 176.61985 332.711105 
L 178.241603 332.700739 
L 179.863355 332.63012 
L 181.485108 332.499645 
L 183.106861 332.309712 
L 184.728613 332.060718 
L 186.350366 331.753059 
L 187.972119 331.387133 
L 189.593871 330.963336 
L 191.215624 330.482066 
L 192.837377 329.943718 
L 194.459129 329.348691 
L 196.080882 328.697381 
L 197.702635 327.990186 
L 199.324387 327.227501 
L 200.94614 326.409725 
L 202.567893 325.537253 
L 204.189645 324.610483 
L 205.811398 323.629813 
L 207.433151 322.595638 
L 209.054903 321.508356 
L 210.676656 320.368363 
L 212.298409 319.176058 
L 213.920161 317.931836 
L 215.541914 316.636094 
L 217.163667 315.28923 
L 218.785419 313.891641 
L 220.407172 312.443723 
L 222.028925 310.945874 
L 223.650677 309.39849 
L 225.27243 307.801968 
L 226.894183 306.156705 
L 228.515935 304.463099 
L 230.137688 302.721545 
L 231.759441 300.932442 
L 233.381193 299.096186 
L 235.002946 297.213174 
L 236.624699 295.283803 
L 238.246451 293.30847 
L 239.868204 291.287571 
L 241.489956 289.221505 
L 243.111709 287.110667 
L 244.733462 284.955455 
L 246.355214 282.756265 
L 247.976967 280.513495 
L 249.59872 278.227542 
L 251.220472 275.898802 
L 252.842225 273.527673 
L 254.463978 271.114551 
L 256.08573 268.659833 
L 257.707483 266.163917 
" clip-path="url(#p73b43530f6)" style="fill: none; stroke-dasharray: 11.1,4.8; stroke-dashoffset: 0; stroke: #000000; stroke-width: 3"/>
   </g>
   <g id="line2d_26">
    <path d="M 97.15397 135.714657 
L 98.775722 138.579518 
L 100.397475 142.701641 
L 102.019228 144.7707 
L 103.64098 147.179877 
L 105.262733 148.121298 
L 106.884486 149.317354 
L 108.506238 154.042129 
L 110.127991 158.959175 
L 111.749744 160.686236 
L 113.371496 160.726244 
L 114.993249 160.679206 
L 116.615002 161.616847 
L 118.236754 160.609246 
L 119.858507 164.247163 
L 121.48026 172.244132 
L 123.102012 179.504203 
L 124.723765 187.167197 
L 126.345518 195.301089 
L 127.96727 199.626749 
L 129.589023 201.044591 
L 131.210775 203.719286 
L 132.832528 206.045762 
L 134.454281 204.48209 
L 136.076033 204.097102 
L 137.697786 211.075203 
L 139.319539 213.652861 
L 140.941291 212.734312 
L 142.563044 214.716074 
L 144.184797 216.884051 
L 145.806549 219.086643 
L 147.428302 222.751027 
L 149.050055 223.177457 
L 150.671807 224.309931 
L 152.29356 228.058447 
L 153.915313 229.843623 
L 155.537065 231.414572 
L 157.158818 230.982313 
L 158.780571 231.145549 
L 160.402323 232.490428 
L 162.024076 236.292567 
L 163.645829 239.700257 
L 165.267581 237.929209 
L 166.889334 237.061327 
L 168.511087 233.024411 
L 170.132839 231.910754 
L 171.754592 233.505591 
L 173.376345 241.188119 
L 174.998097 243.619687 
L 176.61985 244.306641 
L 178.241603 246.444643 
L 179.863355 249.002509 
L 181.485108 251.140714 
L 183.106861 249.932454 
L 184.728613 247.892696 
L 186.350366 241.546578 
L 187.972119 238.388246 
L 189.593871 236.690299 
L 191.215624 236.182866 
L 192.837377 236.951037 
L 194.459129 234.255078 
L 196.080882 229.156512 
L 197.702635 225.781948 
L 199.324387 222.811853 
L 200.94614 222.010361 
L 202.567893 225.741186 
L 204.189645 224.479485 
L 205.811398 224.862988 
L 207.433151 224.592477 
L 209.054903 221.355105 
L 210.676656 221.047727 
L 212.298409 217.353964 
L 213.920161 209.754256 
L 215.541914 204.175213 
L 217.163667 201.345806 
L 218.785419 200.230251 
L 220.407172 197.849577 
L 222.028925 194.433291 
L 223.650677 190.682629 
L 225.27243 188.68198 
L 226.894183 187.710379 
L 228.515935 185.634406 
L 230.137688 185.195327 
L 231.759441 184.548253 
L 233.381193 180.652794 
L 235.002946 175.597629 
L 236.624699 172.902213 
L 238.246451 172.160138 
L 239.868204 167.434549 
L 241.489956 166.834101 
L 243.111709 164.83972 
L 244.733462 160.740752 
L 246.355214 157.642592 
L 247.976967 154.51359 
L 249.59872 152.299136 
L 251.220472 151.489433 
L 252.842225 150.031969 
L 254.463978 148.82542 
L 256.08573 148.443704 
L 257.707483 147.418805 
" clip-path="url(#p73b43530f6)" style="fill: none; stroke: #d62728; stroke-width: 0.01; stroke-linecap: square"/>
   </g>
   <g id="line2d_27">
    <path d="M 97.15397 128.209831 
L 98.775722 132.870761 
L 100.397475 137.422761 
L 102.019228 141.866333 
L 103.64098 146.201977 
L 105.262733 150.430194 
L 106.884486 154.551485 
L 108.506238 158.566352 
L 110.127991 162.475295 
L 111.749744 166.278815 
L 113.371496 169.977413 
L 114.993249 173.571591 
L 116.615002 177.061849 
L 118.236754 180.448688 
L 119.858507 183.732609 
L 121.48026 186.914114 
L 123.102012 189.993702 
L 124.723765 192.971876 
L 126.345518 195.849136 
L 127.96727 198.625983 
L 129.589023 201.302918 
L 131.210775 203.880442 
L 132.832528 206.359056 
L 134.454281 208.739262 
L 136.076033 211.021559 
L 137.697786 213.206449 
L 139.319539 215.294434 
L 140.941291 217.286013 
L 142.563044 219.181689 
L 144.184797 220.981962 
L 145.806549 222.687332 
L 147.428302 224.298302 
L 149.050055 225.815371 
L 150.671807 227.239042 
L 152.29356 228.569814 
L 153.915313 229.808189 
L 155.537065 230.954669 
L 157.158818 232.009753 
L 158.780571 232.973943 
L 160.402323 233.84774 
L 162.024076 234.631645 
L 163.645829 235.326159 
L 165.267581 235.931782 
L 166.889334 236.449017 
L 168.511087 236.878363 
L 170.132839 237.220322 
L 171.754592 237.475395 
L 173.376345 237.644083 
L 174.998097 237.726886 
L 176.61985 237.724307 
L 178.241603 237.636845 
L 179.863355 237.465001 
L 181.485108 237.209278 
L 183.106861 236.870175 
L 184.728613 236.448194 
L 186.350366 235.943836 
L 187.972119 235.357601 
L 189.593871 234.689991 
L 191.215624 233.941507 
L 192.837377 233.11265 
L 194.459129 232.20392 
L 196.080882 231.215818 
L 197.702635 230.148847 
L 199.324387 229.003506 
L 200.94614 227.780296 
L 202.567893 226.479719 
L 204.189645 225.102276 
L 205.811398 223.648467 
L 207.433151 222.118794 
L 209.054903 220.513758 
L 210.676656 218.833859 
L 212.298409 217.079598 
L 213.920161 215.251477 
L 215.541914 213.349997 
L 217.163667 211.375657 
L 218.785419 209.328961 
L 220.407172 207.210408 
L 222.028925 205.020499 
L 223.650677 202.759736 
L 225.27243 200.428619 
L 226.894183 198.02765 
L 228.515935 195.557329 
L 230.137688 193.018157 
L 231.759441 190.410636 
L 233.381193 187.735266 
L 235.002946 184.992549 
L 236.624699 182.182985 
L 238.246451 179.307075 
L 239.868204 176.36532 
L 241.489956 173.358222 
L 243.111709 170.286281 
L 244.733462 167.149999 
L 246.355214 163.949876 
L 247.976967 160.686413 
L 249.59872 157.360111 
L 251.220472 153.971471 
L 252.842225 150.520995 
L 254.463978 147.009183 
L 256.08573 143.436536 
L 257.707483 139.803556 
" clip-path="url(#p73b43530f6)" style="fill: none; stroke-dasharray: 11.1,4.8; stroke-dashoffset: 0; stroke: #000000; stroke-width: 3"/>
   </g>
   <g id="line2d_28">
    <path d="M 97.15397 92.3043 
L 98.775722 94.266696 
L 100.397475 96.264231 
L 102.019228 97.581958 
L 103.64098 98.722003 
L 105.262733 100.14925 
L 106.884486 102.334526 
L 108.506238 105.278075 
L 110.127991 107.714487 
L 111.749744 108.057175 
L 113.371496 107.368423 
L 114.993249 108.112306 
L 116.615002 109.583015 
L 118.236754 112.101045 
L 119.858507 114.809196 
L 121.48026 117.819816 
L 123.102012 120.612737 
L 124.723765 123.225202 
L 126.345518 125.631684 
L 127.96727 126.257886 
L 129.589023 125.646627 
L 131.210775 126.668907 
L 132.832528 127.931902 
L 134.454281 128.571656 
L 136.076033 129.390297 
L 137.697786 131.57458 
L 139.319539 132.583669 
L 140.941291 132.683928 
L 142.563044 133.539875 
L 144.184797 135.251821 
L 145.806549 136.827361 
L 147.428302 137.766057 
L 149.050055 138.793163 
L 150.671807 139.505349 
L 152.29356 140.941576 
L 153.915313 142.244416 
L 155.537065 142.088862 
L 157.158818 141.882644 
L 158.780571 141.648946 
L 160.402323 141.58797 
L 162.024076 142.694446 
L 163.645829 144.498423 
L 165.267581 145.658254 
L 166.889334 145.566418 
L 168.511087 144.649198 
L 170.132839 144.082479 
L 171.754592 144.595151 
L 173.376345 146.150843 
L 174.998097 148.723487 
L 176.61985 151.368029 
L 178.241603 153.150965 
L 179.863355 154.441743 
L 181.485108 154.572626 
L 183.106861 151.967632 
L 184.728613 148.949258 
L 186.350366 148.230256 
L 187.972119 146.257167 
L 189.593871 145.503508 
L 191.215624 144.643483 
L 192.837377 144.370604 
L 194.459129 144.064443 
L 196.080882 142.467591 
L 197.702635 140.4606 
L 199.324387 138.99419 
L 200.94614 138.196056 
L 202.567893 138.044972 
L 204.189645 137.294409 
L 205.811398 136.94032 
L 207.433151 136.636865 
L 209.054903 135.841901 
L 210.676656 134.635477 
L 212.298409 132.893609 
L 213.920161 130.33253 
L 215.541914 127.704915 
L 217.163667 125.960404 
L 218.785419 124.889217 
L 220.407172 123.938138 
L 222.028925 122.806248 
L 223.650677 121.741263 
L 225.27243 120.360504 
L 226.894183 119.987072 
L 228.515935 119.716334 
L 230.137688 118.939219 
L 231.759441 117.738465 
L 233.381193 116.299113 
L 235.002946 115.222886 
L 236.624699 114.582016 
L 238.246451 113.674504 
L 239.868204 112.279992 
L 241.489956 110.316795 
L 243.111709 108.729873 
L 244.733462 107.94724 
L 246.355214 106.384398 
L 247.976967 103.95611 
L 249.59872 101.914081 
L 251.220472 100.805927 
L 252.842225 100.301902 
L 254.463978 99.948011 
L 256.08573 99.372418 
L 257.707483 98.652625 
" clip-path="url(#p73b43530f6)" style="fill: none; stroke: #9467bd; stroke-width: 0.01; stroke-linecap: square"/>
   </g>
   <g id="line2d_29">
    <path d="M 97.15397 92.646531 
L 98.775722 95.234613 
L 100.397475 97.759293 
L 102.019228 100.220937 
L 103.64098 102.61991 
L 105.262733 104.956578 
L 106.884486 107.231308 
L 108.506238 109.444464 
L 110.127991 111.596413 
L 111.749744 113.68752 
L 113.371496 115.718152 
L 114.993249 117.688674 
L 116.615002 119.599451 
L 118.236754 121.450851 
L 119.858507 123.243238 
L 121.48026 124.976978 
L 123.102012 126.652437 
L 124.723765 128.269982 
L 126.345518 129.829977 
L 127.96727 131.332788 
L 129.589023 132.778783 
L 131.210775 134.168325 
L 132.832528 135.501781 
L 134.454281 136.779518 
L 136.076033 138.0019 
L 137.697786 139.169293 
L 139.319539 140.282064 
L 140.941291 141.340577 
L 142.563044 142.3452 
L 144.184797 143.296297 
L 145.806549 144.194235 
L 147.428302 145.039379 
L 149.050055 145.832096 
L 150.671807 146.57275 
L 152.29356 147.261708 
L 153.915313 147.899336 
L 155.537065 148.485999 
L 157.158818 149.022063 
L 158.780571 149.507894 
L 160.402323 149.943858 
L 162.024076 150.330321 
L 163.645829 150.667648 
L 165.267581 150.956205 
L 166.889334 151.196359 
L 168.511087 151.388474 
L 170.132839 151.532917 
L 171.754592 151.630054 
L 173.376345 151.68025 
L 174.998097 151.683871 
L 176.61985 151.641283 
L 178.241603 151.552852 
L 179.863355 151.418943 
L 181.485108 151.239923 
L 183.106861 151.016157 
L 184.728613 150.748011 
L 186.350366 150.43585 
L 187.972119 150.080042 
L 189.593871 149.68095 
L 191.215624 149.238943 
L 192.837377 148.754384 
L 194.459129 148.22764 
L 196.080882 147.659076 
L 197.702635 147.049059 
L 199.324387 146.397955 
L 200.94614 145.706128 
L 202.567893 144.973946 
L 204.189645 144.201773 
L 205.811398 143.389976 
L 207.433151 142.53892 
L 209.054903 141.648972 
L 210.676656 140.720496 
L 212.298409 139.753859 
L 213.920161 138.749427 
L 215.541914 137.707565 
L 217.163667 136.628639 
L 218.785419 135.513016 
L 220.407172 134.36106 
L 222.028925 133.173138 
L 223.650677 131.949616 
L 225.27243 130.690858 
L 226.894183 129.397232 
L 228.515935 128.069103 
L 230.137688 126.706837 
L 231.759441 125.310799 
L 233.381193 123.881355 
L 235.002946 122.418872 
L 236.624699 120.923714 
L 238.246451 119.396249 
L 239.868204 117.836841 
L 241.489956 116.245856 
L 243.111709 114.623661 
L 244.733462 112.970621 
L 246.355214 111.287101 
L 247.976967 109.573468 
L 249.59872 107.830088 
L 251.220472 106.057326 
L 252.842225 104.255548 
L 254.463978 102.42512 
L 256.08573 100.566407 
L 257.707483 98.679776 
" clip-path="url(#p73b43530f6)" style="fill: none; stroke-dasharray: 11.1,4.8; stroke-dashoffset: 0; stroke: #000000; stroke-width: 3"/>
   </g>
   <g id="patch_7">
    <path d="M 94.559375 379.434375 
L 94.559375 19.434375 
" style="fill: none; stroke: #000000; stroke-width: 2; stroke-linejoin: miter; stroke-linecap: square"/>
   </g>
   <g id="patch_8">
    <path d="M 382.559375 379.434375 
L 382.559375 19.434375 
" style="fill: none; stroke: #000000; stroke-width: 2; stroke-linejoin: miter; stroke-linecap: square"/>
   </g>
   <g id="patch_9">
    <path d="M 94.559375 379.434375 
L 382.559375 379.434375 
" style="fill: none; stroke: #000000; stroke-width: 2; stroke-linejoin: miter; stroke-linecap: square"/>
   </g>
   <g id="patch_10">
    <path d="M 94.559375 19.434375 
L 382.559375 19.434375 
" style="fill: none; stroke: #000000; stroke-width: 2; stroke-linejoin: miter; stroke-linecap: square"/>
   </g>
   <g id="legend_1">
    <g id="patch_11">
     <path d="M 172.942188 78.129687 
L 367.059375 78.129687 
Q 372.059375 78.129687 372.059375 73.129687 
L 372.059375 38.934375 
Q 372.059375 33.934375 367.059375 33.934375 
L 172.942188 33.934375 
Q 167.942188 33.934375 167.942188 38.934375 
L 167.942188 73.129687 
Q 167.942188 78.129687 172.942188 78.129687 
z
" style="fill: #4c4c4c; opacity: 0.5; stroke: #4c4c4c; stroke-linejoin: miter"/>
    </g>
    <g id="patch_12">
     <path d="M 170.942188 76.129687 
L 365.059375 76.129687 
Q 370.059375 76.129687 370.059375 71.129687 
L 370.059375 36.934375 
Q 370.059375 31.934375 365.059375 31.934375 
L 170.942188 31.934375 
Q 165.942188 31.934375 165.942188 36.934375 
L 165.942188 71.129687 
Q 165.942188 76.129687 170.942188 76.129687 
z
" style="fill: #ffffff; stroke: #cccccc; stroke-linejoin: miter"/>
    </g>
    <g id="line2d_30">
     <path d="M 175.942188 52.180469 
L 200.942188 52.180469 
L 225.942188 52.180469 
" style="fill: none; stroke-dasharray: 11.1,4.8; stroke-dashoffset: 0; stroke: #000000; stroke-width: 3"/>
    </g>
    <g id="text_23">
     <!-- Spline Fit -->
     <g transform="translate(245.942188 60.930469)scale(0.25 -0.25)">
      <defs>
       <path id="DejaVuSans-53" d="M 3425 4513 
L 3425 3897 
Q 3066 4069 2747 4153 
Q 2428 4238 2131 4238 
Q 1616 4238 1336 4038 
Q 1056 3838 1056 3469 
Q 1056 3159 1242 3001 
Q 1428 2844 1947 2747 
L 2328 2669 
Q 3034 2534 3370 2195 
Q 3706 1856 3706 1288 
Q 3706 609 3251 259 
Q 2797 -91 1919 -91 
Q 1588 -91 1214 -16 
Q 841 59 441 206 
L 441 856 
Q 825 641 1194 531 
Q 1563 422 1919 422 
Q 2459 422 2753 634 
Q 3047 847 3047 1241 
Q 3047 1584 2836 1778 
Q 2625 1972 2144 2069 
L 1759 2144 
Q 1053 2284 737 2584 
Q 422 2884 422 3419 
Q 422 4038 858 4394 
Q 1294 4750 2059 4750 
Q 2388 4750 2728 4690 
Q 3069 4631 3425 4513 
z
" transform="scale(0.015625)"/>
       <path id="DejaVuSans-46" d="M 628 4666 
L 3309 4666 
L 3309 4134 
L 1259 4134 
L 1259 2759 
L 3109 2759 
L 3109 2228 
L 1259 2228 
L 1259 0 
L 628 0 
L 628 4666 
z
" transform="scale(0.015625)"/>
      </defs>
      <use xlink:href="#DejaVuSans-53"/>
      <use xlink:href="#DejaVuSans-70" x="63.476562"/>
      <use xlink:href="#DejaVuSans-6c" x="126.953125"/>
      <use xlink:href="#DejaVuSans-69" x="154.736328"/>
      <use xlink:href="#DejaVuSans-6e" x="182.519531"/>
      <use xlink:href="#DejaVuSans-65" x="245.898438"/>
      <use xlink:href="#DejaVuSans-20" x="307.421875"/>
      <use xlink:href="#DejaVuSans-46" x="339.208984"/>
      <use xlink:href="#DejaVuSans-69" x="389.478516"/>
      <use xlink:href="#DejaVuSans-74" x="417.261719"/>
     </g>
    </g>
   </g>
  </g>
 </g>
 <defs>
  <clipPath id="p73b43530f6">
   <rect x="94.559375" y="19.434375" width="288" height="360"/>
  </clipPath>
 </defs>
</svg>
