<?xml version="1.0" encoding="utf-8" standalone="no"?>
<!DOCTYPE svg PUBLIC "-//W3C//DTD SVG 1.1//EN"
  "http://www.w3.org/Graphics/SVG/1.1/DTD/svg11.dtd">
<svg xmlns:xlink="http://www.w3.org/1999/xlink" width="636.732031pt" height="430.290625pt" viewBox="0 0 636.732031 430.290625" xmlns="http://www.w3.org/2000/svg" version="1.1">
 <metadata>
  <rdf:RDF xmlns:dc="http://purl.org/dc/elements/1.1/" xmlns:cc="http://creativecommons.org/ns#" xmlns:rdf="http://www.w3.org/1999/02/22-rdf-syntax-ns#">
   <cc:Work>
    <dc:type rdf:resource="http://purl.org/dc/dcmitype/StillImage"/>
    <dc:date>2024-06-03T09:48:39.290168</dc:date>
    <dc:format>image/svg+xml</dc:format>
    <dc:creator>
     <cc:Agent>
      <dc:title>Matplotlib v3.5.2, https://matplotlib.org/</dc:title>
     </cc:Agent>
    </dc:creator>
   </cc:Work>
  </rdf:RDF>
 </metadata>
 <defs>
  <style type="text/css">*{stroke-linejoin: round; stroke-linecap: butt}</style>
 </defs>
 <g id="figure_1">
  <g id="patch_1">
   <path d="M 0 430.290625 
L 636.732031 430.290625 
L 636.732031 0 
L 0 0 
z
" style="fill: #ffffff"/>
  </g>
  <g id="axes_1">
   <g id="patch_2">
    <path d="M 94.559375 367.2 
L 382.559375 367.2 
L 382.559375 7.2 
L 94.559375 7.2 
z
" style="fill: #ffffff"/>
   </g>
   <g id="matplotlib.axis_1">
    <g id="xtick_1">
     <g id="line2d_1">
      <defs>
       <path id="md7326ab767" d="M 0 0 
L 0 -4 
" style="stroke: #000000; stroke-width: 3"/>
      </defs>
      <g>
       <use xlink:href="#md7326ab767" x="106.32797" y="367.2" style="stroke: #000000; stroke-width: 3"/>
      </g>
     </g>
     <g id="text_1">
      <!-- 0 -->
      <g transform="translate(98.374845 389.696094)scale(0.25 -0.25)">
       <defs>
        <path id="DejaVuSans-30" d="M 2034 4250 
Q 1547 4250 1301 3770 
Q 1056 3291 1056 2328 
Q 1056 1369 1301 889 
Q 1547 409 2034 409 
Q 2525 409 2770 889 
Q 3016 1369 3016 2328 
Q 3016 3291 2770 3770 
Q 2525 4250 2034 4250 
z
M 2034 4750 
Q 2819 4750 3233 4129 
Q 3647 3509 3647 2328 
Q 3647 1150 3233 529 
Q 2819 -91 2034 -91 
Q 1250 -91 836 529 
Q 422 1150 422 2328 
Q 422 3509 836 4129 
Q 1250 4750 2034 4750 
z
" transform="scale(0.015625)"/>
       </defs>
       <use xlink:href="#DejaVuSans-30"/>
      </g>
     </g>
    </g>
    <g id="xtick_2">
     <g id="line2d_2">
      <g>
       <use xlink:href="#md7326ab767" x="203.556944" y="367.2" style="stroke: #000000; stroke-width: 3"/>
      </g>
     </g>
     <g id="text_2">
      <!-- 10 -->
      <g transform="translate(187.650694 389.696094)scale(0.25 -0.25)">
       <defs>
        <path id="DejaVuSans-31" d="M 794 531 
L 1825 531 
L 1825 4091 
L 703 3866 
L 703 4441 
L 1819 4666 
L 2450 4666 
L 2450 531 
L 3481 531 
L 3481 0 
L 794 0 
L 794 531 
z
" transform="scale(0.015625)"/>
       </defs>
       <use xlink:href="#DejaVuSans-31"/>
       <use xlink:href="#DejaVuSans-30" x="63.623047"/>
      </g>
     </g>
    </g>
    <g id="xtick_3">
     <g id="line2d_3">
      <g>
       <use xlink:href="#md7326ab767" x="300.785919" y="367.2" style="stroke: #000000; stroke-width: 3"/>
      </g>
     </g>
     <g id="text_3">
      <!-- 20 -->
      <g transform="translate(284.879669 389.696094)scale(0.25 -0.25)">
       <defs>
        <path id="DejaVuSans-32" d="M 1228 531 
L 3431 531 
L 3431 0 
L 469 0 
L 469 531 
Q 828 903 1448 1529 
Q 2069 2156 2228 2338 
Q 2531 2678 2651 2914 
Q 2772 3150 2772 3378 
Q 2772 3750 2511 3984 
Q 2250 4219 1831 4219 
Q 1534 4219 1204 4116 
Q 875 4013 500 3803 
L 500 4441 
Q 881 4594 1212 4672 
Q 1544 4750 1819 4750 
Q 2544 4750 2975 4387 
Q 3406 4025 3406 3419 
Q 3406 3131 3298 2873 
Q 3191 2616 2906 2266 
Q 2828 2175 2409 1742 
Q 1991 1309 1228 531 
z
" transform="scale(0.015625)"/>
       </defs>
       <use xlink:href="#DejaVuSans-32"/>
       <use xlink:href="#DejaVuSans-30" x="63.623047"/>
      </g>
     </g>
    </g>
    <g id="text_4">
     <!-- z-position [μm] -->
     <g transform="translate(144.121875 417.891406)scale(0.25 -0.25)">
      <defs>
       <path id="DejaVuSans-7a" d="M 353 3500 
L 3084 3500 
L 3084 2975 
L 922 459 
L 3084 459 
L 3084 0 
L 275 0 
L 275 525 
L 2438 3041 
L 353 3041 
L 353 3500 
z
" transform="scale(0.015625)"/>
       <path id="DejaVuSans-2d" d="M 313 2009 
L 1997 2009 
L 1997 1497 
L 313 1497 
L 313 2009 
z
" transform="scale(0.015625)"/>
       <path id="DejaVuSans-70" d="M 1159 525 
L 1159 -1331 
L 581 -1331 
L 581 3500 
L 1159 3500 
L 1159 2969 
Q 1341 3281 1617 3432 
Q 1894 3584 2278 3584 
Q 2916 3584 3314 3078 
Q 3713 2572 3713 1747 
Q 3713 922 3314 415 
Q 2916 -91 2278 -91 
Q 1894 -91 1617 61 
Q 1341 213 1159 525 
z
M 3116 1747 
Q 3116 2381 2855 2742 
Q 2594 3103 2138 3103 
Q 1681 3103 1420 2742 
Q 1159 2381 1159 1747 
Q 1159 1113 1420 752 
Q 1681 391 2138 391 
Q 2594 391 2855 752 
Q 3116 1113 3116 1747 
z
" transform="scale(0.015625)"/>
       <path id="DejaVuSans-6f" d="M 1959 3097 
Q 1497 3097 1228 2736 
Q 959 2375 959 1747 
Q 959 1119 1226 758 
Q 1494 397 1959 397 
Q 2419 397 2687 759 
Q 2956 1122 2956 1747 
Q 2956 2369 2687 2733 
Q 2419 3097 1959 3097 
z
M 1959 3584 
Q 2709 3584 3137 3096 
Q 3566 2609 3566 1747 
Q 3566 888 3137 398 
Q 2709 -91 1959 -91 
Q 1206 -91 779 398 
Q 353 888 353 1747 
Q 353 2609 779 3096 
Q 1206 3584 1959 3584 
z
" transform="scale(0.015625)"/>
       <path id="DejaVuSans-73" d="M 2834 3397 
L 2834 2853 
Q 2591 2978 2328 3040 
Q 2066 3103 1784 3103 
Q 1356 3103 1142 2972 
Q 928 2841 928 2578 
Q 928 2378 1081 2264 
Q 1234 2150 1697 2047 
L 1894 2003 
Q 2506 1872 2764 1633 
Q 3022 1394 3022 966 
Q 3022 478 2636 193 
Q 2250 -91 1575 -91 
Q 1294 -91 989 -36 
Q 684 19 347 128 
L 347 722 
Q 666 556 975 473 
Q 1284 391 1588 391 
Q 1994 391 2212 530 
Q 2431 669 2431 922 
Q 2431 1156 2273 1281 
Q 2116 1406 1581 1522 
L 1381 1569 
Q 847 1681 609 1914 
Q 372 2147 372 2553 
Q 372 3047 722 3315 
Q 1072 3584 1716 3584 
Q 2034 3584 2315 3537 
Q 2597 3491 2834 3397 
z
" transform="scale(0.015625)"/>
       <path id="DejaVuSans-69" d="M 603 3500 
L 1178 3500 
L 1178 0 
L 603 0 
L 603 3500 
z
M 603 4863 
L 1178 4863 
L 1178 4134 
L 603 4134 
L 603 4863 
z
" transform="scale(0.015625)"/>
       <path id="DejaVuSans-74" d="M 1172 4494 
L 1172 3500 
L 2356 3500 
L 2356 3053 
L 1172 3053 
L 1172 1153 
Q 1172 725 1289 603 
Q 1406 481 1766 481 
L 2356 481 
L 2356 0 
L 1766 0 
Q 1100 0 847 248 
Q 594 497 594 1153 
L 594 3053 
L 172 3053 
L 172 3500 
L 594 3500 
L 594 4494 
L 1172 4494 
z
" transform="scale(0.015625)"/>
       <path id="DejaVuSans-6e" d="M 3513 2113 
L 3513 0 
L 2938 0 
L 2938 2094 
Q 2938 2591 2744 2837 
Q 2550 3084 2163 3084 
Q 1697 3084 1428 2787 
Q 1159 2491 1159 1978 
L 1159 0 
L 581 0 
L 581 3500 
L 1159 3500 
L 1159 2956 
Q 1366 3272 1645 3428 
Q 1925 3584 2291 3584 
Q 2894 3584 3203 3211 
Q 3513 2838 3513 2113 
z
" transform="scale(0.015625)"/>
       <path id="DejaVuSans-20" transform="scale(0.015625)"/>
       <path id="DejaVuSans-5b" d="M 550 4863 
L 1875 4863 
L 1875 4416 
L 1125 4416 
L 1125 -397 
L 1875 -397 
L 1875 -844 
L 550 -844 
L 550 4863 
z
" transform="scale(0.015625)"/>
       <path id="DejaVuSans-3bc" d="M 544 -1331 
L 544 3500 
L 1119 3500 
L 1119 1325 
Q 1119 872 1334 640 
Q 1550 409 1972 409 
Q 2434 409 2667 671 
Q 2900 934 2900 1459 
L 2900 3500 
L 3475 3500 
L 3475 806 
Q 3475 619 3529 530 
Q 3584 441 3700 441 
Q 3728 441 3778 458 
Q 3828 475 3916 513 
L 3916 50 
Q 3788 -22 3673 -56 
Q 3559 -91 3450 -91 
Q 3234 -91 3106 31 
Q 2978 153 2931 403 
Q 2775 156 2548 32 
Q 2322 -91 2016 -91 
Q 1697 -91 1473 31 
Q 1250 153 1119 397 
L 1119 -1331 
L 544 -1331 
z
" transform="scale(0.015625)"/>
       <path id="DejaVuSans-6d" d="M 3328 2828 
Q 3544 3216 3844 3400 
Q 4144 3584 4550 3584 
Q 5097 3584 5394 3201 
Q 5691 2819 5691 2113 
L 5691 0 
L 5113 0 
L 5113 2094 
Q 5113 2597 4934 2840 
Q 4756 3084 4391 3084 
Q 3944 3084 3684 2787 
Q 3425 2491 3425 1978 
L 3425 0 
L 2847 0 
L 2847 2094 
Q 2847 2600 2669 2842 
Q 2491 3084 2119 3084 
Q 1678 3084 1418 2786 
Q 1159 2488 1159 1978 
L 1159 0 
L 581 0 
L 581 3500 
L 1159 3500 
L 1159 2956 
Q 1356 3278 1631 3431 
Q 1906 3584 2284 3584 
Q 2666 3584 2933 3390 
Q 3200 3197 3328 2828 
z
" transform="scale(0.015625)"/>
       <path id="DejaVuSans-5d" d="M 1947 4863 
L 1947 -844 
L 622 -844 
L 622 -397 
L 1369 -397 
L 1369 4416 
L 622 4416 
L 622 4863 
L 1947 4863 
z
" transform="scale(0.015625)"/>
      </defs>
      <use xlink:href="#DejaVuSans-7a"/>
      <use xlink:href="#DejaVuSans-2d" x="52.490234"/>
      <use xlink:href="#DejaVuSans-70" x="88.574219"/>
      <use xlink:href="#DejaVuSans-6f" x="152.050781"/>
      <use xlink:href="#DejaVuSans-73" x="213.232422"/>
      <use xlink:href="#DejaVuSans-69" x="265.332031"/>
      <use xlink:href="#DejaVuSans-74" x="293.115234"/>
      <use xlink:href="#DejaVuSans-69" x="332.324219"/>
      <use xlink:href="#DejaVuSans-6f" x="360.107422"/>
      <use xlink:href="#DejaVuSans-6e" x="421.289062"/>
      <use xlink:href="#DejaVuSans-20" x="484.667969"/>
      <use xlink:href="#DejaVuSans-5b" x="516.455078"/>
      <use xlink:href="#DejaVuSans-3bc" x="555.46875"/>
      <use xlink:href="#DejaVuSans-6d" x="619.091797"/>
      <use xlink:href="#DejaVuSans-5d" x="716.503906"/>
     </g>
    </g>
   </g>
   <g id="matplotlib.axis_2">
    <g id="ytick_1">
     <g id="line2d_4">
      <defs>
       <path id="m25e93f8e29" d="M 0 0 
L 4 0 
" style="stroke: #000000; stroke-width: 3"/>
      </defs>
      <g>
       <use xlink:href="#m25e93f8e29" x="94.559375" y="354.674356" style="stroke: #000000; stroke-width: 3"/>
      </g>
     </g>
     <g id="text_5">
      <!-- 0.00 -->
      <g transform="translate(35.395313 364.172403)scale(0.25 -0.25)">
       <defs>
        <path id="DejaVuSans-2e" d="M 684 794 
L 1344 794 
L 1344 0 
L 684 0 
L 684 794 
z
" transform="scale(0.015625)"/>
       </defs>
       <use xlink:href="#DejaVuSans-30"/>
       <use xlink:href="#DejaVuSans-2e" x="63.623047"/>
       <use xlink:href="#DejaVuSans-30" x="95.410156"/>
       <use xlink:href="#DejaVuSans-30" x="159.033203"/>
      </g>
     </g>
    </g>
    <g id="ytick_2">
     <g id="line2d_5">
      <g>
       <use xlink:href="#m25e93f8e29" x="94.559375" y="254.417394" style="stroke: #000000; stroke-width: 3"/>
      </g>
     </g>
     <g id="text_6">
      <!-- 0.02 -->
      <g transform="translate(35.395313 263.915441)scale(0.25 -0.25)">
       <use xlink:href="#DejaVuSans-30"/>
       <use xlink:href="#DejaVuSans-2e" x="63.623047"/>
       <use xlink:href="#DejaVuSans-30" x="95.410156"/>
       <use xlink:href="#DejaVuSans-32" x="159.033203"/>
      </g>
     </g>
    </g>
    <g id="ytick_3">
     <g id="line2d_6">
      <g>
       <use xlink:href="#m25e93f8e29" x="94.559375" y="154.160433" style="stroke: #000000; stroke-width: 3"/>
      </g>
     </g>
     <g id="text_7">
      <!-- 0.04 -->
      <g transform="translate(35.395313 163.65848)scale(0.25 -0.25)">
       <defs>
        <path id="DejaVuSans-34" d="M 2419 4116 
L 825 1625 
L 2419 1625 
L 2419 4116 
z
M 2253 4666 
L 3047 4666 
L 3047 1625 
L 3713 1625 
L 3713 1100 
L 3047 1100 
L 3047 0 
L 2419 0 
L 2419 1100 
L 313 1100 
L 313 1709 
L 2253 4666 
z
" transform="scale(0.015625)"/>
       </defs>
       <use xlink:href="#DejaVuSans-30"/>
       <use xlink:href="#DejaVuSans-2e" x="63.623047"/>
       <use xlink:href="#DejaVuSans-30" x="95.410156"/>
       <use xlink:href="#DejaVuSans-34" x="159.033203"/>
      </g>
     </g>
    </g>
    <g id="ytick_4">
     <g id="line2d_7">
      <g>
       <use xlink:href="#m25e93f8e29" x="94.559375" y="53.903471" style="stroke: #000000; stroke-width: 3"/>
      </g>
     </g>
     <g id="text_8">
      <!-- 0.06 -->
      <g transform="translate(35.395313 63.401518)scale(0.25 -0.25)">
       <defs>
        <path id="DejaVuSans-36" d="M 2113 2584 
Q 1688 2584 1439 2293 
Q 1191 2003 1191 1497 
Q 1191 994 1439 701 
Q 1688 409 2113 409 
Q 2538 409 2786 701 
Q 3034 994 3034 1497 
Q 3034 2003 2786 2293 
Q 2538 2584 2113 2584 
z
M 3366 4563 
L 3366 3988 
Q 3128 4100 2886 4159 
Q 2644 4219 2406 4219 
Q 1781 4219 1451 3797 
Q 1122 3375 1075 2522 
Q 1259 2794 1537 2939 
Q 1816 3084 2150 3084 
Q 2853 3084 3261 2657 
Q 3669 2231 3669 1497 
Q 3669 778 3244 343 
Q 2819 -91 2113 -91 
Q 1303 -91 875 529 
Q 447 1150 447 2328 
Q 447 3434 972 4092 
Q 1497 4750 2381 4750 
Q 2619 4750 2861 4703 
Q 3103 4656 3366 4563 
z
" transform="scale(0.015625)"/>
       </defs>
       <use xlink:href="#DejaVuSans-30"/>
       <use xlink:href="#DejaVuSans-2e" x="63.623047"/>
       <use xlink:href="#DejaVuSans-30" x="95.410156"/>
       <use xlink:href="#DejaVuSans-36" x="159.033203"/>
      </g>
     </g>
    </g>
    <g id="text_9">
     <!-- Concentration [mM] -->
     <g transform="translate(26.196094 312.315234)rotate(-90)scale(0.25 -0.25)">
      <defs>
       <path id="DejaVuSans-43" d="M 4122 4306 
L 4122 3641 
Q 3803 3938 3442 4084 
Q 3081 4231 2675 4231 
Q 1875 4231 1450 3742 
Q 1025 3253 1025 2328 
Q 1025 1406 1450 917 
Q 1875 428 2675 428 
Q 3081 428 3442 575 
Q 3803 722 4122 1019 
L 4122 359 
Q 3791 134 3420 21 
Q 3050 -91 2638 -91 
Q 1578 -91 968 557 
Q 359 1206 359 2328 
Q 359 3453 968 4101 
Q 1578 4750 2638 4750 
Q 3056 4750 3426 4639 
Q 3797 4528 4122 4306 
z
" transform="scale(0.015625)"/>
       <path id="DejaVuSans-63" d="M 3122 3366 
L 3122 2828 
Q 2878 2963 2633 3030 
Q 2388 3097 2138 3097 
Q 1578 3097 1268 2742 
Q 959 2388 959 1747 
Q 959 1106 1268 751 
Q 1578 397 2138 397 
Q 2388 397 2633 464 
Q 2878 531 3122 666 
L 3122 134 
Q 2881 22 2623 -34 
Q 2366 -91 2075 -91 
Q 1284 -91 818 406 
Q 353 903 353 1747 
Q 353 2603 823 3093 
Q 1294 3584 2113 3584 
Q 2378 3584 2631 3529 
Q 2884 3475 3122 3366 
z
" transform="scale(0.015625)"/>
       <path id="DejaVuSans-65" d="M 3597 1894 
L 3597 1613 
L 953 1613 
Q 991 1019 1311 708 
Q 1631 397 2203 397 
Q 2534 397 2845 478 
Q 3156 559 3463 722 
L 3463 178 
Q 3153 47 2828 -22 
Q 2503 -91 2169 -91 
Q 1331 -91 842 396 
Q 353 884 353 1716 
Q 353 2575 817 3079 
Q 1281 3584 2069 3584 
Q 2775 3584 3186 3129 
Q 3597 2675 3597 1894 
z
M 3022 2063 
Q 3016 2534 2758 2815 
Q 2500 3097 2075 3097 
Q 1594 3097 1305 2825 
Q 1016 2553 972 2059 
L 3022 2063 
z
" transform="scale(0.015625)"/>
       <path id="DejaVuSans-72" d="M 2631 2963 
Q 2534 3019 2420 3045 
Q 2306 3072 2169 3072 
Q 1681 3072 1420 2755 
Q 1159 2438 1159 1844 
L 1159 0 
L 581 0 
L 581 3500 
L 1159 3500 
L 1159 2956 
Q 1341 3275 1631 3429 
Q 1922 3584 2338 3584 
Q 2397 3584 2469 3576 
Q 2541 3569 2628 3553 
L 2631 2963 
z
" transform="scale(0.015625)"/>
       <path id="DejaVuSans-61" d="M 2194 1759 
Q 1497 1759 1228 1600 
Q 959 1441 959 1056 
Q 959 750 1161 570 
Q 1363 391 1709 391 
Q 2188 391 2477 730 
Q 2766 1069 2766 1631 
L 2766 1759 
L 2194 1759 
z
M 3341 1997 
L 3341 0 
L 2766 0 
L 2766 531 
Q 2569 213 2275 61 
Q 1981 -91 1556 -91 
Q 1019 -91 701 211 
Q 384 513 384 1019 
Q 384 1609 779 1909 
Q 1175 2209 1959 2209 
L 2766 2209 
L 2766 2266 
Q 2766 2663 2505 2880 
Q 2244 3097 1772 3097 
Q 1472 3097 1187 3025 
Q 903 2953 641 2809 
L 641 3341 
Q 956 3463 1253 3523 
Q 1550 3584 1831 3584 
Q 2591 3584 2966 3190 
Q 3341 2797 3341 1997 
z
" transform="scale(0.015625)"/>
       <path id="DejaVuSans-4d" d="M 628 4666 
L 1569 4666 
L 2759 1491 
L 3956 4666 
L 4897 4666 
L 4897 0 
L 4281 0 
L 4281 4097 
L 3078 897 
L 2444 897 
L 1241 4097 
L 1241 0 
L 628 0 
L 628 4666 
z
" transform="scale(0.015625)"/>
      </defs>
      <use xlink:href="#DejaVuSans-43"/>
      <use xlink:href="#DejaVuSans-6f" x="69.824219"/>
      <use xlink:href="#DejaVuSans-6e" x="131.005859"/>
      <use xlink:href="#DejaVuSans-63" x="194.384766"/>
      <use xlink:href="#DejaVuSans-65" x="249.365234"/>
      <use xlink:href="#DejaVuSans-6e" x="310.888672"/>
      <use xlink:href="#DejaVuSans-74" x="374.267578"/>
      <use xlink:href="#DejaVuSans-72" x="413.476562"/>
      <use xlink:href="#DejaVuSans-61" x="454.589844"/>
      <use xlink:href="#DejaVuSans-74" x="515.869141"/>
      <use xlink:href="#DejaVuSans-69" x="555.078125"/>
      <use xlink:href="#DejaVuSans-6f" x="582.861328"/>
      <use xlink:href="#DejaVuSans-6e" x="644.042969"/>
      <use xlink:href="#DejaVuSans-20" x="707.421875"/>
      <use xlink:href="#DejaVuSans-5b" x="739.208984"/>
      <use xlink:href="#DejaVuSans-6d" x="778.222656"/>
      <use xlink:href="#DejaVuSans-4d" x="875.634766"/>
      <use xlink:href="#DejaVuSans-5d" x="961.914062"/>
     </g>
    </g>
   </g>
   <g id="line2d_8">
    <path d="M 107.650284 344.505616 
L 110.294912 345.067539 
L 112.93954 345.589097 
L 115.584168 346.072488 
L 118.228796 346.519834 
L 120.873425 346.933178 
L 123.518053 347.31449 
L 126.162681 347.665664 
L 128.807309 347.988519 
L 131.451937 348.284804 
L 134.096565 348.556193 
L 136.741193 348.80429 
L 139.385821 349.03063 
L 142.030449 349.236678 
L 144.675077 349.423832 
L 147.319706 349.593423 
L 149.964334 349.746717 
L 152.608962 349.884918 
L 155.25359 350.009164 
L 157.898218 350.120533 
L 160.542846 350.220046 
L 163.187474 350.308661 
L 165.832102 350.387282 
L 168.47673 350.456756 
L 171.121358 350.517875 
L 173.765987 350.57138 
L 176.410615 350.617958 
L 179.055243 350.658246 
L 181.699871 350.692833 
L 184.344499 350.722258 
L 186.989127 350.747014 
L 189.633755 350.767547 
L 192.278383 350.784259 
L 194.923011 350.797507 
L 197.567639 350.807604 
L 200.212268 350.814821 
L 202.856896 350.819384 
L 205.501524 350.821479 
L 208.146152 350.821249 
L 210.79078 350.818794 
L 213.435408 350.814174 
L 216.080036 350.807403 
L 218.724664 350.798455 
L 221.369292 350.787259 
L 224.01392 350.773699 
L 226.658549 350.757615 
L 229.303177 350.738799 
L 231.947805 350.716996 
L 234.592433 350.691901 
L 237.237061 350.663159 
L 239.881689 350.63036 
L 242.526317 350.593879 
L 245.170945 350.553298 
L 247.815573 350.508164 
L 250.460201 350.457982 
L 253.10483 350.402215 
L 255.749458 350.340281 
L 258.394086 350.271555 
L 261.038714 350.195363 
L 263.683342 350.110984 
L 266.32797 350.017644 
L 268.972598 349.91452 
L 271.617226 349.800733 
L 274.261854 349.675351 
L 276.906482 349.537383 
L 279.551111 349.385781 
L 282.195739 349.219436 
L 284.840367 349.03718 
L 287.484995 348.837779 
L 290.129623 348.619939 
L 292.774251 348.382298 
L 295.418879 348.123432 
L 298.063507 347.841848 
L 300.708135 347.535985 
L 303.352763 347.204217 
L 305.997392 346.844849 
L 308.64202 346.456117 
L 311.286648 346.036191 
L 313.931276 345.58317 
L 316.575904 345.09509 
L 319.220532 344.569916 
L 321.86516 344.00555 
L 324.509788 343.399829 
L 327.154416 342.750526 
L 329.799044 342.05535 
L 332.443673 341.311954 
L 335.088301 340.51793 
L 337.732929 339.670814 
L 340.377557 338.768088 
L 343.022185 337.807185 
L 345.666813 336.785485 
L 348.311441 335.700328 
L 350.956069 334.549007 
L 353.600697 333.328777 
L 356.245325 332.036858 
L 358.889954 330.670437 
L 361.534582 329.226671 
L 364.17921 327.702694 
L 366.823838 326.095619 
L 369.468466 324.402539 
" clip-path="url(#p11f074041e)" style="fill: none; stroke: #000000; stroke-width: 3; stroke-linecap: square"/>
   </g>
   <g id="line2d_9">
    <path d="M 107.650284 349.9724 
L 110.294912 349.931496 
L 112.93954 349.852192 
L 115.584168 349.798547 
L 118.228796 349.805397 
L 120.873425 349.875274 
L 123.518053 350.00269 
L 126.162681 350.150183 
L 128.807309 350.270839 
L 131.451937 350.343518 
L 134.096565 350.381959 
L 136.741193 350.401359 
L 139.385821 350.410457 
L 142.030449 350.415385 
L 144.675077 350.417798 
L 147.319706 350.41193 
L 149.964334 350.393036 
L 152.608962 350.370464 
L 155.25359 350.360406 
L 157.898218 350.373537 
L 160.542846 350.409147 
L 163.187474 350.464696 
L 165.832102 350.533033 
L 168.47673 350.604235 
L 171.121358 350.669642 
L 173.765987 350.723908 
L 176.410615 350.762721 
L 179.055243 350.789026 
L 181.699871 350.811132 
L 184.344499 350.831886 
L 186.989127 350.836364 
L 189.633755 350.807256 
L 192.278383 350.74926 
L 194.923011 350.686975 
L 197.567639 350.637953 
L 200.212268 350.588699 
L 202.856896 350.518462 
L 205.501524 350.420672 
L 208.146152 350.304433 
L 210.79078 350.179973 
L 213.435408 350.059104 
L 216.080036 349.954026 
L 218.724664 349.872356 
L 221.369292 349.815506 
L 224.01392 349.784886 
L 226.658549 349.784698 
L 229.303177 349.820176 
L 231.947805 349.891873 
L 234.592433 349.992568 
L 237.237061 350.113391 
L 239.881689 350.238013 
L 242.526317 350.346509 
L 245.170945 350.42593 
L 247.815573 350.47767 
L 250.460201 350.504836 
L 253.10483 350.510104 
L 255.749458 350.495898 
L 258.394086 350.468467 
L 261.038714 350.443793 
L 263.683342 350.438555 
L 266.32797 350.457826 
L 268.972598 350.498093 
L 271.617226 350.552296 
L 274.261854 350.602744 
L 276.906482 350.630096 
L 279.551111 350.62394 
L 282.195739 350.581942 
L 284.840367 350.506181 
L 287.484995 350.415244 
L 290.129623 350.331606 
L 292.774251 350.271168 
L 295.418879 350.242565 
L 298.063507 350.248041 
L 300.708135 350.259493 
L 303.352763 350.240039 
L 305.997392 350.185228 
L 308.64202 350.134493 
L 311.286648 350.121334 
L 313.931276 350.121492 
L 316.575904 350.088311 
L 319.220532 349.998206 
L 321.86516 349.865989 
L 324.509788 349.710975 
L 327.154416 349.559664 
L 329.799044 349.441935 
L 332.443673 349.368214 
L 335.088301 349.309038 
L 337.732929 349.232298 
L 340.377557 349.129649 
L 343.022185 349.007054 
L 345.666813 348.870059 
L 348.311441 348.722644 
L 350.956069 348.569423 
L 353.600697 348.427351 
L 356.245325 348.322503 
L 358.889954 348.264698 
L 361.534582 348.2114 
L 364.17921 348.113335 
L 366.823838 347.991786 
L 369.468466 347.931848 
" clip-path="url(#p11f074041e)" style="fill: none; stroke: #008000; stroke-width: 3; stroke-linecap: square"/>
   </g>
   <g id="line2d_10">
    <path d="M 107.650284 277.043349 
L 110.294912 279.692255 
L 112.93954 282.246845 
L 115.584168 284.709011 
L 118.228796 287.080605 
L 120.873425 289.363439 
L 123.518053 291.559285 
L 126.162681 293.669873 
L 128.807309 295.696889 
L 131.451937 297.641979 
L 134.096565 299.50674 
L 136.741193 301.292728 
L 139.385821 303.001452 
L 142.030449 304.634375 
L 144.675077 306.192912 
L 147.319706 307.678432 
L 149.964334 309.092256 
L 152.608962 310.435656 
L 155.25359 311.709854 
L 157.898218 312.916026 
L 160.542846 314.055294 
L 163.187474 315.128734 
L 165.832102 316.137368 
L 168.47673 317.08217 
L 171.121358 317.964062 
L 173.765987 318.783915 
L 176.410615 319.542548 
L 179.055243 320.24073 
L 181.699871 320.879176 
L 184.344499 321.458552 
L 186.989127 321.979471 
L 189.633755 322.442493 
L 192.278383 322.848127 
L 194.923011 323.196832 
L 197.567639 323.489013 
L 200.212268 323.725023 
L 202.856896 323.905165 
L 205.501524 324.029691 
L 208.146152 324.0988 
L 210.79078 324.11264 
L 213.435408 324.07131 
L 216.080036 323.974856 
L 218.724664 323.823277 
L 221.369292 323.616518 
L 224.01392 323.354478 
L 226.658549 323.037004 
L 229.303177 322.663896 
L 231.947805 322.234905 
L 234.592433 321.749733 
L 237.237061 321.208035 
L 239.881689 320.609421 
L 242.526317 319.964055 
L 245.170945 319.271549 
L 247.815573 318.531486 
L 250.460201 317.743417 
L 253.10483 316.906867 
L 255.749458 316.021329 
L 258.394086 315.086268 
L 261.038714 314.101124 
L 263.683342 313.065305 
L 266.32797 311.978195 
L 268.972598 310.839151 
L 271.617226 309.647504 
L 274.261854 308.402558 
L 276.906482 307.103595 
L 279.551111 305.749869 
L 282.195739 304.340613 
L 284.840367 302.875036 
L 287.484995 301.352325 
L 290.129623 299.771644 
L 292.774251 298.132135 
L 295.418879 296.432922 
L 298.063507 294.673107 
L 300.708135 292.851772 
L 303.352763 290.967982 
L 305.997392 289.020785 
L 308.64202 287.009207 
L 311.286648 284.932264 
L 313.931276 282.788951 
L 316.575904 280.578251 
L 319.220532 278.299132 
L 321.86516 275.950547 
L 324.509788 273.53144 
L 327.154416 271.04074 
L 329.799044 268.477366 
L 332.443673 265.840227 
L 335.088301 263.128223 
L 337.732929 260.340247 
L 340.377557 257.47518 
L 343.022185 254.531903 
L 345.666813 251.509285 
L 348.311441 248.406194 
L 350.956069 245.221494 
L 353.600697 241.954044 
L 356.245325 238.602704 
L 358.889954 235.16633 
L 361.534582 231.643782 
L 364.17921 228.033917 
L 366.823838 224.335597 
L 369.468466 220.547686 
" clip-path="url(#p11f074041e)" style="fill: none; stroke-dasharray: 11.1,4.8; stroke-dashoffset: 0; stroke: #000000; stroke-width: 3"/>
   </g>
   <g id="line2d_11">
    <path d="M 107.650284 299.343607 
L 110.294912 300.310981 
L 112.93954 302.475841 
L 115.584168 304.752607 
L 118.228796 306.619507 
L 120.873425 308.178107 
L 123.518053 309.554166 
L 126.162681 310.832766 
L 128.807309 312.086038 
L 131.451937 313.379289 
L 134.096565 314.768597 
L 136.741193 316.283123 
L 139.385821 317.784325 
L 142.030449 319.069307 
L 144.675077 320.051767 
L 147.319706 320.83925 
L 149.964334 321.553254 
L 152.608962 322.279958 
L 155.25359 323.087949 
L 157.898218 323.99444 
L 160.542846 324.911665 
L 163.187474 325.743986 
L 165.832102 326.448578 
L 168.47673 327.014488 
L 171.121358 327.457779 
L 173.765987 327.86209 
L 176.410615 328.314184 
L 179.055243 328.795723 
L 181.699871 329.210691 
L 184.344499 329.497842 
L 186.989127 329.712279 
L 189.633755 329.9286 
L 192.278383 330.152154 
L 194.923011 330.325655 
L 197.567639 330.405177 
L 200.212268 330.409275 
L 202.856896 330.371109 
L 205.501524 330.295842 
L 208.146152 330.157678 
L 210.79078 329.934856 
L 213.435408 329.63403 
L 216.080036 329.271383 
L 218.724664 328.888375 
L 221.369292 328.560653 
L 224.01392 328.3581 
L 226.658549 328.298278 
L 229.303177 328.378045 
L 231.947805 328.584751 
L 234.592433 328.890047 
L 237.237061 329.257553 
L 239.881689 329.597401 
L 242.526317 329.793891 
L 245.170945 329.773799 
L 247.815573 329.551244 
L 250.460201 329.154254 
L 253.10483 328.64496 
L 255.749458 328.106013 
L 258.394086 327.611468 
L 261.038714 327.212811 
L 263.683342 326.950999 
L 266.32797 326.768421 
L 268.972598 326.534619 
L 271.617226 326.15428 
L 274.261854 325.649273 
L 276.906482 325.063207 
L 279.551111 324.410652 
L 282.195739 323.679913 
L 284.840367 322.869141 
L 287.484995 322.019657 
L 290.129623 321.181104 
L 292.774251 320.334534 
L 295.418879 319.38517 
L 298.063507 318.256463 
L 300.708135 316.983563 
L 303.352763 315.635579 
L 305.997392 314.231676 
L 308.64202 312.72344 
L 311.286648 311.063589 
L 313.931276 309.242696 
L 316.575904 307.266017 
L 319.220532 305.123853 
L 321.86516 302.781618 
L 324.509788 300.211323 
L 327.154416 297.458034 
L 329.799044 294.602149 
L 332.443673 291.674238 
L 335.088301 288.602333 
L 337.732929 285.315537 
L 340.377557 281.887492 
L 343.022185 278.478765 
L 345.666813 275.195542 
L 348.311441 272.002702 
L 350.956069 268.849433 
L 353.600697 265.775558 
L 356.245325 262.887846 
L 358.889954 260.135826 
L 361.534582 256.96404 
L 364.17921 252.795831 
L 366.823838 248.580276 
L 369.468466 246.646465 
" clip-path="url(#p11f074041e)" style="fill: none; stroke-dasharray: 11.1,4.8; stroke-dashoffset: 0; stroke: #008000; stroke-width: 3"/>
   </g>
   <g id="line2d_12">
    <path d="M 107.650284 143.916301 
L 110.294912 147.987767 
L 112.93954 151.95231 
L 115.584168 155.810217 
L 118.228796 159.561792 
L 120.873425 163.207352 
L 123.518053 166.74723 
L 126.162681 170.181769 
L 128.807309 173.511322 
L 131.451937 176.736253 
L 134.096565 179.856934 
L 136.741193 182.873742 
L 139.385821 185.787062 
L 142.030449 188.597282 
L 144.675077 191.304794 
L 147.319706 193.909991 
L 149.964334 196.413271 
L 152.608962 198.815029 
L 155.25359 201.115661 
L 157.898218 203.315561 
L 160.542846 205.415123 
L 163.187474 207.414735 
L 165.832102 209.314784 
L 168.47673 211.115651 
L 171.121358 212.817712 
L 173.765987 214.421338 
L 176.410615 215.926893 
L 179.055243 217.334736 
L 181.699871 218.645217 
L 184.344499 219.858677 
L 186.989127 220.975451 
L 189.633755 221.995865 
L 192.278383 222.920234 
L 194.923011 223.748867 
L 197.567639 224.482059 
L 200.212268 225.120099 
L 202.856896 225.663264 
L 205.501524 226.11182 
L 208.146152 226.466024 
L 210.79078 226.726122 
L 213.435408 226.892348 
L 216.080036 226.964926 
L 218.724664 226.944071 
L 221.369292 226.829984 
L 224.01392 226.622857 
L 226.658549 226.322872 
L 229.303177 225.9302 
L 231.947805 225.445001 
L 234.592433 224.867424 
L 237.237061 224.197611 
L 239.881689 223.435692 
L 242.526317 222.598794 
L 245.170945 221.687009 
L 247.815573 220.700424 
L 250.460201 219.639121 
L 253.10483 218.503175 
L 255.749458 217.292657 
L 258.394086 216.007634 
L 261.038714 214.648167 
L 263.683342 213.214313 
L 266.32797 211.706127 
L 268.972598 210.12366 
L 271.617226 208.466957 
L 274.261854 206.736064 
L 276.906482 204.931024 
L 279.551111 203.051876 
L 282.195739 201.098661 
L 284.840367 199.071416 
L 287.484995 196.970179 
L 290.129623 194.794987 
L 292.774251 192.54588 
L 295.418879 190.222895 
L 298.063507 187.826075 
L 300.708135 185.355462 
L 303.352763 182.811101 
L 305.997392 180.193041 
L 308.64202 177.501334 
L 311.286648 174.736038 
L 313.931276 171.897214 
L 316.575904 168.98493 
L 319.220532 165.999259 
L 321.86516 162.940282 
L 324.509788 159.808088 
L 327.154416 156.602773 
L 329.799044 153.324442 
L 332.443673 149.973211 
L 335.088301 146.549205 
L 337.732929 143.052561 
L 340.377557 139.483427 
L 343.022185 135.841965 
L 345.666813 132.128349 
L 348.311441 128.342768 
L 350.956069 124.485426 
L 353.600697 120.556542 
L 356.245325 116.556354 
L 358.889954 112.485113 
L 361.534582 108.343094 
L 364.17921 104.130585 
L 366.823838 99.8479 
L 369.468466 95.49537 
" clip-path="url(#p11f074041e)" style="fill: none; stroke-dasharray: 19.2,4.8,3,4.8; stroke-dashoffset: 0; stroke: #000000; stroke-width: 3"/>
   </g>
   <g id="line2d_13">
    <path d="M 107.650284 127.205403 
L 110.294912 129.124177 
L 112.93954 133.453082 
L 115.584168 138.096772 
L 118.228796 142.230608 
L 120.873425 146.43482 
L 123.518053 151.196771 
L 126.162681 156.168959 
L 128.807309 160.750151 
L 131.451937 164.714734 
L 134.096565 168.34535 
L 136.741193 171.928242 
L 139.385821 175.542221 
L 142.030449 179.183976 
L 144.675077 182.810642 
L 147.319706 186.314006 
L 149.964334 189.596395 
L 152.608962 192.696563 
L 155.25359 195.719768 
L 157.898218 198.755834 
L 160.542846 201.862046 
L 163.187474 205.083157 
L 165.832102 208.373256 
L 168.47673 211.631771 
L 171.121358 214.735278 
L 173.765987 217.504164 
L 176.410615 219.764723 
L 179.055243 221.550435 
L 181.699871 223.047928 
L 184.344499 224.424222 
L 186.989127 225.772565 
L 189.633755 227.165276 
L 192.278383 228.552867 
L 194.923011 229.775683 
L 197.567639 230.693609 
L 200.212268 231.260584 
L 202.856896 231.455229 
L 205.501524 231.288628 
L 208.146152 230.807756 
L 210.79078 230.084876 
L 213.435408 229.310385 
L 216.080036 228.709026 
L 218.724664 228.385941 
L 221.369292 228.284459 
L 224.01392 228.348112 
L 226.658549 228.595066 
L 229.303177 229.071908 
L 231.947805 229.757156 
L 234.592433 230.516198 
L 237.237061 231.206902 
L 239.881689 231.712819 
L 242.526317 231.930333 
L 245.170945 231.799839 
L 247.815573 231.351677 
L 250.460201 230.634698 
L 253.10483 229.777279 
L 255.749458 228.95538 
L 258.394086 228.215131 
L 261.038714 227.270873 
L 263.683342 225.807047 
L 266.32797 223.818745 
L 268.972598 221.530692 
L 271.617226 219.139225 
L 274.261854 216.733303 
L 276.906482 214.367991 
L 279.551111 211.854954 
L 282.195739 208.785701 
L 284.840367 204.882954 
L 287.484995 200.426024 
L 290.129623 195.825498 
L 292.774251 191.273508 
L 295.418879 186.720673 
L 298.063507 182.095537 
L 300.708135 177.278384 
L 303.352763 172.1365 
L 305.997392 166.630065 
L 308.64202 160.844939 
L 311.286648 154.878379 
L 313.931276 148.843464 
L 316.575904 142.859245 
L 319.220532 137.026664 
L 321.86516 131.416569 
L 324.509788 126.100397 
L 327.154416 121.177584 
L 329.799044 116.760795 
L 332.443673 112.898106 
L 335.088301 109.505132 
L 337.732929 106.483005 
L 340.377557 103.751257 
L 343.022185 101.240535 
L 345.666813 98.894777 
L 348.311441 96.691328 
L 350.956069 94.616916 
L 353.600697 92.716781 
L 356.245325 91.079384 
L 358.889954 89.717236 
L 361.534582 88.39809 
L 364.17921 86.868363 
L 366.823838 85.400098 
L 369.468466 84.740765 
" clip-path="url(#p11f074041e)" style="fill: none; stroke-dasharray: 19.2,4.8,3,4.8; stroke-dashoffset: 0; stroke: #008000; stroke-width: 3"/>
   </g>
   <g id="line2d_14">
    <path d="M 107.650284 58.737983 
L 110.294912 62.349525 
L 112.93954 65.890044 
L 115.584168 69.3583 
L 118.228796 72.75311 
L 120.873425 76.073348 
L 123.518053 79.317941 
L 126.162681 82.48587 
L 128.807309 85.576166 
L 131.451937 88.587912 
L 134.096565 91.520237 
L 136.741193 94.372317 
L 139.385821 97.143374 
L 142.030449 99.832672 
L 144.675077 102.439522 
L 147.319706 104.96327 
L 149.964334 107.403308 
L 152.608962 109.759062 
L 155.25359 112.029999 
L 157.898218 114.215621 
L 160.542846 116.315466 
L 163.187474 118.329105 
L 165.832102 120.256144 
L 168.47673 122.096222 
L 171.121358 123.849006 
L 173.765987 125.514197 
L 176.410615 127.091525 
L 179.055243 128.580749 
L 181.699871 129.981655 
L 184.344499 131.294057 
L 186.989127 132.517796 
L 189.633755 133.65274 
L 192.278383 134.698781 
L 194.923011 135.655837 
L 197.567639 136.523849 
L 200.212268 137.302784 
L 202.856896 137.99263 
L 205.501524 138.5934 
L 208.146152 139.105128 
L 210.79078 139.527872 
L 213.435408 139.861711 
L 216.080036 140.106744 
L 218.724664 140.263094 
L 221.369292 140.330904 
L 224.01392 140.310338 
L 226.658549 140.20158 
L 229.303177 140.004838 
L 231.947805 139.720336 
L 234.592433 139.348322 
L 237.237061 138.889063 
L 239.881689 138.342848 
L 242.526317 137.726003 
L 245.170945 137.038795 
L 247.815573 136.281503 
L 250.460201 135.45442 
L 253.10483 134.557853 
L 255.749458 133.592125 
L 258.394086 132.557571 
L 261.038714 131.454542 
L 263.683342 130.283404 
L 266.32797 129.044535 
L 268.972598 127.738332 
L 271.617226 126.365205 
L 274.261854 124.925581 
L 276.906482 123.419901 
L 279.551111 121.848624 
L 282.195739 120.212224 
L 284.840367 118.511193 
L 287.484995 116.746039 
L 290.129623 114.917288 
L 292.774251 113.025484 
L 295.418879 111.071189 
L 298.063507 109.054982 
L 300.708135 106.977464 
L 303.352763 104.839252 
L 305.997392 102.640986 
L 308.64202 100.383324 
L 311.286648 98.066945 
L 313.931276 95.69255 
L 316.575904 93.260861 
L 319.220532 90.772622 
L 321.86516 88.228601 
L 324.509788 85.629589 
L 327.154416 82.976398 
L 329.799044 80.269868 
L 332.443673 77.510862 
L 335.088301 74.700268 
L 337.732929 71.839003 
L 340.377557 68.928007 
L 343.022185 65.96825 
L 345.666813 62.960729 
L 348.311441 59.906469 
L 350.956069 56.806526 
L 353.600697 53.661985 
L 356.245325 50.473961 
L 358.889954 47.243602 
L 361.534582 43.972086 
L 364.17921 40.660627 
L 366.823838 37.310469 
L 369.468466 33.922893 
" clip-path="url(#p11f074041e)" style="fill: none; stroke-dasharray: 3,4.95; stroke-dashoffset: 0; stroke: #000000; stroke-width: 3"/>
   </g>
   <g id="line2d_15">
    <path d="M 107.650284 82.310675 
L 110.294912 83.180014 
L 112.93954 85.103108 
L 115.584168 87.073911 
L 118.228796 88.678724 
L 120.873425 90.158738 
L 123.518053 91.736235 
L 126.162681 93.36727 
L 128.807309 94.925646 
L 131.451937 96.347808 
L 134.096565 97.654982 
L 136.741193 98.877913 
L 139.385821 100.069665 
L 142.030449 101.291841 
L 144.675077 102.588342 
L 147.319706 103.973642 
L 149.964334 105.4594 
L 152.608962 107.056966 
L 155.25359 108.777354 
L 157.898218 110.604259 
L 160.542846 112.465438 
L 163.187474 114.29114 
L 165.832102 116.110712 
L 168.47673 118.013166 
L 171.121358 120.079628 
L 173.765987 122.369091 
L 176.410615 124.923505 
L 179.055243 127.593587 
L 181.699871 130.088722 
L 184.344499 132.201851 
L 186.989127 134.002171 
L 189.633755 135.608851 
L 192.278383 137.048113 
L 194.923011 138.262107 
L 197.567639 139.190823 
L 200.212268 139.777732 
L 202.856896 139.971431 
L 205.501524 139.838631 
L 208.146152 139.576629 
L 210.79078 139.356567 
L 213.435408 139.183624 
L 216.080036 139.012165 
L 218.724664 138.855088 
L 221.369292 138.804499 
L 224.01392 138.949855 
L 226.658549 139.327768 
L 229.303177 139.953165 
L 231.947805 140.775524 
L 234.592433 141.635733 
L 237.237061 142.376281 
L 239.881689 142.936328 
L 242.526317 143.30223 
L 245.170945 143.459248 
L 247.815573 143.389732 
L 250.460201 143.074128 
L 253.10483 142.476402 
L 255.749458 141.550688 
L 258.394086 140.28739 
L 261.038714 138.769483 
L 263.683342 137.083548 
L 266.32797 135.162729 
L 268.972598 132.826776 
L 271.617226 129.970099 
L 274.261854 126.732973 
L 276.906482 123.306263 
L 279.551111 119.916154 
L 282.195739 116.820774 
L 284.840367 114.20797 
L 287.484995 111.979843 
L 290.129623 109.968342 
L 292.774251 108.041075 
L 295.418879 106.105074 
L 298.063507 104.090133 
L 300.708135 102.030535 
L 303.352763 99.992293 
L 305.997392 97.993156 
L 308.64202 95.985568 
L 311.286648 93.924251 
L 313.931276 91.808072 
L 316.575904 89.653266 
L 319.220532 87.476428 
L 321.86516 85.294691 
L 324.509788 83.125292 
L 327.154416 80.985942 
L 329.799044 78.894576 
L 332.443673 76.868484 
L 335.088301 74.923631 
L 337.732929 73.075076 
L 340.377557 71.329982 
L 343.022185 69.690748 
L 345.666813 68.154003 
L 348.311441 66.701887 
L 350.956069 65.316776 
L 353.600697 64.016327 
L 356.245325 62.844267 
L 358.889954 61.811055 
L 361.534582 60.819424 
L 364.17921 59.765081 
L 366.823838 58.820797 
L 369.468466 58.409945 
" clip-path="url(#p11f074041e)" style="fill: none; stroke-dasharray: 3,4.95; stroke-dashoffset: 0; stroke: #008000; stroke-width: 3"/>
   </g>
   <g id="line2d_16">
    <path d="M 107.650284 33.883235 
L 110.294912 34.409572 
L 112.93954 34.973347 
L 115.584168 35.570927 
L 118.228796 36.198793 
L 120.873425 36.853538 
L 123.518053 37.531864 
L 126.162681 38.230579 
L 128.807309 38.946598 
L 131.451937 39.67694 
L 134.096565 40.418726 
L 136.741193 41.169175 
L 139.385821 41.925607 
L 142.030449 42.685437 
L 144.675077 43.446176 
L 147.319706 44.205428 
L 149.964334 44.960888 
L 152.608962 45.710343 
L 155.25359 46.451668 
L 157.898218 47.182826 
L 160.542846 47.901864 
L 163.187474 48.606916 
L 165.832102 49.296199 
L 168.47673 49.96801 
L 171.121358 50.62073 
L 173.765987 51.252817 
L 176.410615 51.862808 
L 179.055243 52.44932 
L 181.699871 53.011041 
L 184.344499 53.54674 
L 186.989127 54.055256 
L 189.633755 54.535503 
L 192.278383 54.986468 
L 194.923011 55.407207 
L 197.567639 55.79685 
L 200.212268 56.154594 
L 202.856896 56.479706 
L 205.501524 56.771522 
L 208.146152 57.029445 
L 210.79078 57.252945 
L 213.435408 57.441557 
L 216.080036 57.594883 
L 218.724664 57.712592 
L 221.369292 57.794414 
L 224.01392 57.840146 
L 226.658549 57.849646 
L 229.303177 57.822838 
L 231.947805 57.759708 
L 234.592433 57.660303 
L 237.237061 57.524736 
L 239.881689 57.353177 
L 242.526317 57.152472 
L 245.170945 56.922853 
L 247.815573 56.664593 
L 250.460201 56.378004 
L 253.10483 56.063441 
L 255.749458 55.721297 
L 258.394086 55.352009 
L 261.038714 54.95605 
L 263.683342 54.533937 
L 266.32797 54.086225 
L 268.972598 53.613511 
L 271.617226 53.116432 
L 274.261854 52.595665 
L 276.906482 52.051929 
L 279.551111 51.485981 
L 282.195739 50.898621 
L 284.840367 50.290688 
L 287.484995 49.663066 
L 290.129623 49.016674 
L 292.774251 48.352478 
L 295.418879 47.671482 
L 298.063507 46.974733 
L 300.708135 46.263319 
L 303.352763 45.538371 
L 305.997392 44.801063 
L 308.64202 44.05261 
L 311.286648 43.29427 
L 313.931276 42.527345 
L 316.575904 41.75318 
L 319.220532 40.973164 
L 321.86516 40.18873 
L 324.509788 39.401356 
L 327.154416 38.612563 
L 329.799044 37.823919 
L 332.443673 37.037037 
L 335.088301 36.253576 
L 337.732929 35.47524 
L 340.377557 34.703781 
L 343.022185 33.940999 
L 345.666813 33.188741 
L 348.311441 32.4489 
L 350.956069 31.723422 
L 353.600697 31.014297 
L 356.245325 30.323569 
L 358.889954 29.653328 
L 361.534582 29.005719 
L 364.17921 28.382935 
L 366.823838 27.787222 
L 369.468466 27.220877 
" clip-path="url(#p11f074041e)" style="fill: none; stroke-dasharray: 9,15,3,15,3,15; stroke-dashoffset: 0; stroke: #000000; stroke-width: 3"/>
   </g>
   <g id="line2d_17">
    <path d="M 107.650284 30.201663 
L 110.294912 30.833854 
L 112.93954 32.213011 
L 115.584168 33.579425 
L 118.228796 34.628953 
L 120.873425 35.561126 
L 123.518053 36.564647 
L 126.162681 37.642207 
L 128.807309 38.738613 
L 131.451937 39.824678 
L 134.096565 40.906422 
L 136.741193 41.99029 
L 139.385821 43.069469 
L 142.030449 44.131966 
L 144.675077 45.168433 
L 147.319706 46.173931 
L 149.964334 47.145317 
L 152.608962 48.090714 
L 155.25359 49.023762 
L 157.898218 49.960158 
L 160.542846 50.919744 
L 163.187474 51.920547 
L 165.832102 52.955958 
L 168.47673 54.004532 
L 171.121358 55.045627 
L 173.765987 56.061154 
L 176.410615 57.033986 
L 179.055243 57.954919 
L 181.699871 58.820603 
L 184.344499 59.625135 
L 186.989127 60.35407 
L 189.633755 60.991837 
L 192.278383 61.533885 
L 194.923011 61.985637 
L 197.567639 62.355042 
L 200.212268 62.658728 
L 202.856896 62.915145 
L 205.501524 63.133192 
L 208.146152 63.3112 
L 210.79078 63.44921 
L 213.435408 63.558638 
L 216.080036 63.654568 
L 218.724664 63.755963 
L 221.369292 63.887036 
L 224.01392 64.069087 
L 226.658549 64.302471 
L 229.303177 64.579362 
L 231.947805 64.89638 
L 234.592433 65.257565 
L 237.237061 65.666472 
L 239.881689 66.117007 
L 242.526317 66.598291 
L 245.170945 67.088584 
L 247.815573 67.543981 
L 250.460201 67.919843 
L 253.10483 68.192577 
L 255.749458 68.351268 
L 258.394086 68.384737 
L 261.038714 68.280703 
L 263.683342 68.026456 
L 266.32797 67.605664 
L 268.972598 66.999323 
L 271.617226 66.202092 
L 274.261854 65.252267 
L 276.906482 64.196251 
L 279.551111 63.069822 
L 282.195739 61.899151 
L 284.840367 60.705033 
L 287.484995 59.488148 
L 290.129623 58.244113 
L 292.774251 56.967582 
L 295.418879 55.65214 
L 298.063507 54.295807 
L 300.708135 52.919241 
L 303.352763 51.549888 
L 305.997392 50.201081 
L 308.64202 48.867058 
L 311.286648 47.540294 
L 313.931276 46.210663 
L 316.575904 44.867216 
L 319.220532 43.513641 
L 321.86516 42.177928 
L 324.509788 40.88672 
L 327.154416 39.636924 
L 329.799044 38.410944 
L 332.443673 37.192767 
L 335.088301 35.969834 
L 337.732929 34.732589 
L 340.377557 33.498857 
L 343.022185 32.30293 
L 345.666813 31.167895 
L 348.311441 30.087772 
L 350.956069 29.053398 
L 353.600697 28.074869 
L 356.245325 27.176506 
L 358.889954 26.360058 
L 361.534582 25.554425 
L 364.17921 24.685675 
L 366.823838 23.904269 
L 369.468466 23.563636 
" clip-path="url(#p11f074041e)" style="fill: none; stroke-dasharray: 9,15,3,15,3,15; stroke-dashoffset: 0; stroke: #008000; stroke-width: 3"/>
   </g>
   <g id="patch_3">
    <path d="M 94.559375 367.2 
L 94.559375 7.2 
" style="fill: none; stroke: #000000; stroke-width: 2; stroke-linejoin: miter; stroke-linecap: square"/>
   </g>
   <g id="patch_4">
    <path d="M 382.559375 367.2 
L 382.559375 7.2 
" style="fill: none; stroke: #000000; stroke-width: 2; stroke-linejoin: miter; stroke-linecap: square"/>
   </g>
   <g id="patch_5">
    <path d="M 94.559375 367.2 
L 382.559375 367.2 
" style="fill: none; stroke: #000000; stroke-width: 2; stroke-linejoin: miter; stroke-linecap: square"/>
   </g>
   <g id="patch_6">
    <path d="M 94.559375 7.2 
L 382.559375 7.2 
" style="fill: none; stroke: #000000; stroke-width: 2; stroke-linejoin: miter; stroke-linecap: square"/>
   </g>
   <g id="legend_1">
    <g id="patch_7">
     <path d="M 402.059375 302.7 
L 626.532031 302.7 
Q 631.532031 302.7 631.532031 297.7 
L 631.532031 116.723437 
Q 631.532031 111.723437 626.532031 111.723437 
L 402.059375 111.723437 
Q 397.059375 111.723437 397.059375 116.723437 
L 397.059375 297.7 
Q 397.059375 302.7 402.059375 302.7 
z
" style="fill: #4c4c4c; opacity: 0.5; stroke: #4c4c4c; stroke-linejoin: miter"/>
    </g>
    <g id="patch_8">
     <path d="M 400.059375 300.7 
L 624.532031 300.7 
Q 629.532031 300.7 629.532031 295.7 
L 629.532031 114.723437 
Q 629.532031 109.723437 624.532031 109.723437 
L 400.059375 109.723437 
Q 395.059375 109.723437 395.059375 114.723437 
L 395.059375 295.7 
Q 395.059375 300.7 400.059375 300.7 
z
" style="fill: #ffffff; stroke: #cccccc; stroke-linejoin: miter"/>
    </g>
    <g id="line2d_18">
     <path d="M 405.059375 129.969531 
L 430.059375 129.969531 
L 455.059375 129.969531 
" style="fill: none; stroke: #008000; stroke-width: 3; stroke-linecap: square"/>
    </g>
    <g id="text_10">
     <!-- t=127 sec -->
     <g transform="translate(475.059375 138.719531)scale(0.25 -0.25)">
      <defs>
       <path id="DejaVuSans-3d" d="M 678 2906 
L 4684 2906 
L 4684 2381 
L 678 2381 
L 678 2906 
z
M 678 1631 
L 4684 1631 
L 4684 1100 
L 678 1100 
L 678 1631 
z
" transform="scale(0.015625)"/>
       <path id="DejaVuSans-37" d="M 525 4666 
L 3525 4666 
L 3525 4397 
L 1831 0 
L 1172 0 
L 2766 4134 
L 525 4134 
L 525 4666 
z
" transform="scale(0.015625)"/>
      </defs>
      <use xlink:href="#DejaVuSans-74"/>
      <use xlink:href="#DejaVuSans-3d" x="39.208984"/>
      <use xlink:href="#DejaVuSans-31" x="122.998047"/>
      <use xlink:href="#DejaVuSans-32" x="186.621094"/>
      <use xlink:href="#DejaVuSans-37" x="250.244141"/>
      <use xlink:href="#DejaVuSans-20" x="313.867188"/>
      <use xlink:href="#DejaVuSans-73" x="345.654297"/>
      <use xlink:href="#DejaVuSans-65" x="397.753906"/>
      <use xlink:href="#DejaVuSans-63" x="459.277344"/>
     </g>
    </g>
    <g id="line2d_19">
     <path d="M 405.059375 166.664844 
L 430.059375 166.664844 
L 455.059375 166.664844 
" style="fill: none; stroke-dasharray: 11.1,4.8; stroke-dashoffset: 0; stroke: #008000; stroke-width: 3"/>
    </g>
    <g id="text_11">
     <!-- t=487 sec -->
     <g transform="translate(475.059375 175.414844)scale(0.25 -0.25)">
      <defs>
       <path id="DejaVuSans-38" d="M 2034 2216 
Q 1584 2216 1326 1975 
Q 1069 1734 1069 1313 
Q 1069 891 1326 650 
Q 1584 409 2034 409 
Q 2484 409 2743 651 
Q 3003 894 3003 1313 
Q 3003 1734 2745 1975 
Q 2488 2216 2034 2216 
z
M 1403 2484 
Q 997 2584 770 2862 
Q 544 3141 544 3541 
Q 544 4100 942 4425 
Q 1341 4750 2034 4750 
Q 2731 4750 3128 4425 
Q 3525 4100 3525 3541 
Q 3525 3141 3298 2862 
Q 3072 2584 2669 2484 
Q 3125 2378 3379 2068 
Q 3634 1759 3634 1313 
Q 3634 634 3220 271 
Q 2806 -91 2034 -91 
Q 1263 -91 848 271 
Q 434 634 434 1313 
Q 434 1759 690 2068 
Q 947 2378 1403 2484 
z
M 1172 3481 
Q 1172 3119 1398 2916 
Q 1625 2713 2034 2713 
Q 2441 2713 2670 2916 
Q 2900 3119 2900 3481 
Q 2900 3844 2670 4047 
Q 2441 4250 2034 4250 
Q 1625 4250 1398 4047 
Q 1172 3844 1172 3481 
z
" transform="scale(0.015625)"/>
      </defs>
      <use xlink:href="#DejaVuSans-74"/>
      <use xlink:href="#DejaVuSans-3d" x="39.208984"/>
      <use xlink:href="#DejaVuSans-34" x="122.998047"/>
      <use xlink:href="#DejaVuSans-38" x="186.621094"/>
      <use xlink:href="#DejaVuSans-37" x="250.244141"/>
      <use xlink:href="#DejaVuSans-20" x="313.867188"/>
      <use xlink:href="#DejaVuSans-73" x="345.654297"/>
      <use xlink:href="#DejaVuSans-65" x="397.753906"/>
      <use xlink:href="#DejaVuSans-63" x="459.277344"/>
     </g>
    </g>
    <g id="line2d_20">
     <path d="M 405.059375 203.360156 
L 430.059375 203.360156 
L 455.059375 203.360156 
" style="fill: none; stroke-dasharray: 19.2,4.8,3,4.8; stroke-dashoffset: 0; stroke: #008000; stroke-width: 3"/>
    </g>
    <g id="text_12">
     <!-- t=967 sec -->
     <g transform="translate(475.059375 212.110156)scale(0.25 -0.25)">
      <defs>
       <path id="DejaVuSans-39" d="M 703 97 
L 703 672 
Q 941 559 1184 500 
Q 1428 441 1663 441 
Q 2288 441 2617 861 
Q 2947 1281 2994 2138 
Q 2813 1869 2534 1725 
Q 2256 1581 1919 1581 
Q 1219 1581 811 2004 
Q 403 2428 403 3163 
Q 403 3881 828 4315 
Q 1253 4750 1959 4750 
Q 2769 4750 3195 4129 
Q 3622 3509 3622 2328 
Q 3622 1225 3098 567 
Q 2575 -91 1691 -91 
Q 1453 -91 1209 -44 
Q 966 3 703 97 
z
M 1959 2075 
Q 2384 2075 2632 2365 
Q 2881 2656 2881 3163 
Q 2881 3666 2632 3958 
Q 2384 4250 1959 4250 
Q 1534 4250 1286 3958 
Q 1038 3666 1038 3163 
Q 1038 2656 1286 2365 
Q 1534 2075 1959 2075 
z
" transform="scale(0.015625)"/>
      </defs>
      <use xlink:href="#DejaVuSans-74"/>
      <use xlink:href="#DejaVuSans-3d" x="39.208984"/>
      <use xlink:href="#DejaVuSans-39" x="122.998047"/>
      <use xlink:href="#DejaVuSans-36" x="186.621094"/>
      <use xlink:href="#DejaVuSans-37" x="250.244141"/>
      <use xlink:href="#DejaVuSans-20" x="313.867188"/>
      <use xlink:href="#DejaVuSans-73" x="345.654297"/>
      <use xlink:href="#DejaVuSans-65" x="397.753906"/>
      <use xlink:href="#DejaVuSans-63" x="459.277344"/>
     </g>
    </g>
    <g id="line2d_21">
     <path d="M 405.059375 240.055469 
L 430.059375 240.055469 
L 455.059375 240.055469 
" style="fill: none; stroke-dasharray: 3,4.95; stroke-dashoffset: 0; stroke: #008000; stroke-width: 3"/>
    </g>
    <g id="text_13">
     <!-- t=1327 sec -->
     <g transform="translate(475.059375 248.805469)scale(0.25 -0.25)">
      <defs>
       <path id="DejaVuSans-33" d="M 2597 2516 
Q 3050 2419 3304 2112 
Q 3559 1806 3559 1356 
Q 3559 666 3084 287 
Q 2609 -91 1734 -91 
Q 1441 -91 1130 -33 
Q 819 25 488 141 
L 488 750 
Q 750 597 1062 519 
Q 1375 441 1716 441 
Q 2309 441 2620 675 
Q 2931 909 2931 1356 
Q 2931 1769 2642 2001 
Q 2353 2234 1838 2234 
L 1294 2234 
L 1294 2753 
L 1863 2753 
Q 2328 2753 2575 2939 
Q 2822 3125 2822 3475 
Q 2822 3834 2567 4026 
Q 2313 4219 1838 4219 
Q 1578 4219 1281 4162 
Q 984 4106 628 3988 
L 628 4550 
Q 988 4650 1302 4700 
Q 1616 4750 1894 4750 
Q 2613 4750 3031 4423 
Q 3450 4097 3450 3541 
Q 3450 3153 3228 2886 
Q 3006 2619 2597 2516 
z
" transform="scale(0.015625)"/>
      </defs>
      <use xlink:href="#DejaVuSans-74"/>
      <use xlink:href="#DejaVuSans-3d" x="39.208984"/>
      <use xlink:href="#DejaVuSans-31" x="122.998047"/>
      <use xlink:href="#DejaVuSans-33" x="186.621094"/>
      <use xlink:href="#DejaVuSans-32" x="250.244141"/>
      <use xlink:href="#DejaVuSans-37" x="313.867188"/>
      <use xlink:href="#DejaVuSans-20" x="377.490234"/>
      <use xlink:href="#DejaVuSans-73" x="409.277344"/>
      <use xlink:href="#DejaVuSans-65" x="461.376953"/>
      <use xlink:href="#DejaVuSans-63" x="522.900391"/>
     </g>
    </g>
    <g id="line2d_22">
     <path d="M 405.059375 276.750781 
L 430.059375 276.750781 
L 455.059375 276.750781 
" style="fill: none; stroke-dasharray: 9,15,3,15,3,15; stroke-dashoffset: 0; stroke: #008000; stroke-width: 3"/>
    </g>
    <g id="text_14">
     <!-- t=1807 sec -->
     <g transform="translate(475.059375 285.500781)scale(0.25 -0.25)">
      <use xlink:href="#DejaVuSans-74"/>
      <use xlink:href="#DejaVuSans-3d" x="39.208984"/>
      <use xlink:href="#DejaVuSans-31" x="122.998047"/>
      <use xlink:href="#DejaVuSans-38" x="186.621094"/>
      <use xlink:href="#DejaVuSans-30" x="250.244141"/>
      <use xlink:href="#DejaVuSans-37" x="313.867188"/>
      <use xlink:href="#DejaVuSans-20" x="377.490234"/>
      <use xlink:href="#DejaVuSans-73" x="409.277344"/>
      <use xlink:href="#DejaVuSans-65" x="461.376953"/>
      <use xlink:href="#DejaVuSans-63" x="522.900391"/>
     </g>
    </g>
   </g>
   <g id="legend_2">
    <g id="patch_9">
     <path d="M 402.059375 102.590625 
L 559.907031 102.590625 
Q 564.907031 102.590625 564.907031 97.590625 
L 564.907031 26.7 
Q 564.907031 21.7 559.907031 21.7 
L 402.059375 21.7 
Q 397.059375 21.7 397.059375 26.7 
L 397.059375 97.590625 
Q 397.059375 102.590625 402.059375 102.590625 
z
" style="fill: #4c4c4c; opacity: 0.5; stroke: #4c4c4c; stroke-linejoin: miter"/>
    </g>
    <g id="patch_10">
     <path d="M 400.059375 100.590625 
L 557.907031 100.590625 
Q 562.907031 100.590625 562.907031 95.590625 
L 562.907031 24.7 
Q 562.907031 19.7 557.907031 19.7 
L 400.059375 19.7 
Q 395.059375 19.7 395.059375 24.7 
L 395.059375 95.590625 
Q 395.059375 100.590625 400.059375 100.590625 
z
" style="fill: #ffffff; stroke: #cccccc; stroke-linejoin: miter"/>
    </g>
    <g id="line2d_23">
     <path d="M 405.059375 39.946094 
L 430.059375 39.946094 
L 455.059375 39.946094 
" style="fill: none; stroke: #000000; stroke-width: 3; stroke-linecap: square"/>
    </g>
    <g id="text_15">
     <!-- model -->
     <g transform="translate(475.059375 48.696094)scale(0.25 -0.25)">
      <defs>
       <path id="DejaVuSans-64" d="M 2906 2969 
L 2906 4863 
L 3481 4863 
L 3481 0 
L 2906 0 
L 2906 525 
Q 2725 213 2448 61 
Q 2172 -91 1784 -91 
Q 1150 -91 751 415 
Q 353 922 353 1747 
Q 353 2572 751 3078 
Q 1150 3584 1784 3584 
Q 2172 3584 2448 3432 
Q 2725 3281 2906 2969 
z
M 947 1747 
Q 947 1113 1208 752 
Q 1469 391 1925 391 
Q 2381 391 2643 752 
Q 2906 1113 2906 1747 
Q 2906 2381 2643 2742 
Q 2381 3103 1925 3103 
Q 1469 3103 1208 2742 
Q 947 2381 947 1747 
z
" transform="scale(0.015625)"/>
       <path id="DejaVuSans-6c" d="M 603 4863 
L 1178 4863 
L 1178 0 
L 603 0 
L 603 4863 
z
" transform="scale(0.015625)"/>
      </defs>
      <use xlink:href="#DejaVuSans-6d"/>
      <use xlink:href="#DejaVuSans-6f" x="97.412109"/>
      <use xlink:href="#DejaVuSans-64" x="158.59375"/>
      <use xlink:href="#DejaVuSans-65" x="222.070312"/>
      <use xlink:href="#DejaVuSans-6c" x="283.59375"/>
     </g>
    </g>
    <g id="line2d_24">
     <path d="M 405.059375 76.641406 
L 430.059375 76.641406 
L 455.059375 76.641406 
" style="fill: none; stroke: #008000; stroke-width: 3; stroke-linecap: square"/>
    </g>
    <g id="text_16">
     <!-- data -->
     <g transform="translate(475.059375 85.391406)scale(0.25 -0.25)">
      <use xlink:href="#DejaVuSans-64"/>
      <use xlink:href="#DejaVuSans-61" x="63.476562"/>
      <use xlink:href="#DejaVuSans-74" x="124.755859"/>
      <use xlink:href="#DejaVuSans-61" x="163.964844"/>
     </g>
    </g>
   </g>
  </g>
 </g>
 <defs>
  <clipPath id="p11f074041e">
   <rect x="94.559375" y="7.2" width="288" height="360"/>
  </clipPath>
 </defs>
</svg>
