<?xml version="1.0" encoding="utf-8" standalone="no"?>
<!DOCTYPE svg PUBLIC "-//W3C//DTD SVG 1.1//EN"
  "http://www.w3.org/Graphics/SVG/1.1/DTD/svg11.dtd">
<svg xmlns:xlink="http://www.w3.org/1999/xlink" width="636.732031pt" height="430.290625pt" viewBox="0 0 636.732031 430.290625" xmlns="http://www.w3.org/2000/svg" version="1.1">
 <metadata>
  <rdf:RDF xmlns:dc="http://purl.org/dc/elements/1.1/" xmlns:cc="http://creativecommons.org/ns#" xmlns:rdf="http://www.w3.org/1999/02/22-rdf-syntax-ns#">
   <cc:Work>
    <dc:type rdf:resource="http://purl.org/dc/dcmitype/StillImage"/>
    <dc:date>2024-06-03T09:48:30.496590</dc:date>
    <dc:format>image/svg+xml</dc:format>
    <dc:creator>
     <cc:Agent>
      <dc:title>Matplotlib v3.5.2, https://matplotlib.org/</dc:title>
     </cc:Agent>
    </dc:creator>
   </cc:Work>
  </rdf:RDF>
 </metadata>
 <defs>
  <style type="text/css">*{stroke-linejoin: round; stroke-linecap: butt}</style>
 </defs>
 <g id="figure_1">
  <g id="patch_1">
   <path d="M 0 430.290625 
L 636.732031 430.290625 
L 636.732031 0 
L 0 0 
z
" style="fill: #ffffff"/>
  </g>
  <g id="axes_1">
   <g id="patch_2">
    <path d="M 94.559375 367.2 
L 382.559375 367.2 
L 382.559375 7.2 
L 94.559375 7.2 
z
" style="fill: #ffffff"/>
   </g>
   <g id="matplotlib.axis_1">
    <g id="xtick_1">
     <g id="line2d_1">
      <defs>
       <path id="mc8eafae471" d="M 0 0 
L 0 -4 
" style="stroke: #000000; stroke-width: 3"/>
      </defs>
      <g>
       <use xlink:href="#mc8eafae471" x="106.32797" y="367.2" style="stroke: #000000; stroke-width: 3"/>
      </g>
     </g>
     <g id="text_1">
      <!-- 0 -->
      <g transform="translate(98.374845 389.696094)scale(0.25 -0.25)">
       <defs>
        <path id="DejaVuSans-30" d="M 2034 4250 
Q 1547 4250 1301 3770 
Q 1056 3291 1056 2328 
Q 1056 1369 1301 889 
Q 1547 409 2034 409 
Q 2525 409 2770 889 
Q 3016 1369 3016 2328 
Q 3016 3291 2770 3770 
Q 2525 4250 2034 4250 
z
M 2034 4750 
Q 2819 4750 3233 4129 
Q 3647 3509 3647 2328 
Q 3647 1150 3233 529 
Q 2819 -91 2034 -91 
Q 1250 -91 836 529 
Q 422 1150 422 2328 
Q 422 3509 836 4129 
Q 1250 4750 2034 4750 
z
" transform="scale(0.015625)"/>
       </defs>
       <use xlink:href="#DejaVuSans-30"/>
      </g>
     </g>
    </g>
    <g id="xtick_2">
     <g id="line2d_2">
      <g>
       <use xlink:href="#mc8eafae471" x="203.556944" y="367.2" style="stroke: #000000; stroke-width: 3"/>
      </g>
     </g>
     <g id="text_2">
      <!-- 10 -->
      <g transform="translate(187.650694 389.696094)scale(0.25 -0.25)">
       <defs>
        <path id="DejaVuSans-31" d="M 794 531 
L 1825 531 
L 1825 4091 
L 703 3866 
L 703 4441 
L 1819 4666 
L 2450 4666 
L 2450 531 
L 3481 531 
L 3481 0 
L 794 0 
L 794 531 
z
" transform="scale(0.015625)"/>
       </defs>
       <use xlink:href="#DejaVuSans-31"/>
       <use xlink:href="#DejaVuSans-30" x="63.623047"/>
      </g>
     </g>
    </g>
    <g id="xtick_3">
     <g id="line2d_3">
      <g>
       <use xlink:href="#mc8eafae471" x="300.785919" y="367.2" style="stroke: #000000; stroke-width: 3"/>
      </g>
     </g>
     <g id="text_3">
      <!-- 20 -->
      <g transform="translate(284.879669 389.696094)scale(0.25 -0.25)">
       <defs>
        <path id="DejaVuSans-32" d="M 1228 531 
L 3431 531 
L 3431 0 
L 469 0 
L 469 531 
Q 828 903 1448 1529 
Q 2069 2156 2228 2338 
Q 2531 2678 2651 2914 
Q 2772 3150 2772 3378 
Q 2772 3750 2511 3984 
Q 2250 4219 1831 4219 
Q 1534 4219 1204 4116 
Q 875 4013 500 3803 
L 500 4441 
Q 881 4594 1212 4672 
Q 1544 4750 1819 4750 
Q 2544 4750 2975 4387 
Q 3406 4025 3406 3419 
Q 3406 3131 3298 2873 
Q 3191 2616 2906 2266 
Q 2828 2175 2409 1742 
Q 1991 1309 1228 531 
z
" transform="scale(0.015625)"/>
       </defs>
       <use xlink:href="#DejaVuSans-32"/>
       <use xlink:href="#DejaVuSans-30" x="63.623047"/>
      </g>
     </g>
    </g>
    <g id="text_4">
     <!-- z-position [μm] -->
     <g transform="translate(144.121875 417.891406)scale(0.25 -0.25)">
      <defs>
       <path id="DejaVuSans-7a" d="M 353 3500 
L 3084 3500 
L 3084 2975 
L 922 459 
L 3084 459 
L 3084 0 
L 275 0 
L 275 525 
L 2438 3041 
L 353 3041 
L 353 3500 
z
" transform="scale(0.015625)"/>
       <path id="DejaVuSans-2d" d="M 313 2009 
L 1997 2009 
L 1997 1497 
L 313 1497 
L 313 2009 
z
" transform="scale(0.015625)"/>
       <path id="DejaVuSans-70" d="M 1159 525 
L 1159 -1331 
L 581 -1331 
L 581 3500 
L 1159 3500 
L 1159 2969 
Q 1341 3281 1617 3432 
Q 1894 3584 2278 3584 
Q 2916 3584 3314 3078 
Q 3713 2572 3713 1747 
Q 3713 922 3314 415 
Q 2916 -91 2278 -91 
Q 1894 -91 1617 61 
Q 1341 213 1159 525 
z
M 3116 1747 
Q 3116 2381 2855 2742 
Q 2594 3103 2138 3103 
Q 1681 3103 1420 2742 
Q 1159 2381 1159 1747 
Q 1159 1113 1420 752 
Q 1681 391 2138 391 
Q 2594 391 2855 752 
Q 3116 1113 3116 1747 
z
" transform="scale(0.015625)"/>
       <path id="DejaVuSans-6f" d="M 1959 3097 
Q 1497 3097 1228 2736 
Q 959 2375 959 1747 
Q 959 1119 1226 758 
Q 1494 397 1959 397 
Q 2419 397 2687 759 
Q 2956 1122 2956 1747 
Q 2956 2369 2687 2733 
Q 2419 3097 1959 3097 
z
M 1959 3584 
Q 2709 3584 3137 3096 
Q 3566 2609 3566 1747 
Q 3566 888 3137 398 
Q 2709 -91 1959 -91 
Q 1206 -91 779 398 
Q 353 888 353 1747 
Q 353 2609 779 3096 
Q 1206 3584 1959 3584 
z
" transform="scale(0.015625)"/>
       <path id="DejaVuSans-73" d="M 2834 3397 
L 2834 2853 
Q 2591 2978 2328 3040 
Q 2066 3103 1784 3103 
Q 1356 3103 1142 2972 
Q 928 2841 928 2578 
Q 928 2378 1081 2264 
Q 1234 2150 1697 2047 
L 1894 2003 
Q 2506 1872 2764 1633 
Q 3022 1394 3022 966 
Q 3022 478 2636 193 
Q 2250 -91 1575 -91 
Q 1294 -91 989 -36 
Q 684 19 347 128 
L 347 722 
Q 666 556 975 473 
Q 1284 391 1588 391 
Q 1994 391 2212 530 
Q 2431 669 2431 922 
Q 2431 1156 2273 1281 
Q 2116 1406 1581 1522 
L 1381 1569 
Q 847 1681 609 1914 
Q 372 2147 372 2553 
Q 372 3047 722 3315 
Q 1072 3584 1716 3584 
Q 2034 3584 2315 3537 
Q 2597 3491 2834 3397 
z
" transform="scale(0.015625)"/>
       <path id="DejaVuSans-69" d="M 603 3500 
L 1178 3500 
L 1178 0 
L 603 0 
L 603 3500 
z
M 603 4863 
L 1178 4863 
L 1178 4134 
L 603 4134 
L 603 4863 
z
" transform="scale(0.015625)"/>
       <path id="DejaVuSans-74" d="M 1172 4494 
L 1172 3500 
L 2356 3500 
L 2356 3053 
L 1172 3053 
L 1172 1153 
Q 1172 725 1289 603 
Q 1406 481 1766 481 
L 2356 481 
L 2356 0 
L 1766 0 
Q 1100 0 847 248 
Q 594 497 594 1153 
L 594 3053 
L 172 3053 
L 172 3500 
L 594 3500 
L 594 4494 
L 1172 4494 
z
" transform="scale(0.015625)"/>
       <path id="DejaVuSans-6e" d="M 3513 2113 
L 3513 0 
L 2938 0 
L 2938 2094 
Q 2938 2591 2744 2837 
Q 2550 3084 2163 3084 
Q 1697 3084 1428 2787 
Q 1159 2491 1159 1978 
L 1159 0 
L 581 0 
L 581 3500 
L 1159 3500 
L 1159 2956 
Q 1366 3272 1645 3428 
Q 1925 3584 2291 3584 
Q 2894 3584 3203 3211 
Q 3513 2838 3513 2113 
z
" transform="scale(0.015625)"/>
       <path id="DejaVuSans-20" transform="scale(0.015625)"/>
       <path id="DejaVuSans-5b" d="M 550 4863 
L 1875 4863 
L 1875 4416 
L 1125 4416 
L 1125 -397 
L 1875 -397 
L 1875 -844 
L 550 -844 
L 550 4863 
z
" transform="scale(0.015625)"/>
       <path id="DejaVuSans-3bc" d="M 544 -1331 
L 544 3500 
L 1119 3500 
L 1119 1325 
Q 1119 872 1334 640 
Q 1550 409 1972 409 
Q 2434 409 2667 671 
Q 2900 934 2900 1459 
L 2900 3500 
L 3475 3500 
L 3475 806 
Q 3475 619 3529 530 
Q 3584 441 3700 441 
Q 3728 441 3778 458 
Q 3828 475 3916 513 
L 3916 50 
Q 3788 -22 3673 -56 
Q 3559 -91 3450 -91 
Q 3234 -91 3106 31 
Q 2978 153 2931 403 
Q 2775 156 2548 32 
Q 2322 -91 2016 -91 
Q 1697 -91 1473 31 
Q 1250 153 1119 397 
L 1119 -1331 
L 544 -1331 
z
" transform="scale(0.015625)"/>
       <path id="DejaVuSans-6d" d="M 3328 2828 
Q 3544 3216 3844 3400 
Q 4144 3584 4550 3584 
Q 5097 3584 5394 3201 
Q 5691 2819 5691 2113 
L 5691 0 
L 5113 0 
L 5113 2094 
Q 5113 2597 4934 2840 
Q 4756 3084 4391 3084 
Q 3944 3084 3684 2787 
Q 3425 2491 3425 1978 
L 3425 0 
L 2847 0 
L 2847 2094 
Q 2847 2600 2669 2842 
Q 2491 3084 2119 3084 
Q 1678 3084 1418 2786 
Q 1159 2488 1159 1978 
L 1159 0 
L 581 0 
L 581 3500 
L 1159 3500 
L 1159 2956 
Q 1356 3278 1631 3431 
Q 1906 3584 2284 3584 
Q 2666 3584 2933 3390 
Q 3200 3197 3328 2828 
z
" transform="scale(0.015625)"/>
       <path id="DejaVuSans-5d" d="M 1947 4863 
L 1947 -844 
L 622 -844 
L 622 -397 
L 1369 -397 
L 1369 4416 
L 622 4416 
L 622 4863 
L 1947 4863 
z
" transform="scale(0.015625)"/>
      </defs>
      <use xlink:href="#DejaVuSans-7a"/>
      <use xlink:href="#DejaVuSans-2d" x="52.490234"/>
      <use xlink:href="#DejaVuSans-70" x="88.574219"/>
      <use xlink:href="#DejaVuSans-6f" x="152.050781"/>
      <use xlink:href="#DejaVuSans-73" x="213.232422"/>
      <use xlink:href="#DejaVuSans-69" x="265.332031"/>
      <use xlink:href="#DejaVuSans-74" x="293.115234"/>
      <use xlink:href="#DejaVuSans-69" x="332.324219"/>
      <use xlink:href="#DejaVuSans-6f" x="360.107422"/>
      <use xlink:href="#DejaVuSans-6e" x="421.289062"/>
      <use xlink:href="#DejaVuSans-20" x="484.667969"/>
      <use xlink:href="#DejaVuSans-5b" x="516.455078"/>
      <use xlink:href="#DejaVuSans-3bc" x="555.46875"/>
      <use xlink:href="#DejaVuSans-6d" x="619.091797"/>
      <use xlink:href="#DejaVuSans-5d" x="716.503906"/>
     </g>
    </g>
   </g>
   <g id="matplotlib.axis_2">
    <g id="ytick_1">
     <g id="line2d_4">
      <defs>
       <path id="m97d77b8ad4" d="M 0 0 
L 4 0 
" style="stroke: #000000; stroke-width: 3"/>
      </defs>
      <g>
       <use xlink:href="#m97d77b8ad4" x="94.559375" y="355.268712" style="stroke: #000000; stroke-width: 3"/>
      </g>
     </g>
     <g id="text_5">
      <!-- 0.00 -->
      <g transform="translate(35.395313 364.766759)scale(0.25 -0.25)">
       <defs>
        <path id="DejaVuSans-2e" d="M 684 794 
L 1344 794 
L 1344 0 
L 684 0 
L 684 794 
z
" transform="scale(0.015625)"/>
       </defs>
       <use xlink:href="#DejaVuSans-30"/>
       <use xlink:href="#DejaVuSans-2e" x="63.623047"/>
       <use xlink:href="#DejaVuSans-30" x="95.410156"/>
       <use xlink:href="#DejaVuSans-30" x="159.033203"/>
      </g>
     </g>
    </g>
    <g id="ytick_2">
     <g id="line2d_5">
      <g>
       <use xlink:href="#m97d77b8ad4" x="94.559375" y="300.190475" style="stroke: #000000; stroke-width: 3"/>
      </g>
     </g>
     <g id="text_6">
      <!-- 0.01 -->
      <g transform="translate(35.395313 309.688522)scale(0.25 -0.25)">
       <use xlink:href="#DejaVuSans-30"/>
       <use xlink:href="#DejaVuSans-2e" x="63.623047"/>
       <use xlink:href="#DejaVuSans-30" x="95.410156"/>
       <use xlink:href="#DejaVuSans-31" x="159.033203"/>
      </g>
     </g>
    </g>
    <g id="ytick_3">
     <g id="line2d_6">
      <g>
       <use xlink:href="#m97d77b8ad4" x="94.559375" y="245.112239" style="stroke: #000000; stroke-width: 3"/>
      </g>
     </g>
     <g id="text_7">
      <!-- 0.02 -->
      <g transform="translate(35.395313 254.610286)scale(0.25 -0.25)">
       <use xlink:href="#DejaVuSans-30"/>
       <use xlink:href="#DejaVuSans-2e" x="63.623047"/>
       <use xlink:href="#DejaVuSans-30" x="95.410156"/>
       <use xlink:href="#DejaVuSans-32" x="159.033203"/>
      </g>
     </g>
    </g>
    <g id="ytick_4">
     <g id="line2d_7">
      <g>
       <use xlink:href="#m97d77b8ad4" x="94.559375" y="190.034002" style="stroke: #000000; stroke-width: 3"/>
      </g>
     </g>
     <g id="text_8">
      <!-- 0.03 -->
      <g transform="translate(35.395313 199.532049)scale(0.25 -0.25)">
       <defs>
        <path id="DejaVuSans-33" d="M 2597 2516 
Q 3050 2419 3304 2112 
Q 3559 1806 3559 1356 
Q 3559 666 3084 287 
Q 2609 -91 1734 -91 
Q 1441 -91 1130 -33 
Q 819 25 488 141 
L 488 750 
Q 750 597 1062 519 
Q 1375 441 1716 441 
Q 2309 441 2620 675 
Q 2931 909 2931 1356 
Q 2931 1769 2642 2001 
Q 2353 2234 1838 2234 
L 1294 2234 
L 1294 2753 
L 1863 2753 
Q 2328 2753 2575 2939 
Q 2822 3125 2822 3475 
Q 2822 3834 2567 4026 
Q 2313 4219 1838 4219 
Q 1578 4219 1281 4162 
Q 984 4106 628 3988 
L 628 4550 
Q 988 4650 1302 4700 
Q 1616 4750 1894 4750 
Q 2613 4750 3031 4423 
Q 3450 4097 3450 3541 
Q 3450 3153 3228 2886 
Q 3006 2619 2597 2516 
z
" transform="scale(0.015625)"/>
       </defs>
       <use xlink:href="#DejaVuSans-30"/>
       <use xlink:href="#DejaVuSans-2e" x="63.623047"/>
       <use xlink:href="#DejaVuSans-30" x="95.410156"/>
       <use xlink:href="#DejaVuSans-33" x="159.033203"/>
      </g>
     </g>
    </g>
    <g id="ytick_5">
     <g id="line2d_8">
      <g>
       <use xlink:href="#m97d77b8ad4" x="94.559375" y="134.955766" style="stroke: #000000; stroke-width: 3"/>
      </g>
     </g>
     <g id="text_9">
      <!-- 0.04 -->
      <g transform="translate(35.395313 144.453813)scale(0.25 -0.25)">
       <defs>
        <path id="DejaVuSans-34" d="M 2419 4116 
L 825 1625 
L 2419 1625 
L 2419 4116 
z
M 2253 4666 
L 3047 4666 
L 3047 1625 
L 3713 1625 
L 3713 1100 
L 3047 1100 
L 3047 0 
L 2419 0 
L 2419 1100 
L 313 1100 
L 313 1709 
L 2253 4666 
z
" transform="scale(0.015625)"/>
       </defs>
       <use xlink:href="#DejaVuSans-30"/>
       <use xlink:href="#DejaVuSans-2e" x="63.623047"/>
       <use xlink:href="#DejaVuSans-30" x="95.410156"/>
       <use xlink:href="#DejaVuSans-34" x="159.033203"/>
      </g>
     </g>
    </g>
    <g id="ytick_6">
     <g id="line2d_9">
      <g>
       <use xlink:href="#m97d77b8ad4" x="94.559375" y="79.877529" style="stroke: #000000; stroke-width: 3"/>
      </g>
     </g>
     <g id="text_10">
      <!-- 0.05 -->
      <g transform="translate(35.395313 89.375576)scale(0.25 -0.25)">
       <defs>
        <path id="DejaVuSans-35" d="M 691 4666 
L 3169 4666 
L 3169 4134 
L 1269 4134 
L 1269 2991 
Q 1406 3038 1543 3061 
Q 1681 3084 1819 3084 
Q 2600 3084 3056 2656 
Q 3513 2228 3513 1497 
Q 3513 744 3044 326 
Q 2575 -91 1722 -91 
Q 1428 -91 1123 -41 
Q 819 9 494 109 
L 494 744 
Q 775 591 1075 516 
Q 1375 441 1709 441 
Q 2250 441 2565 725 
Q 2881 1009 2881 1497 
Q 2881 1984 2565 2268 
Q 2250 2553 1709 2553 
Q 1456 2553 1204 2497 
Q 953 2441 691 2322 
L 691 4666 
z
" transform="scale(0.015625)"/>
       </defs>
       <use xlink:href="#DejaVuSans-30"/>
       <use xlink:href="#DejaVuSans-2e" x="63.623047"/>
       <use xlink:href="#DejaVuSans-30" x="95.410156"/>
       <use xlink:href="#DejaVuSans-35" x="159.033203"/>
      </g>
     </g>
    </g>
    <g id="ytick_7">
     <g id="line2d_10">
      <g>
       <use xlink:href="#m97d77b8ad4" x="94.559375" y="24.799293" style="stroke: #000000; stroke-width: 3"/>
      </g>
     </g>
     <g id="text_11">
      <!-- 0.06 -->
      <g transform="translate(35.395313 34.297339)scale(0.25 -0.25)">
       <defs>
        <path id="DejaVuSans-36" d="M 2113 2584 
Q 1688 2584 1439 2293 
Q 1191 2003 1191 1497 
Q 1191 994 1439 701 
Q 1688 409 2113 409 
Q 2538 409 2786 701 
Q 3034 994 3034 1497 
Q 3034 2003 2786 2293 
Q 2538 2584 2113 2584 
z
M 3366 4563 
L 3366 3988 
Q 3128 4100 2886 4159 
Q 2644 4219 2406 4219 
Q 1781 4219 1451 3797 
Q 1122 3375 1075 2522 
Q 1259 2794 1537 2939 
Q 1816 3084 2150 3084 
Q 2853 3084 3261 2657 
Q 3669 2231 3669 1497 
Q 3669 778 3244 343 
Q 2819 -91 2113 -91 
Q 1303 -91 875 529 
Q 447 1150 447 2328 
Q 447 3434 972 4092 
Q 1497 4750 2381 4750 
Q 2619 4750 2861 4703 
Q 3103 4656 3366 4563 
z
" transform="scale(0.015625)"/>
       </defs>
       <use xlink:href="#DejaVuSans-30"/>
       <use xlink:href="#DejaVuSans-2e" x="63.623047"/>
       <use xlink:href="#DejaVuSans-30" x="95.410156"/>
       <use xlink:href="#DejaVuSans-36" x="159.033203"/>
      </g>
     </g>
    </g>
    <g id="text_12">
     <!-- Concentration [mM] -->
     <g transform="translate(26.196094 312.315234)rotate(-90)scale(0.25 -0.25)">
      <defs>
       <path id="DejaVuSans-43" d="M 4122 4306 
L 4122 3641 
Q 3803 3938 3442 4084 
Q 3081 4231 2675 4231 
Q 1875 4231 1450 3742 
Q 1025 3253 1025 2328 
Q 1025 1406 1450 917 
Q 1875 428 2675 428 
Q 3081 428 3442 575 
Q 3803 722 4122 1019 
L 4122 359 
Q 3791 134 3420 21 
Q 3050 -91 2638 -91 
Q 1578 -91 968 557 
Q 359 1206 359 2328 
Q 359 3453 968 4101 
Q 1578 4750 2638 4750 
Q 3056 4750 3426 4639 
Q 3797 4528 4122 4306 
z
" transform="scale(0.015625)"/>
       <path id="DejaVuSans-63" d="M 3122 3366 
L 3122 2828 
Q 2878 2963 2633 3030 
Q 2388 3097 2138 3097 
Q 1578 3097 1268 2742 
Q 959 2388 959 1747 
Q 959 1106 1268 751 
Q 1578 397 2138 397 
Q 2388 397 2633 464 
Q 2878 531 3122 666 
L 3122 134 
Q 2881 22 2623 -34 
Q 2366 -91 2075 -91 
Q 1284 -91 818 406 
Q 353 903 353 1747 
Q 353 2603 823 3093 
Q 1294 3584 2113 3584 
Q 2378 3584 2631 3529 
Q 2884 3475 3122 3366 
z
" transform="scale(0.015625)"/>
       <path id="DejaVuSans-65" d="M 3597 1894 
L 3597 1613 
L 953 1613 
Q 991 1019 1311 708 
Q 1631 397 2203 397 
Q 2534 397 2845 478 
Q 3156 559 3463 722 
L 3463 178 
Q 3153 47 2828 -22 
Q 2503 -91 2169 -91 
Q 1331 -91 842 396 
Q 353 884 353 1716 
Q 353 2575 817 3079 
Q 1281 3584 2069 3584 
Q 2775 3584 3186 3129 
Q 3597 2675 3597 1894 
z
M 3022 2063 
Q 3016 2534 2758 2815 
Q 2500 3097 2075 3097 
Q 1594 3097 1305 2825 
Q 1016 2553 972 2059 
L 3022 2063 
z
" transform="scale(0.015625)"/>
       <path id="DejaVuSans-72" d="M 2631 2963 
Q 2534 3019 2420 3045 
Q 2306 3072 2169 3072 
Q 1681 3072 1420 2755 
Q 1159 2438 1159 1844 
L 1159 0 
L 581 0 
L 581 3500 
L 1159 3500 
L 1159 2956 
Q 1341 3275 1631 3429 
Q 1922 3584 2338 3584 
Q 2397 3584 2469 3576 
Q 2541 3569 2628 3553 
L 2631 2963 
z
" transform="scale(0.015625)"/>
       <path id="DejaVuSans-61" d="M 2194 1759 
Q 1497 1759 1228 1600 
Q 959 1441 959 1056 
Q 959 750 1161 570 
Q 1363 391 1709 391 
Q 2188 391 2477 730 
Q 2766 1069 2766 1631 
L 2766 1759 
L 2194 1759 
z
M 3341 1997 
L 3341 0 
L 2766 0 
L 2766 531 
Q 2569 213 2275 61 
Q 1981 -91 1556 -91 
Q 1019 -91 701 211 
Q 384 513 384 1019 
Q 384 1609 779 1909 
Q 1175 2209 1959 2209 
L 2766 2209 
L 2766 2266 
Q 2766 2663 2505 2880 
Q 2244 3097 1772 3097 
Q 1472 3097 1187 3025 
Q 903 2953 641 2809 
L 641 3341 
Q 956 3463 1253 3523 
Q 1550 3584 1831 3584 
Q 2591 3584 2966 3190 
Q 3341 2797 3341 1997 
z
" transform="scale(0.015625)"/>
       <path id="DejaVuSans-4d" d="M 628 4666 
L 1569 4666 
L 2759 1491 
L 3956 4666 
L 4897 4666 
L 4897 0 
L 4281 0 
L 4281 4097 
L 3078 897 
L 2444 897 
L 1241 4097 
L 1241 0 
L 628 0 
L 628 4666 
z
" transform="scale(0.015625)"/>
      </defs>
      <use xlink:href="#DejaVuSans-43"/>
      <use xlink:href="#DejaVuSans-6f" x="69.824219"/>
      <use xlink:href="#DejaVuSans-6e" x="131.005859"/>
      <use xlink:href="#DejaVuSans-63" x="194.384766"/>
      <use xlink:href="#DejaVuSans-65" x="249.365234"/>
      <use xlink:href="#DejaVuSans-6e" x="310.888672"/>
      <use xlink:href="#DejaVuSans-74" x="374.267578"/>
      <use xlink:href="#DejaVuSans-72" x="413.476562"/>
      <use xlink:href="#DejaVuSans-61" x="454.589844"/>
      <use xlink:href="#DejaVuSans-74" x="515.869141"/>
      <use xlink:href="#DejaVuSans-69" x="555.078125"/>
      <use xlink:href="#DejaVuSans-6f" x="582.861328"/>
      <use xlink:href="#DejaVuSans-6e" x="644.042969"/>
      <use xlink:href="#DejaVuSans-20" x="707.421875"/>
      <use xlink:href="#DejaVuSans-5b" x="739.208984"/>
      <use xlink:href="#DejaVuSans-6d" x="778.222656"/>
      <use xlink:href="#DejaVuSans-4d" x="875.634766"/>
      <use xlink:href="#DejaVuSans-5d" x="961.914062"/>
     </g>
    </g>
   </g>
   <g id="line2d_11">
    <path d="M 107.650284 345.873499 
L 110.294912 346.230608 
L 112.93954 346.567003 
L 115.584168 346.883615 
L 118.228796 347.181346 
L 120.873425 347.461068 
L 123.518053 347.723621 
L 126.162681 347.969816 
L 128.807309 348.200432 
L 131.451937 348.41622 
L 134.096565 348.617902 
L 136.741193 348.80617 
L 139.385821 348.981685 
L 142.030449 349.145083 
L 144.675077 349.296967 
L 147.319706 349.437916 
L 149.964334 349.568476 
L 152.608962 349.68917 
L 155.25359 349.800488 
L 157.898218 349.902897 
L 160.542846 349.996833 
L 163.187474 350.082707 
L 165.832102 350.160902 
L 168.47673 350.231773 
L 171.121358 350.29565 
L 173.765987 350.352834 
L 176.410615 350.403601 
L 179.055243 350.448201 
L 181.699871 350.486854 
L 184.344499 350.519758 
L 186.989127 350.547082 
L 189.633755 350.568969 
L 192.278383 350.585536 
L 194.923011 350.596873 
L 197.567639 350.603045 
L 200.212268 350.604088 
L 202.856896 350.600015 
L 205.501524 350.590811 
L 208.146152 350.576433 
L 210.79078 350.556813 
L 213.435408 350.531858 
L 216.080036 350.501444 
L 218.724664 350.465423 
L 221.369292 350.42362 
L 224.01392 350.375833 
L 226.658549 350.321831 
L 229.303177 350.261358 
L 231.947805 350.194129 
L 234.592433 350.119833 
L 237.237061 350.038129 
L 239.881689 349.94865 
L 242.526317 349.855269 
L 245.170945 349.757791 
L 247.815573 349.656013 
L 250.460201 349.549729 
L 253.10483 349.438723 
L 255.749458 349.322775 
L 258.394086 349.201657 
L 261.038714 349.075135 
L 263.683342 348.942969 
L 266.32797 348.804913 
L 268.972598 348.660712 
L 271.617226 348.510107 
L 274.261854 348.35283 
L 276.906482 348.18861 
L 279.551111 348.017167 
L 282.195739 347.838214 
L 284.840367 347.651458 
L 287.484995 347.456601 
L 290.129623 347.253337 
L 292.774251 347.041353 
L 295.418879 346.820332 
L 298.063507 346.589947 
L 300.708135 346.349868 
L 303.352763 346.099755 
L 305.997392 345.839266 
L 308.64202 345.56805 
L 311.286648 345.285749 
L 313.931276 344.992001 
L 316.575904 344.686436 
L 319.220532 344.368679 
L 321.86516 344.038348 
L 324.509788 343.695055 
L 327.154416 343.338408 
L 329.799044 342.968007 
L 332.443673 342.583446 
L 335.088301 342.184316 
L 337.732929 341.770198 
L 340.377557 341.340671 
L 343.022185 340.895307 
L 345.666813 340.433672 
L 348.311441 339.955329 
L 350.956069 339.459834 
L 353.600697 338.946737 
L 356.245325 338.415585 
L 358.889954 337.865918 
L 361.534582 337.297273 
L 364.17921 336.709181 
L 366.823838 336.101168 
L 369.468466 335.472758 
" clip-path="url(#p205d516c90)" style="fill: none; stroke: #000000; stroke-width: 3; stroke-linecap: square"/>
   </g>
   <g id="line2d_12">
    <path d="M 107.650284 349.541556 
L 110.294912 349.571274 
L 112.93954 349.64164 
L 115.584168 349.724965 
L 118.228796 349.807331 
L 120.873425 349.89004 
L 123.518053 349.972873 
L 126.162681 350.043975 
L 128.807309 350.088194 
L 131.451937 350.10596 
L 134.096565 350.118782 
L 136.741193 350.147115 
L 139.385821 350.195154 
L 142.030449 350.260658 
L 144.675077 350.338717 
L 147.319706 350.420017 
L 149.964334 350.495071 
L 152.608962 350.556381 
L 155.25359 350.597449 
L 157.898218 350.616312 
L 160.542846 350.62028 
L 163.187474 350.618482 
L 165.832102 350.627327 
L 168.47673 350.667565 
L 171.121358 350.742933 
L 173.765987 350.81375 
L 176.410615 350.836364 
L 179.055243 350.806945 
L 181.699871 350.751103 
L 184.344499 350.692736 
L 186.989127 350.64811 
L 189.633755 350.630901 
L 192.278383 350.633959 
L 194.923011 350.631299 
L 197.567639 350.604415 
L 200.212268 350.567442 
L 202.856896 350.542295 
L 205.501524 350.54041 
L 208.146152 350.561633 
L 210.79078 350.600973 
L 213.435408 350.632083 
L 216.080036 350.622477 
L 218.724664 350.564416 
L 221.369292 350.483638 
L 224.01392 350.407747 
L 226.658549 350.361058 
L 229.303177 350.366235 
L 231.947805 350.419622 
L 234.592433 350.473878 
L 237.237061 350.482949 
L 239.881689 350.44497 
L 242.526317 350.379642 
L 245.170945 350.305999 
L 247.815573 350.241398 
L 250.460201 350.202098 
L 253.10483 350.19489 
L 255.749458 350.22085 
L 258.394086 350.276205 
L 261.038714 350.34505 
L 263.683342 350.410259 
L 266.32797 350.464234 
L 268.972598 350.506423 
L 271.617226 350.53812 
L 274.261854 350.565963 
L 276.906482 350.596698 
L 279.551111 350.618643 
L 282.195739 350.60345 
L 284.840367 350.532406 
L 287.484995 350.427744 
L 290.129623 350.321594 
L 292.774251 350.236746 
L 295.418879 350.185664 
L 298.063507 350.175885 
L 300.708135 350.192818 
L 303.352763 350.21505 
L 305.997392 350.227212 
L 308.64202 350.222109 
L 311.286648 350.193591 
L 313.931276 350.138473 
L 316.575904 350.054871 
L 319.220532 349.950764 
L 321.86516 349.850499 
L 324.509788 349.774116 
L 327.154416 349.693879 
L 329.799044 349.5589 
L 332.443673 349.344898 
L 335.088301 349.08239 
L 337.732929 348.808292 
L 340.377557 348.556198 
L 343.022185 348.357669 
L 345.666813 348.22951 
L 348.311441 348.151085 
L 350.956069 348.097396 
L 353.600697 348.064579 
L 356.245325 348.064392 
L 358.889954 348.098569 
L 361.534582 348.135809 
L 364.17921 348.140267 
L 366.823838 348.114886 
L 369.468466 348.097694 
" clip-path="url(#p205d516c90)" style="fill: none; stroke: #008000; stroke-width: 3; stroke-linecap: square"/>
   </g>
   <g id="line2d_13">
    <path d="M 107.650284 285.169645 
L 110.294912 286.843677 
L 112.93954 288.461995 
L 115.584168 290.025304 
L 118.228796 291.534291 
L 120.873425 292.989628 
L 123.518053 294.391968 
L 126.162681 295.74195 
L 128.807309 297.040194 
L 131.451937 298.287303 
L 134.096565 299.483862 
L 136.741193 300.630439 
L 139.385821 301.727582 
L 142.030449 302.775823 
L 144.675077 303.775673 
L 147.319706 304.727628 
L 149.964334 305.632161 
L 152.608962 306.489729 
L 155.25359 307.300769 
L 157.898218 308.065699 
L 160.542846 308.784916 
L 163.187474 309.458801 
L 165.832102 310.087711 
L 168.47673 310.671988 
L 171.121358 311.21195 
L 173.765987 311.707898 
L 176.410615 312.160112 
L 179.055243 312.568852 
L 181.699871 312.934358 
L 184.344499 313.25685 
L 186.989127 313.536529 
L 189.633755 313.773573 
L 192.278383 313.968143 
L 194.923011 314.120377 
L 197.567639 314.230397 
L 200.212268 314.2983 
L 202.856896 314.324165 
L 205.501524 314.308053 
L 208.146152 314.250001 
L 210.79078 314.150028 
L 213.435408 314.008133 
L 216.080036 313.824296 
L 218.724664 313.598475 
L 221.369292 313.330609 
L 224.01392 313.020619 
L 226.658549 312.668404 
L 229.303177 312.273844 
L 231.947805 311.836801 
L 234.592433 311.357117 
L 237.237061 310.834613 
L 239.881689 310.269095 
L 242.526317 309.682927 
L 245.170945 309.076004 
L 247.815573 308.448213 
L 250.460201 307.799439 
L 253.10483 307.129563 
L 255.749458 306.43846 
L 258.394086 305.726002 
L 261.038714 304.992058 
L 263.683342 304.236491 
L 266.32797 303.459162 
L 268.972598 302.659926 
L 271.617226 301.838636 
L 274.261854 300.99514 
L 276.906482 300.129282 
L 279.551111 299.240903 
L 282.195739 298.32984 
L 284.840367 297.395927 
L 287.484995 296.438992 
L 290.129623 295.458863 
L 292.774251 294.455362 
L 295.418879 293.428308 
L 298.063507 292.377516 
L 300.708135 291.3028 
L 303.352763 290.203968 
L 305.997392 289.080825 
L 308.64202 287.933175 
L 311.286648 286.760817 
L 313.931276 285.563547 
L 316.575904 284.341158 
L 319.220532 283.093441 
L 321.86516 281.820182 
L 324.509788 280.521167 
L 327.154416 279.196177 
L 329.799044 277.84499 
L 332.443673 276.467384 
L 335.088301 275.063131 
L 337.732929 273.632003 
L 340.377557 272.173768 
L 343.022185 270.688193 
L 345.666813 269.17504 
L 348.311441 267.634072 
L 350.956069 266.065048 
L 353.600697 264.467725 
L 356.245325 262.841857 
L 358.889954 261.187198 
L 361.534582 259.503499 
L 364.17921 257.790509 
L 366.823838 256.047975 
L 369.468466 254.275643 
" clip-path="url(#p205d516c90)" style="fill: none; stroke-dasharray: 11.1,4.8; stroke-dashoffset: 0; stroke: #000000; stroke-width: 3"/>
   </g>
   <g id="line2d_14">
    <path d="M 107.650284 299.603757 
L 110.294912 300.404405 
L 112.93954 302.227689 
L 115.584168 304.218955 
L 118.228796 305.893558 
L 120.873425 307.175936 
L 123.518053 308.048481 
L 126.162681 308.679063 
L 128.807309 309.291844 
L 131.451937 310.024159 
L 134.096565 310.895857 
L 136.741193 311.898693 
L 139.385821 312.898284 
L 142.030449 313.712474 
L 144.675077 314.292617 
L 147.319706 314.811933 
L 149.964334 315.440915 
L 152.608962 316.156928 
L 155.25359 316.843469 
L 157.898218 317.44802 
L 160.542846 318.050402 
L 163.187474 318.73534 
L 165.832102 319.467694 
L 168.47673 320.140213 
L 171.121358 320.679078 
L 173.765987 321.098005 
L 176.410615 321.425132 
L 179.055243 321.69869 
L 181.699871 321.964364 
L 184.344499 322.242619 
L 186.989127 322.473167 
L 189.633755 322.584985 
L 192.278383 322.609059 
L 194.923011 322.668646 
L 197.567639 322.843257 
L 200.212268 323.024144 
L 202.856896 323.059515 
L 205.501524 322.90935 
L 208.146152 322.657203 
L 210.79078 322.390071 
L 213.435408 322.180074 
L 216.080036 322.093489 
L 218.724664 322.146756 
L 221.369292 322.288909 
L 224.01392 322.465498 
L 226.658549 322.630388 
L 229.303177 322.740989 
L 231.947805 322.774754 
L 234.592433 322.742402 
L 237.237061 322.649367 
L 239.881689 322.432323 
L 242.526317 321.994916 
L 245.170945 321.321815 
L 247.815573 320.564089 
L 250.460201 319.883421 
L 253.10483 319.33799 
L 255.749458 318.923604 
L 258.394086 318.621283 
L 261.038714 318.376628 
L 263.683342 318.129698 
L 266.32797 317.820624 
L 268.972598 317.389601 
L 271.617226 316.808979 
L 274.261854 316.153345 
L 276.906482 315.513902 
L 279.551111 314.911023 
L 282.195739 314.301022 
L 284.840367 313.62242 
L 287.484995 312.751807 
L 290.129623 311.558779 
L 292.774251 310.148635 
L 295.418879 308.887259 
L 298.063507 308.071689 
L 300.708135 307.583844 
L 303.352763 307.176883 
L 305.997392 306.68007 
L 308.64202 306.025693 
L 311.286648 305.158381 
L 313.931276 304.054906 
L 316.575904 302.705449 
L 319.220532 301.156077 
L 321.86516 299.545603 
L 324.509788 298.001564 
L 327.154416 296.488025 
L 329.799044 294.889666 
L 332.443673 293.156198 
L 335.088301 291.371606 
L 337.732929 289.633817 
L 340.377557 288.014269 
L 343.022185 286.56838 
L 345.666813 285.324667 
L 348.311441 284.243807 
L 350.956069 283.274463 
L 353.600697 282.345693 
L 356.245325 281.372059 
L 358.889954 280.259227 
L 361.534582 278.88565 
L 364.17921 277.15088 
L 366.823838 275.466431 
L 369.468466 274.706889 
" clip-path="url(#p205d516c90)" style="fill: none; stroke-dasharray: 11.1,4.8; stroke-dashoffset: 0; stroke: #008000; stroke-width: 3"/>
   </g>
   <g id="line2d_15">
    <path d="M 107.650284 156.920271 
L 110.294912 159.370698 
L 112.93954 161.754644 
L 115.584168 164.072152 
L 118.228796 166.32327 
L 120.873425 168.508052 
L 123.518053 170.626553 
L 126.162681 172.678836 
L 128.807309 174.664962 
L 131.451937 176.585 
L 134.096565 178.439017 
L 136.741193 180.227087 
L 139.385821 181.949282 
L 142.030449 183.605678 
L 144.675077 185.196353 
L 147.319706 186.721384 
L 149.964334 188.180852 
L 152.608962 189.574836 
L 155.25359 190.903417 
L 157.898218 192.166676 
L 160.542846 193.364695 
L 163.187474 194.497555 
L 165.832102 195.565338 
L 168.47673 196.568123 
L 171.121358 197.50599 
L 173.765987 198.379021 
L 176.410615 199.187292 
L 179.055243 199.930881 
L 181.699871 200.609865 
L 184.344499 201.22432 
L 186.989127 201.774318 
L 189.633755 202.259934 
L 192.278383 202.681236 
L 194.923011 203.038296 
L 197.567639 203.33118 
L 200.212268 203.559955 
L 202.856896 203.724685 
L 205.501524 203.825433 
L 208.146152 203.862258 
L 210.79078 203.835221 
L 213.435408 203.744379 
L 216.080036 203.589785 
L 218.724664 203.371495 
L 221.369292 203.089559 
L 224.01392 202.744027 
L 226.658549 202.334947 
L 229.303177 201.862367 
L 231.947805 201.326331 
L 234.592433 200.726881 
L 237.237061 200.064061 
L 239.881689 199.33791 
L 242.526317 198.581528 
L 245.170945 197.794934 
L 247.815573 196.978146 
L 250.460201 196.131182 
L 253.10483 195.25406 
L 255.749458 194.346798 
L 258.394086 193.409412 
L 261.038714 192.441921 
L 263.683342 191.444341 
L 266.32797 190.416691 
L 268.972598 189.358988 
L 271.617226 188.271248 
L 274.261854 187.153489 
L 276.906482 186.00573 
L 279.551111 184.827987 
L 282.195739 183.620278 
L 284.840367 182.382622 
L 287.484995 181.115037 
L 290.129623 179.817542 
L 292.774251 178.490155 
L 295.418879 177.132896 
L 298.063507 175.745785 
L 300.708135 174.328841 
L 303.352763 172.882087 
L 305.997392 171.405543 
L 308.64202 169.899232 
L 311.286648 168.363175 
L 313.931276 166.797397 
L 316.575904 165.201922 
L 319.220532 163.576774 
L 321.86516 161.92198 
L 324.509788 160.237566 
L 327.154416 158.52356 
L 329.799044 156.779991 
L 332.443673 155.006889 
L 335.088301 153.204285 
L 337.732929 151.372211 
L 340.377557 149.510701 
L 343.022185 147.61979 
L 345.666813 145.699513 
L 348.311441 143.749909 
L 350.956069 141.771017 
L 353.600697 139.762878 
L 356.245325 137.725534 
L 358.889954 135.659029 
L 361.534582 133.56341 
L 364.17921 131.438724 
L 366.823838 129.285021 
L 369.468466 127.102353 
" clip-path="url(#p205d516c90)" style="fill: none; stroke-dasharray: 19.2,4.8,3,4.8; stroke-dashoffset: 0; stroke: #000000; stroke-width: 3"/>
   </g>
   <g id="line2d_16">
    <path d="M 107.650284 158.594377 
L 110.294912 160.170939 
L 112.93954 163.461745 
L 115.584168 166.356731 
L 118.228796 168.0852 
L 120.873425 169.357236 
L 123.518053 170.834493 
L 126.162681 172.548032 
L 128.807309 174.333567 
L 131.451937 176.152968 
L 134.096565 178.138855 
L 136.741193 180.3885 
L 139.385821 182.69602 
L 142.030449 184.739092 
L 144.675077 186.398065 
L 147.319706 187.890266 
L 149.964334 189.447215 
L 152.608962 191.15688 
L 155.25359 193.036924 
L 157.898218 195.073258 
L 160.542846 197.187737 
L 163.187474 199.288577 
L 165.832102 201.222516 
L 168.47673 202.799486 
L 171.121358 203.922132 
L 173.765987 204.730132 
L 176.410615 205.391045 
L 179.055243 205.94233 
L 181.699871 206.325297 
L 184.344499 206.544237 
L 186.989127 206.810887 
L 189.633755 207.362462 
L 192.278383 208.133477 
L 194.923011 208.784659 
L 197.567639 209.052913 
L 200.212268 209.019313 
L 202.856896 208.847262 
L 205.501524 208.59711 
L 208.146152 208.215275 
L 210.79078 207.684344 
L 213.435408 207.199016 
L 216.080036 207.017053 
L 218.724664 207.241057 
L 221.369292 207.763695 
L 224.01392 208.452688 
L 226.658549 209.111611 
L 229.303177 209.520376 
L 231.947805 209.572568 
L 234.592433 209.350607 
L 237.237061 208.939142 
L 239.881689 208.29562 
L 242.526317 207.315455 
L 245.170945 205.905026 
L 247.815573 203.994031 
L 250.460201 201.547694 
L 253.10483 198.877765 
L 255.749458 196.504202 
L 258.394086 194.739841 
L 261.038714 193.363599 
L 263.683342 192.079978 
L 266.32797 190.72304 
L 268.972598 189.222624 
L 271.617226 187.54065 
L 274.261854 185.733903 
L 276.906482 183.873124 
L 279.551111 181.935101 
L 282.195739 179.811644 
L 284.840367 177.427506 
L 287.484995 174.851444 
L 290.129623 172.188306 
L 292.774251 169.545441 
L 295.418879 167.032954 
L 298.063507 164.748562 
L 300.708135 162.72679 
L 303.352763 160.980371 
L 305.997392 159.440222 
L 308.64202 157.926583 
L 311.286648 156.263447 
L 313.931276 154.348935 
L 316.575904 152.111866 
L 319.220532 149.593774 
L 321.86516 147.023216 
L 324.509788 144.62887 
L 327.154416 142.496417 
L 329.799044 140.641426 
L 332.443673 139.037116 
L 335.088301 137.570948 
L 337.732929 136.113589 
L 340.377557 134.46895 
L 343.022185 132.401183 
L 345.666813 129.860814 
L 348.311441 127.273656 
L 350.956069 125.111999 
L 353.600697 123.454403 
L 356.245325 122.088401 
L 358.889954 120.860941 
L 361.534582 119.829606 
L 364.17921 119.090254 
L 366.823838 118.671104 
L 369.468466 118.539201 
" clip-path="url(#p205d516c90)" style="fill: none; stroke-dasharray: 19.2,4.8,3,4.8; stroke-dashoffset: 0; stroke: #008000; stroke-width: 3"/>
   </g>
   <g id="line2d_17">
    <path d="M 107.650284 70.106446 
L 110.294912 72.181506 
L 112.93954 74.209206 
L 115.584168 76.189012 
L 118.228796 78.12041 
L 120.873425 80.002905 
L 123.518053 81.836024 
L 126.162681 83.619311 
L 128.807309 85.352328 
L 131.451937 87.034659 
L 134.096565 88.665902 
L 136.741193 90.245677 
L 139.385821 91.773618 
L 142.030449 93.249379 
L 144.675077 94.672627 
L 147.319706 96.043049 
L 149.964334 97.360349 
L 152.608962 98.624242 
L 155.25359 99.834465 
L 157.898218 100.990765 
L 160.542846 102.092909 
L 163.187474 103.140675 
L 165.832102 104.133858 
L 168.47673 105.072268 
L 171.121358 105.955727 
L 173.765987 106.784074 
L 176.410615 107.55716 
L 179.055243 108.27485 
L 181.699871 108.937024 
L 184.344499 109.543575 
L 186.989127 110.094408 
L 189.633755 110.589443 
L 192.278383 111.028612 
L 194.923011 111.411861 
L 197.567639 111.739149 
L 200.212268 112.010445 
L 202.856896 112.225734 
L 205.501524 112.385013 
L 208.146152 112.488291 
L 210.79078 112.53559 
L 213.435408 112.526943 
L 216.080036 112.462397 
L 218.724664 112.342012 
L 221.369292 112.165859 
L 224.01392 111.934022 
L 226.658549 111.646597 
L 229.303177 111.303693 
L 231.947805 110.905431 
L 234.592433 110.451945 
L 237.237061 109.943382 
L 239.881689 109.3799 
L 242.526317 108.790269 
L 245.170945 108.174573 
L 247.815573 107.532899 
L 250.460201 106.865339 
L 253.10483 106.171987 
L 255.749458 105.452939 
L 258.394086 104.708294 
L 261.038714 103.938155 
L 263.683342 103.142628 
L 266.32797 102.321822 
L 268.972598 101.475849 
L 271.617226 100.604823 
L 274.261854 99.708863 
L 276.906482 98.788091 
L 279.551111 97.842629 
L 282.195739 96.872607 
L 284.840367 95.878156 
L 287.484995 94.859409 
L 290.129623 93.816505 
L 292.774251 92.749584 
L 295.418879 91.658791 
L 298.063507 90.544273 
L 300.708135 89.406183 
L 303.352763 88.244675 
L 305.997392 87.059908 
L 308.64202 85.852042 
L 311.286648 84.621245 
L 313.931276 83.367686 
L 316.575904 82.091537 
L 319.220532 80.792975 
L 321.86516 79.472181 
L 324.509788 78.12934 
L 327.154416 76.76464 
L 329.799044 75.378273 
L 332.443673 73.970436 
L 335.088301 72.541328 
L 337.732929 71.091156 
L 340.377557 69.620126 
L 343.022185 68.128452 
L 345.666813 66.616351 
L 348.311441 65.084045 
L 350.956069 63.531759 
L 353.600697 61.959724 
L 356.245325 60.368174 
L 358.889954 58.757348 
L 361.534582 57.127491 
L 364.17921 55.47885 
L 366.823838 53.811679 
L 369.468466 52.126236 
" clip-path="url(#p205d516c90)" style="fill: none; stroke-dasharray: 3,4.95; stroke-dashoffset: 0; stroke: #000000; stroke-width: 3"/>
   </g>
   <g id="line2d_18">
    <path d="M 107.650284 84.527227 
L 110.294912 85.310706 
L 112.93954 87.095946 
L 115.584168 89.048033 
L 118.228796 90.689487 
L 120.873425 91.937999 
L 123.518053 92.773474 
L 126.162681 93.386395 
L 128.807309 94.031261 
L 131.451937 94.868491 
L 134.096565 95.931195 
L 136.741193 97.225574 
L 139.385821 98.643682 
L 142.030449 100.034072 
L 144.675077 101.346791 
L 147.319706 102.700566 
L 149.964334 104.210752 
L 152.608962 105.835236 
L 155.25359 107.455397 
L 157.898218 109.008157 
L 160.542846 110.545255 
L 163.187474 112.116318 
L 165.832102 113.59945 
L 168.47673 114.769706 
L 171.121358 115.508634 
L 173.765987 115.972162 
L 176.410615 116.353512 
L 179.055243 116.76595 
L 181.699871 117.263632 
L 184.344499 117.871096 
L 186.989127 118.52311 
L 189.633755 119.138543 
L 192.278383 119.673147 
L 194.923011 120.116027 
L 197.567639 120.454729 
L 200.212268 120.665748 
L 202.856896 120.72249 
L 205.501524 120.589438 
L 208.146152 120.221209 
L 210.79078 119.621814 
L 213.435408 119.046909 
L 216.080036 118.825458 
L 218.724664 119.037918 
L 221.369292 119.428529 
L 224.01392 119.753766 
L 226.658549 120.000631 
L 229.303177 120.245582 
L 231.947805 120.477259 
L 234.592433 120.538131 
L 237.237061 120.252265 
L 239.881689 119.405975 
L 242.526317 117.769098 
L 245.170945 115.400824 
L 247.815573 112.953157 
L 250.460201 111.08592 
L 253.10483 109.771935 
L 255.749458 108.570629 
L 258.394086 107.194466 
L 261.038714 105.759504 
L 263.683342 104.434376 
L 266.32797 103.238116 
L 268.972598 102.079168 
L 271.617226 100.864005 
L 274.261854 99.501064 
L 276.906482 97.906489 
L 279.551111 96.13781 
L 282.195739 94.380442 
L 284.840367 92.785885 
L 287.484995 91.351549 
L 290.129623 90.036145 
L 292.774251 88.793517 
L 295.418879 87.572124 
L 298.063507 86.337234 
L 300.708135 85.140285 
L 303.352763 84.058764 
L 305.997392 83.125668 
L 308.64202 82.313793 
L 311.286648 81.588549 
L 313.931276 80.895493 
L 316.575904 80.172869 
L 319.220532 79.395204 
L 321.86516 78.597294 
L 324.509788 77.821134 
L 327.154416 77.121102 
L 329.799044 76.557339 
L 332.443673 76.148165 
L 335.088301 75.826165 
L 337.732929 75.518708 
L 340.377557 75.209174 
L 343.022185 74.914673 
L 345.666813 74.653101 
L 348.311441 74.443167 
L 350.956069 74.3 
L 353.600697 74.186524 
L 356.245325 74.027094 
L 358.889954 73.806169 
L 361.534582 73.702209 
L 364.17921 73.915959 
L 366.823838 74.335306 
L 369.468466 74.565154 
" clip-path="url(#p205d516c90)" style="fill: none; stroke-dasharray: 3,4.95; stroke-dashoffset: 0; stroke: #008000; stroke-width: 3"/>
   </g>
   <g id="line2d_19">
    <path d="M 107.650284 32.719611 
L 110.294912 32.845971 
L 112.93954 32.98677 
L 115.584168 33.140615 
L 118.228796 33.306156 
L 120.873425 33.482081 
L 123.518053 33.667122 
L 126.162681 33.860047 
L 128.807309 34.059668 
L 131.451937 34.264833 
L 134.096565 34.47443 
L 136.741193 34.687385 
L 139.385821 34.902663 
L 142.030449 35.119265 
L 144.675077 35.33623 
L 147.319706 35.552636 
L 149.964334 35.767594 
L 152.608962 35.980255 
L 155.25359 36.189803 
L 157.898218 36.39546 
L 160.542846 36.596481 
L 163.187474 36.792159 
L 165.832102 36.981819 
L 168.47673 37.164823 
L 171.121358 37.340567 
L 173.765987 37.508479 
L 176.410615 37.668023 
L 179.055243 37.818696 
L 181.699871 37.960028 
L 184.344499 38.091584 
L 186.989127 38.21296 
L 189.633755 38.323786 
L 192.278383 38.423724 
L 194.923011 38.512468 
L 197.567639 38.589747 
L 200.212268 38.65532 
L 202.856896 38.708979 
L 205.501524 38.750546 
L 208.146152 38.779879 
L 210.79078 38.796864 
L 213.435408 38.80142 
L 216.080036 38.793498 
L 218.724664 38.773079 
L 221.369292 38.740179 
L 224.01392 38.694842 
L 226.658549 38.637143 
L 229.303177 38.567192 
L 231.947805 38.485127 
L 234.592433 38.391119 
L 237.237061 38.285369 
L 239.881689 38.168111 
L 242.526317 38.045482 
L 245.170945 37.917615 
L 247.815573 37.784652 
L 250.460201 37.646739 
L 253.10483 37.504033 
L 255.749458 37.356694 
L 258.394086 37.204892 
L 261.038714 37.048804 
L 263.683342 36.888613 
L 266.32797 36.724511 
L 268.972598 36.556695 
L 271.617226 36.38537 
L 274.261854 36.21075 
L 276.906482 36.033055 
L 279.551111 35.852511 
L 282.195739 35.669353 
L 284.840367 35.483823 
L 287.484995 35.296171 
L 290.129623 35.106654 
L 292.774251 34.915534 
L 295.418879 34.723085 
L 298.063507 34.529584 
L 300.708135 34.335319 
L 303.352763 34.140584 
L 305.997392 33.945679 
L 308.64202 33.750915 
L 311.286648 33.556608 
L 313.931276 33.363082 
L 316.575904 33.17067 
L 319.220532 32.979711 
L 321.86516 32.790553 
L 324.509788 32.60355 
L 327.154416 32.419067 
L 329.799044 32.237474 
L 332.443673 32.05915 
L 335.088301 31.884481 
L 337.732929 31.713863 
L 340.377557 31.547697 
L 343.022185 31.386395 
L 345.666813 31.230375 
L 348.311441 31.080065 
L 350.956069 30.935899 
L 353.600697 30.798321 
L 356.245325 30.667782 
L 358.889954 30.544742 
L 361.534582 30.429669 
L 364.17921 30.323041 
L 366.823838 30.225341 
L 369.468466 30.137064 
" clip-path="url(#p205d516c90)" style="fill: none; stroke-dasharray: 9,15,3,15,3,15; stroke-dashoffset: 0; stroke: #000000; stroke-width: 3"/>
   </g>
   <g id="line2d_20">
    <path d="M 107.650284 29.697405 
L 110.294912 29.944966 
L 112.93954 30.480154 
L 115.584168 30.998781 
L 118.228796 31.392532 
L 120.873425 31.769638 
L 123.518053 32.229834 
L 126.162681 32.773494 
L 128.807309 33.369759 
L 131.451937 33.988127 
L 134.096565 34.598598 
L 136.741193 35.176224 
L 139.385821 35.728079 
L 142.030449 36.273804 
L 144.675077 36.830744 
L 147.319706 37.412384 
L 149.964334 38.031549 
L 152.608962 38.698636 
L 155.25359 39.422686 
L 157.898218 40.186927 
L 160.542846 40.921744 
L 163.187474 41.555387 
L 165.832102 42.062103 
L 168.47673 42.443869 
L 171.121358 42.71469 
L 173.765987 42.918171 
L 176.410615 43.099735 
L 179.055243 43.265069 
L 181.699871 43.390486 
L 184.344499 43.457414 
L 186.989127 43.465724 
L 189.633755 43.419817 
L 192.278383 43.340944 
L 194.923011 43.265591 
L 197.567639 43.213189 
L 200.212268 43.132738 
L 202.856896 42.957054 
L 205.501524 42.658402 
L 208.146152 42.252659 
L 210.79078 41.769117 
L 213.435408 41.293313 
L 216.080036 40.927345 
L 218.724664 40.725277 
L 221.369292 40.676177 
L 224.01392 40.759194 
L 226.658549 40.919592 
L 229.303177 41.089667 
L 231.947805 41.227734 
L 234.592433 41.335361 
L 237.237061 41.413688 
L 239.881689 41.42705 
L 242.526317 41.321985 
L 245.170945 41.071074 
L 247.815573 40.700482 
L 250.460201 40.24251 
L 253.10483 39.724962 
L 255.749458 39.172918 
L 258.394086 38.604706 
L 261.038714 38.021581 
L 263.683342 37.42185 
L 266.32797 36.799974 
L 268.972598 36.147572 
L 271.617226 35.460402 
L 274.261854 34.747599 
L 276.906482 34.021083 
L 279.551111 33.295377 
L 282.195739 32.587355 
L 284.840367 31.905724 
L 287.484995 31.226175 
L 290.129623 30.517433 
L 292.774251 29.783928 
L 295.418879 29.069563 
L 298.063507 28.416547 
L 300.708135 27.848255 
L 303.352763 27.381439 
L 305.997392 27.003053 
L 308.64202 26.659747 
L 311.286648 26.30503 
L 313.931276 25.95448 
L 316.575904 25.647625 
L 319.220532 25.390547 
L 321.86516 25.133695 
L 324.509788 24.830891 
L 327.154416 24.506329 
L 329.799044 24.218422 
L 332.443673 24.004252 
L 335.088301 23.856745 
L 337.732929 23.762729 
L 340.377557 23.701682 
L 343.022185 23.648693 
L 345.666813 23.593561 
L 348.311441 23.563636 
L 350.956069 23.591055 
L 353.600697 23.692487 
L 356.245325 23.873178 
L 358.889954 24.147099 
L 361.534582 24.556827 
L 364.17921 25.140411 
L 366.823838 25.738798 
L 369.468466 26.014651 
" clip-path="url(#p205d516c90)" style="fill: none; stroke-dasharray: 9,15,3,15,3,15; stroke-dashoffset: 0; stroke: #008000; stroke-width: 3"/>
   </g>
   <g id="patch_3">
    <path d="M 94.559375 367.2 
L 94.559375 7.2 
" style="fill: none; stroke: #000000; stroke-width: 2; stroke-linejoin: miter; stroke-linecap: square"/>
   </g>
   <g id="patch_4">
    <path d="M 382.559375 367.2 
L 382.559375 7.2 
" style="fill: none; stroke: #000000; stroke-width: 2; stroke-linejoin: miter; stroke-linecap: square"/>
   </g>
   <g id="patch_5">
    <path d="M 94.559375 367.2 
L 382.559375 367.2 
" style="fill: none; stroke: #000000; stroke-width: 2; stroke-linejoin: miter; stroke-linecap: square"/>
   </g>
   <g id="patch_6">
    <path d="M 94.559375 7.2 
L 382.559375 7.2 
" style="fill: none; stroke: #000000; stroke-width: 2; stroke-linejoin: miter; stroke-linecap: square"/>
   </g>
   <g id="legend_1">
    <g id="patch_7">
     <path d="M 402.059375 302.7 
L 626.532031 302.7 
Q 631.532031 302.7 631.532031 297.7 
L 631.532031 116.723437 
Q 631.532031 111.723437 626.532031 111.723437 
L 402.059375 111.723437 
Q 397.059375 111.723437 397.059375 116.723437 
L 397.059375 297.7 
Q 397.059375 302.7 402.059375 302.7 
z
" style="fill: #4c4c4c; opacity: 0.5; stroke: #4c4c4c; stroke-linejoin: miter"/>
    </g>
    <g id="patch_8">
     <path d="M 400.059375 300.7 
L 624.532031 300.7 
Q 629.532031 300.7 629.532031 295.7 
L 629.532031 114.723437 
Q 629.532031 109.723437 624.532031 109.723437 
L 400.059375 109.723437 
Q 395.059375 109.723437 395.059375 114.723437 
L 395.059375 295.7 
Q 395.059375 300.7 400.059375 300.7 
z
" style="fill: #ffffff; stroke: #cccccc; stroke-linejoin: miter"/>
    </g>
    <g id="line2d_21">
     <path d="M 405.059375 129.969531 
L 430.059375 129.969531 
L 455.059375 129.969531 
" style="fill: none; stroke: #008000; stroke-width: 3; stroke-linecap: square"/>
    </g>
    <g id="text_13">
     <!-- t=127 sec -->
     <g transform="translate(475.059375 138.719531)scale(0.25 -0.25)">
      <defs>
       <path id="DejaVuSans-3d" d="M 678 2906 
L 4684 2906 
L 4684 2381 
L 678 2381 
L 678 2906 
z
M 678 1631 
L 4684 1631 
L 4684 1100 
L 678 1100 
L 678 1631 
z
" transform="scale(0.015625)"/>
       <path id="DejaVuSans-37" d="M 525 4666 
L 3525 4666 
L 3525 4397 
L 1831 0 
L 1172 0 
L 2766 4134 
L 525 4134 
L 525 4666 
z
" transform="scale(0.015625)"/>
      </defs>
      <use xlink:href="#DejaVuSans-74"/>
      <use xlink:href="#DejaVuSans-3d" x="39.208984"/>
      <use xlink:href="#DejaVuSans-31" x="122.998047"/>
      <use xlink:href="#DejaVuSans-32" x="186.621094"/>
      <use xlink:href="#DejaVuSans-37" x="250.244141"/>
      <use xlink:href="#DejaVuSans-20" x="313.867188"/>
      <use xlink:href="#DejaVuSans-73" x="345.654297"/>
      <use xlink:href="#DejaVuSans-65" x="397.753906"/>
      <use xlink:href="#DejaVuSans-63" x="459.277344"/>
     </g>
    </g>
    <g id="line2d_22">
     <path d="M 405.059375 166.664844 
L 430.059375 166.664844 
L 455.059375 166.664844 
" style="fill: none; stroke-dasharray: 11.1,4.8; stroke-dashoffset: 0; stroke: #008000; stroke-width: 3"/>
    </g>
    <g id="text_14">
     <!-- t=487 sec -->
     <g transform="translate(475.059375 175.414844)scale(0.25 -0.25)">
      <defs>
       <path id="DejaVuSans-38" d="M 2034 2216 
Q 1584 2216 1326 1975 
Q 1069 1734 1069 1313 
Q 1069 891 1326 650 
Q 1584 409 2034 409 
Q 2484 409 2743 651 
Q 3003 894 3003 1313 
Q 3003 1734 2745 1975 
Q 2488 2216 2034 2216 
z
M 1403 2484 
Q 997 2584 770 2862 
Q 544 3141 544 3541 
Q 544 4100 942 4425 
Q 1341 4750 2034 4750 
Q 2731 4750 3128 4425 
Q 3525 4100 3525 3541 
Q 3525 3141 3298 2862 
Q 3072 2584 2669 2484 
Q 3125 2378 3379 2068 
Q 3634 1759 3634 1313 
Q 3634 634 3220 271 
Q 2806 -91 2034 -91 
Q 1263 -91 848 271 
Q 434 634 434 1313 
Q 434 1759 690 2068 
Q 947 2378 1403 2484 
z
M 1172 3481 
Q 1172 3119 1398 2916 
Q 1625 2713 2034 2713 
Q 2441 2713 2670 2916 
Q 2900 3119 2900 3481 
Q 2900 3844 2670 4047 
Q 2441 4250 2034 4250 
Q 1625 4250 1398 4047 
Q 1172 3844 1172 3481 
z
" transform="scale(0.015625)"/>
      </defs>
      <use xlink:href="#DejaVuSans-74"/>
      <use xlink:href="#DejaVuSans-3d" x="39.208984"/>
      <use xlink:href="#DejaVuSans-34" x="122.998047"/>
      <use xlink:href="#DejaVuSans-38" x="186.621094"/>
      <use xlink:href="#DejaVuSans-37" x="250.244141"/>
      <use xlink:href="#DejaVuSans-20" x="313.867188"/>
      <use xlink:href="#DejaVuSans-73" x="345.654297"/>
      <use xlink:href="#DejaVuSans-65" x="397.753906"/>
      <use xlink:href="#DejaVuSans-63" x="459.277344"/>
     </g>
    </g>
    <g id="line2d_23">
     <path d="M 405.059375 203.360156 
L 430.059375 203.360156 
L 455.059375 203.360156 
" style="fill: none; stroke-dasharray: 19.2,4.8,3,4.8; stroke-dashoffset: 0; stroke: #008000; stroke-width: 3"/>
    </g>
    <g id="text_15">
     <!-- t=967 sec -->
     <g transform="translate(475.059375 212.110156)scale(0.25 -0.25)">
      <defs>
       <path id="DejaVuSans-39" d="M 703 97 
L 703 672 
Q 941 559 1184 500 
Q 1428 441 1663 441 
Q 2288 441 2617 861 
Q 2947 1281 2994 2138 
Q 2813 1869 2534 1725 
Q 2256 1581 1919 1581 
Q 1219 1581 811 2004 
Q 403 2428 403 3163 
Q 403 3881 828 4315 
Q 1253 4750 1959 4750 
Q 2769 4750 3195 4129 
Q 3622 3509 3622 2328 
Q 3622 1225 3098 567 
Q 2575 -91 1691 -91 
Q 1453 -91 1209 -44 
Q 966 3 703 97 
z
M 1959 2075 
Q 2384 2075 2632 2365 
Q 2881 2656 2881 3163 
Q 2881 3666 2632 3958 
Q 2384 4250 1959 4250 
Q 1534 4250 1286 3958 
Q 1038 3666 1038 3163 
Q 1038 2656 1286 2365 
Q 1534 2075 1959 2075 
z
" transform="scale(0.015625)"/>
      </defs>
      <use xlink:href="#DejaVuSans-74"/>
      <use xlink:href="#DejaVuSans-3d" x="39.208984"/>
      <use xlink:href="#DejaVuSans-39" x="122.998047"/>
      <use xlink:href="#DejaVuSans-36" x="186.621094"/>
      <use xlink:href="#DejaVuSans-37" x="250.244141"/>
      <use xlink:href="#DejaVuSans-20" x="313.867188"/>
      <use xlink:href="#DejaVuSans-73" x="345.654297"/>
      <use xlink:href="#DejaVuSans-65" x="397.753906"/>
      <use xlink:href="#DejaVuSans-63" x="459.277344"/>
     </g>
    </g>
    <g id="line2d_24">
     <path d="M 405.059375 240.055469 
L 430.059375 240.055469 
L 455.059375 240.055469 
" style="fill: none; stroke-dasharray: 3,4.95; stroke-dashoffset: 0; stroke: #008000; stroke-width: 3"/>
    </g>
    <g id="text_16">
     <!-- t=1327 sec -->
     <g transform="translate(475.059375 248.805469)scale(0.25 -0.25)">
      <use xlink:href="#DejaVuSans-74"/>
      <use xlink:href="#DejaVuSans-3d" x="39.208984"/>
      <use xlink:href="#DejaVuSans-31" x="122.998047"/>
      <use xlink:href="#DejaVuSans-33" x="186.621094"/>
      <use xlink:href="#DejaVuSans-32" x="250.244141"/>
      <use xlink:href="#DejaVuSans-37" x="313.867188"/>
      <use xlink:href="#DejaVuSans-20" x="377.490234"/>
      <use xlink:href="#DejaVuSans-73" x="409.277344"/>
      <use xlink:href="#DejaVuSans-65" x="461.376953"/>
      <use xlink:href="#DejaVuSans-63" x="522.900391"/>
     </g>
    </g>
    <g id="line2d_25">
     <path d="M 405.059375 276.750781 
L 430.059375 276.750781 
L 455.059375 276.750781 
" style="fill: none; stroke-dasharray: 9,15,3,15,3,15; stroke-dashoffset: 0; stroke: #008000; stroke-width: 3"/>
    </g>
    <g id="text_17">
     <!-- t=1807 sec -->
     <g transform="translate(475.059375 285.500781)scale(0.25 -0.25)">
      <use xlink:href="#DejaVuSans-74"/>
      <use xlink:href="#DejaVuSans-3d" x="39.208984"/>
      <use xlink:href="#DejaVuSans-31" x="122.998047"/>
      <use xlink:href="#DejaVuSans-38" x="186.621094"/>
      <use xlink:href="#DejaVuSans-30" x="250.244141"/>
      <use xlink:href="#DejaVuSans-37" x="313.867188"/>
      <use xlink:href="#DejaVuSans-20" x="377.490234"/>
      <use xlink:href="#DejaVuSans-73" x="409.277344"/>
      <use xlink:href="#DejaVuSans-65" x="461.376953"/>
      <use xlink:href="#DejaVuSans-63" x="522.900391"/>
     </g>
    </g>
   </g>
   <g id="legend_2">
    <g id="patch_9">
     <path d="M 402.059375 102.590625 
L 559.907031 102.590625 
Q 564.907031 102.590625 564.907031 97.590625 
L 564.907031 26.7 
Q 564.907031 21.7 559.907031 21.7 
L 402.059375 21.7 
Q 397.059375 21.7 397.059375 26.7 
L 397.059375 97.590625 
Q 397.059375 102.590625 402.059375 102.590625 
z
" style="fill: #4c4c4c; opacity: 0.5; stroke: #4c4c4c; stroke-linejoin: miter"/>
    </g>
    <g id="patch_10">
     <path d="M 400.059375 100.590625 
L 557.907031 100.590625 
Q 562.907031 100.590625 562.907031 95.590625 
L 562.907031 24.7 
Q 562.907031 19.7 557.907031 19.7 
L 400.059375 19.7 
Q 395.059375 19.7 395.059375 24.7 
L 395.059375 95.590625 
Q 395.059375 100.590625 400.059375 100.590625 
z
" style="fill: #ffffff; stroke: #cccccc; stroke-linejoin: miter"/>
    </g>
    <g id="line2d_26">
     <path d="M 405.059375 39.946094 
L 430.059375 39.946094 
L 455.059375 39.946094 
" style="fill: none; stroke: #000000; stroke-width: 3; stroke-linecap: square"/>
    </g>
    <g id="text_18">
     <!-- model -->
     <g transform="translate(475.059375 48.696094)scale(0.25 -0.25)">
      <defs>
       <path id="DejaVuSans-64" d="M 2906 2969 
L 2906 4863 
L 3481 4863 
L 3481 0 
L 2906 0 
L 2906 525 
Q 2725 213 2448 61 
Q 2172 -91 1784 -91 
Q 1150 -91 751 415 
Q 353 922 353 1747 
Q 353 2572 751 3078 
Q 1150 3584 1784 3584 
Q 2172 3584 2448 3432 
Q 2725 3281 2906 2969 
z
M 947 1747 
Q 947 1113 1208 752 
Q 1469 391 1925 391 
Q 2381 391 2643 752 
Q 2906 1113 2906 1747 
Q 2906 2381 2643 2742 
Q 2381 3103 1925 3103 
Q 1469 3103 1208 2742 
Q 947 2381 947 1747 
z
" transform="scale(0.015625)"/>
       <path id="DejaVuSans-6c" d="M 603 4863 
L 1178 4863 
L 1178 0 
L 603 0 
L 603 4863 
z
" transform="scale(0.015625)"/>
      </defs>
      <use xlink:href="#DejaVuSans-6d"/>
      <use xlink:href="#DejaVuSans-6f" x="97.412109"/>
      <use xlink:href="#DejaVuSans-64" x="158.59375"/>
      <use xlink:href="#DejaVuSans-65" x="222.070312"/>
      <use xlink:href="#DejaVuSans-6c" x="283.59375"/>
     </g>
    </g>
    <g id="line2d_27">
     <path d="M 405.059375 76.641406 
L 430.059375 76.641406 
L 455.059375 76.641406 
" style="fill: none; stroke: #008000; stroke-width: 3; stroke-linecap: square"/>
    </g>
    <g id="text_19">
     <!-- data -->
     <g transform="translate(475.059375 85.391406)scale(0.25 -0.25)">
      <use xlink:href="#DejaVuSans-64"/>
      <use xlink:href="#DejaVuSans-61" x="63.476562"/>
      <use xlink:href="#DejaVuSans-74" x="124.755859"/>
      <use xlink:href="#DejaVuSans-61" x="163.964844"/>
     </g>
    </g>
   </g>
  </g>
 </g>
 <defs>
  <clipPath id="p205d516c90">
   <rect x="94.559375" y="7.2" width="288" height="360"/>
  </clipPath>
 </defs>
</svg>
