<?xml version="1.0" encoding="utf-8" standalone="no"?>
<!DOCTYPE svg PUBLIC "-//W3C//DTD SVG 1.1//EN"
  "http://www.w3.org/Graphics/SVG/1.1/DTD/svg11.dtd">
<svg xmlns:xlink="http://www.w3.org/1999/xlink" width="636.732031pt" height="430.290625pt" viewBox="0 0 636.732031 430.290625" xmlns="http://www.w3.org/2000/svg" version="1.1">
 <metadata>
  <rdf:RDF xmlns:dc="http://purl.org/dc/elements/1.1/" xmlns:cc="http://creativecommons.org/ns#" xmlns:rdf="http://www.w3.org/1999/02/22-rdf-syntax-ns#">
   <cc:Work>
    <dc:type rdf:resource="http://purl.org/dc/dcmitype/StillImage"/>
    <dc:date>2024-06-03T09:49:33.608699</dc:date>
    <dc:format>image/svg+xml</dc:format>
    <dc:creator>
     <cc:Agent>
      <dc:title>Matplotlib v3.5.2, https://matplotlib.org/</dc:title>
     </cc:Agent>
    </dc:creator>
   </cc:Work>
  </rdf:RDF>
 </metadata>
 <defs>
  <style type="text/css">*{stroke-linejoin: round; stroke-linecap: butt}</style>
 </defs>
 <g id="figure_1">
  <g id="patch_1">
   <path d="M 0 430.290625 
L 636.732031 430.290625 
L 636.732031 0 
L 0 0 
z
" style="fill: #ffffff"/>
  </g>
  <g id="axes_1">
   <g id="patch_2">
    <path d="M 94.559375 367.2 
L 382.559375 367.2 
L 382.559375 7.2 
L 94.559375 7.2 
z
" style="fill: #ffffff"/>
   </g>
   <g id="matplotlib.axis_1">
    <g id="xtick_1">
     <g id="line2d_1">
      <defs>
       <path id="m094c2e3057" d="M 0 0 
L 0 -4 
" style="stroke: #000000; stroke-width: 3"/>
      </defs>
      <g>
       <use xlink:href="#m094c2e3057" x="106.32797" y="367.2" style="stroke: #000000; stroke-width: 3"/>
      </g>
     </g>
     <g id="text_1">
      <!-- 0 -->
      <g transform="translate(98.374845 389.696094)scale(0.25 -0.25)">
       <defs>
        <path id="DejaVuSans-30" d="M 2034 4250 
Q 1547 4250 1301 3770 
Q 1056 3291 1056 2328 
Q 1056 1369 1301 889 
Q 1547 409 2034 409 
Q 2525 409 2770 889 
Q 3016 1369 3016 2328 
Q 3016 3291 2770 3770 
Q 2525 4250 2034 4250 
z
M 2034 4750 
Q 2819 4750 3233 4129 
Q 3647 3509 3647 2328 
Q 3647 1150 3233 529 
Q 2819 -91 2034 -91 
Q 1250 -91 836 529 
Q 422 1150 422 2328 
Q 422 3509 836 4129 
Q 1250 4750 2034 4750 
z
" transform="scale(0.015625)"/>
       </defs>
       <use xlink:href="#DejaVuSans-30"/>
      </g>
     </g>
    </g>
    <g id="xtick_2">
     <g id="line2d_2">
      <g>
       <use xlink:href="#m094c2e3057" x="235.966602" y="367.2" style="stroke: #000000; stroke-width: 3"/>
      </g>
     </g>
     <g id="text_2">
      <!-- 10 -->
      <g transform="translate(220.060352 389.696094)scale(0.25 -0.25)">
       <defs>
        <path id="DejaVuSans-31" d="M 794 531 
L 1825 531 
L 1825 4091 
L 703 3866 
L 703 4441 
L 1819 4666 
L 2450 4666 
L 2450 531 
L 3481 531 
L 3481 0 
L 794 0 
L 794 531 
z
" transform="scale(0.015625)"/>
       </defs>
       <use xlink:href="#DejaVuSans-31"/>
       <use xlink:href="#DejaVuSans-30" x="63.623047"/>
      </g>
     </g>
    </g>
    <g id="xtick_3">
     <g id="line2d_3">
      <g>
       <use xlink:href="#m094c2e3057" x="365.605235" y="367.2" style="stroke: #000000; stroke-width: 3"/>
      </g>
     </g>
     <g id="text_3">
      <!-- 20 -->
      <g transform="translate(349.698985 389.696094)scale(0.25 -0.25)">
       <defs>
        <path id="DejaVuSans-32" d="M 1228 531 
L 3431 531 
L 3431 0 
L 469 0 
L 469 531 
Q 828 903 1448 1529 
Q 2069 2156 2228 2338 
Q 2531 2678 2651 2914 
Q 2772 3150 2772 3378 
Q 2772 3750 2511 3984 
Q 2250 4219 1831 4219 
Q 1534 4219 1204 4116 
Q 875 4013 500 3803 
L 500 4441 
Q 881 4594 1212 4672 
Q 1544 4750 1819 4750 
Q 2544 4750 2975 4387 
Q 3406 4025 3406 3419 
Q 3406 3131 3298 2873 
Q 3191 2616 2906 2266 
Q 2828 2175 2409 1742 
Q 1991 1309 1228 531 
z
" transform="scale(0.015625)"/>
       </defs>
       <use xlink:href="#DejaVuSans-32"/>
       <use xlink:href="#DejaVuSans-30" x="63.623047"/>
      </g>
     </g>
    </g>
    <g id="text_4">
     <!-- z-position [μm] -->
     <g transform="translate(144.121875 417.891406)scale(0.25 -0.25)">
      <defs>
       <path id="DejaVuSans-7a" d="M 353 3500 
L 3084 3500 
L 3084 2975 
L 922 459 
L 3084 459 
L 3084 0 
L 275 0 
L 275 525 
L 2438 3041 
L 353 3041 
L 353 3500 
z
" transform="scale(0.015625)"/>
       <path id="DejaVuSans-2d" d="M 313 2009 
L 1997 2009 
L 1997 1497 
L 313 1497 
L 313 2009 
z
" transform="scale(0.015625)"/>
       <path id="DejaVuSans-70" d="M 1159 525 
L 1159 -1331 
L 581 -1331 
L 581 3500 
L 1159 3500 
L 1159 2969 
Q 1341 3281 1617 3432 
Q 1894 3584 2278 3584 
Q 2916 3584 3314 3078 
Q 3713 2572 3713 1747 
Q 3713 922 3314 415 
Q 2916 -91 2278 -91 
Q 1894 -91 1617 61 
Q 1341 213 1159 525 
z
M 3116 1747 
Q 3116 2381 2855 2742 
Q 2594 3103 2138 3103 
Q 1681 3103 1420 2742 
Q 1159 2381 1159 1747 
Q 1159 1113 1420 752 
Q 1681 391 2138 391 
Q 2594 391 2855 752 
Q 3116 1113 3116 1747 
z
" transform="scale(0.015625)"/>
       <path id="DejaVuSans-6f" d="M 1959 3097 
Q 1497 3097 1228 2736 
Q 959 2375 959 1747 
Q 959 1119 1226 758 
Q 1494 397 1959 397 
Q 2419 397 2687 759 
Q 2956 1122 2956 1747 
Q 2956 2369 2687 2733 
Q 2419 3097 1959 3097 
z
M 1959 3584 
Q 2709 3584 3137 3096 
Q 3566 2609 3566 1747 
Q 3566 888 3137 398 
Q 2709 -91 1959 -91 
Q 1206 -91 779 398 
Q 353 888 353 1747 
Q 353 2609 779 3096 
Q 1206 3584 1959 3584 
z
" transform="scale(0.015625)"/>
       <path id="DejaVuSans-73" d="M 2834 3397 
L 2834 2853 
Q 2591 2978 2328 3040 
Q 2066 3103 1784 3103 
Q 1356 3103 1142 2972 
Q 928 2841 928 2578 
Q 928 2378 1081 2264 
Q 1234 2150 1697 2047 
L 1894 2003 
Q 2506 1872 2764 1633 
Q 3022 1394 3022 966 
Q 3022 478 2636 193 
Q 2250 -91 1575 -91 
Q 1294 -91 989 -36 
Q 684 19 347 128 
L 347 722 
Q 666 556 975 473 
Q 1284 391 1588 391 
Q 1994 391 2212 530 
Q 2431 669 2431 922 
Q 2431 1156 2273 1281 
Q 2116 1406 1581 1522 
L 1381 1569 
Q 847 1681 609 1914 
Q 372 2147 372 2553 
Q 372 3047 722 3315 
Q 1072 3584 1716 3584 
Q 2034 3584 2315 3537 
Q 2597 3491 2834 3397 
z
" transform="scale(0.015625)"/>
       <path id="DejaVuSans-69" d="M 603 3500 
L 1178 3500 
L 1178 0 
L 603 0 
L 603 3500 
z
M 603 4863 
L 1178 4863 
L 1178 4134 
L 603 4134 
L 603 4863 
z
" transform="scale(0.015625)"/>
       <path id="DejaVuSans-74" d="M 1172 4494 
L 1172 3500 
L 2356 3500 
L 2356 3053 
L 1172 3053 
L 1172 1153 
Q 1172 725 1289 603 
Q 1406 481 1766 481 
L 2356 481 
L 2356 0 
L 1766 0 
Q 1100 0 847 248 
Q 594 497 594 1153 
L 594 3053 
L 172 3053 
L 172 3500 
L 594 3500 
L 594 4494 
L 1172 4494 
z
" transform="scale(0.015625)"/>
       <path id="DejaVuSans-6e" d="M 3513 2113 
L 3513 0 
L 2938 0 
L 2938 2094 
Q 2938 2591 2744 2837 
Q 2550 3084 2163 3084 
Q 1697 3084 1428 2787 
Q 1159 2491 1159 1978 
L 1159 0 
L 581 0 
L 581 3500 
L 1159 3500 
L 1159 2956 
Q 1366 3272 1645 3428 
Q 1925 3584 2291 3584 
Q 2894 3584 3203 3211 
Q 3513 2838 3513 2113 
z
" transform="scale(0.015625)"/>
       <path id="DejaVuSans-20" transform="scale(0.015625)"/>
       <path id="DejaVuSans-5b" d="M 550 4863 
L 1875 4863 
L 1875 4416 
L 1125 4416 
L 1125 -397 
L 1875 -397 
L 1875 -844 
L 550 -844 
L 550 4863 
z
" transform="scale(0.015625)"/>
       <path id="DejaVuSans-3bc" d="M 544 -1331 
L 544 3500 
L 1119 3500 
L 1119 1325 
Q 1119 872 1334 640 
Q 1550 409 1972 409 
Q 2434 409 2667 671 
Q 2900 934 2900 1459 
L 2900 3500 
L 3475 3500 
L 3475 806 
Q 3475 619 3529 530 
Q 3584 441 3700 441 
Q 3728 441 3778 458 
Q 3828 475 3916 513 
L 3916 50 
Q 3788 -22 3673 -56 
Q 3559 -91 3450 -91 
Q 3234 -91 3106 31 
Q 2978 153 2931 403 
Q 2775 156 2548 32 
Q 2322 -91 2016 -91 
Q 1697 -91 1473 31 
Q 1250 153 1119 397 
L 1119 -1331 
L 544 -1331 
z
" transform="scale(0.015625)"/>
       <path id="DejaVuSans-6d" d="M 3328 2828 
Q 3544 3216 3844 3400 
Q 4144 3584 4550 3584 
Q 5097 3584 5394 3201 
Q 5691 2819 5691 2113 
L 5691 0 
L 5113 0 
L 5113 2094 
Q 5113 2597 4934 2840 
Q 4756 3084 4391 3084 
Q 3944 3084 3684 2787 
Q 3425 2491 3425 1978 
L 3425 0 
L 2847 0 
L 2847 2094 
Q 2847 2600 2669 2842 
Q 2491 3084 2119 3084 
Q 1678 3084 1418 2786 
Q 1159 2488 1159 1978 
L 1159 0 
L 581 0 
L 581 3500 
L 1159 3500 
L 1159 2956 
Q 1356 3278 1631 3431 
Q 1906 3584 2284 3584 
Q 2666 3584 2933 3390 
Q 3200 3197 3328 2828 
z
" transform="scale(0.015625)"/>
       <path id="DejaVuSans-5d" d="M 1947 4863 
L 1947 -844 
L 622 -844 
L 622 -397 
L 1369 -397 
L 1369 4416 
L 622 4416 
L 622 4863 
L 1947 4863 
z
" transform="scale(0.015625)"/>
      </defs>
      <use xlink:href="#DejaVuSans-7a"/>
      <use xlink:href="#DejaVuSans-2d" x="52.490234"/>
      <use xlink:href="#DejaVuSans-70" x="88.574219"/>
      <use xlink:href="#DejaVuSans-6f" x="152.050781"/>
      <use xlink:href="#DejaVuSans-73" x="213.232422"/>
      <use xlink:href="#DejaVuSans-69" x="265.332031"/>
      <use xlink:href="#DejaVuSans-74" x="293.115234"/>
      <use xlink:href="#DejaVuSans-69" x="332.324219"/>
      <use xlink:href="#DejaVuSans-6f" x="360.107422"/>
      <use xlink:href="#DejaVuSans-6e" x="421.289062"/>
      <use xlink:href="#DejaVuSans-20" x="484.667969"/>
      <use xlink:href="#DejaVuSans-5b" x="516.455078"/>
      <use xlink:href="#DejaVuSans-3bc" x="555.46875"/>
      <use xlink:href="#DejaVuSans-6d" x="619.091797"/>
      <use xlink:href="#DejaVuSans-5d" x="716.503906"/>
     </g>
    </g>
   </g>
   <g id="matplotlib.axis_2">
    <g id="ytick_1">
     <g id="line2d_4">
      <defs>
       <path id="mc204b9ac72" d="M 0 0 
L 4 0 
" style="stroke: #000000; stroke-width: 3"/>
      </defs>
      <g>
       <use xlink:href="#mc204b9ac72" x="94.559375" y="355.268398" style="stroke: #000000; stroke-width: 3"/>
      </g>
     </g>
     <g id="text_5">
      <!-- 0.00 -->
      <g transform="translate(35.395313 364.766445)scale(0.25 -0.25)">
       <defs>
        <path id="DejaVuSans-2e" d="M 684 794 
L 1344 794 
L 1344 0 
L 684 0 
L 684 794 
z
" transform="scale(0.015625)"/>
       </defs>
       <use xlink:href="#DejaVuSans-30"/>
       <use xlink:href="#DejaVuSans-2e" x="63.623047"/>
       <use xlink:href="#DejaVuSans-30" x="95.410156"/>
       <use xlink:href="#DejaVuSans-30" x="159.033203"/>
      </g>
     </g>
    </g>
    <g id="ytick_2">
     <g id="line2d_5">
      <g>
       <use xlink:href="#mc204b9ac72" x="94.559375" y="287.744418" style="stroke: #000000; stroke-width: 3"/>
      </g>
     </g>
     <g id="text_6">
      <!-- 0.01 -->
      <g transform="translate(35.395313 297.242465)scale(0.25 -0.25)">
       <use xlink:href="#DejaVuSans-30"/>
       <use xlink:href="#DejaVuSans-2e" x="63.623047"/>
       <use xlink:href="#DejaVuSans-30" x="95.410156"/>
       <use xlink:href="#DejaVuSans-31" x="159.033203"/>
      </g>
     </g>
    </g>
    <g id="ytick_3">
     <g id="line2d_6">
      <g>
       <use xlink:href="#mc204b9ac72" x="94.559375" y="220.220438" style="stroke: #000000; stroke-width: 3"/>
      </g>
     </g>
     <g id="text_7">
      <!-- 0.02 -->
      <g transform="translate(35.395313 229.718485)scale(0.25 -0.25)">
       <use xlink:href="#DejaVuSans-30"/>
       <use xlink:href="#DejaVuSans-2e" x="63.623047"/>
       <use xlink:href="#DejaVuSans-30" x="95.410156"/>
       <use xlink:href="#DejaVuSans-32" x="159.033203"/>
      </g>
     </g>
    </g>
    <g id="ytick_4">
     <g id="line2d_7">
      <g>
       <use xlink:href="#mc204b9ac72" x="94.559375" y="152.696458" style="stroke: #000000; stroke-width: 3"/>
      </g>
     </g>
     <g id="text_8">
      <!-- 0.03 -->
      <g transform="translate(35.395313 162.194505)scale(0.25 -0.25)">
       <defs>
        <path id="DejaVuSans-33" d="M 2597 2516 
Q 3050 2419 3304 2112 
Q 3559 1806 3559 1356 
Q 3559 666 3084 287 
Q 2609 -91 1734 -91 
Q 1441 -91 1130 -33 
Q 819 25 488 141 
L 488 750 
Q 750 597 1062 519 
Q 1375 441 1716 441 
Q 2309 441 2620 675 
Q 2931 909 2931 1356 
Q 2931 1769 2642 2001 
Q 2353 2234 1838 2234 
L 1294 2234 
L 1294 2753 
L 1863 2753 
Q 2328 2753 2575 2939 
Q 2822 3125 2822 3475 
Q 2822 3834 2567 4026 
Q 2313 4219 1838 4219 
Q 1578 4219 1281 4162 
Q 984 4106 628 3988 
L 628 4550 
Q 988 4650 1302 4700 
Q 1616 4750 1894 4750 
Q 2613 4750 3031 4423 
Q 3450 4097 3450 3541 
Q 3450 3153 3228 2886 
Q 3006 2619 2597 2516 
z
" transform="scale(0.015625)"/>
       </defs>
       <use xlink:href="#DejaVuSans-30"/>
       <use xlink:href="#DejaVuSans-2e" x="63.623047"/>
       <use xlink:href="#DejaVuSans-30" x="95.410156"/>
       <use xlink:href="#DejaVuSans-33" x="159.033203"/>
      </g>
     </g>
    </g>
    <g id="ytick_5">
     <g id="line2d_8">
      <g>
       <use xlink:href="#mc204b9ac72" x="94.559375" y="85.172478" style="stroke: #000000; stroke-width: 3"/>
      </g>
     </g>
     <g id="text_9">
      <!-- 0.04 -->
      <g transform="translate(35.395313 94.670525)scale(0.25 -0.25)">
       <defs>
        <path id="DejaVuSans-34" d="M 2419 4116 
L 825 1625 
L 2419 1625 
L 2419 4116 
z
M 2253 4666 
L 3047 4666 
L 3047 1625 
L 3713 1625 
L 3713 1100 
L 3047 1100 
L 3047 0 
L 2419 0 
L 2419 1100 
L 313 1100 
L 313 1709 
L 2253 4666 
z
" transform="scale(0.015625)"/>
       </defs>
       <use xlink:href="#DejaVuSans-30"/>
       <use xlink:href="#DejaVuSans-2e" x="63.623047"/>
       <use xlink:href="#DejaVuSans-30" x="95.410156"/>
       <use xlink:href="#DejaVuSans-34" x="159.033203"/>
      </g>
     </g>
    </g>
    <g id="ytick_6">
     <g id="line2d_9">
      <g>
       <use xlink:href="#mc204b9ac72" x="94.559375" y="17.648498" style="stroke: #000000; stroke-width: 3"/>
      </g>
     </g>
     <g id="text_10">
      <!-- 0.05 -->
      <g transform="translate(35.395313 27.146545)scale(0.25 -0.25)">
       <defs>
        <path id="DejaVuSans-35" d="M 691 4666 
L 3169 4666 
L 3169 4134 
L 1269 4134 
L 1269 2991 
Q 1406 3038 1543 3061 
Q 1681 3084 1819 3084 
Q 2600 3084 3056 2656 
Q 3513 2228 3513 1497 
Q 3513 744 3044 326 
Q 2575 -91 1722 -91 
Q 1428 -91 1123 -41 
Q 819 9 494 109 
L 494 744 
Q 775 591 1075 516 
Q 1375 441 1709 441 
Q 2250 441 2565 725 
Q 2881 1009 2881 1497 
Q 2881 1984 2565 2268 
Q 2250 2553 1709 2553 
Q 1456 2553 1204 2497 
Q 953 2441 691 2322 
L 691 4666 
z
" transform="scale(0.015625)"/>
       </defs>
       <use xlink:href="#DejaVuSans-30"/>
       <use xlink:href="#DejaVuSans-2e" x="63.623047"/>
       <use xlink:href="#DejaVuSans-30" x="95.410156"/>
       <use xlink:href="#DejaVuSans-35" x="159.033203"/>
      </g>
     </g>
    </g>
    <g id="text_11">
     <!-- Concentration [mM] -->
     <g transform="translate(26.196094 312.315234)rotate(-90)scale(0.25 -0.25)">
      <defs>
       <path id="DejaVuSans-43" d="M 4122 4306 
L 4122 3641 
Q 3803 3938 3442 4084 
Q 3081 4231 2675 4231 
Q 1875 4231 1450 3742 
Q 1025 3253 1025 2328 
Q 1025 1406 1450 917 
Q 1875 428 2675 428 
Q 3081 428 3442 575 
Q 3803 722 4122 1019 
L 4122 359 
Q 3791 134 3420 21 
Q 3050 -91 2638 -91 
Q 1578 -91 968 557 
Q 359 1206 359 2328 
Q 359 3453 968 4101 
Q 1578 4750 2638 4750 
Q 3056 4750 3426 4639 
Q 3797 4528 4122 4306 
z
" transform="scale(0.015625)"/>
       <path id="DejaVuSans-63" d="M 3122 3366 
L 3122 2828 
Q 2878 2963 2633 3030 
Q 2388 3097 2138 3097 
Q 1578 3097 1268 2742 
Q 959 2388 959 1747 
Q 959 1106 1268 751 
Q 1578 397 2138 397 
Q 2388 397 2633 464 
Q 2878 531 3122 666 
L 3122 134 
Q 2881 22 2623 -34 
Q 2366 -91 2075 -91 
Q 1284 -91 818 406 
Q 353 903 353 1747 
Q 353 2603 823 3093 
Q 1294 3584 2113 3584 
Q 2378 3584 2631 3529 
Q 2884 3475 3122 3366 
z
" transform="scale(0.015625)"/>
       <path id="DejaVuSans-65" d="M 3597 1894 
L 3597 1613 
L 953 1613 
Q 991 1019 1311 708 
Q 1631 397 2203 397 
Q 2534 397 2845 478 
Q 3156 559 3463 722 
L 3463 178 
Q 3153 47 2828 -22 
Q 2503 -91 2169 -91 
Q 1331 -91 842 396 
Q 353 884 353 1716 
Q 353 2575 817 3079 
Q 1281 3584 2069 3584 
Q 2775 3584 3186 3129 
Q 3597 2675 3597 1894 
z
M 3022 2063 
Q 3016 2534 2758 2815 
Q 2500 3097 2075 3097 
Q 1594 3097 1305 2825 
Q 1016 2553 972 2059 
L 3022 2063 
z
" transform="scale(0.015625)"/>
       <path id="DejaVuSans-72" d="M 2631 2963 
Q 2534 3019 2420 3045 
Q 2306 3072 2169 3072 
Q 1681 3072 1420 2755 
Q 1159 2438 1159 1844 
L 1159 0 
L 581 0 
L 581 3500 
L 1159 3500 
L 1159 2956 
Q 1341 3275 1631 3429 
Q 1922 3584 2338 3584 
Q 2397 3584 2469 3576 
Q 2541 3569 2628 3553 
L 2631 2963 
z
" transform="scale(0.015625)"/>
       <path id="DejaVuSans-61" d="M 2194 1759 
Q 1497 1759 1228 1600 
Q 959 1441 959 1056 
Q 959 750 1161 570 
Q 1363 391 1709 391 
Q 2188 391 2477 730 
Q 2766 1069 2766 1631 
L 2766 1759 
L 2194 1759 
z
M 3341 1997 
L 3341 0 
L 2766 0 
L 2766 531 
Q 2569 213 2275 61 
Q 1981 -91 1556 -91 
Q 1019 -91 701 211 
Q 384 513 384 1019 
Q 384 1609 779 1909 
Q 1175 2209 1959 2209 
L 2766 2209 
L 2766 2266 
Q 2766 2663 2505 2880 
Q 2244 3097 1772 3097 
Q 1472 3097 1187 3025 
Q 903 2953 641 2809 
L 641 3341 
Q 956 3463 1253 3523 
Q 1550 3584 1831 3584 
Q 2591 3584 2966 3190 
Q 3341 2797 3341 1997 
z
" transform="scale(0.015625)"/>
       <path id="DejaVuSans-4d" d="M 628 4666 
L 1569 4666 
L 2759 1491 
L 3956 4666 
L 4897 4666 
L 4897 0 
L 4281 0 
L 4281 4097 
L 3078 897 
L 2444 897 
L 1241 4097 
L 1241 0 
L 628 0 
L 628 4666 
z
" transform="scale(0.015625)"/>
      </defs>
      <use xlink:href="#DejaVuSans-43"/>
      <use xlink:href="#DejaVuSans-6f" x="69.824219"/>
      <use xlink:href="#DejaVuSans-6e" x="131.005859"/>
      <use xlink:href="#DejaVuSans-63" x="194.384766"/>
      <use xlink:href="#DejaVuSans-65" x="249.365234"/>
      <use xlink:href="#DejaVuSans-6e" x="310.888672"/>
      <use xlink:href="#DejaVuSans-74" x="374.267578"/>
      <use xlink:href="#DejaVuSans-72" x="413.476562"/>
      <use xlink:href="#DejaVuSans-61" x="454.589844"/>
      <use xlink:href="#DejaVuSans-74" x="515.869141"/>
      <use xlink:href="#DejaVuSans-69" x="555.078125"/>
      <use xlink:href="#DejaVuSans-6f" x="582.861328"/>
      <use xlink:href="#DejaVuSans-6e" x="644.042969"/>
      <use xlink:href="#DejaVuSans-20" x="707.421875"/>
      <use xlink:href="#DejaVuSans-5b" x="739.208984"/>
      <use xlink:href="#DejaVuSans-6d" x="778.222656"/>
      <use xlink:href="#DejaVuSans-4d" x="875.634766"/>
      <use xlink:href="#DejaVuSans-5d" x="961.914062"/>
     </g>
    </g>
   </g>
   <g id="line2d_10">
    <path d="M 107.650284 348.812329 
L 110.294912 348.903104 
L 112.93954 348.99023 
L 115.584168 349.073841 
L 118.228796 349.154066 
L 120.873425 349.23103 
L 123.518053 349.304854 
L 126.162681 349.375656 
L 128.807309 349.44355 
L 131.451937 349.508645 
L 134.096565 349.57105 
L 136.741193 349.630867 
L 139.385821 349.688196 
L 142.030449 349.743133 
L 144.675077 349.795773 
L 147.319706 349.846205 
L 149.964334 349.894516 
L 152.608962 349.94079 
L 155.25359 349.98511 
L 157.898218 350.027552 
L 160.542846 350.068192 
L 163.187474 350.107104 
L 165.832102 350.144356 
L 168.47673 350.180017 
L 171.121358 350.214151 
L 173.765987 350.246821 
L 176.410615 350.278086 
L 179.055243 350.308004 
L 181.699871 350.33663 
L 184.344499 350.364018 
L 186.989127 350.390217 
L 189.633755 350.415276 
L 192.278383 350.439242 
L 194.923011 350.46216 
L 197.567639 350.48407 
L 200.212268 350.505014 
L 202.856896 350.52503 
L 205.501524 350.544154 
L 208.146152 350.562422 
L 210.79078 350.579864 
L 213.435408 350.596514 
L 216.080036 350.612399 
L 218.724664 350.627547 
L 221.369292 350.641983 
L 224.01392 350.655732 
L 226.658549 350.668815 
L 229.303177 350.681253 
L 231.947805 350.693064 
L 234.592433 350.704267 
L 237.237061 350.714875 
L 239.881689 350.724904 
L 242.526317 350.734479 
L 245.170945 350.743609 
L 247.815573 350.752302 
L 250.460201 350.760564 
L 253.10483 350.768401 
L 255.749458 350.775816 
L 258.394086 350.782814 
L 261.038714 350.789396 
L 263.683342 350.795563 
L 266.32797 350.801315 
L 268.972598 350.806651 
L 271.617226 350.811569 
L 274.261854 350.816066 
L 276.906482 350.820135 
L 279.551111 350.823772 
L 282.195739 350.826969 
L 284.840367 350.829719 
L 287.484995 350.83201 
L 290.129623 350.833834 
L 292.774251 350.835176 
L 295.418879 350.836024 
L 298.063507 350.836364 
L 300.708135 350.836177 
L 303.352763 350.835448 
L 305.997392 350.834157 
L 308.64202 350.832282 
L 311.286648 350.829803 
L 313.931276 350.826694 
L 316.575904 350.822932 
L 319.220532 350.81849 
L 321.86516 350.813337 
L 324.509788 350.807446 
L 327.154416 350.800783 
L 329.799044 350.793315 
L 332.443673 350.785006 
L 335.088301 350.77582 
L 337.732929 350.765716 
L 340.377557 350.754655 
L 343.022185 350.742593 
L 345.666813 350.729485 
L 348.311441 350.715283 
L 350.956069 350.69994 
L 353.600697 350.683403 
L 356.245325 350.665619 
L 358.889954 350.646533 
L 361.534582 350.626087 
L 364.17921 350.604221 
L 366.823838 350.580872 
L 369.468466 350.555975 
" clip-path="url(#p7a7cf7c73f)" style="fill: none; stroke: #000000; stroke-width: 3; stroke-linecap: square"/>
   </g>
   <g id="line2d_11">
    <path d="M 107.650284 349.999122 
L 110.294912 349.984026 
L 112.93954 349.950299 
L 115.584168 349.915283 
L 118.228796 349.895278 
L 120.873425 349.890125 
L 123.518053 349.88653 
L 126.162681 349.870854 
L 128.807309 349.837136 
L 131.451937 349.797924 
L 134.096565 349.768501 
L 136.741193 349.762289 
L 139.385821 349.776958 
L 142.030449 349.802259 
L 144.675077 349.82798 
L 147.319706 349.84924 
L 149.964334 349.869175 
L 152.608962 349.891584 
L 155.25359 349.919322 
L 157.898218 349.95061 
L 160.542846 349.982245 
L 163.187474 350.01109 
L 165.832102 350.035425 
L 168.47673 350.054886 
L 171.121358 350.069164 
L 173.765987 350.078678 
L 176.410615 350.085997 
L 179.055243 350.09408 
L 181.699871 350.105648 
L 184.344499 350.120828 
L 186.989127 350.13818 
L 189.633755 350.156241 
L 192.278383 350.173627 
L 194.923011 350.189099 
L 197.567639 350.201435 
L 200.212268 350.210227 
L 202.856896 350.220027 
L 205.501524 350.237251 
L 208.146152 350.268082 
L 210.79078 350.311637 
L 213.435408 350.358952 
L 216.080036 350.400621 
L 218.724664 350.429125 
L 221.369292 350.443775 
L 224.01392 350.445414 
L 226.658549 350.435121 
L 229.303177 350.417156 
L 231.947805 350.3981 
L 234.592433 350.384563 
L 237.237061 350.378672 
L 239.881689 350.372738 
L 242.526317 350.357774 
L 245.170945 350.326626 
L 247.815573 350.285983 
L 250.460201 350.248863 
L 253.10483 350.22811 
L 255.749458 350.227427 
L 258.394086 350.237988 
L 261.038714 350.250053 
L 263.683342 350.256423 
L 266.32797 350.261147 
L 268.972598 350.271395 
L 271.617226 350.293839 
L 274.261854 350.326075 
L 276.906482 350.357768 
L 279.551111 350.378326 
L 282.195739 350.381767 
L 284.840367 350.374376 
L 287.484995 350.364457 
L 290.129623 350.359655 
L 292.774251 350.361335 
L 295.418879 350.367392 
L 298.063507 350.375664 
L 300.708135 350.382386 
L 303.352763 350.381149 
L 305.997392 350.365302 
L 308.64202 350.331138 
L 311.286648 350.291078 
L 313.931276 350.26302 
L 316.575904 350.264184 
L 319.220532 350.294729 
L 321.86516 350.336966 
L 324.509788 350.372367 
L 327.154416 350.387146 
L 329.799044 350.382955 
L 332.443673 350.364584 
L 335.088301 350.337006 
L 337.732929 350.307446 
L 340.377557 350.284623 
L 343.022185 350.277246 
L 345.666813 350.288731 
L 348.311441 350.311976 
L 350.956069 350.338633 
L 353.600697 350.36161 
L 356.245325 350.382313 
L 358.889954 350.405672 
L 361.534582 350.436431 
L 364.17921 350.472338 
L 366.823838 350.502371 
L 369.468466 350.514954 
" clip-path="url(#p7a7cf7c73f)" style="fill: none; stroke: #008000; stroke-width: 3; stroke-linecap: square"/>
   </g>
   <g id="line2d_12">
    <path d="M 107.650284 316.667479 
L 110.294912 317.317123 
L 112.93954 317.951864 
L 115.584168 318.57186 
L 118.228796 319.177269 
L 120.873425 319.768243 
L 123.518053 320.344933 
L 126.162681 320.907488 
L 128.807309 321.456052 
L 131.451937 321.990768 
L 134.096565 322.511775 
L 136.741193 323.019209 
L 139.385821 323.513205 
L 142.030449 323.993894 
L 144.675077 324.461402 
L 147.319706 324.915856 
L 149.964334 325.357378 
L 152.608962 325.786086 
L 155.25359 326.202097 
L 157.898218 326.605524 
L 160.542846 326.996478 
L 163.187474 327.375066 
L 165.832102 327.741392 
L 168.47673 328.095559 
L 171.121358 328.437664 
L 173.765987 328.767803 
L 176.410615 329.086068 
L 179.055243 329.392549 
L 181.699871 329.687333 
L 184.344499 329.970502 
L 186.989127 330.242137 
L 189.633755 330.502317 
L 192.278383 330.751114 
L 194.923011 330.988601 
L 197.567639 331.214845 
L 200.212268 331.429912 
L 202.856896 331.633864 
L 205.501524 331.826761 
L 208.146152 332.008657 
L 210.79078 332.179608 
L 213.435408 332.339661 
L 216.080036 332.488865 
L 218.724664 332.627263 
L 221.369292 332.754896 
L 224.01392 332.871801 
L 226.658549 332.978014 
L 229.303177 333.073566 
L 231.947805 333.158485 
L 234.592433 333.232797 
L 237.237061 333.296525 
L 239.881689 333.349687 
L 242.526317 333.394428 
L 245.170945 333.430758 
L 247.815573 333.458687 
L 250.460201 333.478221 
L 253.10483 333.489367 
L 255.749458 333.492126 
L 258.394086 333.486501 
L 261.038714 333.472492 
L 263.683342 333.450095 
L 266.32797 333.419306 
L 268.972598 333.380119 
L 271.617226 333.332525 
L 274.261854 333.276515 
L 276.906482 333.212076 
L 279.551111 333.139195 
L 282.195739 333.057855 
L 284.840367 332.968038 
L 287.484995 332.869726 
L 290.129623 332.762895 
L 292.774251 332.647523 
L 295.418879 332.523585 
L 298.063507 332.391052 
L 300.708135 332.249896 
L 303.352763 332.100086 
L 305.997392 331.941589 
L 308.64202 331.774369 
L 311.286648 331.598391 
L 313.931276 331.413617 
L 316.575904 331.220004 
L 319.220532 331.017513 
L 321.86516 330.806097 
L 324.509788 330.585712 
L 327.154416 330.356311 
L 329.799044 330.117842 
L 332.443673 329.870256 
L 335.088301 329.6135 
L 337.732929 329.347517 
L 340.377557 329.072252 
L 343.022185 328.787647 
L 345.666813 328.493641 
L 348.311441 328.190171 
L 350.956069 327.877176 
L 353.600697 327.554588 
L 356.245325 327.222341 
L 358.889954 326.880366 
L 361.534582 326.528593 
L 364.17921 326.166948 
L 366.823838 325.795359 
L 369.468466 325.413748 
" clip-path="url(#p7a7cf7c73f)" style="fill: none; stroke-dasharray: 11.1,4.8; stroke-dashoffset: 0; stroke: #000000; stroke-width: 3"/>
   </g>
   <g id="line2d_13">
    <path d="M 107.650284 322.72159 
L 110.294912 322.889332 
L 112.93954 323.288528 
L 115.584168 323.763136 
L 118.228796 324.163409 
L 120.873425 324.439185 
L 123.518053 324.619791 
L 126.162681 324.736776 
L 128.807309 324.823499 
L 131.451937 324.917696 
L 134.096565 325.057743 
L 136.741193 325.275882 
L 139.385821 325.552453 
L 142.030449 325.841693 
L 144.675077 326.098194 
L 147.319706 326.306887 
L 149.964334 326.49831 
L 152.608962 326.706764 
L 155.25359 326.959402 
L 157.898218 327.248178 
L 160.542846 327.554237 
L 163.187474 327.859211 
L 165.832102 328.155154 
L 168.47673 328.44408 
L 171.121358 328.728402 
L 173.765987 329.00697 
L 176.410615 329.268164 
L 179.055243 329.498446 
L 181.699871 329.686621 
L 184.344499 329.846579 
L 186.989127 330.007422 
L 189.633755 330.198297 
L 192.278383 330.432117 
L 194.923011 330.692417 
L 197.567639 330.959639 
L 200.212268 331.215327 
L 202.856896 331.447707 
L 205.501524 331.647516 
L 208.146152 331.805774 
L 210.79078 331.921749 
L 213.435408 332.004151 
L 216.080036 332.062208 
L 218.724664 332.103396 
L 221.369292 332.128884 
L 224.01392 332.138419 
L 226.658549 332.132721 
L 229.303177 332.125987 
L 231.947805 332.142234 
L 234.592433 332.205608 
L 237.237061 332.32165 
L 239.881689 332.455185 
L 242.526317 332.56565 
L 245.170945 332.617058 
L 247.815573 332.607993 
L 250.460201 332.552835 
L 253.10483 332.466133 
L 255.749458 332.366248 
L 258.394086 332.276774 
L 261.038714 332.221683 
L 263.683342 332.219308 
L 266.32797 332.262963 
L 268.972598 332.339027 
L 271.617226 332.434047 
L 274.261854 332.537638 
L 276.906482 332.642096 
L 279.551111 332.739804 
L 282.195739 332.821257 
L 284.840367 332.871932 
L 287.484995 332.87648 
L 290.129623 332.822642 
L 292.774251 332.727524 
L 295.418879 332.624458 
L 298.063507 332.546722 
L 300.708135 332.511553 
L 303.352763 332.509741 
L 305.997392 332.529607 
L 308.64202 332.55988 
L 311.286648 332.591521 
L 313.931276 332.616252 
L 316.575904 332.625597 
L 319.220532 332.60622 
L 321.86516 332.539695 
L 324.509788 332.407362 
L 327.154416 332.203316 
L 329.799044 331.963184 
L 332.443673 331.731028 
L 335.088301 331.54778 
L 337.732929 331.416405 
L 340.377557 331.314609 
L 343.022185 331.219707 
L 345.666813 331.117618 
L 348.311441 331.011376 
L 350.956069 330.906036 
L 353.600697 330.805698 
L 356.245325 330.707978 
L 358.889954 330.607809 
L 361.534582 330.500466 
L 364.17921 330.393862 
L 366.823838 330.311749 
L 369.468466 330.278877 
" clip-path="url(#p7a7cf7c73f)" style="fill: none; stroke-dasharray: 11.1,4.8; stroke-dashoffset: 0; stroke: #008000; stroke-width: 3"/>
   </g>
   <g id="line2d_14">
    <path d="M 107.650284 230.973375 
L 110.294912 232.152389 
L 112.93954 233.30872 
L 115.584168 234.442444 
L 118.228796 235.553638 
L 120.873425 236.642377 
L 123.518053 237.708734 
L 126.162681 238.752782 
L 128.807309 239.774594 
L 131.451937 240.774242 
L 134.096565 241.751794 
L 136.741193 242.707321 
L 139.385821 243.640891 
L 142.030449 244.552572 
L 144.675077 245.442429 
L 147.319706 246.310528 
L 149.964334 247.156934 
L 152.608962 247.981709 
L 155.25359 248.784915 
L 157.898218 249.566614 
L 160.542846 250.326866 
L 163.187474 251.065729 
L 165.832102 251.783262 
L 168.47673 252.479519 
L 171.121358 253.154558 
L 173.765987 253.808432 
L 176.410615 254.441194 
L 179.055243 255.052896 
L 181.699871 255.643589 
L 184.344499 256.213322 
L 186.989127 256.762144 
L 189.633755 257.2901 
L 192.278383 257.797238 
L 194.923011 258.283601 
L 197.567639 258.749233 
L 200.212268 259.194176 
L 202.856896 259.618471 
L 205.501524 260.022157 
L 208.146152 260.405271 
L 210.79078 260.767853 
L 213.435408 261.109935 
L 216.080036 261.431554 
L 218.724664 261.732742 
L 221.369292 262.013531 
L 224.01392 262.273952 
L 226.658549 262.514032 
L 229.303177 262.733801 
L 231.947805 262.933285 
L 234.592433 263.112509 
L 237.237061 263.271496 
L 239.881689 263.41027 
L 242.526317 263.532923 
L 245.170945 263.639472 
L 247.815573 263.729932 
L 250.460201 263.804316 
L 253.10483 263.86264 
L 255.749458 263.904915 
L 258.394086 263.931153 
L 261.038714 263.941366 
L 263.683342 263.935565 
L 266.32797 263.913757 
L 268.972598 263.875952 
L 271.617226 263.822159 
L 274.261854 263.752382 
L 276.906482 263.66663 
L 279.551111 263.564907 
L 282.195739 263.447218 
L 284.840367 263.313566 
L 287.484995 263.163954 
L 290.129623 262.998385 
L 292.774251 262.816859 
L 295.418879 262.619377 
L 298.063507 262.405939 
L 300.708135 262.176544 
L 303.352763 261.931189 
L 305.997392 261.669873 
L 308.64202 261.392591 
L 311.286648 261.099339 
L 313.931276 260.790113 
L 316.575904 260.464907 
L 319.220532 260.123714 
L 321.86516 259.766527 
L 324.509788 259.393337 
L 327.154416 259.004137 
L 329.799044 258.598917 
L 332.443673 258.177666 
L 335.088301 257.740373 
L 337.732929 257.287028 
L 340.377557 256.817618 
L 343.022185 256.332129 
L 345.666813 255.830549 
L 348.311441 255.312862 
L 350.956069 254.779054 
L 353.600697 254.229108 
L 356.245325 253.66301 
L 358.889954 253.080741 
L 361.534582 252.482284 
L 364.17921 251.867621 
L 366.823838 251.236734 
L 369.468466 250.589601 
" clip-path="url(#p7a7cf7c73f)" style="fill: none; stroke-dasharray: 19.2,4.8,3,4.8; stroke-dashoffset: 0; stroke: #000000; stroke-width: 3"/>
   </g>
   <g id="line2d_15">
    <path d="M 107.650284 217.032186 
L 110.294912 217.429419 
L 112.93954 218.411763 
L 115.584168 219.665185 
L 118.228796 220.888961 
L 120.873425 221.992782 
L 123.518053 223.054297 
L 126.162681 224.155734 
L 128.807309 225.347276 
L 131.451937 226.601834 
L 134.096565 227.880904 
L 136.741193 229.150341 
L 139.385821 230.412885 
L 142.030449 231.689824 
L 144.675077 233.002104 
L 147.319706 234.344161 
L 149.964334 235.670578 
L 152.608962 236.932652 
L 155.25359 238.097724 
L 157.898218 239.212129 
L 160.542846 240.346463 
L 163.187474 241.567804 
L 165.832102 242.868367 
L 168.47673 244.168799 
L 171.121358 245.386904 
L 173.765987 246.469036 
L 176.410615 247.445529 
L 179.055243 248.362082 
L 181.699871 249.258637 
L 184.344499 250.113524 
L 186.989127 250.867696 
L 189.633755 251.4621 
L 192.278383 251.887057 
L 194.923011 252.222228 
L 197.567639 252.556681 
L 200.212268 252.966464 
L 202.856896 253.448479 
L 205.501524 253.96989 
L 208.146152 254.497851 
L 210.79078 255.000774 
L 213.435408 255.448509 
L 216.080036 255.810984 
L 218.724664 256.072985 
L 221.369292 256.27289 
L 224.01392 256.461157 
L 226.658549 256.684954 
L 229.303177 256.946015 
L 231.947805 257.212961 
L 234.592433 257.453714 
L 237.237061 257.646608 
L 239.881689 257.792766 
L 242.526317 257.896328 
L 245.170945 257.962442 
L 247.815573 258.003898 
L 250.460201 258.036973 
L 253.10483 258.077467 
L 255.749458 258.119314 
L 258.394086 258.126442 
L 261.038714 258.06061 
L 263.683342 257.898846 
L 266.32797 257.685917 
L 268.972598 257.485373 
L 271.617226 257.357924 
L 274.261854 257.312533 
L 276.906482 257.31295 
L 279.551111 257.321413 
L 282.195739 257.307458 
L 284.840367 257.260025 
L 287.484995 257.171249 
L 290.129623 257.033955 
L 292.774251 256.847522 
L 295.418879 256.614948 
L 298.063507 256.339246 
L 300.708135 256.021489 
L 303.352763 255.659554 
L 305.997392 255.251024 
L 308.64202 254.799441 
L 311.286648 254.340942 
L 313.931276 253.922744 
L 316.575904 253.589856 
L 319.220532 253.331946 
L 321.86516 253.080793 
L 324.509788 252.765454 
L 327.154416 252.33051 
L 329.799044 251.771088 
L 332.443673 251.092585 
L 335.088301 250.303866 
L 337.732929 249.455876 
L 340.377557 248.627555 
L 343.022185 247.89806 
L 345.666813 247.308465 
L 348.311441 246.82411 
L 350.956069 246.401383 
L 353.600697 245.982906 
L 356.245325 245.418146 
L 358.889954 244.517941 
L 361.534582 243.102617 
L 364.17921 241.337514 
L 366.823838 239.820192 
L 369.468466 239.175553 
" clip-path="url(#p7a7cf7c73f)" style="fill: none; stroke-dasharray: 19.2,4.8,3,4.8; stroke-dashoffset: 0; stroke: #008000; stroke-width: 3"/>
   </g>
   <g id="line2d_16">
    <path d="M 107.650284 154.740788 
L 110.294912 156.057123 
L 112.93954 157.350481 
L 115.584168 158.620866 
L 118.228796 159.868287 
L 120.873425 161.09275 
L 123.518053 162.294264 
L 126.162681 163.472835 
L 128.807309 164.628474 
L 131.451937 165.76119 
L 134.096565 166.870993 
L 136.741193 167.957894 
L 139.385821 169.021902 
L 142.030449 170.063029 
L 144.675077 171.081288 
L 147.319706 172.076689 
L 149.964334 173.049247 
L 152.608962 173.998972 
L 155.25359 174.925879 
L 157.898218 175.829981 
L 160.542846 176.711292 
L 163.187474 177.569826 
L 165.832102 178.405598 
L 168.47673 179.218621 
L 171.121358 180.008911 
L 173.765987 180.776484 
L 176.410615 181.521354 
L 179.055243 182.243536 
L 181.699871 182.943048 
L 184.344499 183.619905 
L 186.989127 184.274123 
L 189.633755 184.905718 
L 192.278383 185.514707 
L 194.923011 186.101107 
L 197.567639 186.664935 
L 200.212268 187.206206 
L 202.856896 187.72494 
L 205.501524 188.221152 
L 208.146152 188.69486 
L 210.79078 189.146081 
L 213.435408 189.574834 
L 216.080036 189.981135 
L 218.724664 190.365002 
L 221.369292 190.726453 
L 224.01392 191.065506 
L 226.658549 191.382179 
L 229.303177 191.676489 
L 231.947805 191.948455 
L 234.592433 192.198095 
L 237.237061 192.425427 
L 239.881689 192.630468 
L 242.526317 192.817729 
L 245.170945 192.987224 
L 247.815573 193.138967 
L 250.460201 193.272974 
L 253.10483 193.389258 
L 255.749458 193.487835 
L 258.394086 193.568718 
L 261.038714 193.631924 
L 263.683342 193.677466 
L 266.32797 193.70536 
L 268.972598 193.71562 
L 271.617226 193.708262 
L 274.261854 193.683299 
L 276.906482 193.640747 
L 279.551111 193.580621 
L 282.195739 193.502937 
L 284.840367 193.407708 
L 287.484995 193.29495 
L 290.129623 193.164678 
L 292.774251 193.016908 
L 295.418879 192.851653 
L 298.063507 192.668931 
L 300.708135 192.468756 
L 303.352763 192.251143 
L 305.997392 192.016108 
L 308.64202 191.763666 
L 311.286648 191.493833 
L 313.931276 191.206624 
L 316.575904 190.902055 
L 319.220532 190.580143 
L 321.86516 190.240902 
L 324.509788 189.884349 
L 327.154416 189.5105 
L 329.799044 189.119371 
L 332.443673 188.710978 
L 335.088301 188.285338 
L 337.732929 187.842467 
L 340.377557 187.382381 
L 343.022185 186.905099 
L 345.666813 186.410635 
L 348.311441 185.899008 
L 350.956069 185.370235 
L 353.600697 184.824333 
L 356.245325 184.26132 
L 358.889954 183.681213 
L 361.534582 183.08403 
L 364.17921 182.469789 
L 366.823838 181.838509 
L 369.468466 181.190208 
" clip-path="url(#p7a7cf7c73f)" style="fill: none; stroke-dasharray: 3,4.95; stroke-dashoffset: 0; stroke: #000000; stroke-width: 3"/>
   </g>
   <g id="line2d_17">
    <path d="M 107.650284 155.50408 
L 110.294912 156.079315 
L 112.93954 157.490156 
L 115.584168 159.264306 
L 118.228796 160.949373 
L 120.873425 162.407697 
L 123.518053 163.75284 
L 126.162681 165.105233 
L 128.807309 166.543883 
L 131.451937 168.0479 
L 134.096565 169.581635 
L 136.741193 171.114224 
L 139.385821 172.655257 
L 142.030449 174.234668 
L 144.675077 175.882071 
L 147.319706 177.60096 
L 149.964334 179.355567 
L 152.608962 181.106883 
L 155.25359 182.825311 
L 157.898218 184.527569 
L 160.542846 186.244606 
L 163.187474 188.004204 
L 165.832102 189.766909 
L 168.47673 191.428982 
L 171.121358 192.884143 
L 173.765987 194.06739 
L 176.410615 195.03514 
L 179.055243 195.866021 
L 181.699871 196.636851 
L 184.344499 197.405076 
L 186.989127 198.216383 
L 189.633755 199.115866 
L 192.278383 200.107713 
L 194.923011 201.122084 
L 197.567639 202.081347 
L 200.212268 202.920334 
L 202.856896 203.649656 
L 205.501524 204.308389 
L 208.146152 204.934707 
L 210.79078 205.538301 
L 213.435408 206.096267 
L 216.080036 206.583912 
L 218.724664 206.984368 
L 221.369292 207.308981 
L 224.01392 207.575457 
L 226.658549 207.800237 
L 229.303177 207.982291 
L 231.947805 208.107853 
L 234.592433 208.162939 
L 237.237061 208.146977 
L 239.881689 208.088744 
L 242.526317 208.020904 
L 245.170945 207.973262 
L 247.815573 207.954014 
L 250.460201 207.961484 
L 253.10483 207.993861 
L 255.749458 208.045585 
L 258.394086 208.105957 
L 261.038714 208.163905 
L 263.683342 208.210837 
L 266.32797 208.249176 
L 268.972598 208.284394 
L 271.617226 208.321767 
L 274.261854 208.362937 
L 276.906482 208.406377 
L 279.551111 208.450421 
L 282.195739 208.475189 
L 284.840367 208.412333 
L 287.484995 208.185531 
L 290.129623 207.732484 
L 292.774251 207.124098 
L 295.418879 206.504889 
L 298.063507 206.018793 
L 300.708135 205.713149 
L 303.352763 205.476063 
L 305.997392 205.180767 
L 308.64202 204.716994 
L 311.286648 204.06469 
L 313.931276 203.234464 
L 316.575904 202.23869 
L 319.220532 201.133094 
L 321.86516 200.018752 
L 324.509788 198.998865 
L 327.154416 198.138211 
L 329.799044 197.376487 
L 332.443673 196.627974 
L 335.088301 195.81367 
L 337.732929 194.935975 
L 340.377557 194.051442 
L 343.022185 193.217283 
L 345.666813 192.44824 
L 348.311441 191.674596 
L 350.956069 190.816649 
L 353.600697 189.800927 
L 356.245325 188.596144 
L 358.889954 187.188504 
L 361.534582 185.569315 
L 364.17921 183.910956 
L 366.823838 182.612655 
L 369.468466 182.087982 
" clip-path="url(#p7a7cf7c73f)" style="fill: none; stroke-dasharray: 3,4.95; stroke-dashoffset: 0; stroke: #008000; stroke-width: 3"/>
   </g>
   <g id="line2d_18">
    <path d="M 107.650284 66.773867 
L 110.294912 67.88828 
L 112.93954 68.98671 
L 115.584168 70.069062 
L 118.228796 71.135241 
L 120.873425 72.185154 
L 123.518053 73.218713 
L 126.162681 74.23583 
L 128.807309 75.23642 
L 131.451937 76.220402 
L 134.096565 77.187696 
L 136.741193 78.138224 
L 139.385821 79.071911 
L 142.030449 79.988685 
L 144.675077 80.888475 
L 147.319706 81.771213 
L 149.964334 82.636833 
L 152.608962 83.485272 
L 155.25359 84.316469 
L 157.898218 85.130365 
L 160.542846 85.926902 
L 163.187474 86.706025 
L 165.832102 87.467684 
L 168.47673 88.211827 
L 171.121358 88.938405 
L 173.765987 89.647374 
L 176.410615 90.338688 
L 179.055243 91.012307 
L 181.699871 91.668189 
L 184.344499 92.306299 
L 186.989127 92.926599 
L 189.633755 93.529056 
L 192.278383 94.11364 
L 194.923011 94.680319 
L 197.567639 95.229066 
L 200.212268 95.759857 
L 202.856896 96.272666 
L 205.501524 96.767473 
L 208.146152 97.244258 
L 210.79078 97.703004 
L 213.435408 98.143693 
L 216.080036 98.566313 
L 218.724664 98.970851 
L 221.369292 99.357298 
L 224.01392 99.725646 
L 226.658549 100.075887 
L 229.303177 100.408018 
L 231.947805 100.722036 
L 234.592433 101.017942 
L 237.237061 101.295735 
L 239.881689 101.55542 
L 242.526317 101.800651 
L 245.170945 102.031434 
L 247.815573 102.247776 
L 250.460201 102.449684 
L 253.10483 102.637167 
L 255.749458 102.810235 
L 258.394086 102.968898 
L 261.038714 103.11317 
L 263.683342 103.243063 
L 266.32797 103.358592 
L 268.972598 103.459774 
L 271.617226 103.546625 
L 274.261854 103.619162 
L 276.906482 103.677407 
L 279.551111 103.721378 
L 282.195739 103.751099 
L 284.840367 103.76659 
L 287.484995 103.767878 
L 290.129623 103.754986 
L 292.774251 103.727941 
L 295.418879 103.686771 
L 298.063507 103.631504 
L 300.708135 103.562171 
L 303.352763 103.478802 
L 305.997392 103.38143 
L 308.64202 103.270087 
L 311.286648 103.14481 
L 313.931276 103.005632 
L 316.575904 102.852593 
L 319.220532 102.685729 
L 321.86516 102.50508 
L 324.509788 102.310687 
L 327.154416 102.102592 
L 329.799044 101.880837 
L 332.443673 101.645467 
L 335.088301 101.396527 
L 337.732929 101.134065 
L 340.377557 100.858127 
L 343.022185 100.568763 
L 345.666813 100.266024 
L 348.311441 99.949961 
L 350.956069 99.620627 
L 353.600697 99.278077 
L 356.245325 98.922364 
L 358.889954 98.553547 
L 361.534582 98.171684 
L 364.17921 97.776832 
L 366.823838 97.369054 
L 369.468466 96.94841 
" clip-path="url(#p7a7cf7c73f)" style="fill: none; stroke-dasharray: 9,15,3,15,3,15; stroke-dashoffset: 0; stroke: #000000; stroke-width: 3"/>
   </g>
   <g id="line2d_19">
    <path d="M 107.650284 23.563636 
L 110.294912 24.232008 
L 112.93954 25.891476 
L 115.584168 28.023569 
L 118.228796 30.132155 
L 120.873425 32.074316 
L 123.518053 33.989078 
L 126.162681 36.023099 
L 128.807309 38.253383 
L 131.451937 40.588951 
L 134.096565 42.914011 
L 136.741193 45.127992 
L 139.385821 47.25908 
L 142.030449 49.400201 
L 144.675077 51.643923 
L 147.319706 54.035894 
L 149.964334 56.551231 
L 152.608962 59.159236 
L 155.25359 61.827001 
L 157.898218 64.510757 
L 160.542846 67.163401 
L 163.187474 69.736636 
L 165.832102 72.156873 
L 168.47673 74.326341 
L 171.121358 76.146355 
L 173.765987 77.58038 
L 176.410615 78.77471 
L 179.055243 79.909084 
L 181.699871 81.152286 
L 184.344499 82.55579 
L 186.989127 84.09991 
L 189.633755 85.763748 
L 192.278383 87.506156 
L 194.923011 89.249342 
L 197.567639 90.911654 
L 200.212268 92.416566 
L 202.856896 93.718688 
L 205.501524 94.784329 
L 208.146152 95.581913 
L 210.79078 96.142063 
L 213.435408 96.566596 
L 216.080036 96.961225 
L 218.724664 97.398147 
L 221.369292 97.82863 
L 224.01392 98.176682 
L 226.658549 98.372032 
L 229.303177 98.423303 
L 231.947805 98.396635 
L 234.592433 98.359353 
L 237.237061 98.355958 
L 239.881689 98.381003 
L 242.526317 98.42243 
L 245.170945 98.46956 
L 247.815573 98.522128 
L 250.460201 98.584628 
L 253.10483 98.660486 
L 255.749458 98.705059 
L 258.394086 98.607751 
L 261.038714 98.253192 
L 263.683342 97.567691 
L 266.32797 96.662466 
L 268.972598 95.699992 
L 271.617226 94.838564 
L 274.261854 94.160119 
L 276.906482 93.679885 
L 279.551111 93.410789 
L 282.195739 93.334611 
L 284.840367 93.350233 
L 287.484995 93.342897 
L 290.129623 93.206924 
L 292.774251 92.922843 
L 295.418879 92.518828 
L 298.063507 92.023371 
L 300.708135 91.452171 
L 303.352763 90.799827 
L 305.997392 90.058969 
L 308.64202 89.224489 
L 311.286648 88.303639 
L 313.931276 87.307875 
L 316.575904 86.248828 
L 319.220532 85.142488 
L 321.86516 84.009396 
L 324.509788 82.870306 
L 327.154416 81.729425 
L 329.799044 80.537103 
L 332.443673 79.232743 
L 335.088301 77.765643 
L 337.732929 76.205033 
L 340.377557 74.699929 
L 343.022185 73.400123 
L 345.666813 72.36771 
L 348.311441 71.490372 
L 350.956069 70.635173 
L 353.600697 69.667868 
L 356.245325 68.445372 
L 358.889954 66.820932 
L 361.534582 64.658409 
L 364.17921 62.202967 
L 366.823838 60.177457 
L 369.468466 59.334939 
" clip-path="url(#p7a7cf7c73f)" style="fill: none; stroke-dasharray: 9,15,3,15,3,15; stroke-dashoffset: 0; stroke: #008000; stroke-width: 3"/>
   </g>
   <g id="patch_3">
    <path d="M 94.559375 367.2 
L 94.559375 7.2 
" style="fill: none; stroke: #000000; stroke-width: 2; stroke-linejoin: miter; stroke-linecap: square"/>
   </g>
   <g id="patch_4">
    <path d="M 382.559375 367.2 
L 382.559375 7.2 
" style="fill: none; stroke: #000000; stroke-width: 2; stroke-linejoin: miter; stroke-linecap: square"/>
   </g>
   <g id="patch_5">
    <path d="M 94.559375 367.2 
L 382.559375 367.2 
" style="fill: none; stroke: #000000; stroke-width: 2; stroke-linejoin: miter; stroke-linecap: square"/>
   </g>
   <g id="patch_6">
    <path d="M 94.559375 7.2 
L 382.559375 7.2 
" style="fill: none; stroke: #000000; stroke-width: 2; stroke-linejoin: miter; stroke-linecap: square"/>
   </g>
   <g id="legend_1">
    <g id="patch_7">
     <path d="M 402.059375 302.7 
L 626.532031 302.7 
Q 631.532031 302.7 631.532031 297.7 
L 631.532031 116.723437 
Q 631.532031 111.723437 626.532031 111.723437 
L 402.059375 111.723437 
Q 397.059375 111.723437 397.059375 116.723437 
L 397.059375 297.7 
Q 397.059375 302.7 402.059375 302.7 
z
" style="fill: #4c4c4c; opacity: 0.5; stroke: #4c4c4c; stroke-linejoin: miter"/>
    </g>
    <g id="patch_8">
     <path d="M 400.059375 300.7 
L 624.532031 300.7 
Q 629.532031 300.7 629.532031 295.7 
L 629.532031 114.723437 
Q 629.532031 109.723437 624.532031 109.723437 
L 400.059375 109.723437 
Q 395.059375 109.723437 395.059375 114.723437 
L 395.059375 295.7 
Q 395.059375 300.7 400.059375 300.7 
z
" style="fill: #ffffff; stroke: #cccccc; stroke-linejoin: miter"/>
    </g>
    <g id="line2d_20">
     <path d="M 405.059375 129.969531 
L 430.059375 129.969531 
L 455.059375 129.969531 
" style="fill: none; stroke: #008000; stroke-width: 3; stroke-linecap: square"/>
    </g>
    <g id="text_12">
     <!-- t=127 sec -->
     <g transform="translate(475.059375 138.719531)scale(0.25 -0.25)">
      <defs>
       <path id="DejaVuSans-3d" d="M 678 2906 
L 4684 2906 
L 4684 2381 
L 678 2381 
L 678 2906 
z
M 678 1631 
L 4684 1631 
L 4684 1100 
L 678 1100 
L 678 1631 
z
" transform="scale(0.015625)"/>
       <path id="DejaVuSans-37" d="M 525 4666 
L 3525 4666 
L 3525 4397 
L 1831 0 
L 1172 0 
L 2766 4134 
L 525 4134 
L 525 4666 
z
" transform="scale(0.015625)"/>
      </defs>
      <use xlink:href="#DejaVuSans-74"/>
      <use xlink:href="#DejaVuSans-3d" x="39.208984"/>
      <use xlink:href="#DejaVuSans-31" x="122.998047"/>
      <use xlink:href="#DejaVuSans-32" x="186.621094"/>
      <use xlink:href="#DejaVuSans-37" x="250.244141"/>
      <use xlink:href="#DejaVuSans-20" x="313.867188"/>
      <use xlink:href="#DejaVuSans-73" x="345.654297"/>
      <use xlink:href="#DejaVuSans-65" x="397.753906"/>
      <use xlink:href="#DejaVuSans-63" x="459.277344"/>
     </g>
    </g>
    <g id="line2d_21">
     <path d="M 405.059375 166.664844 
L 430.059375 166.664844 
L 455.059375 166.664844 
" style="fill: none; stroke-dasharray: 11.1,4.8; stroke-dashoffset: 0; stroke: #008000; stroke-width: 3"/>
    </g>
    <g id="text_13">
     <!-- t=487 sec -->
     <g transform="translate(475.059375 175.414844)scale(0.25 -0.25)">
      <defs>
       <path id="DejaVuSans-38" d="M 2034 2216 
Q 1584 2216 1326 1975 
Q 1069 1734 1069 1313 
Q 1069 891 1326 650 
Q 1584 409 2034 409 
Q 2484 409 2743 651 
Q 3003 894 3003 1313 
Q 3003 1734 2745 1975 
Q 2488 2216 2034 2216 
z
M 1403 2484 
Q 997 2584 770 2862 
Q 544 3141 544 3541 
Q 544 4100 942 4425 
Q 1341 4750 2034 4750 
Q 2731 4750 3128 4425 
Q 3525 4100 3525 3541 
Q 3525 3141 3298 2862 
Q 3072 2584 2669 2484 
Q 3125 2378 3379 2068 
Q 3634 1759 3634 1313 
Q 3634 634 3220 271 
Q 2806 -91 2034 -91 
Q 1263 -91 848 271 
Q 434 634 434 1313 
Q 434 1759 690 2068 
Q 947 2378 1403 2484 
z
M 1172 3481 
Q 1172 3119 1398 2916 
Q 1625 2713 2034 2713 
Q 2441 2713 2670 2916 
Q 2900 3119 2900 3481 
Q 2900 3844 2670 4047 
Q 2441 4250 2034 4250 
Q 1625 4250 1398 4047 
Q 1172 3844 1172 3481 
z
" transform="scale(0.015625)"/>
      </defs>
      <use xlink:href="#DejaVuSans-74"/>
      <use xlink:href="#DejaVuSans-3d" x="39.208984"/>
      <use xlink:href="#DejaVuSans-34" x="122.998047"/>
      <use xlink:href="#DejaVuSans-38" x="186.621094"/>
      <use xlink:href="#DejaVuSans-37" x="250.244141"/>
      <use xlink:href="#DejaVuSans-20" x="313.867188"/>
      <use xlink:href="#DejaVuSans-73" x="345.654297"/>
      <use xlink:href="#DejaVuSans-65" x="397.753906"/>
      <use xlink:href="#DejaVuSans-63" x="459.277344"/>
     </g>
    </g>
    <g id="line2d_22">
     <path d="M 405.059375 203.360156 
L 430.059375 203.360156 
L 455.059375 203.360156 
" style="fill: none; stroke-dasharray: 19.2,4.8,3,4.8; stroke-dashoffset: 0; stroke: #008000; stroke-width: 3"/>
    </g>
    <g id="text_14">
     <!-- t=967 sec -->
     <g transform="translate(475.059375 212.110156)scale(0.25 -0.25)">
      <defs>
       <path id="DejaVuSans-39" d="M 703 97 
L 703 672 
Q 941 559 1184 500 
Q 1428 441 1663 441 
Q 2288 441 2617 861 
Q 2947 1281 2994 2138 
Q 2813 1869 2534 1725 
Q 2256 1581 1919 1581 
Q 1219 1581 811 2004 
Q 403 2428 403 3163 
Q 403 3881 828 4315 
Q 1253 4750 1959 4750 
Q 2769 4750 3195 4129 
Q 3622 3509 3622 2328 
Q 3622 1225 3098 567 
Q 2575 -91 1691 -91 
Q 1453 -91 1209 -44 
Q 966 3 703 97 
z
M 1959 2075 
Q 2384 2075 2632 2365 
Q 2881 2656 2881 3163 
Q 2881 3666 2632 3958 
Q 2384 4250 1959 4250 
Q 1534 4250 1286 3958 
Q 1038 3666 1038 3163 
Q 1038 2656 1286 2365 
Q 1534 2075 1959 2075 
z
" transform="scale(0.015625)"/>
       <path id="DejaVuSans-36" d="M 2113 2584 
Q 1688 2584 1439 2293 
Q 1191 2003 1191 1497 
Q 1191 994 1439 701 
Q 1688 409 2113 409 
Q 2538 409 2786 701 
Q 3034 994 3034 1497 
Q 3034 2003 2786 2293 
Q 2538 2584 2113 2584 
z
M 3366 4563 
L 3366 3988 
Q 3128 4100 2886 4159 
Q 2644 4219 2406 4219 
Q 1781 4219 1451 3797 
Q 1122 3375 1075 2522 
Q 1259 2794 1537 2939 
Q 1816 3084 2150 3084 
Q 2853 3084 3261 2657 
Q 3669 2231 3669 1497 
Q 3669 778 3244 343 
Q 2819 -91 2113 -91 
Q 1303 -91 875 529 
Q 447 1150 447 2328 
Q 447 3434 972 4092 
Q 1497 4750 2381 4750 
Q 2619 4750 2861 4703 
Q 3103 4656 3366 4563 
z
" transform="scale(0.015625)"/>
      </defs>
      <use xlink:href="#DejaVuSans-74"/>
      <use xlink:href="#DejaVuSans-3d" x="39.208984"/>
      <use xlink:href="#DejaVuSans-39" x="122.998047"/>
      <use xlink:href="#DejaVuSans-36" x="186.621094"/>
      <use xlink:href="#DejaVuSans-37" x="250.244141"/>
      <use xlink:href="#DejaVuSans-20" x="313.867188"/>
      <use xlink:href="#DejaVuSans-73" x="345.654297"/>
      <use xlink:href="#DejaVuSans-65" x="397.753906"/>
      <use xlink:href="#DejaVuSans-63" x="459.277344"/>
     </g>
    </g>
    <g id="line2d_23">
     <path d="M 405.059375 240.055469 
L 430.059375 240.055469 
L 455.059375 240.055469 
" style="fill: none; stroke-dasharray: 3,4.95; stroke-dashoffset: 0; stroke: #008000; stroke-width: 3"/>
    </g>
    <g id="text_15">
     <!-- t=1327 sec -->
     <g transform="translate(475.059375 248.805469)scale(0.25 -0.25)">
      <use xlink:href="#DejaVuSans-74"/>
      <use xlink:href="#DejaVuSans-3d" x="39.208984"/>
      <use xlink:href="#DejaVuSans-31" x="122.998047"/>
      <use xlink:href="#DejaVuSans-33" x="186.621094"/>
      <use xlink:href="#DejaVuSans-32" x="250.244141"/>
      <use xlink:href="#DejaVuSans-37" x="313.867188"/>
      <use xlink:href="#DejaVuSans-20" x="377.490234"/>
      <use xlink:href="#DejaVuSans-73" x="409.277344"/>
      <use xlink:href="#DejaVuSans-65" x="461.376953"/>
      <use xlink:href="#DejaVuSans-63" x="522.900391"/>
     </g>
    </g>
    <g id="line2d_24">
     <path d="M 405.059375 276.750781 
L 430.059375 276.750781 
L 455.059375 276.750781 
" style="fill: none; stroke-dasharray: 9,15,3,15,3,15; stroke-dashoffset: 0; stroke: #008000; stroke-width: 3"/>
    </g>
    <g id="text_16">
     <!-- t=1807 sec -->
     <g transform="translate(475.059375 285.500781)scale(0.25 -0.25)">
      <use xlink:href="#DejaVuSans-74"/>
      <use xlink:href="#DejaVuSans-3d" x="39.208984"/>
      <use xlink:href="#DejaVuSans-31" x="122.998047"/>
      <use xlink:href="#DejaVuSans-38" x="186.621094"/>
      <use xlink:href="#DejaVuSans-30" x="250.244141"/>
      <use xlink:href="#DejaVuSans-37" x="313.867188"/>
      <use xlink:href="#DejaVuSans-20" x="377.490234"/>
      <use xlink:href="#DejaVuSans-73" x="409.277344"/>
      <use xlink:href="#DejaVuSans-65" x="461.376953"/>
      <use xlink:href="#DejaVuSans-63" x="522.900391"/>
     </g>
    </g>
   </g>
   <g id="legend_2">
    <g id="patch_9">
     <path d="M 402.059375 102.590625 
L 559.907031 102.590625 
Q 564.907031 102.590625 564.907031 97.590625 
L 564.907031 26.7 
Q 564.907031 21.7 559.907031 21.7 
L 402.059375 21.7 
Q 397.059375 21.7 397.059375 26.7 
L 397.059375 97.590625 
Q 397.059375 102.590625 402.059375 102.590625 
z
" style="fill: #4c4c4c; opacity: 0.5; stroke: #4c4c4c; stroke-linejoin: miter"/>
    </g>
    <g id="patch_10">
     <path d="M 400.059375 100.590625 
L 557.907031 100.590625 
Q 562.907031 100.590625 562.907031 95.590625 
L 562.907031 24.7 
Q 562.907031 19.7 557.907031 19.7 
L 400.059375 19.7 
Q 395.059375 19.7 395.059375 24.7 
L 395.059375 95.590625 
Q 395.059375 100.590625 400.059375 100.590625 
z
" style="fill: #ffffff; stroke: #cccccc; stroke-linejoin: miter"/>
    </g>
    <g id="line2d_25">
     <path d="M 405.059375 39.946094 
L 430.059375 39.946094 
L 455.059375 39.946094 
" style="fill: none; stroke: #000000; stroke-width: 3; stroke-linecap: square"/>
    </g>
    <g id="text_17">
     <!-- model -->
     <g transform="translate(475.059375 48.696094)scale(0.25 -0.25)">
      <defs>
       <path id="DejaVuSans-64" d="M 2906 2969 
L 2906 4863 
L 3481 4863 
L 3481 0 
L 2906 0 
L 2906 525 
Q 2725 213 2448 61 
Q 2172 -91 1784 -91 
Q 1150 -91 751 415 
Q 353 922 353 1747 
Q 353 2572 751 3078 
Q 1150 3584 1784 3584 
Q 2172 3584 2448 3432 
Q 2725 3281 2906 2969 
z
M 947 1747 
Q 947 1113 1208 752 
Q 1469 391 1925 391 
Q 2381 391 2643 752 
Q 2906 1113 2906 1747 
Q 2906 2381 2643 2742 
Q 2381 3103 1925 3103 
Q 1469 3103 1208 2742 
Q 947 2381 947 1747 
z
" transform="scale(0.015625)"/>
       <path id="DejaVuSans-6c" d="M 603 4863 
L 1178 4863 
L 1178 0 
L 603 0 
L 603 4863 
z
" transform="scale(0.015625)"/>
      </defs>
      <use xlink:href="#DejaVuSans-6d"/>
      <use xlink:href="#DejaVuSans-6f" x="97.412109"/>
      <use xlink:href="#DejaVuSans-64" x="158.59375"/>
      <use xlink:href="#DejaVuSans-65" x="222.070312"/>
      <use xlink:href="#DejaVuSans-6c" x="283.59375"/>
     </g>
    </g>
    <g id="line2d_26">
     <path d="M 405.059375 76.641406 
L 430.059375 76.641406 
L 455.059375 76.641406 
" style="fill: none; stroke: #008000; stroke-width: 3; stroke-linecap: square"/>
    </g>
    <g id="text_18">
     <!-- data -->
     <g transform="translate(475.059375 85.391406)scale(0.25 -0.25)">
      <use xlink:href="#DejaVuSans-64"/>
      <use xlink:href="#DejaVuSans-61" x="63.476562"/>
      <use xlink:href="#DejaVuSans-74" x="124.755859"/>
      <use xlink:href="#DejaVuSans-61" x="163.964844"/>
     </g>
    </g>
   </g>
  </g>
 </g>
 <defs>
  <clipPath id="p7a7cf7c73f">
   <rect x="94.559375" y="7.2" width="288" height="360"/>
  </clipPath>
 </defs>
</svg>
