<?xml version="1.0" encoding="utf-8" standalone="no"?>
<!DOCTYPE svg PUBLIC "-//W3C//DTD SVG 1.1//EN"
  "http://www.w3.org/Graphics/SVG/1.1/DTD/svg11.dtd">
<svg xmlns:xlink="http://www.w3.org/1999/xlink" width="636.732031pt" height="430.290625pt" viewBox="0 0 636.732031 430.290625" xmlns="http://www.w3.org/2000/svg" version="1.1">
 <metadata>
  <rdf:RDF xmlns:dc="http://purl.org/dc/elements/1.1/" xmlns:cc="http://creativecommons.org/ns#" xmlns:rdf="http://www.w3.org/1999/02/22-rdf-syntax-ns#">
   <cc:Work>
    <dc:type rdf:resource="http://purl.org/dc/dcmitype/StillImage"/>
    <dc:date>2024-06-03T09:49:26.424284</dc:date>
    <dc:format>image/svg+xml</dc:format>
    <dc:creator>
     <cc:Agent>
      <dc:title>Matplotlib v3.5.2, https://matplotlib.org/</dc:title>
     </cc:Agent>
    </dc:creator>
   </cc:Work>
  </rdf:RDF>
 </metadata>
 <defs>
  <style type="text/css">*{stroke-linejoin: round; stroke-linecap: butt}</style>
 </defs>
 <g id="figure_1">
  <g id="patch_1">
   <path d="M 0 430.290625 
L 636.732031 430.290625 
L 636.732031 0 
L 0 0 
z
" style="fill: #ffffff"/>
  </g>
  <g id="axes_1">
   <g id="patch_2">
    <path d="M 94.559375 367.2 
L 382.559375 367.2 
L 382.559375 7.2 
L 94.559375 7.2 
z
" style="fill: #ffffff"/>
   </g>
   <g id="matplotlib.axis_1">
    <g id="xtick_1">
     <g id="line2d_1">
      <defs>
       <path id="m69520397fe" d="M 0 0 
L 0 -4 
" style="stroke: #000000; stroke-width: 3"/>
      </defs>
      <g>
       <use xlink:href="#m69520397fe" x="106.32797" y="367.2" style="stroke: #000000; stroke-width: 3"/>
      </g>
     </g>
     <g id="text_1">
      <!-- 0 -->
      <g transform="translate(98.374845 389.696094)scale(0.25 -0.25)">
       <defs>
        <path id="DejaVuSans-30" d="M 2034 4250 
Q 1547 4250 1301 3770 
Q 1056 3291 1056 2328 
Q 1056 1369 1301 889 
Q 1547 409 2034 409 
Q 2525 409 2770 889 
Q 3016 1369 3016 2328 
Q 3016 3291 2770 3770 
Q 2525 4250 2034 4250 
z
M 2034 4750 
Q 2819 4750 3233 4129 
Q 3647 3509 3647 2328 
Q 3647 1150 3233 529 
Q 2819 -91 2034 -91 
Q 1250 -91 836 529 
Q 422 1150 422 2328 
Q 422 3509 836 4129 
Q 1250 4750 2034 4750 
z
" transform="scale(0.015625)"/>
       </defs>
       <use xlink:href="#DejaVuSans-30"/>
      </g>
     </g>
    </g>
    <g id="xtick_2">
     <g id="line2d_2">
      <g>
       <use xlink:href="#m69520397fe" x="235.966602" y="367.2" style="stroke: #000000; stroke-width: 3"/>
      </g>
     </g>
     <g id="text_2">
      <!-- 10 -->
      <g transform="translate(220.060352 389.696094)scale(0.25 -0.25)">
       <defs>
        <path id="DejaVuSans-31" d="M 794 531 
L 1825 531 
L 1825 4091 
L 703 3866 
L 703 4441 
L 1819 4666 
L 2450 4666 
L 2450 531 
L 3481 531 
L 3481 0 
L 794 0 
L 794 531 
z
" transform="scale(0.015625)"/>
       </defs>
       <use xlink:href="#DejaVuSans-31"/>
       <use xlink:href="#DejaVuSans-30" x="63.623047"/>
      </g>
     </g>
    </g>
    <g id="xtick_3">
     <g id="line2d_3">
      <g>
       <use xlink:href="#m69520397fe" x="365.605235" y="367.2" style="stroke: #000000; stroke-width: 3"/>
      </g>
     </g>
     <g id="text_3">
      <!-- 20 -->
      <g transform="translate(349.698985 389.696094)scale(0.25 -0.25)">
       <defs>
        <path id="DejaVuSans-32" d="M 1228 531 
L 3431 531 
L 3431 0 
L 469 0 
L 469 531 
Q 828 903 1448 1529 
Q 2069 2156 2228 2338 
Q 2531 2678 2651 2914 
Q 2772 3150 2772 3378 
Q 2772 3750 2511 3984 
Q 2250 4219 1831 4219 
Q 1534 4219 1204 4116 
Q 875 4013 500 3803 
L 500 4441 
Q 881 4594 1212 4672 
Q 1544 4750 1819 4750 
Q 2544 4750 2975 4387 
Q 3406 4025 3406 3419 
Q 3406 3131 3298 2873 
Q 3191 2616 2906 2266 
Q 2828 2175 2409 1742 
Q 1991 1309 1228 531 
z
" transform="scale(0.015625)"/>
       </defs>
       <use xlink:href="#DejaVuSans-32"/>
       <use xlink:href="#DejaVuSans-30" x="63.623047"/>
      </g>
     </g>
    </g>
    <g id="text_4">
     <!-- z-position [μm] -->
     <g transform="translate(144.121875 417.891406)scale(0.25 -0.25)">
      <defs>
       <path id="DejaVuSans-7a" d="M 353 3500 
L 3084 3500 
L 3084 2975 
L 922 459 
L 3084 459 
L 3084 0 
L 275 0 
L 275 525 
L 2438 3041 
L 353 3041 
L 353 3500 
z
" transform="scale(0.015625)"/>
       <path id="DejaVuSans-2d" d="M 313 2009 
L 1997 2009 
L 1997 1497 
L 313 1497 
L 313 2009 
z
" transform="scale(0.015625)"/>
       <path id="DejaVuSans-70" d="M 1159 525 
L 1159 -1331 
L 581 -1331 
L 581 3500 
L 1159 3500 
L 1159 2969 
Q 1341 3281 1617 3432 
Q 1894 3584 2278 3584 
Q 2916 3584 3314 3078 
Q 3713 2572 3713 1747 
Q 3713 922 3314 415 
Q 2916 -91 2278 -91 
Q 1894 -91 1617 61 
Q 1341 213 1159 525 
z
M 3116 1747 
Q 3116 2381 2855 2742 
Q 2594 3103 2138 3103 
Q 1681 3103 1420 2742 
Q 1159 2381 1159 1747 
Q 1159 1113 1420 752 
Q 1681 391 2138 391 
Q 2594 391 2855 752 
Q 3116 1113 3116 1747 
z
" transform="scale(0.015625)"/>
       <path id="DejaVuSans-6f" d="M 1959 3097 
Q 1497 3097 1228 2736 
Q 959 2375 959 1747 
Q 959 1119 1226 758 
Q 1494 397 1959 397 
Q 2419 397 2687 759 
Q 2956 1122 2956 1747 
Q 2956 2369 2687 2733 
Q 2419 3097 1959 3097 
z
M 1959 3584 
Q 2709 3584 3137 3096 
Q 3566 2609 3566 1747 
Q 3566 888 3137 398 
Q 2709 -91 1959 -91 
Q 1206 -91 779 398 
Q 353 888 353 1747 
Q 353 2609 779 3096 
Q 1206 3584 1959 3584 
z
" transform="scale(0.015625)"/>
       <path id="DejaVuSans-73" d="M 2834 3397 
L 2834 2853 
Q 2591 2978 2328 3040 
Q 2066 3103 1784 3103 
Q 1356 3103 1142 2972 
Q 928 2841 928 2578 
Q 928 2378 1081 2264 
Q 1234 2150 1697 2047 
L 1894 2003 
Q 2506 1872 2764 1633 
Q 3022 1394 3022 966 
Q 3022 478 2636 193 
Q 2250 -91 1575 -91 
Q 1294 -91 989 -36 
Q 684 19 347 128 
L 347 722 
Q 666 556 975 473 
Q 1284 391 1588 391 
Q 1994 391 2212 530 
Q 2431 669 2431 922 
Q 2431 1156 2273 1281 
Q 2116 1406 1581 1522 
L 1381 1569 
Q 847 1681 609 1914 
Q 372 2147 372 2553 
Q 372 3047 722 3315 
Q 1072 3584 1716 3584 
Q 2034 3584 2315 3537 
Q 2597 3491 2834 3397 
z
" transform="scale(0.015625)"/>
       <path id="DejaVuSans-69" d="M 603 3500 
L 1178 3500 
L 1178 0 
L 603 0 
L 603 3500 
z
M 603 4863 
L 1178 4863 
L 1178 4134 
L 603 4134 
L 603 4863 
z
" transform="scale(0.015625)"/>
       <path id="DejaVuSans-74" d="M 1172 4494 
L 1172 3500 
L 2356 3500 
L 2356 3053 
L 1172 3053 
L 1172 1153 
Q 1172 725 1289 603 
Q 1406 481 1766 481 
L 2356 481 
L 2356 0 
L 1766 0 
Q 1100 0 847 248 
Q 594 497 594 1153 
L 594 3053 
L 172 3053 
L 172 3500 
L 594 3500 
L 594 4494 
L 1172 4494 
z
" transform="scale(0.015625)"/>
       <path id="DejaVuSans-6e" d="M 3513 2113 
L 3513 0 
L 2938 0 
L 2938 2094 
Q 2938 2591 2744 2837 
Q 2550 3084 2163 3084 
Q 1697 3084 1428 2787 
Q 1159 2491 1159 1978 
L 1159 0 
L 581 0 
L 581 3500 
L 1159 3500 
L 1159 2956 
Q 1366 3272 1645 3428 
Q 1925 3584 2291 3584 
Q 2894 3584 3203 3211 
Q 3513 2838 3513 2113 
z
" transform="scale(0.015625)"/>
       <path id="DejaVuSans-20" transform="scale(0.015625)"/>
       <path id="DejaVuSans-5b" d="M 550 4863 
L 1875 4863 
L 1875 4416 
L 1125 4416 
L 1125 -397 
L 1875 -397 
L 1875 -844 
L 550 -844 
L 550 4863 
z
" transform="scale(0.015625)"/>
       <path id="DejaVuSans-3bc" d="M 544 -1331 
L 544 3500 
L 1119 3500 
L 1119 1325 
Q 1119 872 1334 640 
Q 1550 409 1972 409 
Q 2434 409 2667 671 
Q 2900 934 2900 1459 
L 2900 3500 
L 3475 3500 
L 3475 806 
Q 3475 619 3529 530 
Q 3584 441 3700 441 
Q 3728 441 3778 458 
Q 3828 475 3916 513 
L 3916 50 
Q 3788 -22 3673 -56 
Q 3559 -91 3450 -91 
Q 3234 -91 3106 31 
Q 2978 153 2931 403 
Q 2775 156 2548 32 
Q 2322 -91 2016 -91 
Q 1697 -91 1473 31 
Q 1250 153 1119 397 
L 1119 -1331 
L 544 -1331 
z
" transform="scale(0.015625)"/>
       <path id="DejaVuSans-6d" d="M 3328 2828 
Q 3544 3216 3844 3400 
Q 4144 3584 4550 3584 
Q 5097 3584 5394 3201 
Q 5691 2819 5691 2113 
L 5691 0 
L 5113 0 
L 5113 2094 
Q 5113 2597 4934 2840 
Q 4756 3084 4391 3084 
Q 3944 3084 3684 2787 
Q 3425 2491 3425 1978 
L 3425 0 
L 2847 0 
L 2847 2094 
Q 2847 2600 2669 2842 
Q 2491 3084 2119 3084 
Q 1678 3084 1418 2786 
Q 1159 2488 1159 1978 
L 1159 0 
L 581 0 
L 581 3500 
L 1159 3500 
L 1159 2956 
Q 1356 3278 1631 3431 
Q 1906 3584 2284 3584 
Q 2666 3584 2933 3390 
Q 3200 3197 3328 2828 
z
" transform="scale(0.015625)"/>
       <path id="DejaVuSans-5d" d="M 1947 4863 
L 1947 -844 
L 622 -844 
L 622 -397 
L 1369 -397 
L 1369 4416 
L 622 4416 
L 622 4863 
L 1947 4863 
z
" transform="scale(0.015625)"/>
      </defs>
      <use xlink:href="#DejaVuSans-7a"/>
      <use xlink:href="#DejaVuSans-2d" x="52.490234"/>
      <use xlink:href="#DejaVuSans-70" x="88.574219"/>
      <use xlink:href="#DejaVuSans-6f" x="152.050781"/>
      <use xlink:href="#DejaVuSans-73" x="213.232422"/>
      <use xlink:href="#DejaVuSans-69" x="265.332031"/>
      <use xlink:href="#DejaVuSans-74" x="293.115234"/>
      <use xlink:href="#DejaVuSans-69" x="332.324219"/>
      <use xlink:href="#DejaVuSans-6f" x="360.107422"/>
      <use xlink:href="#DejaVuSans-6e" x="421.289062"/>
      <use xlink:href="#DejaVuSans-20" x="484.667969"/>
      <use xlink:href="#DejaVuSans-5b" x="516.455078"/>
      <use xlink:href="#DejaVuSans-3bc" x="555.46875"/>
      <use xlink:href="#DejaVuSans-6d" x="619.091797"/>
      <use xlink:href="#DejaVuSans-5d" x="716.503906"/>
     </g>
    </g>
   </g>
   <g id="matplotlib.axis_2">
    <g id="ytick_1">
     <g id="line2d_4">
      <defs>
       <path id="m132d9df55a" d="M 0 0 
L 4 0 
" style="stroke: #000000; stroke-width: 3"/>
      </defs>
      <g>
       <use xlink:href="#m132d9df55a" x="94.559375" y="353.240867" style="stroke: #000000; stroke-width: 3"/>
      </g>
     </g>
     <g id="text_5">
      <!-- 0.00 -->
      <g transform="translate(35.395313 362.738914)scale(0.25 -0.25)">
       <defs>
        <path id="DejaVuSans-2e" d="M 684 794 
L 1344 794 
L 1344 0 
L 684 0 
L 684 794 
z
" transform="scale(0.015625)"/>
       </defs>
       <use xlink:href="#DejaVuSans-30"/>
       <use xlink:href="#DejaVuSans-2e" x="63.623047"/>
       <use xlink:href="#DejaVuSans-30" x="95.410156"/>
       <use xlink:href="#DejaVuSans-30" x="159.033203"/>
      </g>
     </g>
    </g>
    <g id="ytick_2">
     <g id="line2d_5">
      <g>
       <use xlink:href="#m132d9df55a" x="94.559375" y="257.862622" style="stroke: #000000; stroke-width: 3"/>
      </g>
     </g>
     <g id="text_6">
      <!-- 0.01 -->
      <g transform="translate(35.395313 267.360669)scale(0.25 -0.25)">
       <use xlink:href="#DejaVuSans-30"/>
       <use xlink:href="#DejaVuSans-2e" x="63.623047"/>
       <use xlink:href="#DejaVuSans-30" x="95.410156"/>
       <use xlink:href="#DejaVuSans-31" x="159.033203"/>
      </g>
     </g>
    </g>
    <g id="ytick_3">
     <g id="line2d_6">
      <g>
       <use xlink:href="#m132d9df55a" x="94.559375" y="162.484378" style="stroke: #000000; stroke-width: 3"/>
      </g>
     </g>
     <g id="text_7">
      <!-- 0.02 -->
      <g transform="translate(35.395313 171.982425)scale(0.25 -0.25)">
       <use xlink:href="#DejaVuSans-30"/>
       <use xlink:href="#DejaVuSans-2e" x="63.623047"/>
       <use xlink:href="#DejaVuSans-30" x="95.410156"/>
       <use xlink:href="#DejaVuSans-32" x="159.033203"/>
      </g>
     </g>
    </g>
    <g id="ytick_4">
     <g id="line2d_7">
      <g>
       <use xlink:href="#m132d9df55a" x="94.559375" y="67.106134" style="stroke: #000000; stroke-width: 3"/>
      </g>
     </g>
     <g id="text_8">
      <!-- 0.03 -->
      <g transform="translate(35.395313 76.60418)scale(0.25 -0.25)">
       <defs>
        <path id="DejaVuSans-33" d="M 2597 2516 
Q 3050 2419 3304 2112 
Q 3559 1806 3559 1356 
Q 3559 666 3084 287 
Q 2609 -91 1734 -91 
Q 1441 -91 1130 -33 
Q 819 25 488 141 
L 488 750 
Q 750 597 1062 519 
Q 1375 441 1716 441 
Q 2309 441 2620 675 
Q 2931 909 2931 1356 
Q 2931 1769 2642 2001 
Q 2353 2234 1838 2234 
L 1294 2234 
L 1294 2753 
L 1863 2753 
Q 2328 2753 2575 2939 
Q 2822 3125 2822 3475 
Q 2822 3834 2567 4026 
Q 2313 4219 1838 4219 
Q 1578 4219 1281 4162 
Q 984 4106 628 3988 
L 628 4550 
Q 988 4650 1302 4700 
Q 1616 4750 1894 4750 
Q 2613 4750 3031 4423 
Q 3450 4097 3450 3541 
Q 3450 3153 3228 2886 
Q 3006 2619 2597 2516 
z
" transform="scale(0.015625)"/>
       </defs>
       <use xlink:href="#DejaVuSans-30"/>
       <use xlink:href="#DejaVuSans-2e" x="63.623047"/>
       <use xlink:href="#DejaVuSans-30" x="95.410156"/>
       <use xlink:href="#DejaVuSans-33" x="159.033203"/>
      </g>
     </g>
    </g>
    <g id="text_9">
     <!-- Concentration [mM] -->
     <g transform="translate(26.196094 312.315234)rotate(-90)scale(0.25 -0.25)">
      <defs>
       <path id="DejaVuSans-43" d="M 4122 4306 
L 4122 3641 
Q 3803 3938 3442 4084 
Q 3081 4231 2675 4231 
Q 1875 4231 1450 3742 
Q 1025 3253 1025 2328 
Q 1025 1406 1450 917 
Q 1875 428 2675 428 
Q 3081 428 3442 575 
Q 3803 722 4122 1019 
L 4122 359 
Q 3791 134 3420 21 
Q 3050 -91 2638 -91 
Q 1578 -91 968 557 
Q 359 1206 359 2328 
Q 359 3453 968 4101 
Q 1578 4750 2638 4750 
Q 3056 4750 3426 4639 
Q 3797 4528 4122 4306 
z
" transform="scale(0.015625)"/>
       <path id="DejaVuSans-63" d="M 3122 3366 
L 3122 2828 
Q 2878 2963 2633 3030 
Q 2388 3097 2138 3097 
Q 1578 3097 1268 2742 
Q 959 2388 959 1747 
Q 959 1106 1268 751 
Q 1578 397 2138 397 
Q 2388 397 2633 464 
Q 2878 531 3122 666 
L 3122 134 
Q 2881 22 2623 -34 
Q 2366 -91 2075 -91 
Q 1284 -91 818 406 
Q 353 903 353 1747 
Q 353 2603 823 3093 
Q 1294 3584 2113 3584 
Q 2378 3584 2631 3529 
Q 2884 3475 3122 3366 
z
" transform="scale(0.015625)"/>
       <path id="DejaVuSans-65" d="M 3597 1894 
L 3597 1613 
L 953 1613 
Q 991 1019 1311 708 
Q 1631 397 2203 397 
Q 2534 397 2845 478 
Q 3156 559 3463 722 
L 3463 178 
Q 3153 47 2828 -22 
Q 2503 -91 2169 -91 
Q 1331 -91 842 396 
Q 353 884 353 1716 
Q 353 2575 817 3079 
Q 1281 3584 2069 3584 
Q 2775 3584 3186 3129 
Q 3597 2675 3597 1894 
z
M 3022 2063 
Q 3016 2534 2758 2815 
Q 2500 3097 2075 3097 
Q 1594 3097 1305 2825 
Q 1016 2553 972 2059 
L 3022 2063 
z
" transform="scale(0.015625)"/>
       <path id="DejaVuSans-72" d="M 2631 2963 
Q 2534 3019 2420 3045 
Q 2306 3072 2169 3072 
Q 1681 3072 1420 2755 
Q 1159 2438 1159 1844 
L 1159 0 
L 581 0 
L 581 3500 
L 1159 3500 
L 1159 2956 
Q 1341 3275 1631 3429 
Q 1922 3584 2338 3584 
Q 2397 3584 2469 3576 
Q 2541 3569 2628 3553 
L 2631 2963 
z
" transform="scale(0.015625)"/>
       <path id="DejaVuSans-61" d="M 2194 1759 
Q 1497 1759 1228 1600 
Q 959 1441 959 1056 
Q 959 750 1161 570 
Q 1363 391 1709 391 
Q 2188 391 2477 730 
Q 2766 1069 2766 1631 
L 2766 1759 
L 2194 1759 
z
M 3341 1997 
L 3341 0 
L 2766 0 
L 2766 531 
Q 2569 213 2275 61 
Q 1981 -91 1556 -91 
Q 1019 -91 701 211 
Q 384 513 384 1019 
Q 384 1609 779 1909 
Q 1175 2209 1959 2209 
L 2766 2209 
L 2766 2266 
Q 2766 2663 2505 2880 
Q 2244 3097 1772 3097 
Q 1472 3097 1187 3025 
Q 903 2953 641 2809 
L 641 3341 
Q 956 3463 1253 3523 
Q 1550 3584 1831 3584 
Q 2591 3584 2966 3190 
Q 3341 2797 3341 1997 
z
" transform="scale(0.015625)"/>
       <path id="DejaVuSans-4d" d="M 628 4666 
L 1569 4666 
L 2759 1491 
L 3956 4666 
L 4897 4666 
L 4897 0 
L 4281 0 
L 4281 4097 
L 3078 897 
L 2444 897 
L 1241 4097 
L 1241 0 
L 628 0 
L 628 4666 
z
" transform="scale(0.015625)"/>
      </defs>
      <use xlink:href="#DejaVuSans-43"/>
      <use xlink:href="#DejaVuSans-6f" x="69.824219"/>
      <use xlink:href="#DejaVuSans-6e" x="131.005859"/>
      <use xlink:href="#DejaVuSans-63" x="194.384766"/>
      <use xlink:href="#DejaVuSans-65" x="249.365234"/>
      <use xlink:href="#DejaVuSans-6e" x="310.888672"/>
      <use xlink:href="#DejaVuSans-74" x="374.267578"/>
      <use xlink:href="#DejaVuSans-72" x="413.476562"/>
      <use xlink:href="#DejaVuSans-61" x="454.589844"/>
      <use xlink:href="#DejaVuSans-74" x="515.869141"/>
      <use xlink:href="#DejaVuSans-69" x="555.078125"/>
      <use xlink:href="#DejaVuSans-6f" x="582.861328"/>
      <use xlink:href="#DejaVuSans-6e" x="644.042969"/>
      <use xlink:href="#DejaVuSans-20" x="707.421875"/>
      <use xlink:href="#DejaVuSans-5b" x="739.208984"/>
      <use xlink:href="#DejaVuSans-6d" x="778.222656"/>
      <use xlink:href="#DejaVuSans-4d" x="875.634766"/>
      <use xlink:href="#DejaVuSans-5d" x="961.914062"/>
     </g>
    </g>
   </g>
   <g id="line2d_8">
    <path d="M 107.650284 349.34536 
L 110.294912 349.327996 
L 112.93954 349.310083 
L 115.584168 349.291735 
L 118.228796 349.273061 
L 120.873425 349.25416 
L 123.518053 349.23513 
L 126.162681 349.216058 
L 128.807309 349.197029 
L 131.451937 349.17812 
L 134.096565 349.159404 
L 136.741193 349.140949 
L 139.385821 349.122817 
L 142.030449 349.105067 
L 144.675077 349.087751 
L 147.319706 349.070919 
L 149.964334 349.054618 
L 152.608962 349.038888 
L 155.25359 349.023768 
L 157.898218 349.009293 
L 160.542846 348.995494 
L 163.187474 348.9824 
L 165.832102 348.970037 
L 168.47673 348.958429 
L 171.121358 348.947597 
L 173.765987 348.937559 
L 176.410615 348.928333 
L 179.055243 348.919934 
L 181.699871 348.912374 
L 184.344499 348.905667 
L 186.989127 348.899822 
L 189.633755 348.894848 
L 192.278383 348.890755 
L 194.923011 348.887548 
L 197.567639 348.885236 
L 200.212268 348.883823 
L 202.856896 348.883314 
L 205.501524 348.883715 
L 208.146152 348.885031 
L 210.79078 348.887264 
L 213.435408 348.890419 
L 216.080036 348.894501 
L 218.724664 348.899513 
L 221.369292 348.905458 
L 224.01392 348.912342 
L 226.658549 348.920168 
L 229.303177 348.928941 
L 231.947805 348.938666 
L 234.592433 348.949347 
L 237.237061 348.960991 
L 239.881689 348.973602 
L 242.526317 348.987191 
L 245.170945 349.001762 
L 247.815573 349.017323 
L 250.460201 349.033881 
L 253.10483 349.051443 
L 255.749458 349.070017 
L 258.394086 349.08961 
L 261.038714 349.110232 
L 263.683342 349.131889 
L 266.32797 349.154589 
L 268.972598 349.178342 
L 271.617226 349.203155 
L 274.261854 349.229037 
L 276.906482 349.255994 
L 279.551111 349.284033 
L 282.195739 349.313163 
L 284.840367 349.343389 
L 287.484995 349.374716 
L 290.129623 349.407149 
L 292.774251 349.440692 
L 295.418879 349.475348 
L 298.063507 349.511117 
L 300.708135 349.548 
L 303.352763 349.585994 
L 305.997392 349.625097 
L 308.64202 349.665302 
L 311.286648 349.706603 
L 313.931276 349.748989 
L 316.575904 349.792447 
L 319.220532 349.836963 
L 321.86516 349.882519 
L 324.509788 349.929093 
L 327.154416 349.976662 
L 329.799044 350.025195 
L 332.443673 350.074663 
L 335.088301 350.125029 
L 337.732929 350.176252 
L 340.377557 350.228289 
L 343.022185 350.28109 
L 345.666813 350.3346 
L 348.311441 350.388759 
L 350.956069 350.443504 
L 353.600697 350.498763 
L 356.245325 350.554459 
L 358.889954 350.610509 
L 361.534582 350.666825 
L 364.17921 350.723309 
L 366.823838 350.779859 
L 369.468466 350.836364 
" clip-path="url(#p25e61a43af)" style="fill: none; stroke: #000000; stroke-width: 3; stroke-linecap: square"/>
   </g>
   <g id="line2d_9">
    <path d="M 107.650284 348.158094 
L 110.294912 348.182618 
L 112.93954 348.234189 
L 115.584168 348.279801 
L 118.228796 348.288287 
L 120.873425 348.257545 
L 123.518053 348.20867 
L 126.162681 348.163388 
L 128.807309 348.138731 
L 131.451937 348.140398 
L 134.096565 348.172418 
L 136.741193 348.237045 
L 139.385821 348.321517 
L 142.030449 348.405527 
L 144.675077 348.46891 
L 147.319706 348.502647 
L 149.964334 348.514473 
L 152.608962 348.513508 
L 155.25359 348.508202 
L 157.898218 348.503733 
L 160.542846 348.50427 
L 163.187474 348.513772 
L 165.832102 348.531725 
L 168.47673 348.553337 
L 171.121358 348.573647 
L 173.765987 348.58763 
L 176.410615 348.590076 
L 179.055243 348.575744 
L 181.699871 348.540304 
L 184.344499 348.489192 
L 186.989127 348.433769 
L 189.633755 348.385449 
L 192.278383 348.352834 
L 194.923011 348.339432 
L 197.567639 348.348214 
L 200.212268 348.380243 
L 202.856896 348.424968 
L 205.501524 348.467475 
L 208.146152 348.493362 
L 210.79078 348.5036 
L 213.435408 348.516763 
L 216.080036 348.552387 
L 218.724664 348.621914 
L 221.369292 348.707586 
L 224.01392 348.785062 
L 226.658549 348.831579 
L 229.303177 348.846177 
L 231.947805 348.843782 
L 234.592433 348.839652 
L 237.237061 348.842633 
L 239.881689 348.847552 
L 242.526317 348.847377 
L 245.170945 348.83662 
L 247.815573 348.821436 
L 250.460201 348.813308 
L 253.10483 348.823501 
L 255.749458 348.852767 
L 258.394086 348.887422 
L 261.038714 348.912738 
L 263.683342 348.917479 
L 266.32797 348.905896 
L 268.972598 348.886532 
L 271.617226 348.867701 
L 274.261854 348.853538 
L 276.906482 348.844527 
L 279.551111 348.841024 
L 282.195739 348.84248 
L 284.840367 348.845927 
L 287.484995 348.848001 
L 290.129623 348.845716 
L 292.774251 348.839687 
L 295.418879 348.83252 
L 298.063507 348.826825 
L 300.708135 348.824005 
L 303.352763 348.823476 
L 305.997392 348.824464 
L 308.64202 348.826226 
L 311.286648 348.828161 
L 313.931276 348.829722 
L 316.575904 348.830438 
L 319.220532 348.83188 
L 321.86516 348.837749 
L 324.509788 348.851846 
L 327.154416 348.87592 
L 329.799044 348.90504 
L 332.443673 348.932917 
L 335.088301 348.953668 
L 337.732929 348.966314 
L 340.377557 348.973139 
L 343.022185 348.976479 
L 345.666813 348.977574 
L 348.311441 348.975485 
L 350.956069 348.969016 
L 353.600697 348.957393 
L 356.245325 348.942695 
L 358.889954 348.928186 
L 361.534582 348.917079 
L 364.17921 348.91065 
L 366.823838 348.907748 
L 369.468466 348.907071 
" clip-path="url(#p25e61a43af)" style="fill: none; stroke: #008000; stroke-width: 3; stroke-linecap: square"/>
   </g>
   <g id="line2d_10">
    <path d="M 107.650284 328.348534 
L 110.294912 328.918399 
L 112.93954 329.4727 
L 115.584168 330.011698 
L 118.228796 330.535651 
L 120.873425 331.04481 
L 123.518053 331.539422 
L 126.162681 332.019729 
L 128.807309 332.485966 
L 131.451937 332.938363 
L 134.096565 333.377147 
L 136.741193 333.802535 
L 139.385821 334.214743 
L 142.030449 334.613979 
L 144.675077 335.000446 
L 147.319706 335.374343 
L 149.964334 335.735861 
L 152.608962 336.085188 
L 155.25359 336.422505 
L 157.898218 336.747987 
L 160.542846 337.061805 
L 163.187474 337.364124 
L 165.832102 337.655103 
L 168.47673 337.934895 
L 171.121358 338.203649 
L 173.765987 338.461507 
L 176.410615 338.708607 
L 179.055243 338.945079 
L 181.699871 339.17105 
L 184.344499 339.386639 
L 186.989127 339.591962 
L 189.633755 339.787127 
L 192.278383 339.972238 
L 194.923011 340.147392 
L 197.567639 340.312682 
L 200.212268 340.468193 
L 202.856896 340.614008 
L 205.501524 340.750202 
L 208.146152 340.876843 
L 210.79078 340.993995 
L 213.435408 341.101718 
L 216.080036 341.200064 
L 218.724664 341.289079 
L 221.369292 341.368805 
L 224.01392 341.439278 
L 226.658549 341.500527 
L 229.303177 341.552578 
L 231.947805 341.595447 
L 234.592433 341.629149 
L 237.237061 341.65369 
L 239.881689 341.669071 
L 242.526317 341.675263 
L 245.170945 341.672254 
L 247.815573 341.660028 
L 250.460201 341.638565 
L 253.10483 341.607837 
L 255.749458 341.567811 
L 258.394086 341.518449 
L 261.038714 341.459705 
L 263.683342 341.39153 
L 266.32797 341.313867 
L 268.972598 341.226655 
L 271.617226 341.129826 
L 274.261854 341.023307 
L 276.906482 340.907019 
L 279.551111 340.780876 
L 282.195739 340.644787 
L 284.840367 340.498658 
L 287.484995 340.342384 
L 290.129623 340.175858 
L 292.774251 339.998966 
L 295.418879 339.811588 
L 298.063507 339.613599 
L 300.708135 339.404868 
L 303.352763 339.185256 
L 305.997392 338.954623 
L 308.64202 338.712817 
L 311.286648 338.459687 
L 313.931276 338.195069 
L 316.575904 337.9188 
L 319.220532 337.630706 
L 321.86516 337.330611 
L 324.509788 337.01833 
L 327.154416 336.693674 
L 329.799044 336.356448 
L 332.443673 336.006452 
L 335.088301 335.643478 
L 337.732929 335.267314 
L 340.377557 334.877742 
L 343.022185 334.474537 
L 345.666813 334.057471 
L 348.311441 333.626307 
L 350.956069 333.180804 
L 353.600697 332.720715 
L 356.245325 332.245788 
L 358.889954 331.755763 
L 361.534582 331.250377 
L 364.17921 330.72936 
L 366.823838 330.192436 
L 369.468466 329.639323 
" clip-path="url(#p25e61a43af)" style="fill: none; stroke-dasharray: 11.1,4.8; stroke-dashoffset: 0; stroke: #000000; stroke-width: 3"/>
   </g>
   <g id="line2d_11">
    <path d="M 107.650284 332.069731 
L 110.294912 332.155873 
L 112.93954 332.367862 
L 115.584168 332.636043 
L 118.228796 332.893589 
L 120.873425 333.118351 
L 123.518053 333.32385 
L 126.162681 333.524598 
L 128.807309 333.735328 
L 131.451937 333.971291 
L 134.096565 334.247818 
L 136.741193 334.576457 
L 139.385821 334.936763 
L 142.030449 335.292204 
L 144.675077 335.606412 
L 147.319706 335.858751 
L 149.964334 336.052237 
L 152.608962 336.191836 
L 155.25359 336.283941 
L 157.898218 336.341968 
L 160.542846 336.38149 
L 163.187474 336.417716 
L 165.832102 336.458058 
L 168.47673 336.502478 
L 171.121358 336.550639 
L 173.765987 336.59994 
L 176.410615 336.64113 
L 179.055243 336.663737 
L 181.699871 336.658889 
L 184.344499 336.634805 
L 186.989127 336.61007 
L 189.633755 336.603373 
L 192.278383 336.629246 
L 194.923011 336.694694 
L 197.567639 336.805934 
L 200.212268 336.966107 
L 202.856896 337.15968 
L 205.501524 337.364102 
L 208.146152 337.557091 
L 210.79078 337.724676 
L 213.435408 337.862401 
L 216.080036 337.966332 
L 218.724664 338.03706 
L 221.369292 338.091504 
L 224.01392 338.150262 
L 226.658549 338.231985 
L 229.303177 338.328454 
L 231.947805 338.411864 
L 234.592433 338.45405 
L 237.237061 338.443429 
L 239.881689 338.404696 
L 242.526317 338.367349 
L 245.170945 338.357075 
L 247.815573 338.370744 
L 250.460201 338.392061 
L 253.10483 338.404859 
L 255.749458 338.401587 
L 258.394086 338.386515 
L 261.038714 338.364766 
L 263.683342 338.339881 
L 266.32797 338.308358 
L 268.972598 338.264747 
L 271.617226 338.204062 
L 274.261854 338.129831 
L 276.906482 338.053016 
L 279.551111 337.984817 
L 282.195739 337.930058 
L 284.840367 337.876579 
L 287.484995 337.809432 
L 290.129623 337.715296 
L 292.774251 337.596347 
L 295.418879 337.463319 
L 298.063507 337.327013 
L 300.708135 337.196301 
L 303.352763 337.076883 
L 305.997392 336.974158 
L 308.64202 336.892115 
L 311.286648 336.827005 
L 313.931276 336.77245 
L 316.575904 336.722093 
L 319.220532 336.6701 
L 321.86516 336.611186 
L 324.509788 336.540093 
L 327.154416 336.455354 
L 329.799044 336.367841 
L 332.443673 336.29093 
L 335.088301 336.236558 
L 337.732929 336.199176 
L 340.377557 336.161602 
L 343.022185 336.106474 
L 345.666813 336.020203 
L 348.311441 335.896705 
L 350.956069 335.730785 
L 353.600697 335.518614 
L 356.245325 335.265634 
L 358.889954 334.981124 
L 361.534582 334.675013 
L 364.17921 334.379897 
L 366.823838 334.156776 
L 369.468466 334.068448 
" clip-path="url(#p25e61a43af)" style="fill: none; stroke-dasharray: 11.1,4.8; stroke-dashoffset: 0; stroke: #008000; stroke-width: 3"/>
   </g>
   <g id="line2d_12">
    <path d="M 107.650284 254.090546 
L 110.294912 255.351677 
L 112.93954 256.584415 
L 115.584168 257.788906 
L 118.228796 258.965292 
L 120.873425 260.113716 
L 123.518053 261.234314 
L 126.162681 262.327223 
L 128.807309 263.392573 
L 131.451937 264.430497 
L 134.096565 265.441118 
L 136.741193 266.424563 
L 139.385821 267.380951 
L 142.030449 268.3104 
L 144.675077 269.213025 
L 147.319706 270.088938 
L 149.964334 270.938248 
L 152.608962 271.761059 
L 155.25359 272.557475 
L 157.898218 273.327594 
L 160.542846 274.071513 
L 163.187474 274.789325 
L 165.832102 275.481119 
L 168.47673 276.14698 
L 171.121358 276.786993 
L 173.765987 277.401237 
L 176.410615 277.989788 
L 179.055243 278.552719 
L 181.699871 279.090099 
L 184.344499 279.601994 
L 186.989127 280.088468 
L 189.633755 280.549579 
L 192.278383 280.985383 
L 194.923011 281.395932 
L 197.567639 281.781276 
L 200.212268 282.141458 
L 202.856896 282.476521 
L 205.501524 282.786502 
L 208.146152 283.071438 
L 210.79078 283.331357 
L 213.435408 283.566288 
L 216.080036 283.776255 
L 218.724664 283.961277 
L 221.369292 284.121371 
L 224.01392 284.25655 
L 226.658549 284.366824 
L 229.303177 284.452197 
L 231.947805 284.512673 
L 234.592433 284.548249 
L 237.237061 284.558919 
L 239.881689 284.544676 
L 242.526317 284.505433 
L 245.170945 284.441173 
L 247.815573 284.351876 
L 250.460201 284.237519 
L 253.10483 284.098075 
L 255.749458 283.933511 
L 258.394086 283.743794 
L 261.038714 283.528886 
L 263.683342 283.288743 
L 266.32797 283.023321 
L 268.972598 282.73257 
L 271.617226 282.416436 
L 274.261854 282.074865 
L 276.906482 281.707794 
L 279.551111 281.315161 
L 282.195739 280.896897 
L 284.840367 280.452932 
L 287.484995 279.983192 
L 290.129623 279.487596 
L 292.774251 278.966065 
L 295.418879 278.418513 
L 298.063507 277.84485 
L 300.708135 277.244984 
L 303.352763 276.61882 
L 305.997392 275.966258 
L 308.64202 275.287196 
L 311.286648 274.581527 
L 313.931276 273.849141 
L 316.575904 273.089925 
L 319.220532 272.303764 
L 321.86516 271.490538 
L 324.509788 270.650122 
L 327.154416 269.782392 
L 329.799044 268.887217 
L 332.443673 267.964465 
L 335.088301 267.013999 
L 337.732929 266.03568 
L 340.377557 265.029367 
L 343.022185 263.994913 
L 345.666813 262.93217 
L 348.311441 261.840986 
L 350.956069 260.721206 
L 353.600697 259.572674 
L 356.245325 258.395228 
L 358.889954 257.188705 
L 361.534582 255.952938 
L 364.17921 254.687759 
L 366.823838 253.392995 
L 369.468466 252.068471 
" clip-path="url(#p25e61a43af)" style="fill: none; stroke-dasharray: 19.2,4.8,3,4.8; stroke-dashoffset: 0; stroke: #000000; stroke-width: 3"/>
   </g>
   <g id="line2d_13">
    <path d="M 107.650284 246.991089 
L 110.294912 247.581597 
L 112.93954 249.008124 
L 115.584168 250.753175 
L 118.228796 252.32366 
L 120.873425 253.612377 
L 123.518053 254.820145 
L 126.162681 256.156049 
L 128.807309 257.729735 
L 131.451937 259.411043 
L 134.096565 261.034389 
L 136.741193 262.450914 
L 139.385821 263.653213 
L 142.030449 264.705006 
L 144.675077 265.670231 
L 147.319706 266.594885 
L 149.964334 267.497997 
L 152.608962 268.396374 
L 155.25359 269.301819 
L 157.898218 270.201515 
L 160.542846 271.075079 
L 163.187474 271.902605 
L 165.832102 272.674283 
L 168.47673 273.389959 
L 171.121358 274.049863 
L 173.765987 274.651127 
L 176.410615 275.181768 
L 179.055243 275.628135 
L 181.699871 275.98099 
L 184.344499 276.278349 
L 186.989127 276.586892 
L 189.633755 276.9733 
L 192.278383 277.466239 
L 194.923011 278.025584 
L 197.567639 278.603966 
L 200.212268 279.158993 
L 202.856896 279.678503 
L 205.501524 280.161697 
L 208.146152 280.607848 
L 210.79078 281.017855 
L 213.435408 281.394473 
L 216.080036 281.740561 
L 218.724664 282.05816 
L 221.369292 282.346368 
L 224.01392 282.603618 
L 226.658549 282.827854 
L 229.303177 283.010284 
L 231.947805 283.137204 
L 234.592433 283.194902 
L 237.237061 283.189536 
L 239.881689 283.170754 
L 242.526317 283.193958 
L 245.170945 283.30285 
L 247.815573 283.452703 
L 250.460201 283.558389 
L 253.10483 283.536059 
L 255.749458 283.367524 
L 258.394086 283.124664 
L 261.038714 282.88589 
L 263.683342 282.710695 
L 266.32797 282.57466 
L 268.972598 282.430102 
L 271.617226 282.230788 
L 274.261854 281.956877 
L 276.906482 281.611591 
L 279.551111 281.198923 
L 282.195739 280.721386 
L 284.840367 280.177546 
L 287.484995 279.56532 
L 290.129623 278.887005 
L 292.774251 278.186496 
L 295.418879 277.530675 
L 298.063507 276.98566 
L 300.708135 276.545834 
L 303.352763 276.087321 
L 305.997392 275.475202 
L 308.64202 274.607695 
L 311.286648 273.564163 
L 313.931276 272.485548 
L 316.575904 271.508994 
L 319.220532 270.675477 
L 321.86516 269.925385 
L 324.509788 269.19437 
L 327.154416 268.423856 
L 329.799044 267.574064 
L 332.443673 266.609032 
L 335.088301 265.497404 
L 337.732929 264.263685 
L 340.377557 262.969533 
L 343.022185 261.677122 
L 345.666813 260.427675 
L 348.311441 259.220743 
L 350.956069 258.050951 
L 353.600697 256.889779 
L 356.245325 255.552005 
L 358.889954 253.787433 
L 361.534582 251.359384 
L 364.17921 248.52376 
L 366.823838 246.153564 
L 369.468466 245.160826 
" clip-path="url(#p25e61a43af)" style="fill: none; stroke-dasharray: 19.2,4.8,3,4.8; stroke-dashoffset: 0; stroke: #008000; stroke-width: 3"/>
   </g>
   <g id="line2d_14">
    <path d="M 107.650284 179.115944 
L 110.294912 180.614721 
L 112.93954 182.081214 
L 115.584168 183.515467 
L 118.228796 184.917529 
L 120.873425 186.287443 
L 123.518053 187.625254 
L 126.162681 188.931008 
L 128.807309 190.204746 
L 131.451937 191.446511 
L 134.096565 192.656345 
L 136.741193 193.834288 
L 139.385821 194.98038 
L 142.030449 196.09466 
L 144.675077 197.177165 
L 147.319706 198.227933 
L 149.964334 199.246999 
L 152.608962 200.234397 
L 155.25359 201.190162 
L 157.898218 202.114326 
L 160.542846 203.006919 
L 163.187474 203.867973 
L 165.832102 204.697515 
L 168.47673 205.495574 
L 171.121358 206.262176 
L 173.765987 206.997346 
L 176.410615 207.701108 
L 179.055243 208.373484 
L 181.699871 209.014495 
L 184.344499 209.624163 
L 186.989127 210.202504 
L 189.633755 210.749535 
L 192.278383 211.265273 
L 194.923011 211.749732 
L 197.567639 212.202924 
L 200.212268 212.624861 
L 202.856896 213.015553 
L 205.501524 213.375007 
L 208.146152 213.703231 
L 210.79078 214.00023 
L 213.435408 214.266008 
L 216.080036 214.500567 
L 218.724664 214.703909 
L 221.369292 214.876032 
L 224.01392 215.016933 
L 226.658549 215.126611 
L 229.303177 215.205058 
L 231.947805 215.252267 
L 234.592433 215.268232 
L 237.237061 215.252941 
L 239.881689 215.206382 
L 242.526317 215.128451 
L 245.170945 215.019132 
L 247.815573 214.878409 
L 250.460201 214.706264 
L 253.10483 214.502678 
L 255.749458 214.267629 
L 258.394086 214.001096 
L 261.038714 213.703053 
L 263.683342 213.373475 
L 266.32797 213.012336 
L 268.972598 212.619606 
L 271.617226 212.195255 
L 274.261854 211.739251 
L 276.906482 211.251562 
L 279.551111 210.732152 
L 282.195739 210.180986 
L 284.840367 209.598025 
L 287.484995 208.983231 
L 290.129623 208.336564 
L 292.774251 207.657981 
L 295.418879 206.947439 
L 298.063507 206.204893 
L 300.708135 205.430299 
L 303.352763 204.623607 
L 305.997392 203.78477 
L 308.64202 202.913739 
L 311.286648 202.010461 
L 313.931276 201.074884 
L 316.575904 200.106955 
L 319.220532 199.106619 
L 321.86516 198.07382 
L 324.509788 197.008502 
L 327.154416 195.910605 
L 329.799044 194.780071 
L 332.443673 193.616839 
L 335.088301 192.420848 
L 337.732929 191.192036 
L 340.377557 189.93034 
L 343.022185 188.635695 
L 345.666813 187.308037 
L 348.311441 185.9473 
L 350.956069 184.553416 
L 353.600697 183.126319 
L 356.245325 181.66594 
L 358.889954 180.172211 
L 361.534582 178.645062 
L 364.17921 177.084423 
L 366.823838 175.490224 
L 369.468466 173.862393 
" clip-path="url(#p25e61a43af)" style="fill: none; stroke-dasharray: 3,4.95; stroke-dashoffset: 0; stroke: #000000; stroke-width: 3"/>
   </g>
   <g id="line2d_15">
    <path d="M 107.650284 178.588055 
L 110.294912 179.02022 
L 112.93954 180.166523 
L 115.584168 181.801676 
L 118.228796 183.708269 
L 120.873425 185.793445 
L 123.518053 188.063767 
L 126.162681 190.528405 
L 128.807309 193.144971 
L 131.451937 195.746752 
L 134.096565 198.148665 
L 136.741193 200.1898 
L 139.385821 201.913664 
L 142.030449 203.466558 
L 144.675077 204.994214 
L 147.319706 206.568161 
L 149.964334 208.148377 
L 152.608962 209.68564 
L 155.25359 211.135381 
L 157.898218 212.475934 
L 160.542846 213.692672 
L 163.187474 214.773319 
L 165.832102 215.755563 
L 168.47673 216.724859 
L 171.121358 217.76854 
L 173.765987 218.932121 
L 176.410615 220.138117 
L 179.055243 221.286538 
L 181.699871 222.288523 
L 184.344499 223.174349 
L 186.989127 224.04656 
L 189.633755 225.007929 
L 192.278383 226.086294 
L 194.923011 227.173894 
L 197.567639 228.148694 
L 200.212268 228.907096 
L 202.856896 229.457585 
L 205.501524 229.850754 
L 208.146152 230.137669 
L 210.79078 230.38119 
L 213.435408 230.657677 
L 216.080036 231.044225 
L 218.724664 231.585076 
L 221.369292 232.205948 
L 224.01392 232.80584 
L 226.658549 233.289844 
L 229.303177 233.647114 
L 231.947805 233.928081 
L 234.592433 234.184326 
L 237.237061 234.420639 
L 239.881689 234.539406 
L 242.526317 234.429465 
L 245.170945 234.004291 
L 247.815573 233.36356 
L 250.460201 232.692025 
L 253.10483 232.172149 
L 255.749458 231.865985 
L 258.394086 231.670404 
L 261.038714 231.470307 
L 263.683342 231.167684 
L 266.32797 230.740324 
L 268.972598 230.187029 
L 271.617226 229.507552 
L 274.261854 228.719001 
L 276.906482 227.853648 
L 279.551111 226.944271 
L 282.195739 226.022945 
L 284.840367 225.119867 
L 287.484995 224.264922 
L 290.129623 223.48106 
L 292.774251 222.725327 
L 295.418879 221.918349 
L 298.063507 220.981212 
L 300.708135 219.894949 
L 303.352763 218.73941 
L 305.997392 217.603679 
L 308.64202 216.554108 
L 311.286648 215.532793 
L 313.931276 214.43959 
L 316.575904 213.178696 
L 319.220532 211.763578 
L 321.86516 210.322005 
L 324.509788 208.987109 
L 327.154416 207.831896 
L 329.799044 206.733611 
L 332.443673 205.529731 
L 335.088301 204.067491 
L 337.732929 202.312424 
L 340.377557 200.308762 
L 343.022185 198.102293 
L 345.666813 195.756321 
L 348.311441 193.368985 
L 350.956069 191.042545 
L 353.600697 188.840829 
L 356.245325 186.567514 
L 358.889954 183.9184 
L 361.534582 180.605351 
L 364.17921 176.929002 
L 366.823838 173.927603 
L 369.468466 172.686048 
" clip-path="url(#p25e61a43af)" style="fill: none; stroke-dasharray: 3,4.95; stroke-dashoffset: 0; stroke: #008000; stroke-width: 3"/>
   </g>
   <g id="line2d_16">
    <path d="M 107.650284 76.206613 
L 110.294912 77.647676 
L 112.93954 79.058937 
L 115.584168 80.440318 
L 118.228796 81.791742 
L 120.873425 83.113132 
L 123.518053 84.404416 
L 126.162681 85.665523 
L 128.807309 86.896383 
L 131.451937 88.096928 
L 134.096565 89.267094 
L 136.741193 90.406817 
L 139.385821 91.516034 
L 142.030449 92.594685 
L 144.675077 93.642713 
L 147.319706 94.66006 
L 149.964334 95.646672 
L 152.608962 96.602496 
L 155.25359 97.527479 
L 157.898218 98.421572 
L 160.542846 99.284726 
L 163.187474 100.116895 
L 165.832102 100.918033 
L 168.47673 101.688096 
L 171.121358 102.427043 
L 173.765987 103.134833 
L 176.410615 103.811425 
L 179.055243 104.456783 
L 181.699871 105.07087 
L 184.344499 105.653651 
L 186.989127 106.205092 
L 189.633755 106.725162 
L 192.278383 107.213829 
L 194.923011 107.671064 
L 197.567639 108.096839 
L 200.212268 108.491126 
L 202.856896 108.853902 
L 205.501524 109.18514 
L 208.146152 109.48482 
L 210.79078 109.752918 
L 213.435408 109.989415 
L 216.080036 110.194292 
L 218.724664 110.367531 
L 221.369292 110.509116 
L 224.01392 110.619032 
L 226.658549 110.697265 
L 229.303177 110.743801 
L 231.947805 110.758631 
L 234.592433 110.741744 
L 237.237061 110.69313 
L 239.881689 110.612784 
L 242.526317 110.500603 
L 245.170945 110.356585 
L 247.815573 110.180724 
L 250.460201 109.973018 
L 253.10483 109.733467 
L 255.749458 109.46207 
L 258.394086 109.158829 
L 261.038714 108.823748 
L 263.683342 108.456829 
L 266.32797 108.058079 
L 268.972598 107.627505 
L 271.617226 107.165115 
L 274.261854 106.670918 
L 276.906482 106.144926 
L 279.551111 105.58715 
L 282.195739 104.997606 
L 284.840367 104.376308 
L 287.484995 103.723273 
L 290.129623 103.03852 
L 292.774251 102.322067 
L 295.418879 101.573937 
L 298.063507 100.794152 
L 300.708135 99.982737 
L 303.352763 99.139717 
L 305.997392 98.265121 
L 308.64202 97.358977 
L 311.286648 96.421316 
L 313.931276 95.452172 
L 316.575904 94.451577 
L 319.220532 93.419569 
L 321.86516 92.356185 
L 324.509788 91.261465 
L 327.154416 90.13545 
L 329.799044 88.978183 
L 332.443673 87.78971 
L 335.088301 86.570078 
L 337.732929 85.319336 
L 340.377557 84.037535 
L 343.022185 82.724729 
L 345.666813 81.380972 
L 348.311441 80.006322 
L 350.956069 78.600839 
L 353.600697 77.164584 
L 356.245325 75.697622 
L 358.889954 74.200018 
L 361.534582 72.671841 
L 364.17921 71.113162 
L 366.823838 69.524055 
L 369.468466 67.904595 
" clip-path="url(#p25e61a43af)" style="fill: none; stroke-dasharray: 9,15,3,15,3,15; stroke-dashoffset: 0; stroke: #000000; stroke-width: 3"/>
   </g>
   <g id="line2d_17">
    <path d="M 107.650284 32.75523 
L 110.294912 33.910606 
L 112.93954 36.777117 
L 115.584168 40.455331 
L 118.228796 44.077865 
L 120.873425 47.28401 
L 123.518053 50.117503 
L 126.162681 52.63348 
L 128.807309 54.927381 
L 131.451937 57.191853 
L 134.096565 59.6339 
L 136.741193 62.425841 
L 139.385821 65.446618 
L 142.030449 68.427656 
L 144.675077 71.101761 
L 147.319706 73.339881 
L 149.964334 75.220619 
L 152.608962 76.839706 
L 155.25359 78.305604 
L 157.898218 79.789423 
L 160.542846 81.481518 
L 163.187474 83.564128 
L 165.832102 86.046997 
L 168.47673 88.77496 
L 171.121358 91.586248 
L 173.765987 94.31521 
L 176.410615 96.784784 
L 179.055243 98.815822 
L 181.699871 100.249801 
L 184.344499 101.149021 
L 186.989127 101.709737 
L 189.633755 102.129664 
L 192.278383 102.566773 
L 194.923011 103.107106 
L 197.567639 103.829133 
L 200.212268 104.795078 
L 202.856896 105.968431 
L 205.501524 107.275583 
L 208.146152 108.641895 
L 210.79078 109.964088 
L 213.435408 111.106105 
L 216.080036 111.930091 
L 218.724664 112.354641 
L 221.369292 112.50198 
L 224.01392 112.540234 
L 226.658549 112.629602 
L 229.303177 112.82088 
L 231.947805 113.085112 
L 234.592433 113.391476 
L 237.237061 113.697925 
L 239.881689 113.937845 
L 242.526317 114.041369 
L 245.170945 113.946309 
L 247.815573 113.648506 
L 250.460201 113.170313 
L 253.10483 112.535305 
L 255.749458 111.814913 
L 258.394086 111.146219 
L 261.038714 110.671061 
L 263.683342 110.461739 
L 266.32797 110.28208 
L 268.972598 109.810393 
L 271.617226 108.742841 
L 274.261854 107.101377 
L 276.906482 105.192591 
L 279.551111 103.332488 
L 282.195739 101.747517 
L 284.840367 100.425765 
L 287.484995 99.316102 
L 290.129623 98.363044 
L 292.774251 97.46978 
L 295.418879 96.516657 
L 298.063507 95.384741 
L 300.708135 94.023469 
L 303.352763 92.494987 
L 305.997392 90.871968 
L 308.64202 89.213004 
L 311.286648 87.499714 
L 313.931276 85.687548 
L 316.575904 83.734006 
L 319.220532 81.648279 
L 321.86516 79.493624 
L 324.509788 77.335842 
L 327.154416 75.228661 
L 329.799044 73.186502 
L 332.443673 71.215801 
L 335.088301 69.314582 
L 337.732929 67.378889 
L 340.377557 65.236922 
L 343.022185 62.716545 
L 345.666813 59.762705 
L 348.311441 56.553201 
L 350.956069 53.293368 
L 353.600697 50.119257 
L 356.245325 46.697942 
L 358.889954 42.50203 
L 361.534582 37.032267 
L 364.17921 30.821599 
L 366.823838 25.696103 
L 369.468466 23.563636 
" clip-path="url(#p25e61a43af)" style="fill: none; stroke-dasharray: 9,15,3,15,3,15; stroke-dashoffset: 0; stroke: #008000; stroke-width: 3"/>
   </g>
   <g id="patch_3">
    <path d="M 94.559375 367.2 
L 94.559375 7.2 
" style="fill: none; stroke: #000000; stroke-width: 2; stroke-linejoin: miter; stroke-linecap: square"/>
   </g>
   <g id="patch_4">
    <path d="M 382.559375 367.2 
L 382.559375 7.2 
" style="fill: none; stroke: #000000; stroke-width: 2; stroke-linejoin: miter; stroke-linecap: square"/>
   </g>
   <g id="patch_5">
    <path d="M 94.559375 367.2 
L 382.559375 367.2 
" style="fill: none; stroke: #000000; stroke-width: 2; stroke-linejoin: miter; stroke-linecap: square"/>
   </g>
   <g id="patch_6">
    <path d="M 94.559375 7.2 
L 382.559375 7.2 
" style="fill: none; stroke: #000000; stroke-width: 2; stroke-linejoin: miter; stroke-linecap: square"/>
   </g>
   <g id="legend_1">
    <g id="patch_7">
     <path d="M 402.059375 302.7 
L 626.532031 302.7 
Q 631.532031 302.7 631.532031 297.7 
L 631.532031 116.723437 
Q 631.532031 111.723437 626.532031 111.723437 
L 402.059375 111.723437 
Q 397.059375 111.723437 397.059375 116.723437 
L 397.059375 297.7 
Q 397.059375 302.7 402.059375 302.7 
z
" style="fill: #4c4c4c; opacity: 0.5; stroke: #4c4c4c; stroke-linejoin: miter"/>
    </g>
    <g id="patch_8">
     <path d="M 400.059375 300.7 
L 624.532031 300.7 
Q 629.532031 300.7 629.532031 295.7 
L 629.532031 114.723437 
Q 629.532031 109.723437 624.532031 109.723437 
L 400.059375 109.723437 
Q 395.059375 109.723437 395.059375 114.723437 
L 395.059375 295.7 
Q 395.059375 300.7 400.059375 300.7 
z
" style="fill: #ffffff; stroke: #cccccc; stroke-linejoin: miter"/>
    </g>
    <g id="line2d_18">
     <path d="M 405.059375 129.969531 
L 430.059375 129.969531 
L 455.059375 129.969531 
" style="fill: none; stroke: #008000; stroke-width: 3; stroke-linecap: square"/>
    </g>
    <g id="text_10">
     <!-- t=127 sec -->
     <g transform="translate(475.059375 138.719531)scale(0.25 -0.25)">
      <defs>
       <path id="DejaVuSans-3d" d="M 678 2906 
L 4684 2906 
L 4684 2381 
L 678 2381 
L 678 2906 
z
M 678 1631 
L 4684 1631 
L 4684 1100 
L 678 1100 
L 678 1631 
z
" transform="scale(0.015625)"/>
       <path id="DejaVuSans-37" d="M 525 4666 
L 3525 4666 
L 3525 4397 
L 1831 0 
L 1172 0 
L 2766 4134 
L 525 4134 
L 525 4666 
z
" transform="scale(0.015625)"/>
      </defs>
      <use xlink:href="#DejaVuSans-74"/>
      <use xlink:href="#DejaVuSans-3d" x="39.208984"/>
      <use xlink:href="#DejaVuSans-31" x="122.998047"/>
      <use xlink:href="#DejaVuSans-32" x="186.621094"/>
      <use xlink:href="#DejaVuSans-37" x="250.244141"/>
      <use xlink:href="#DejaVuSans-20" x="313.867188"/>
      <use xlink:href="#DejaVuSans-73" x="345.654297"/>
      <use xlink:href="#DejaVuSans-65" x="397.753906"/>
      <use xlink:href="#DejaVuSans-63" x="459.277344"/>
     </g>
    </g>
    <g id="line2d_19">
     <path d="M 405.059375 166.664844 
L 430.059375 166.664844 
L 455.059375 166.664844 
" style="fill: none; stroke-dasharray: 11.1,4.8; stroke-dashoffset: 0; stroke: #008000; stroke-width: 3"/>
    </g>
    <g id="text_11">
     <!-- t=487 sec -->
     <g transform="translate(475.059375 175.414844)scale(0.25 -0.25)">
      <defs>
       <path id="DejaVuSans-34" d="M 2419 4116 
L 825 1625 
L 2419 1625 
L 2419 4116 
z
M 2253 4666 
L 3047 4666 
L 3047 1625 
L 3713 1625 
L 3713 1100 
L 3047 1100 
L 3047 0 
L 2419 0 
L 2419 1100 
L 313 1100 
L 313 1709 
L 2253 4666 
z
" transform="scale(0.015625)"/>
       <path id="DejaVuSans-38" d="M 2034 2216 
Q 1584 2216 1326 1975 
Q 1069 1734 1069 1313 
Q 1069 891 1326 650 
Q 1584 409 2034 409 
Q 2484 409 2743 651 
Q 3003 894 3003 1313 
Q 3003 1734 2745 1975 
Q 2488 2216 2034 2216 
z
M 1403 2484 
Q 997 2584 770 2862 
Q 544 3141 544 3541 
Q 544 4100 942 4425 
Q 1341 4750 2034 4750 
Q 2731 4750 3128 4425 
Q 3525 4100 3525 3541 
Q 3525 3141 3298 2862 
Q 3072 2584 2669 2484 
Q 3125 2378 3379 2068 
Q 3634 1759 3634 1313 
Q 3634 634 3220 271 
Q 2806 -91 2034 -91 
Q 1263 -91 848 271 
Q 434 634 434 1313 
Q 434 1759 690 2068 
Q 947 2378 1403 2484 
z
M 1172 3481 
Q 1172 3119 1398 2916 
Q 1625 2713 2034 2713 
Q 2441 2713 2670 2916 
Q 2900 3119 2900 3481 
Q 2900 3844 2670 4047 
Q 2441 4250 2034 4250 
Q 1625 4250 1398 4047 
Q 1172 3844 1172 3481 
z
" transform="scale(0.015625)"/>
      </defs>
      <use xlink:href="#DejaVuSans-74"/>
      <use xlink:href="#DejaVuSans-3d" x="39.208984"/>
      <use xlink:href="#DejaVuSans-34" x="122.998047"/>
      <use xlink:href="#DejaVuSans-38" x="186.621094"/>
      <use xlink:href="#DejaVuSans-37" x="250.244141"/>
      <use xlink:href="#DejaVuSans-20" x="313.867188"/>
      <use xlink:href="#DejaVuSans-73" x="345.654297"/>
      <use xlink:href="#DejaVuSans-65" x="397.753906"/>
      <use xlink:href="#DejaVuSans-63" x="459.277344"/>
     </g>
    </g>
    <g id="line2d_20">
     <path d="M 405.059375 203.360156 
L 430.059375 203.360156 
L 455.059375 203.360156 
" style="fill: none; stroke-dasharray: 19.2,4.8,3,4.8; stroke-dashoffset: 0; stroke: #008000; stroke-width: 3"/>
    </g>
    <g id="text_12">
     <!-- t=967 sec -->
     <g transform="translate(475.059375 212.110156)scale(0.25 -0.25)">
      <defs>
       <path id="DejaVuSans-39" d="M 703 97 
L 703 672 
Q 941 559 1184 500 
Q 1428 441 1663 441 
Q 2288 441 2617 861 
Q 2947 1281 2994 2138 
Q 2813 1869 2534 1725 
Q 2256 1581 1919 1581 
Q 1219 1581 811 2004 
Q 403 2428 403 3163 
Q 403 3881 828 4315 
Q 1253 4750 1959 4750 
Q 2769 4750 3195 4129 
Q 3622 3509 3622 2328 
Q 3622 1225 3098 567 
Q 2575 -91 1691 -91 
Q 1453 -91 1209 -44 
Q 966 3 703 97 
z
M 1959 2075 
Q 2384 2075 2632 2365 
Q 2881 2656 2881 3163 
Q 2881 3666 2632 3958 
Q 2384 4250 1959 4250 
Q 1534 4250 1286 3958 
Q 1038 3666 1038 3163 
Q 1038 2656 1286 2365 
Q 1534 2075 1959 2075 
z
" transform="scale(0.015625)"/>
       <path id="DejaVuSans-36" d="M 2113 2584 
Q 1688 2584 1439 2293 
Q 1191 2003 1191 1497 
Q 1191 994 1439 701 
Q 1688 409 2113 409 
Q 2538 409 2786 701 
Q 3034 994 3034 1497 
Q 3034 2003 2786 2293 
Q 2538 2584 2113 2584 
z
M 3366 4563 
L 3366 3988 
Q 3128 4100 2886 4159 
Q 2644 4219 2406 4219 
Q 1781 4219 1451 3797 
Q 1122 3375 1075 2522 
Q 1259 2794 1537 2939 
Q 1816 3084 2150 3084 
Q 2853 3084 3261 2657 
Q 3669 2231 3669 1497 
Q 3669 778 3244 343 
Q 2819 -91 2113 -91 
Q 1303 -91 875 529 
Q 447 1150 447 2328 
Q 447 3434 972 4092 
Q 1497 4750 2381 4750 
Q 2619 4750 2861 4703 
Q 3103 4656 3366 4563 
z
" transform="scale(0.015625)"/>
      </defs>
      <use xlink:href="#DejaVuSans-74"/>
      <use xlink:href="#DejaVuSans-3d" x="39.208984"/>
      <use xlink:href="#DejaVuSans-39" x="122.998047"/>
      <use xlink:href="#DejaVuSans-36" x="186.621094"/>
      <use xlink:href="#DejaVuSans-37" x="250.244141"/>
      <use xlink:href="#DejaVuSans-20" x="313.867188"/>
      <use xlink:href="#DejaVuSans-73" x="345.654297"/>
      <use xlink:href="#DejaVuSans-65" x="397.753906"/>
      <use xlink:href="#DejaVuSans-63" x="459.277344"/>
     </g>
    </g>
    <g id="line2d_21">
     <path d="M 405.059375 240.055469 
L 430.059375 240.055469 
L 455.059375 240.055469 
" style="fill: none; stroke-dasharray: 3,4.95; stroke-dashoffset: 0; stroke: #008000; stroke-width: 3"/>
    </g>
    <g id="text_13">
     <!-- t=1327 sec -->
     <g transform="translate(475.059375 248.805469)scale(0.25 -0.25)">
      <use xlink:href="#DejaVuSans-74"/>
      <use xlink:href="#DejaVuSans-3d" x="39.208984"/>
      <use xlink:href="#DejaVuSans-31" x="122.998047"/>
      <use xlink:href="#DejaVuSans-33" x="186.621094"/>
      <use xlink:href="#DejaVuSans-32" x="250.244141"/>
      <use xlink:href="#DejaVuSans-37" x="313.867188"/>
      <use xlink:href="#DejaVuSans-20" x="377.490234"/>
      <use xlink:href="#DejaVuSans-73" x="409.277344"/>
      <use xlink:href="#DejaVuSans-65" x="461.376953"/>
      <use xlink:href="#DejaVuSans-63" x="522.900391"/>
     </g>
    </g>
    <g id="line2d_22">
     <path d="M 405.059375 276.750781 
L 430.059375 276.750781 
L 455.059375 276.750781 
" style="fill: none; stroke-dasharray: 9,15,3,15,3,15; stroke-dashoffset: 0; stroke: #008000; stroke-width: 3"/>
    </g>
    <g id="text_14">
     <!-- t=1807 sec -->
     <g transform="translate(475.059375 285.500781)scale(0.25 -0.25)">
      <use xlink:href="#DejaVuSans-74"/>
      <use xlink:href="#DejaVuSans-3d" x="39.208984"/>
      <use xlink:href="#DejaVuSans-31" x="122.998047"/>
      <use xlink:href="#DejaVuSans-38" x="186.621094"/>
      <use xlink:href="#DejaVuSans-30" x="250.244141"/>
      <use xlink:href="#DejaVuSans-37" x="313.867188"/>
      <use xlink:href="#DejaVuSans-20" x="377.490234"/>
      <use xlink:href="#DejaVuSans-73" x="409.277344"/>
      <use xlink:href="#DejaVuSans-65" x="461.376953"/>
      <use xlink:href="#DejaVuSans-63" x="522.900391"/>
     </g>
    </g>
   </g>
   <g id="legend_2">
    <g id="patch_9">
     <path d="M 402.059375 102.590625 
L 559.907031 102.590625 
Q 564.907031 102.590625 564.907031 97.590625 
L 564.907031 26.7 
Q 564.907031 21.7 559.907031 21.7 
L 402.059375 21.7 
Q 397.059375 21.7 397.059375 26.7 
L 397.059375 97.590625 
Q 397.059375 102.590625 402.059375 102.590625 
z
" style="fill: #4c4c4c; opacity: 0.5; stroke: #4c4c4c; stroke-linejoin: miter"/>
    </g>
    <g id="patch_10">
     <path d="M 400.059375 100.590625 
L 557.907031 100.590625 
Q 562.907031 100.590625 562.907031 95.590625 
L 562.907031 24.7 
Q 562.907031 19.7 557.907031 19.7 
L 400.059375 19.7 
Q 395.059375 19.7 395.059375 24.7 
L 395.059375 95.590625 
Q 395.059375 100.590625 400.059375 100.590625 
z
" style="fill: #ffffff; stroke: #cccccc; stroke-linejoin: miter"/>
    </g>
    <g id="line2d_23">
     <path d="M 405.059375 39.946094 
L 430.059375 39.946094 
L 455.059375 39.946094 
" style="fill: none; stroke: #000000; stroke-width: 3; stroke-linecap: square"/>
    </g>
    <g id="text_15">
     <!-- model -->
     <g transform="translate(475.059375 48.696094)scale(0.25 -0.25)">
      <defs>
       <path id="DejaVuSans-64" d="M 2906 2969 
L 2906 4863 
L 3481 4863 
L 3481 0 
L 2906 0 
L 2906 525 
Q 2725 213 2448 61 
Q 2172 -91 1784 -91 
Q 1150 -91 751 415 
Q 353 922 353 1747 
Q 353 2572 751 3078 
Q 1150 3584 1784 3584 
Q 2172 3584 2448 3432 
Q 2725 3281 2906 2969 
z
M 947 1747 
Q 947 1113 1208 752 
Q 1469 391 1925 391 
Q 2381 391 2643 752 
Q 2906 1113 2906 1747 
Q 2906 2381 2643 2742 
Q 2381 3103 1925 3103 
Q 1469 3103 1208 2742 
Q 947 2381 947 1747 
z
" transform="scale(0.015625)"/>
       <path id="DejaVuSans-6c" d="M 603 4863 
L 1178 4863 
L 1178 0 
L 603 0 
L 603 4863 
z
" transform="scale(0.015625)"/>
      </defs>
      <use xlink:href="#DejaVuSans-6d"/>
      <use xlink:href="#DejaVuSans-6f" x="97.412109"/>
      <use xlink:href="#DejaVuSans-64" x="158.59375"/>
      <use xlink:href="#DejaVuSans-65" x="222.070312"/>
      <use xlink:href="#DejaVuSans-6c" x="283.59375"/>
     </g>
    </g>
    <g id="line2d_24">
     <path d="M 405.059375 76.641406 
L 430.059375 76.641406 
L 455.059375 76.641406 
" style="fill: none; stroke: #008000; stroke-width: 3; stroke-linecap: square"/>
    </g>
    <g id="text_16">
     <!-- data -->
     <g transform="translate(475.059375 85.391406)scale(0.25 -0.25)">
      <use xlink:href="#DejaVuSans-64"/>
      <use xlink:href="#DejaVuSans-61" x="63.476562"/>
      <use xlink:href="#DejaVuSans-74" x="124.755859"/>
      <use xlink:href="#DejaVuSans-61" x="163.964844"/>
     </g>
    </g>
   </g>
  </g>
 </g>
 <defs>
  <clipPath id="p25e61a43af">
   <rect x="94.559375" y="7.2" width="288" height="360"/>
  </clipPath>
 </defs>
</svg>
