<?xml version="1.0" encoding="utf-8" standalone="no"?>
<!DOCTYPE svg PUBLIC "-//W3C//DTD SVG 1.1//EN"
  "http://www.w3.org/Graphics/SVG/1.1/DTD/svg11.dtd">
<svg xmlns:xlink="http://www.w3.org/1999/xlink" width="636.732031pt" height="430.290625pt" viewBox="0 0 636.732031 430.290625" xmlns="http://www.w3.org/2000/svg" version="1.1">
 <metadata>
  <rdf:RDF xmlns:dc="http://purl.org/dc/elements/1.1/" xmlns:cc="http://creativecommons.org/ns#" xmlns:rdf="http://www.w3.org/1999/02/22-rdf-syntax-ns#">
   <cc:Work>
    <dc:type rdf:resource="http://purl.org/dc/dcmitype/StillImage"/>
    <dc:date>2024-06-03T09:52:32.376897</dc:date>
    <dc:format>image/svg+xml</dc:format>
    <dc:creator>
     <cc:Agent>
      <dc:title>Matplotlib v3.5.2, https://matplotlib.org/</dc:title>
     </cc:Agent>
    </dc:creator>
   </cc:Work>
  </rdf:RDF>
 </metadata>
 <defs>
  <style type="text/css">*{stroke-linejoin: round; stroke-linecap: butt}</style>
 </defs>
 <g id="figure_1">
  <g id="patch_1">
   <path d="M 0 430.290625 
L 636.732031 430.290625 
L 636.732031 0 
L 0 0 
z
" style="fill: #ffffff"/>
  </g>
  <g id="axes_1">
   <g id="patch_2">
    <path d="M 94.559375 367.2 
L 382.559375 367.2 
L 382.559375 7.2 
L 94.559375 7.2 
z
" style="fill: #ffffff"/>
   </g>
   <g id="matplotlib.axis_1">
    <g id="xtick_1">
     <g id="line2d_1">
      <defs>
       <path id="mc7fb54b6dd" d="M 0 0 
L 0 -4 
" style="stroke: #000000; stroke-width: 3"/>
      </defs>
      <g>
       <use xlink:href="#mc7fb54b6dd" x="106.32797" y="367.2" style="stroke: #000000; stroke-width: 3"/>
      </g>
     </g>
     <g id="text_1">
      <!-- 0 -->
      <g transform="translate(98.374845 389.696094)scale(0.25 -0.25)">
       <defs>
        <path id="DejaVuSans-30" d="M 2034 4250 
Q 1547 4250 1301 3770 
Q 1056 3291 1056 2328 
Q 1056 1369 1301 889 
Q 1547 409 2034 409 
Q 2525 409 2770 889 
Q 3016 1369 3016 2328 
Q 3016 3291 2770 3770 
Q 2525 4250 2034 4250 
z
M 2034 4750 
Q 2819 4750 3233 4129 
Q 3647 3509 3647 2328 
Q 3647 1150 3233 529 
Q 2819 -91 2034 -91 
Q 1250 -91 836 529 
Q 422 1150 422 2328 
Q 422 3509 836 4129 
Q 1250 4750 2034 4750 
z
" transform="scale(0.015625)"/>
       </defs>
       <use xlink:href="#DejaVuSans-30"/>
      </g>
     </g>
    </g>
    <g id="xtick_2">
     <g id="line2d_2">
      <g>
       <use xlink:href="#mc7fb54b6dd" x="213.172997" y="367.2" style="stroke: #000000; stroke-width: 3"/>
      </g>
     </g>
     <g id="text_2">
      <!-- 25 -->
      <g transform="translate(197.266747 389.696094)scale(0.25 -0.25)">
       <defs>
        <path id="DejaVuSans-32" d="M 1228 531 
L 3431 531 
L 3431 0 
L 469 0 
L 469 531 
Q 828 903 1448 1529 
Q 2069 2156 2228 2338 
Q 2531 2678 2651 2914 
Q 2772 3150 2772 3378 
Q 2772 3750 2511 3984 
Q 2250 4219 1831 4219 
Q 1534 4219 1204 4116 
Q 875 4013 500 3803 
L 500 4441 
Q 881 4594 1212 4672 
Q 1544 4750 1819 4750 
Q 2544 4750 2975 4387 
Q 3406 4025 3406 3419 
Q 3406 3131 3298 2873 
Q 3191 2616 2906 2266 
Q 2828 2175 2409 1742 
Q 1991 1309 1228 531 
z
" transform="scale(0.015625)"/>
        <path id="DejaVuSans-35" d="M 691 4666 
L 3169 4666 
L 3169 4134 
L 1269 4134 
L 1269 2991 
Q 1406 3038 1543 3061 
Q 1681 3084 1819 3084 
Q 2600 3084 3056 2656 
Q 3513 2228 3513 1497 
Q 3513 744 3044 326 
Q 2575 -91 1722 -91 
Q 1428 -91 1123 -41 
Q 819 9 494 109 
L 494 744 
Q 775 591 1075 516 
Q 1375 441 1709 441 
Q 2250 441 2565 725 
Q 2881 1009 2881 1497 
Q 2881 1984 2565 2268 
Q 2250 2553 1709 2553 
Q 1456 2553 1204 2497 
Q 953 2441 691 2322 
L 691 4666 
z
" transform="scale(0.015625)"/>
       </defs>
       <use xlink:href="#DejaVuSans-32"/>
       <use xlink:href="#DejaVuSans-35" x="63.623047"/>
      </g>
     </g>
    </g>
    <g id="xtick_3">
     <g id="line2d_3">
      <g>
       <use xlink:href="#mc7fb54b6dd" x="320.018023" y="367.2" style="stroke: #000000; stroke-width: 3"/>
      </g>
     </g>
     <g id="text_3">
      <!-- 50 -->
      <g transform="translate(304.111773 389.696094)scale(0.25 -0.25)">
       <use xlink:href="#DejaVuSans-35"/>
       <use xlink:href="#DejaVuSans-30" x="63.623047"/>
      </g>
     </g>
    </g>
    <g id="text_4">
     <!-- z-position [μm] -->
     <g transform="translate(144.121875 417.891406)scale(0.25 -0.25)">
      <defs>
       <path id="DejaVuSans-7a" d="M 353 3500 
L 3084 3500 
L 3084 2975 
L 922 459 
L 3084 459 
L 3084 0 
L 275 0 
L 275 525 
L 2438 3041 
L 353 3041 
L 353 3500 
z
" transform="scale(0.015625)"/>
       <path id="DejaVuSans-2d" d="M 313 2009 
L 1997 2009 
L 1997 1497 
L 313 1497 
L 313 2009 
z
" transform="scale(0.015625)"/>
       <path id="DejaVuSans-70" d="M 1159 525 
L 1159 -1331 
L 581 -1331 
L 581 3500 
L 1159 3500 
L 1159 2969 
Q 1341 3281 1617 3432 
Q 1894 3584 2278 3584 
Q 2916 3584 3314 3078 
Q 3713 2572 3713 1747 
Q 3713 922 3314 415 
Q 2916 -91 2278 -91 
Q 1894 -91 1617 61 
Q 1341 213 1159 525 
z
M 3116 1747 
Q 3116 2381 2855 2742 
Q 2594 3103 2138 3103 
Q 1681 3103 1420 2742 
Q 1159 2381 1159 1747 
Q 1159 1113 1420 752 
Q 1681 391 2138 391 
Q 2594 391 2855 752 
Q 3116 1113 3116 1747 
z
" transform="scale(0.015625)"/>
       <path id="DejaVuSans-6f" d="M 1959 3097 
Q 1497 3097 1228 2736 
Q 959 2375 959 1747 
Q 959 1119 1226 758 
Q 1494 397 1959 397 
Q 2419 397 2687 759 
Q 2956 1122 2956 1747 
Q 2956 2369 2687 2733 
Q 2419 3097 1959 3097 
z
M 1959 3584 
Q 2709 3584 3137 3096 
Q 3566 2609 3566 1747 
Q 3566 888 3137 398 
Q 2709 -91 1959 -91 
Q 1206 -91 779 398 
Q 353 888 353 1747 
Q 353 2609 779 3096 
Q 1206 3584 1959 3584 
z
" transform="scale(0.015625)"/>
       <path id="DejaVuSans-73" d="M 2834 3397 
L 2834 2853 
Q 2591 2978 2328 3040 
Q 2066 3103 1784 3103 
Q 1356 3103 1142 2972 
Q 928 2841 928 2578 
Q 928 2378 1081 2264 
Q 1234 2150 1697 2047 
L 1894 2003 
Q 2506 1872 2764 1633 
Q 3022 1394 3022 966 
Q 3022 478 2636 193 
Q 2250 -91 1575 -91 
Q 1294 -91 989 -36 
Q 684 19 347 128 
L 347 722 
Q 666 556 975 473 
Q 1284 391 1588 391 
Q 1994 391 2212 530 
Q 2431 669 2431 922 
Q 2431 1156 2273 1281 
Q 2116 1406 1581 1522 
L 1381 1569 
Q 847 1681 609 1914 
Q 372 2147 372 2553 
Q 372 3047 722 3315 
Q 1072 3584 1716 3584 
Q 2034 3584 2315 3537 
Q 2597 3491 2834 3397 
z
" transform="scale(0.015625)"/>
       <path id="DejaVuSans-69" d="M 603 3500 
L 1178 3500 
L 1178 0 
L 603 0 
L 603 3500 
z
M 603 4863 
L 1178 4863 
L 1178 4134 
L 603 4134 
L 603 4863 
z
" transform="scale(0.015625)"/>
       <path id="DejaVuSans-74" d="M 1172 4494 
L 1172 3500 
L 2356 3500 
L 2356 3053 
L 1172 3053 
L 1172 1153 
Q 1172 725 1289 603 
Q 1406 481 1766 481 
L 2356 481 
L 2356 0 
L 1766 0 
Q 1100 0 847 248 
Q 594 497 594 1153 
L 594 3053 
L 172 3053 
L 172 3500 
L 594 3500 
L 594 4494 
L 1172 4494 
z
" transform="scale(0.015625)"/>
       <path id="DejaVuSans-6e" d="M 3513 2113 
L 3513 0 
L 2938 0 
L 2938 2094 
Q 2938 2591 2744 2837 
Q 2550 3084 2163 3084 
Q 1697 3084 1428 2787 
Q 1159 2491 1159 1978 
L 1159 0 
L 581 0 
L 581 3500 
L 1159 3500 
L 1159 2956 
Q 1366 3272 1645 3428 
Q 1925 3584 2291 3584 
Q 2894 3584 3203 3211 
Q 3513 2838 3513 2113 
z
" transform="scale(0.015625)"/>
       <path id="DejaVuSans-20" transform="scale(0.015625)"/>
       <path id="DejaVuSans-5b" d="M 550 4863 
L 1875 4863 
L 1875 4416 
L 1125 4416 
L 1125 -397 
L 1875 -397 
L 1875 -844 
L 550 -844 
L 550 4863 
z
" transform="scale(0.015625)"/>
       <path id="DejaVuSans-3bc" d="M 544 -1331 
L 544 3500 
L 1119 3500 
L 1119 1325 
Q 1119 872 1334 640 
Q 1550 409 1972 409 
Q 2434 409 2667 671 
Q 2900 934 2900 1459 
L 2900 3500 
L 3475 3500 
L 3475 806 
Q 3475 619 3529 530 
Q 3584 441 3700 441 
Q 3728 441 3778 458 
Q 3828 475 3916 513 
L 3916 50 
Q 3788 -22 3673 -56 
Q 3559 -91 3450 -91 
Q 3234 -91 3106 31 
Q 2978 153 2931 403 
Q 2775 156 2548 32 
Q 2322 -91 2016 -91 
Q 1697 -91 1473 31 
Q 1250 153 1119 397 
L 1119 -1331 
L 544 -1331 
z
" transform="scale(0.015625)"/>
       <path id="DejaVuSans-6d" d="M 3328 2828 
Q 3544 3216 3844 3400 
Q 4144 3584 4550 3584 
Q 5097 3584 5394 3201 
Q 5691 2819 5691 2113 
L 5691 0 
L 5113 0 
L 5113 2094 
Q 5113 2597 4934 2840 
Q 4756 3084 4391 3084 
Q 3944 3084 3684 2787 
Q 3425 2491 3425 1978 
L 3425 0 
L 2847 0 
L 2847 2094 
Q 2847 2600 2669 2842 
Q 2491 3084 2119 3084 
Q 1678 3084 1418 2786 
Q 1159 2488 1159 1978 
L 1159 0 
L 581 0 
L 581 3500 
L 1159 3500 
L 1159 2956 
Q 1356 3278 1631 3431 
Q 1906 3584 2284 3584 
Q 2666 3584 2933 3390 
Q 3200 3197 3328 2828 
z
" transform="scale(0.015625)"/>
       <path id="DejaVuSans-5d" d="M 1947 4863 
L 1947 -844 
L 622 -844 
L 622 -397 
L 1369 -397 
L 1369 4416 
L 622 4416 
L 622 4863 
L 1947 4863 
z
" transform="scale(0.015625)"/>
      </defs>
      <use xlink:href="#DejaVuSans-7a"/>
      <use xlink:href="#DejaVuSans-2d" x="52.490234"/>
      <use xlink:href="#DejaVuSans-70" x="88.574219"/>
      <use xlink:href="#DejaVuSans-6f" x="152.050781"/>
      <use xlink:href="#DejaVuSans-73" x="213.232422"/>
      <use xlink:href="#DejaVuSans-69" x="265.332031"/>
      <use xlink:href="#DejaVuSans-74" x="293.115234"/>
      <use xlink:href="#DejaVuSans-69" x="332.324219"/>
      <use xlink:href="#DejaVuSans-6f" x="360.107422"/>
      <use xlink:href="#DejaVuSans-6e" x="421.289062"/>
      <use xlink:href="#DejaVuSans-20" x="484.667969"/>
      <use xlink:href="#DejaVuSans-5b" x="516.455078"/>
      <use xlink:href="#DejaVuSans-3bc" x="555.46875"/>
      <use xlink:href="#DejaVuSans-6d" x="619.091797"/>
      <use xlink:href="#DejaVuSans-5d" x="716.503906"/>
     </g>
    </g>
   </g>
   <g id="matplotlib.axis_2">
    <g id="ytick_1">
     <g id="line2d_4">
      <defs>
       <path id="m3e6839c7d9" d="M 0 0 
L 4 0 
" style="stroke: #000000; stroke-width: 3"/>
      </defs>
      <g>
       <use xlink:href="#m3e6839c7d9" x="94.559375" y="355.355221" style="stroke: #000000; stroke-width: 3"/>
      </g>
     </g>
     <g id="text_5">
      <!-- 0.00 -->
      <g transform="translate(35.395313 364.853268)scale(0.25 -0.25)">
       <defs>
        <path id="DejaVuSans-2e" d="M 684 794 
L 1344 794 
L 1344 0 
L 684 0 
L 684 794 
z
" transform="scale(0.015625)"/>
       </defs>
       <use xlink:href="#DejaVuSans-30"/>
       <use xlink:href="#DejaVuSans-2e" x="63.623047"/>
       <use xlink:href="#DejaVuSans-30" x="95.410156"/>
       <use xlink:href="#DejaVuSans-30" x="159.033203"/>
      </g>
     </g>
    </g>
    <g id="ytick_2">
     <g id="line2d_5">
      <g>
       <use xlink:href="#m3e6839c7d9" x="94.559375" y="272.156015" style="stroke: #000000; stroke-width: 3"/>
      </g>
     </g>
     <g id="text_6">
      <!-- 0.02 -->
      <g transform="translate(35.395313 281.654062)scale(0.25 -0.25)">
       <use xlink:href="#DejaVuSans-30"/>
       <use xlink:href="#DejaVuSans-2e" x="63.623047"/>
       <use xlink:href="#DejaVuSans-30" x="95.410156"/>
       <use xlink:href="#DejaVuSans-32" x="159.033203"/>
      </g>
     </g>
    </g>
    <g id="ytick_3">
     <g id="line2d_6">
      <g>
       <use xlink:href="#m3e6839c7d9" x="94.559375" y="188.95681" style="stroke: #000000; stroke-width: 3"/>
      </g>
     </g>
     <g id="text_7">
      <!-- 0.04 -->
      <g transform="translate(35.395313 198.454857)scale(0.25 -0.25)">
       <defs>
        <path id="DejaVuSans-34" d="M 2419 4116 
L 825 1625 
L 2419 1625 
L 2419 4116 
z
M 2253 4666 
L 3047 4666 
L 3047 1625 
L 3713 1625 
L 3713 1100 
L 3047 1100 
L 3047 0 
L 2419 0 
L 2419 1100 
L 313 1100 
L 313 1709 
L 2253 4666 
z
" transform="scale(0.015625)"/>
       </defs>
       <use xlink:href="#DejaVuSans-30"/>
       <use xlink:href="#DejaVuSans-2e" x="63.623047"/>
       <use xlink:href="#DejaVuSans-30" x="95.410156"/>
       <use xlink:href="#DejaVuSans-34" x="159.033203"/>
      </g>
     </g>
    </g>
    <g id="ytick_4">
     <g id="line2d_7">
      <g>
       <use xlink:href="#m3e6839c7d9" x="94.559375" y="105.757605" style="stroke: #000000; stroke-width: 3"/>
      </g>
     </g>
     <g id="text_8">
      <!-- 0.06 -->
      <g transform="translate(35.395313 115.255651)scale(0.25 -0.25)">
       <defs>
        <path id="DejaVuSans-36" d="M 2113 2584 
Q 1688 2584 1439 2293 
Q 1191 2003 1191 1497 
Q 1191 994 1439 701 
Q 1688 409 2113 409 
Q 2538 409 2786 701 
Q 3034 994 3034 1497 
Q 3034 2003 2786 2293 
Q 2538 2584 2113 2584 
z
M 3366 4563 
L 3366 3988 
Q 3128 4100 2886 4159 
Q 2644 4219 2406 4219 
Q 1781 4219 1451 3797 
Q 1122 3375 1075 2522 
Q 1259 2794 1537 2939 
Q 1816 3084 2150 3084 
Q 2853 3084 3261 2657 
Q 3669 2231 3669 1497 
Q 3669 778 3244 343 
Q 2819 -91 2113 -91 
Q 1303 -91 875 529 
Q 447 1150 447 2328 
Q 447 3434 972 4092 
Q 1497 4750 2381 4750 
Q 2619 4750 2861 4703 
Q 3103 4656 3366 4563 
z
" transform="scale(0.015625)"/>
       </defs>
       <use xlink:href="#DejaVuSans-30"/>
       <use xlink:href="#DejaVuSans-2e" x="63.623047"/>
       <use xlink:href="#DejaVuSans-30" x="95.410156"/>
       <use xlink:href="#DejaVuSans-36" x="159.033203"/>
      </g>
     </g>
    </g>
    <g id="ytick_5">
     <g id="line2d_8">
      <g>
       <use xlink:href="#m3e6839c7d9" x="94.559375" y="22.558399" style="stroke: #000000; stroke-width: 3"/>
      </g>
     </g>
     <g id="text_9">
      <!-- 0.08 -->
      <g transform="translate(35.395313 32.056446)scale(0.25 -0.25)">
       <defs>
        <path id="DejaVuSans-38" d="M 2034 2216 
Q 1584 2216 1326 1975 
Q 1069 1734 1069 1313 
Q 1069 891 1326 650 
Q 1584 409 2034 409 
Q 2484 409 2743 651 
Q 3003 894 3003 1313 
Q 3003 1734 2745 1975 
Q 2488 2216 2034 2216 
z
M 1403 2484 
Q 997 2584 770 2862 
Q 544 3141 544 3541 
Q 544 4100 942 4425 
Q 1341 4750 2034 4750 
Q 2731 4750 3128 4425 
Q 3525 4100 3525 3541 
Q 3525 3141 3298 2862 
Q 3072 2584 2669 2484 
Q 3125 2378 3379 2068 
Q 3634 1759 3634 1313 
Q 3634 634 3220 271 
Q 2806 -91 2034 -91 
Q 1263 -91 848 271 
Q 434 634 434 1313 
Q 434 1759 690 2068 
Q 947 2378 1403 2484 
z
M 1172 3481 
Q 1172 3119 1398 2916 
Q 1625 2713 2034 2713 
Q 2441 2713 2670 2916 
Q 2900 3119 2900 3481 
Q 2900 3844 2670 4047 
Q 2441 4250 2034 4250 
Q 1625 4250 1398 4047 
Q 1172 3844 1172 3481 
z
" transform="scale(0.015625)"/>
       </defs>
       <use xlink:href="#DejaVuSans-30"/>
       <use xlink:href="#DejaVuSans-2e" x="63.623047"/>
       <use xlink:href="#DejaVuSans-30" x="95.410156"/>
       <use xlink:href="#DejaVuSans-38" x="159.033203"/>
      </g>
     </g>
    </g>
    <g id="text_10">
     <!-- Concentration [mM] -->
     <g transform="translate(26.196094 312.315234)rotate(-90)scale(0.25 -0.25)">
      <defs>
       <path id="DejaVuSans-43" d="M 4122 4306 
L 4122 3641 
Q 3803 3938 3442 4084 
Q 3081 4231 2675 4231 
Q 1875 4231 1450 3742 
Q 1025 3253 1025 2328 
Q 1025 1406 1450 917 
Q 1875 428 2675 428 
Q 3081 428 3442 575 
Q 3803 722 4122 1019 
L 4122 359 
Q 3791 134 3420 21 
Q 3050 -91 2638 -91 
Q 1578 -91 968 557 
Q 359 1206 359 2328 
Q 359 3453 968 4101 
Q 1578 4750 2638 4750 
Q 3056 4750 3426 4639 
Q 3797 4528 4122 4306 
z
" transform="scale(0.015625)"/>
       <path id="DejaVuSans-63" d="M 3122 3366 
L 3122 2828 
Q 2878 2963 2633 3030 
Q 2388 3097 2138 3097 
Q 1578 3097 1268 2742 
Q 959 2388 959 1747 
Q 959 1106 1268 751 
Q 1578 397 2138 397 
Q 2388 397 2633 464 
Q 2878 531 3122 666 
L 3122 134 
Q 2881 22 2623 -34 
Q 2366 -91 2075 -91 
Q 1284 -91 818 406 
Q 353 903 353 1747 
Q 353 2603 823 3093 
Q 1294 3584 2113 3584 
Q 2378 3584 2631 3529 
Q 2884 3475 3122 3366 
z
" transform="scale(0.015625)"/>
       <path id="DejaVuSans-65" d="M 3597 1894 
L 3597 1613 
L 953 1613 
Q 991 1019 1311 708 
Q 1631 397 2203 397 
Q 2534 397 2845 478 
Q 3156 559 3463 722 
L 3463 178 
Q 3153 47 2828 -22 
Q 2503 -91 2169 -91 
Q 1331 -91 842 396 
Q 353 884 353 1716 
Q 353 2575 817 3079 
Q 1281 3584 2069 3584 
Q 2775 3584 3186 3129 
Q 3597 2675 3597 1894 
z
M 3022 2063 
Q 3016 2534 2758 2815 
Q 2500 3097 2075 3097 
Q 1594 3097 1305 2825 
Q 1016 2553 972 2059 
L 3022 2063 
z
" transform="scale(0.015625)"/>
       <path id="DejaVuSans-72" d="M 2631 2963 
Q 2534 3019 2420 3045 
Q 2306 3072 2169 3072 
Q 1681 3072 1420 2755 
Q 1159 2438 1159 1844 
L 1159 0 
L 581 0 
L 581 3500 
L 1159 3500 
L 1159 2956 
Q 1341 3275 1631 3429 
Q 1922 3584 2338 3584 
Q 2397 3584 2469 3576 
Q 2541 3569 2628 3553 
L 2631 2963 
z
" transform="scale(0.015625)"/>
       <path id="DejaVuSans-61" d="M 2194 1759 
Q 1497 1759 1228 1600 
Q 959 1441 959 1056 
Q 959 750 1161 570 
Q 1363 391 1709 391 
Q 2188 391 2477 730 
Q 2766 1069 2766 1631 
L 2766 1759 
L 2194 1759 
z
M 3341 1997 
L 3341 0 
L 2766 0 
L 2766 531 
Q 2569 213 2275 61 
Q 1981 -91 1556 -91 
Q 1019 -91 701 211 
Q 384 513 384 1019 
Q 384 1609 779 1909 
Q 1175 2209 1959 2209 
L 2766 2209 
L 2766 2266 
Q 2766 2663 2505 2880 
Q 2244 3097 1772 3097 
Q 1472 3097 1187 3025 
Q 903 2953 641 2809 
L 641 3341 
Q 956 3463 1253 3523 
Q 1550 3584 1831 3584 
Q 2591 3584 2966 3190 
Q 3341 2797 3341 1997 
z
" transform="scale(0.015625)"/>
       <path id="DejaVuSans-4d" d="M 628 4666 
L 1569 4666 
L 2759 1491 
L 3956 4666 
L 4897 4666 
L 4897 0 
L 4281 0 
L 4281 4097 
L 3078 897 
L 2444 897 
L 1241 4097 
L 1241 0 
L 628 0 
L 628 4666 
z
" transform="scale(0.015625)"/>
      </defs>
      <use xlink:href="#DejaVuSans-43"/>
      <use xlink:href="#DejaVuSans-6f" x="69.824219"/>
      <use xlink:href="#DejaVuSans-6e" x="131.005859"/>
      <use xlink:href="#DejaVuSans-63" x="194.384766"/>
      <use xlink:href="#DejaVuSans-65" x="249.365234"/>
      <use xlink:href="#DejaVuSans-6e" x="310.888672"/>
      <use xlink:href="#DejaVuSans-74" x="374.267578"/>
      <use xlink:href="#DejaVuSans-72" x="413.476562"/>
      <use xlink:href="#DejaVuSans-61" x="454.589844"/>
      <use xlink:href="#DejaVuSans-74" x="515.869141"/>
      <use xlink:href="#DejaVuSans-69" x="555.078125"/>
      <use xlink:href="#DejaVuSans-6f" x="582.861328"/>
      <use xlink:href="#DejaVuSans-6e" x="644.042969"/>
      <use xlink:href="#DejaVuSans-20" x="707.421875"/>
      <use xlink:href="#DejaVuSans-5b" x="739.208984"/>
      <use xlink:href="#DejaVuSans-6d" x="778.222656"/>
      <use xlink:href="#DejaVuSans-4d" x="875.634766"/>
      <use xlink:href="#DejaVuSans-5d" x="961.914062"/>
     </g>
    </g>
   </g>
   <g id="line2d_9">
    <path d="M 107.650284 345.28544 
L 110.294912 345.501658 
L 112.93954 345.702686 
L 115.584168 345.889777 
L 118.228796 346.064095 
L 120.873425 346.226719 
L 123.518053 346.378648 
L 126.162681 346.520803 
L 128.807309 346.654031 
L 131.451937 346.77911 
L 134.096565 346.896753 
L 136.741193 347.007608 
L 139.385821 347.112265 
L 142.030449 347.21126 
L 144.675077 347.305076 
L 147.319706 347.394146 
L 149.964334 347.478861 
L 152.608962 347.559566 
L 155.25359 347.63657 
L 157.898218 347.710145 
L 160.542846 347.780527 
L 163.187474 347.847925 
L 165.832102 347.912519 
L 168.47673 347.974463 
L 171.121358 348.033887 
L 173.765987 348.090901 
L 176.410615 348.145598 
L 179.055243 348.198052 
L 181.699871 348.248322 
L 184.344499 348.296457 
L 186.989127 348.34249 
L 189.633755 348.38645 
L 192.278383 348.428353 
L 194.923011 348.468212 
L 197.567639 348.50603 
L 200.212268 348.54181 
L 202.856896 348.57555 
L 205.501524 348.607247 
L 208.146152 348.636894 
L 210.79078 348.664487 
L 213.435408 348.690021 
L 216.080036 348.713493 
L 218.724664 348.734901 
L 221.369292 348.754248 
L 224.01392 348.771538 
L 226.658549 348.786779 
L 229.303177 348.799986 
L 231.947805 348.811176 
L 234.592433 348.820373 
L 237.237061 348.827606 
L 239.881689 348.832909 
L 242.526317 348.836703 
L 245.170945 348.839023 
L 247.815573 348.839912 
L 250.460201 348.839415 
L 253.10483 348.837584 
L 255.749458 348.834471 
L 258.394086 348.830138 
L 261.038714 348.824647 
L 263.683342 348.818066 
L 266.32797 348.810468 
L 268.972598 348.801929 
L 271.617226 348.792528 
L 274.261854 348.782349 
L 276.906482 348.771479 
L 279.551111 348.760007 
L 282.195739 348.748026 
L 284.840367 348.735629 
L 287.484995 348.72291 
L 290.129623 348.709967 
L 292.774251 348.696894 
L 295.418879 348.683785 
L 298.063507 348.670734 
L 300.708135 348.657831 
L 303.352763 348.645163 
L 305.997392 348.632809 
L 308.64202 348.620846 
L 311.286648 348.609341 
L 313.931276 348.598353 
L 316.575904 348.587929 
L 319.220532 348.578107 
L 321.86516 348.568908 
L 324.509788 348.56034 
L 327.154416 348.552391 
L 329.799044 348.545033 
L 332.443673 348.538214 
L 335.088301 348.53186 
L 337.732929 348.52587 
L 340.377557 348.520116 
L 343.022185 348.514439 
L 345.666813 348.508649 
L 348.311441 348.502519 
L 350.956069 348.495785 
L 353.600697 348.488143 
L 356.245325 348.479244 
L 358.889954 348.468698 
L 361.534582 348.456062 
L 364.17921 348.440845 
L 366.823838 348.422501 
L 369.468466 348.400429 
" clip-path="url(#p92c54d65f3)" style="fill: none; stroke: #000000; stroke-width: 3; stroke-linecap: square"/>
   </g>
   <g id="line2d_10">
    <path d="M 107.650284 344.840005 
L 110.294912 344.896201 
L 112.93954 344.411669 
L 115.584168 343.815257 
L 118.228796 344.399952 
L 120.873425 345.39363 
L 123.518053 346.797874 
L 126.162681 348.016433 
L 128.807309 347.81195 
L 131.451937 347.302982 
L 134.096565 346.946479 
L 136.741193 345.771225 
L 139.385821 345.239211 
L 142.030449 345.288306 
L 144.675077 345.46633 
L 147.319706 345.834612 
L 149.964334 346.699704 
L 152.608962 347.68366 
L 155.25359 348.123482 
L 157.898218 348.260694 
L 160.542846 348.51439 
L 163.187474 348.483807 
L 165.832102 348.379218 
L 168.47673 348.643933 
L 171.121358 349.321116 
L 173.765987 349.666059 
L 176.410615 349.204192 
L 179.055243 348.534267 
L 181.699871 348.45837 
L 184.344499 348.530265 
L 186.989127 348.630226 
L 189.633755 349.08486 
L 192.278383 349.066782 
L 194.923011 349.317279 
L 197.567639 349.483966 
L 200.212268 349.330859 
L 202.856896 348.157645 
L 205.501524 347.992496 
L 208.146152 348.671288 
L 210.79078 349.351152 
L 213.435408 349.829913 
L 216.080036 350.028006 
L 218.724664 350.102709 
L 221.369292 349.502381 
L 224.01392 348.443364 
L 226.658549 347.799648 
L 229.303177 348.203939 
L 231.947805 348.810546 
L 234.592433 349.605376 
L 237.237061 349.902076 
L 239.881689 349.996645 
L 242.526317 350.284383 
L 245.170945 350.56117 
L 247.815573 350.662957 
L 250.460201 349.87683 
L 253.10483 349.03077 
L 255.749458 348.400522 
L 258.394086 348.308835 
L 261.038714 348.263485 
L 263.683342 348.4188 
L 266.32797 348.691876 
L 268.972598 348.249211 
L 271.617226 347.730485 
L 274.261854 348.073587 
L 276.906482 348.745883 
L 279.551111 349.521293 
L 282.195739 349.929727 
L 284.840367 350.419499 
L 287.484995 350.671303 
L 290.129623 350.616332 
L 292.774251 350.836364 
L 295.418879 350.801363 
L 298.063507 350.356377 
L 300.708135 349.647883 
L 303.352763 349.189643 
L 305.997392 349.493485 
L 308.64202 349.557116 
L 311.286648 349.417432 
L 313.931276 348.779012 
L 316.575904 348.245624 
L 319.220532 348.418436 
L 321.86516 348.811129 
L 324.509788 348.498121 
L 327.154416 348.152109 
L 329.799044 348.092693 
L 332.443673 348.047264 
L 335.088301 348.090861 
L 337.732929 347.707624 
L 340.377557 347.768769 
L 343.022185 347.595552 
L 345.666813 347.286932 
L 348.311441 346.861692 
L 350.956069 346.998653 
L 353.600697 347.264087 
L 356.245325 346.832513 
L 358.889954 346.005424 
L 361.534582 345.023719 
L 364.17921 344.29169 
L 366.823838 344.866686 
L 369.468466 345.27068 
" clip-path="url(#p92c54d65f3)" style="fill: none; stroke: #008000; stroke-width: 3; stroke-linecap: square"/>
   </g>
   <g id="line2d_11">
    <path d="M 107.650284 297.007827 
L 110.294912 299.179068 
L 112.93954 301.268826 
L 115.584168 303.279495 
L 118.228796 305.213416 
L 120.873425 307.072878 
L 123.518053 308.860113 
L 126.162681 310.577301 
L 128.807309 312.22657 
L 131.451937 313.809992 
L 134.096565 315.329586 
L 136.741193 316.787317 
L 139.385821 318.185097 
L 142.030449 319.524785 
L 144.675077 320.808185 
L 147.319706 322.037049 
L 149.964334 323.213076 
L 152.608962 324.337912 
L 155.25359 325.413149 
L 157.898218 326.44033 
L 160.542846 327.420943 
L 163.187474 328.356425 
L 165.832102 329.248161 
L 168.47673 330.097486 
L 171.121358 330.905681 
L 173.765987 331.67398 
L 176.410615 332.403564 
L 179.055243 333.095564 
L 181.699871 333.751061 
L 184.344499 334.371087 
L 186.989127 334.956624 
L 189.633755 335.508605 
L 192.278383 336.027914 
L 194.923011 336.515386 
L 197.567639 336.971809 
L 200.212268 337.39792 
L 202.856896 337.794411 
L 205.501524 338.161924 
L 208.146152 338.501055 
L 210.79078 338.812351 
L 213.435408 339.096313 
L 216.080036 339.353395 
L 218.724664 339.584002 
L 221.369292 339.788494 
L 224.01392 339.967184 
L 226.658549 340.120338 
L 229.303177 340.248175 
L 231.947805 340.350868 
L 234.592433 340.428542 
L 237.237061 340.481277 
L 239.881689 340.509105 
L 242.526317 340.516996 
L 245.170945 340.504907 
L 247.815573 340.472768 
L 250.460201 340.420477 
L 253.10483 340.347903 
L 255.749458 340.254885 
L 258.394086 340.14123 
L 261.038714 340.006716 
L 263.683342 339.851091 
L 266.32797 339.67407 
L 268.972598 339.47534 
L 271.617226 339.254556 
L 274.261854 339.011341 
L 276.906482 338.745288 
L 279.551111 338.455959 
L 282.195739 338.142883 
L 284.840367 337.805559 
L 287.484995 337.443453 
L 290.129623 337.055999 
L 292.774251 336.6426 
L 295.418879 336.202625 
L 298.063507 335.735412 
L 300.708135 335.240265 
L 303.352763 334.716455 
L 305.997392 334.163221 
L 308.64202 333.579768 
L 311.286648 332.965267 
L 313.931276 332.318856 
L 316.575904 331.639639 
L 319.220532 330.926684 
L 321.86516 330.179029 
L 324.509788 329.395672 
L 327.154416 328.575581 
L 329.799044 327.717686 
L 332.443673 326.820884 
L 335.088301 325.884036 
L 337.732929 324.905967 
L 340.377557 323.885468 
L 343.022185 322.821293 
L 345.666813 321.712162 
L 348.311441 320.556757 
L 350.956069 319.353725 
L 353.600697 318.101678 
L 356.245325 316.799191 
L 358.889954 315.444803 
L 361.534582 314.037016 
L 364.17921 312.574298 
L 366.823838 311.055079 
L 369.468466 309.477754 
" clip-path="url(#p92c54d65f3)" style="fill: none; stroke-dasharray: 11.1,4.8; stroke-dashoffset: 0; stroke: #000000; stroke-width: 3"/>
   </g>
   <g id="line2d_12">
    <path d="M 107.650284 314.563048 
L 110.294912 314.840449 
L 112.93954 313.972856 
L 115.584168 315.153409 
L 118.228796 318.141189 
L 120.873425 319.387369 
L 123.518053 321.188133 
L 126.162681 325.453241 
L 128.807309 328.911525 
L 131.451937 329.79874 
L 134.096565 328.6751 
L 136.741193 326.776954 
L 139.385821 326.007925 
L 142.030449 325.672391 
L 144.675077 326.775679 
L 147.319706 327.776041 
L 149.964334 328.712929 
L 152.608962 330.586556 
L 155.25359 333.128536 
L 157.898218 335.209618 
L 160.542846 335.47892 
L 163.187474 334.932818 
L 165.832102 335.889266 
L 168.47673 335.027086 
L 171.121358 337.081758 
L 173.765987 337.445302 
L 176.410615 337.342023 
L 179.055243 337.007129 
L 181.699871 336.622352 
L 184.344499 337.299072 
L 186.989127 337.832295 
L 189.633755 338.067294 
L 192.278383 339.037409 
L 194.923011 338.946509 
L 197.567639 338.761401 
L 200.212268 338.532928 
L 202.856896 337.705489 
L 205.501524 337.738892 
L 208.146152 338.127566 
L 210.79078 339.257265 
L 213.435408 340.900207 
L 216.080036 341.145808 
L 218.724664 340.608092 
L 221.369292 340.344621 
L 224.01392 339.116265 
L 226.658549 338.282392 
L 229.303177 338.028027 
L 231.947805 338.747576 
L 234.592433 340.066065 
L 237.237061 341.042139 
L 239.881689 341.825068 
L 242.526317 342.721272 
L 245.170945 342.923796 
L 247.815573 341.918374 
L 250.460201 340.526066 
L 253.10483 339.264655 
L 255.749458 338.165653 
L 258.394086 339.197464 
L 261.038714 339.137907 
L 263.683342 338.773989 
L 266.32797 339.297868 
L 268.972598 339.377248 
L 271.617226 338.136122 
L 274.261854 337.531455 
L 276.906482 339.145464 
L 279.551111 340.525764 
L 282.195739 340.412359 
L 284.840367 341.086783 
L 287.484995 341.777586 
L 290.129623 341.786038 
L 292.774251 341.887423 
L 295.418879 341.588765 
L 298.063507 340.237352 
L 300.708135 338.356549 
L 303.352763 337.88828 
L 305.997392 338.901779 
L 308.64202 338.381874 
L 311.286648 337.342479 
L 313.931276 336.24511 
L 316.575904 336.468443 
L 319.220532 337.168915 
L 321.86516 336.270815 
L 324.509788 335.720446 
L 327.154416 335.274754 
L 329.799044 334.073216 
L 332.443673 333.288727 
L 335.088301 332.686086 
L 337.732929 331.882684 
L 340.377557 330.840736 
L 343.022185 330.222718 
L 345.666813 329.208293 
L 348.311441 328.665122 
L 350.956069 328.317081 
L 353.600697 327.765527 
L 356.245325 326.308858 
L 358.889954 323.917664 
L 361.534582 322.559225 
L 364.17921 322.666129 
L 366.823838 321.988913 
L 369.468466 321.430336 
" clip-path="url(#p92c54d65f3)" style="fill: none; stroke-dasharray: 11.1,4.8; stroke-dashoffset: 0; stroke: #008000; stroke-width: 3"/>
   </g>
   <g id="line2d_13">
    <path d="M 107.650284 172.036981 
L 110.294912 176.475514 
L 112.93954 180.803212 
L 115.584168 185.021101 
L 118.228796 189.130208 
L 120.873425 193.131562 
L 123.518053 197.026192 
L 126.162681 200.815126 
L 128.807309 204.499386 
L 131.451937 208.079991 
L 134.096565 211.557954 
L 136.741193 214.934278 
L 139.385821 218.209958 
L 142.030449 221.385979 
L 144.675077 224.463312 
L 147.319706 227.442919 
L 149.964334 230.325742 
L 152.608962 233.112712 
L 155.25359 235.804742 
L 157.898218 238.402726 
L 160.542846 240.907542 
L 163.187474 243.320045 
L 165.832102 245.641071 
L 168.47673 247.871435 
L 171.121358 250.011928 
L 173.765987 252.063317 
L 176.410615 254.026348 
L 179.055243 255.901739 
L 181.699871 257.690182 
L 184.344499 259.392345 
L 186.989127 261.008867 
L 189.633755 262.540358 
L 192.278383 263.987404 
L 194.923011 265.350556 
L 197.567639 266.63034 
L 200.212268 267.827251 
L 202.856896 268.941752 
L 205.501524 269.974276 
L 208.146152 270.925224 
L 210.79078 271.794967 
L 213.435408 272.583842 
L 216.080036 273.292153 
L 218.724664 273.920173 
L 221.369292 274.468142 
L 224.01392 274.936265 
L 226.658549 275.324716 
L 229.303177 275.633632 
L 231.947805 275.86312 
L 234.592433 276.01325 
L 237.237061 276.08406 
L 239.881689 276.075554 
L 242.526317 276.003567 
L 245.170945 275.868051 
L 247.815573 275.66894 
L 250.460201 275.406144 
L 253.10483 275.079552 
L 255.749458 274.689031 
L 258.394086 274.234427 
L 261.038714 273.715564 
L 263.683342 273.132246 
L 266.32797 272.484255 
L 268.972598 271.771352 
L 271.617226 270.993277 
L 274.261854 270.149751 
L 276.906482 269.240474 
L 279.551111 268.265123 
L 282.195739 267.223358 
L 284.840367 266.11482 
L 287.484995 264.939128 
L 290.129623 263.695883 
L 292.774251 262.384667 
L 295.418879 261.005044 
L 298.063507 259.556559 
L 300.708135 258.03874 
L 303.352763 256.451096 
L 305.997392 254.793121 
L 308.64202 253.064291 
L 311.286648 251.264064 
L 313.931276 249.391887 
L 316.575904 247.447186 
L 319.220532 245.429375 
L 321.86516 243.337855 
L 324.509788 241.17201 
L 327.154416 238.931211 
L 329.799044 236.614819 
L 332.443673 234.22218 
L 335.088301 231.752629 
L 337.732929 229.20549 
L 340.377557 226.580076 
L 343.022185 223.875693 
L 345.666813 221.091634 
L 348.311441 218.227186 
L 350.956069 215.281628 
L 353.600697 212.254231 
L 356.245325 209.14426 
L 358.889954 205.950977 
L 361.534582 202.673637 
L 364.17921 199.311491 
L 366.823838 195.863787 
L 369.468466 192.329774 
" clip-path="url(#p92c54d65f3)" style="fill: none; stroke-dasharray: 19.2,4.8,3,4.8; stroke-dashoffset: 0; stroke: #000000; stroke-width: 3"/>
   </g>
   <g id="line2d_14">
    <path d="M 107.650284 157.901382 
L 110.294912 166.941391 
L 112.93954 177.094085 
L 115.584168 181.02105 
L 118.228796 185.34349 
L 120.873425 187.347174 
L 123.518053 189.87833 
L 126.162681 197.901255 
L 128.807309 207.591785 
L 131.451937 215.260902 
L 134.096565 217.974132 
L 136.741193 215.48791 
L 139.385821 215.946601 
L 142.030449 217.964229 
L 144.675077 221.082477 
L 147.319706 227.958985 
L 149.964334 233.8285 
L 152.608962 237.984783 
L 155.25359 243.470241 
L 157.898218 248.230529 
L 160.542846 250.842432 
L 163.187474 252.948637 
L 165.832102 253.525281 
L 168.47673 254.191435 
L 171.121358 256.394897 
L 173.765987 258.907312 
L 176.410615 259.333228 
L 179.055243 259.862394 
L 181.699871 260.588923 
L 184.344499 262.586692 
L 186.989127 265.573465 
L 189.633755 266.882653 
L 192.278383 269.426938 
L 194.923011 270.998852 
L 197.567639 274.02919 
L 200.212268 272.95417 
L 202.856896 271.685709 
L 205.501524 271.99233 
L 208.146152 272.678408 
L 210.79078 274.489453 
L 213.435408 276.500518 
L 216.080036 278.409087 
L 218.724664 279.888183 
L 221.369292 276.866775 
L 224.01392 273.35138 
L 226.658549 271.1047 
L 229.303177 274.087008 
L 231.947805 276.894366 
L 234.592433 280.837038 
L 237.237061 284.878572 
L 239.881689 286.610466 
L 242.526317 287.101001 
L 245.170945 287.579458 
L 247.815573 286.798078 
L 250.460201 282.866725 
L 253.10483 278.106945 
L 255.749458 276.746596 
L 258.394086 276.400856 
L 261.038714 276.933728 
L 263.683342 278.122667 
L 266.32797 275.97218 
L 268.972598 272.416994 
L 271.617226 269.958859 
L 274.261854 268.195968 
L 276.906482 269.089278 
L 279.551111 271.113892 
L 282.195739 271.301252 
L 284.840367 272.659582 
L 287.484995 273.979428 
L 290.129623 275.019324 
L 292.774251 271.447743 
L 295.418879 266.984402 
L 298.063507 264.03573 
L 300.708135 259.831915 
L 303.352763 254.621925 
L 305.997392 251.998387 
L 308.64202 252.104213 
L 311.286648 249.27318 
L 313.931276 246.377625 
L 316.575904 244.336562 
L 319.220532 244.65664 
L 321.86516 243.663299 
L 324.509788 243.433595 
L 327.154416 238.93559 
L 329.799044 234.071726 
L 332.443673 235.959434 
L 335.088301 234.626596 
L 337.732929 228.748153 
L 340.377557 224.978904 
L 343.022185 223.102234 
L 345.666813 218.375802 
L 348.311441 213.662607 
L 350.956069 211.185137 
L 353.600697 206.588212 
L 356.245325 199.604727 
L 358.889954 195.539502 
L 361.534582 194.311358 
L 364.17921 190.929658 
L 366.823838 187.551981 
L 369.468466 188.78319 
" clip-path="url(#p92c54d65f3)" style="fill: none; stroke-dasharray: 19.2,4.8,3,4.8; stroke-dashoffset: 0; stroke: #008000; stroke-width: 3"/>
   </g>
   <g id="line2d_15">
    <path d="M 107.650284 79.869103 
L 110.294912 84.433325 
L 112.93954 88.911118 
L 115.584168 93.301734 
L 118.228796 97.604473 
L 120.873425 101.818679 
L 123.518053 105.94374 
L 126.162681 109.979086 
L 128.807309 113.924185 
L 131.451937 117.778542 
L 134.096565 121.541699 
L 136.741193 125.21323 
L 139.385821 128.792743 
L 142.030449 132.279874 
L 144.675077 135.674291 
L 147.319706 138.975686 
L 149.964334 142.183777 
L 152.608962 145.298308 
L 155.25359 148.319044 
L 157.898218 151.245772 
L 160.542846 154.078297 
L 163.187474 156.816446 
L 165.832102 159.460059 
L 168.47673 162.008995 
L 171.121358 164.463126 
L 173.765987 166.822341 
L 176.410615 169.086537 
L 179.055243 171.255627 
L 181.699871 173.32953 
L 184.344499 175.308178 
L 186.989127 177.191511 
L 189.633755 178.979475 
L 192.278383 180.672026 
L 194.923011 182.269124 
L 197.567639 183.770736 
L 200.212268 185.17683 
L 202.856896 186.487383 
L 205.501524 187.702373 
L 208.146152 188.821781 
L 210.79078 189.845591 
L 213.435408 190.773788 
L 216.080036 191.606358 
L 218.724664 192.34329 
L 221.369292 192.984572 
L 224.01392 193.530194 
L 226.658549 193.980144 
L 229.303177 194.334411 
L 231.947805 194.592983 
L 234.592433 194.755849 
L 237.237061 194.822996 
L 239.881689 194.794411 
L 242.526317 194.689224 
L 245.170945 194.507422 
L 247.815573 194.248995 
L 250.460201 193.91393 
L 253.10483 193.502214 
L 255.749458 193.013835 
L 258.394086 192.448779 
L 261.038714 191.807033 
L 263.683342 191.088586 
L 266.32797 190.293424 
L 268.972598 189.421537 
L 271.617226 188.472913 
L 274.261854 187.447543 
L 276.906482 186.345419 
L 279.551111 185.166534 
L 282.195739 183.910883 
L 284.840367 182.578464 
L 287.484995 181.169277 
L 290.129623 179.683326 
L 292.774251 178.120617 
L 295.418879 176.48116 
L 298.063507 174.764971 
L 300.708135 172.972069 
L 303.352763 171.102478 
L 305.997392 169.156229 
L 308.64202 167.133359 
L 311.286648 165.03391 
L 313.931276 162.857935 
L 316.575904 160.605492 
L 319.220532 158.276647 
L 321.86516 155.871478 
L 324.509788 153.390072 
L 327.154416 150.832524 
L 329.799044 148.198944 
L 332.443673 145.489452 
L 335.088301 142.70418 
L 337.732929 139.843276 
L 340.377557 136.9069 
L 343.022185 133.895228 
L 345.666813 130.808452 
L 348.311441 127.646782 
L 350.956069 124.410443 
L 353.600697 121.09968 
L 356.245325 117.71476 
L 358.889954 114.255966 
L 361.534582 110.723606 
L 364.17921 107.118009 
L 366.823838 103.439528 
L 369.468466 99.688541 
" clip-path="url(#p92c54d65f3)" style="fill: none; stroke-dasharray: 3,4.95; stroke-dashoffset: 0; stroke: #000000; stroke-width: 3"/>
   </g>
   <g id="line2d_16">
    <path d="M 107.650284 73.726236 
L 110.294912 77.036711 
L 112.93954 81.800007 
L 115.584168 84.190897 
L 118.228796 86.974808 
L 120.873425 88.062663 
L 123.518053 89.444758 
L 126.162681 94.904447 
L 128.807309 100.586312 
L 131.451937 102.582008 
L 134.096565 102.628239 
L 136.741193 102.573885 
L 139.385821 103.65737 
L 142.030449 102.493042 
L 144.675077 106.696817 
L 147.319706 115.937671 
L 149.964334 124.327006 
L 152.608962 133.181937 
L 155.25359 142.581011 
L 157.898218 147.579504 
L 160.542846 149.217883 
L 163.187474 152.308613 
L 165.832102 154.996959 
L 168.47673 153.190066 
L 171.121358 152.745196 
L 173.765987 160.808702 
L 176.410615 163.787301 
L 179.055243 162.725877 
L 181.699871 165.015891 
L 184.344499 167.521084 
L 186.989127 170.066278 
L 189.633755 174.300636 
L 192.278383 174.793395 
L 194.923011 176.10202 
L 197.567639 180.433597 
L 200.212268 182.496447 
L 202.856896 184.311748 
L 205.501524 183.812255 
L 208.146152 184.00088 
L 210.79078 185.554948 
L 213.435408 189.948489 
L 216.080036 193.886227 
L 218.724664 191.839702 
L 221.369292 190.836825 
L 224.01392 186.171989 
L 226.658549 184.885109 
L 229.303177 186.728015 
L 231.947805 195.605517 
L 234.592433 198.415303 
L 237.237061 199.209109 
L 239.881689 201.679665 
L 242.526317 204.635392 
L 245.170945 207.106184 
L 247.815573 205.709985 
L 250.460201 203.352955 
L 253.10483 196.019732 
L 255.749458 192.37014 
L 258.394086 190.408086 
L 261.038714 189.821725 
L 263.683342 190.70938 
L 266.32797 187.59408 
L 268.972598 181.702459 
L 271.617226 177.803001 
L 274.261854 174.370923 
L 276.906482 173.444764 
L 279.551111 177.755899 
L 282.195739 176.297947 
L 284.840367 176.741101 
L 287.484995 176.428514 
L 290.129623 172.687587 
L 292.774251 172.332397 
L 295.418879 168.06409 
L 298.063507 159.282289 
L 300.708135 152.835456 
L 303.352763 149.56595 
L 305.997392 148.276878 
L 308.64202 145.525903 
L 311.286648 141.578233 
L 313.931276 137.244175 
L 316.575904 134.932336 
L 319.220532 133.809608 
L 321.86516 131.410728 
L 324.509788 130.903353 
L 327.154416 130.155631 
L 329.799044 125.654255 
L 332.443673 119.812786 
L 335.088301 116.698113 
L 337.732929 115.840612 
L 340.377557 110.379984 
L 343.022185 109.68614 
L 345.666813 107.381543 
L 348.311441 102.645003 
L 350.956069 99.064941 
L 353.600697 95.44924 
L 356.245325 92.89034 
L 358.889954 91.954693 
L 361.534582 90.270528 
L 364.17921 88.876307 
L 366.823838 88.435217 
L 369.468466 87.2509 
" clip-path="url(#p92c54d65f3)" style="fill: none; stroke-dasharray: 3,4.95; stroke-dashoffset: 0; stroke: #008000; stroke-width: 3"/>
   </g>
   <g id="line2d_17">
    <path d="M 107.650284 28.64768 
L 110.294912 30.621943 
L 112.93954 32.605216 
L 115.584168 34.594064 
L 118.228796 36.585159 
L 120.873425 38.575277 
L 123.518053 40.561298 
L 126.162681 42.5402 
L 128.807309 44.509062 
L 131.451937 46.465057 
L 134.096565 48.405453 
L 136.741193 50.32761 
L 139.385821 52.22898 
L 142.030449 54.1071 
L 144.675077 55.959596 
L 147.319706 57.784179 
L 149.964334 59.578641 
L 152.608962 61.340859 
L 155.25359 63.068785 
L 157.898218 64.760454 
L 160.542846 66.413975 
L 163.187474 68.027533 
L 165.832102 69.599386 
L 168.47673 71.127866 
L 171.121358 72.611374 
L 173.765987 74.048383 
L 176.410615 75.437433 
L 179.055243 76.777133 
L 181.699871 78.066156 
L 184.344499 79.303242 
L 186.989127 80.487194 
L 189.633755 81.61688 
L 192.278383 82.691227 
L 194.923011 83.709226 
L 197.567639 84.669928 
L 200.212268 85.572442 
L 202.856896 86.415937 
L 205.501524 87.199641 
L 208.146152 87.922837 
L 210.79078 88.584868 
L 213.435408 89.185132 
L 216.080036 89.72308 
L 218.724664 90.198223 
L 221.369292 90.610123 
L 224.01392 90.958399 
L 226.658549 91.242723 
L 229.303177 91.462821 
L 231.947805 91.618472 
L 234.592433 91.70951 
L 237.237061 91.73582 
L 239.881689 91.697343 
L 242.526317 91.607026 
L 245.170945 91.464898 
L 247.815573 91.27102 
L 250.460201 91.025488 
L 253.10483 90.728433 
L 255.749458 90.380019 
L 258.394086 89.980445 
L 261.038714 89.529943 
L 263.683342 89.028782 
L 266.32797 88.477265 
L 268.972598 87.875728 
L 271.617226 87.224545 
L 274.261854 86.524124 
L 276.906482 85.774909 
L 279.551111 84.97738 
L 282.195739 84.132054 
L 284.840367 83.239484 
L 287.484995 82.300262 
L 290.129623 81.315014 
L 292.774251 80.284407 
L 295.418879 79.209146 
L 298.063507 78.089974 
L 300.708135 76.927673 
L 303.352763 75.723066 
L 305.997392 74.477016 
L 308.64202 73.190428 
L 311.286648 71.864246 
L 313.931276 70.49946 
L 316.575904 69.097099 
L 319.220532 67.658238 
L 321.86516 66.183995 
L 324.509788 64.675533 
L 327.154416 63.134063 
L 329.799044 61.560838 
L 332.443673 59.957162 
L 335.088301 58.324385 
L 337.732929 56.663907 
L 340.377557 54.977175 
L 343.022185 53.265691 
L 345.666813 51.531005 
L 348.311441 49.77472 
L 350.956069 47.998493 
L 353.600697 46.204035 
L 356.245325 44.393113 
L 358.889954 42.567547 
L 361.534582 40.72922 
L 364.17921 38.880068 
L 366.823838 37.022089 
L 369.468466 35.157343 
" clip-path="url(#p92c54d65f3)" style="fill: none; stroke-dasharray: 9,15,3,15,3,15; stroke-dashoffset: 0; stroke: #000000; stroke-width: 3"/>
   </g>
   <g id="line2d_18">
    <path d="M 107.650284 23.563636 
L 110.294912 25.831273 
L 112.93954 28.139513 
L 115.584168 29.662205 
L 118.228796 30.979577 
L 120.873425 32.628825 
L 123.518053 35.154008 
L 126.162681 38.555411 
L 128.807309 41.370794 
L 131.451937 41.766785 
L 134.096565 40.970901 
L 136.741193 41.830491 
L 139.385821 43.529961 
L 142.030449 46.439656 
L 144.675077 49.569046 
L 147.319706 53.047951 
L 149.964334 56.275295 
L 152.608962 59.294115 
L 155.25359 62.074912 
L 157.898218 62.798517 
L 160.542846 62.09218 
L 163.187474 63.273469 
L 165.832102 64.732916 
L 168.47673 65.472181 
L 171.121358 66.418157 
L 173.765987 68.942193 
L 176.410615 70.10824 
L 179.055243 70.224094 
L 181.699871 71.213178 
L 184.344499 73.191409 
L 186.989127 75.012015 
L 189.633755 76.096721 
L 192.278383 77.283587 
L 194.923011 78.10655 
L 197.567639 79.766174 
L 200.212268 81.271664 
L 202.856896 81.091914 
L 205.501524 80.85362 
L 208.146152 80.583572 
L 210.79078 80.513111 
L 213.435408 81.791693 
L 216.080036 83.876269 
L 218.724664 85.216506 
L 221.369292 85.110385 
L 224.01392 84.050497 
L 226.658549 83.395628 
L 229.303177 83.988043 
L 231.947805 85.785714 
L 234.592433 88.758518 
L 237.237061 91.814404 
L 239.881689 93.874666 
L 242.526317 95.366218 
L 245.170945 95.517459 
L 247.815573 92.507272 
L 250.460201 89.019407 
L 253.10483 88.188568 
L 255.749458 85.908576 
L 258.394086 85.037689 
L 261.038714 84.043892 
L 263.683342 83.728568 
L 266.32797 83.374785 
L 268.972598 81.529552 
L 271.617226 79.210384 
L 274.261854 77.515883 
L 276.906482 76.593603 
L 279.551111 76.419019 
L 282.195739 75.55171 
L 284.840367 75.142545 
L 287.484995 74.791888 
L 290.129623 73.873272 
L 292.774251 72.479196 
L 295.418879 70.46639 
L 298.063507 67.506948 
L 300.708135 64.470622 
L 303.352763 62.454763 
L 305.997392 61.216959 
L 308.64202 60.117945 
L 311.286648 58.809995 
L 313.931276 57.579358 
L 316.575904 55.983829 
L 319.220532 55.552311 
L 321.86516 55.239462 
L 324.509788 54.341471 
L 327.154416 52.953946 
L 329.799044 51.290711 
L 332.443673 50.047083 
L 335.088301 49.306529 
L 337.732929 48.257858 
L 340.377557 46.646437 
L 343.022185 44.377876 
L 345.666813 42.544117 
L 348.311441 41.63975 
L 350.956069 39.833816 
L 353.600697 37.027822 
L 356.245325 34.668166 
L 358.889954 33.387644 
L 361.534582 32.805221 
L 364.17921 32.396285 
L 366.823838 31.731161 
L 369.468466 30.899409 
" clip-path="url(#p92c54d65f3)" style="fill: none; stroke-dasharray: 9,15,3,15,3,15; stroke-dashoffset: 0; stroke: #008000; stroke-width: 3"/>
   </g>
   <g id="patch_3">
    <path d="M 94.559375 367.2 
L 94.559375 7.2 
" style="fill: none; stroke: #000000; stroke-width: 2; stroke-linejoin: miter; stroke-linecap: square"/>
   </g>
   <g id="patch_4">
    <path d="M 382.559375 367.2 
L 382.559375 7.2 
" style="fill: none; stroke: #000000; stroke-width: 2; stroke-linejoin: miter; stroke-linecap: square"/>
   </g>
   <g id="patch_5">
    <path d="M 94.559375 367.2 
L 382.559375 367.2 
" style="fill: none; stroke: #000000; stroke-width: 2; stroke-linejoin: miter; stroke-linecap: square"/>
   </g>
   <g id="patch_6">
    <path d="M 94.559375 7.2 
L 382.559375 7.2 
" style="fill: none; stroke: #000000; stroke-width: 2; stroke-linejoin: miter; stroke-linecap: square"/>
   </g>
   <g id="legend_1">
    <g id="patch_7">
     <path d="M 402.059375 302.7 
L 626.532031 302.7 
Q 631.532031 302.7 631.532031 297.7 
L 631.532031 116.723437 
Q 631.532031 111.723437 626.532031 111.723437 
L 402.059375 111.723437 
Q 397.059375 111.723437 397.059375 116.723437 
L 397.059375 297.7 
Q 397.059375 302.7 402.059375 302.7 
z
" style="fill: #4c4c4c; opacity: 0.5; stroke: #4c4c4c; stroke-linejoin: miter"/>
    </g>
    <g id="patch_8">
     <path d="M 400.059375 300.7 
L 624.532031 300.7 
Q 629.532031 300.7 629.532031 295.7 
L 629.532031 114.723437 
Q 629.532031 109.723437 624.532031 109.723437 
L 400.059375 109.723437 
Q 395.059375 109.723437 395.059375 114.723437 
L 395.059375 295.7 
Q 395.059375 300.7 400.059375 300.7 
z
" style="fill: #ffffff; stroke: #cccccc; stroke-linejoin: miter"/>
    </g>
    <g id="line2d_19">
     <path d="M 405.059375 129.969531 
L 430.059375 129.969531 
L 455.059375 129.969531 
" style="fill: none; stroke: #008000; stroke-width: 3; stroke-linecap: square"/>
    </g>
    <g id="text_11">
     <!-- t=137 sec -->
     <g transform="translate(475.059375 138.719531)scale(0.25 -0.25)">
      <defs>
       <path id="DejaVuSans-3d" d="M 678 2906 
L 4684 2906 
L 4684 2381 
L 678 2381 
L 678 2906 
z
M 678 1631 
L 4684 1631 
L 4684 1100 
L 678 1100 
L 678 1631 
z
" transform="scale(0.015625)"/>
       <path id="DejaVuSans-31" d="M 794 531 
L 1825 531 
L 1825 4091 
L 703 3866 
L 703 4441 
L 1819 4666 
L 2450 4666 
L 2450 531 
L 3481 531 
L 3481 0 
L 794 0 
L 794 531 
z
" transform="scale(0.015625)"/>
       <path id="DejaVuSans-33" d="M 2597 2516 
Q 3050 2419 3304 2112 
Q 3559 1806 3559 1356 
Q 3559 666 3084 287 
Q 2609 -91 1734 -91 
Q 1441 -91 1130 -33 
Q 819 25 488 141 
L 488 750 
Q 750 597 1062 519 
Q 1375 441 1716 441 
Q 2309 441 2620 675 
Q 2931 909 2931 1356 
Q 2931 1769 2642 2001 
Q 2353 2234 1838 2234 
L 1294 2234 
L 1294 2753 
L 1863 2753 
Q 2328 2753 2575 2939 
Q 2822 3125 2822 3475 
Q 2822 3834 2567 4026 
Q 2313 4219 1838 4219 
Q 1578 4219 1281 4162 
Q 984 4106 628 3988 
L 628 4550 
Q 988 4650 1302 4700 
Q 1616 4750 1894 4750 
Q 2613 4750 3031 4423 
Q 3450 4097 3450 3541 
Q 3450 3153 3228 2886 
Q 3006 2619 2597 2516 
z
" transform="scale(0.015625)"/>
       <path id="DejaVuSans-37" d="M 525 4666 
L 3525 4666 
L 3525 4397 
L 1831 0 
L 1172 0 
L 2766 4134 
L 525 4134 
L 525 4666 
z
" transform="scale(0.015625)"/>
      </defs>
      <use xlink:href="#DejaVuSans-74"/>
      <use xlink:href="#DejaVuSans-3d" x="39.208984"/>
      <use xlink:href="#DejaVuSans-31" x="122.998047"/>
      <use xlink:href="#DejaVuSans-33" x="186.621094"/>
      <use xlink:href="#DejaVuSans-37" x="250.244141"/>
      <use xlink:href="#DejaVuSans-20" x="313.867188"/>
      <use xlink:href="#DejaVuSans-73" x="345.654297"/>
      <use xlink:href="#DejaVuSans-65" x="397.753906"/>
      <use xlink:href="#DejaVuSans-63" x="459.277344"/>
     </g>
    </g>
    <g id="line2d_20">
     <path d="M 405.059375 166.664844 
L 430.059375 166.664844 
L 455.059375 166.664844 
" style="fill: none; stroke-dasharray: 11.1,4.8; stroke-dashoffset: 0; stroke: #008000; stroke-width: 3"/>
    </g>
    <g id="text_12">
     <!-- t=497 sec -->
     <g transform="translate(475.059375 175.414844)scale(0.25 -0.25)">
      <defs>
       <path id="DejaVuSans-39" d="M 703 97 
L 703 672 
Q 941 559 1184 500 
Q 1428 441 1663 441 
Q 2288 441 2617 861 
Q 2947 1281 2994 2138 
Q 2813 1869 2534 1725 
Q 2256 1581 1919 1581 
Q 1219 1581 811 2004 
Q 403 2428 403 3163 
Q 403 3881 828 4315 
Q 1253 4750 1959 4750 
Q 2769 4750 3195 4129 
Q 3622 3509 3622 2328 
Q 3622 1225 3098 567 
Q 2575 -91 1691 -91 
Q 1453 -91 1209 -44 
Q 966 3 703 97 
z
M 1959 2075 
Q 2384 2075 2632 2365 
Q 2881 2656 2881 3163 
Q 2881 3666 2632 3958 
Q 2384 4250 1959 4250 
Q 1534 4250 1286 3958 
Q 1038 3666 1038 3163 
Q 1038 2656 1286 2365 
Q 1534 2075 1959 2075 
z
" transform="scale(0.015625)"/>
      </defs>
      <use xlink:href="#DejaVuSans-74"/>
      <use xlink:href="#DejaVuSans-3d" x="39.208984"/>
      <use xlink:href="#DejaVuSans-34" x="122.998047"/>
      <use xlink:href="#DejaVuSans-39" x="186.621094"/>
      <use xlink:href="#DejaVuSans-37" x="250.244141"/>
      <use xlink:href="#DejaVuSans-20" x="313.867188"/>
      <use xlink:href="#DejaVuSans-73" x="345.654297"/>
      <use xlink:href="#DejaVuSans-65" x="397.753906"/>
      <use xlink:href="#DejaVuSans-63" x="459.277344"/>
     </g>
    </g>
    <g id="line2d_21">
     <path d="M 405.059375 203.360156 
L 430.059375 203.360156 
L 455.059375 203.360156 
" style="fill: none; stroke-dasharray: 19.2,4.8,3,4.8; stroke-dashoffset: 0; stroke: #008000; stroke-width: 3"/>
    </g>
    <g id="text_13">
     <!-- t=977 sec -->
     <g transform="translate(475.059375 212.110156)scale(0.25 -0.25)">
      <use xlink:href="#DejaVuSans-74"/>
      <use xlink:href="#DejaVuSans-3d" x="39.208984"/>
      <use xlink:href="#DejaVuSans-39" x="122.998047"/>
      <use xlink:href="#DejaVuSans-37" x="186.621094"/>
      <use xlink:href="#DejaVuSans-37" x="250.244141"/>
      <use xlink:href="#DejaVuSans-20" x="313.867188"/>
      <use xlink:href="#DejaVuSans-73" x="345.654297"/>
      <use xlink:href="#DejaVuSans-65" x="397.753906"/>
      <use xlink:href="#DejaVuSans-63" x="459.277344"/>
     </g>
    </g>
    <g id="line2d_22">
     <path d="M 405.059375 240.055469 
L 430.059375 240.055469 
L 455.059375 240.055469 
" style="fill: none; stroke-dasharray: 3,4.95; stroke-dashoffset: 0; stroke: #008000; stroke-width: 3"/>
    </g>
    <g id="text_14">
     <!-- t=1337 sec -->
     <g transform="translate(475.059375 248.805469)scale(0.25 -0.25)">
      <use xlink:href="#DejaVuSans-74"/>
      <use xlink:href="#DejaVuSans-3d" x="39.208984"/>
      <use xlink:href="#DejaVuSans-31" x="122.998047"/>
      <use xlink:href="#DejaVuSans-33" x="186.621094"/>
      <use xlink:href="#DejaVuSans-33" x="250.244141"/>
      <use xlink:href="#DejaVuSans-37" x="313.867188"/>
      <use xlink:href="#DejaVuSans-20" x="377.490234"/>
      <use xlink:href="#DejaVuSans-73" x="409.277344"/>
      <use xlink:href="#DejaVuSans-65" x="461.376953"/>
      <use xlink:href="#DejaVuSans-63" x="522.900391"/>
     </g>
    </g>
    <g id="line2d_23">
     <path d="M 405.059375 276.750781 
L 430.059375 276.750781 
L 455.059375 276.750781 
" style="fill: none; stroke-dasharray: 9,15,3,15,3,15; stroke-dashoffset: 0; stroke: #008000; stroke-width: 3"/>
    </g>
    <g id="text_15">
     <!-- t=1817 sec -->
     <g transform="translate(475.059375 285.500781)scale(0.25 -0.25)">
      <use xlink:href="#DejaVuSans-74"/>
      <use xlink:href="#DejaVuSans-3d" x="39.208984"/>
      <use xlink:href="#DejaVuSans-31" x="122.998047"/>
      <use xlink:href="#DejaVuSans-38" x="186.621094"/>
      <use xlink:href="#DejaVuSans-31" x="250.244141"/>
      <use xlink:href="#DejaVuSans-37" x="313.867188"/>
      <use xlink:href="#DejaVuSans-20" x="377.490234"/>
      <use xlink:href="#DejaVuSans-73" x="409.277344"/>
      <use xlink:href="#DejaVuSans-65" x="461.376953"/>
      <use xlink:href="#DejaVuSans-63" x="522.900391"/>
     </g>
    </g>
   </g>
   <g id="legend_2">
    <g id="patch_9">
     <path d="M 402.059375 102.590625 
L 559.907031 102.590625 
Q 564.907031 102.590625 564.907031 97.590625 
L 564.907031 26.7 
Q 564.907031 21.7 559.907031 21.7 
L 402.059375 21.7 
Q 397.059375 21.7 397.059375 26.7 
L 397.059375 97.590625 
Q 397.059375 102.590625 402.059375 102.590625 
z
" style="fill: #4c4c4c; opacity: 0.5; stroke: #4c4c4c; stroke-linejoin: miter"/>
    </g>
    <g id="patch_10">
     <path d="M 400.059375 100.590625 
L 557.907031 100.590625 
Q 562.907031 100.590625 562.907031 95.590625 
L 562.907031 24.7 
Q 562.907031 19.7 557.907031 19.7 
L 400.059375 19.7 
Q 395.059375 19.7 395.059375 24.7 
L 395.059375 95.590625 
Q 395.059375 100.590625 400.059375 100.590625 
z
" style="fill: #ffffff; stroke: #cccccc; stroke-linejoin: miter"/>
    </g>
    <g id="line2d_24">
     <path d="M 405.059375 39.946094 
L 430.059375 39.946094 
L 455.059375 39.946094 
" style="fill: none; stroke: #000000; stroke-width: 3; stroke-linecap: square"/>
    </g>
    <g id="text_16">
     <!-- model -->
     <g transform="translate(475.059375 48.696094)scale(0.25 -0.25)">
      <defs>
       <path id="DejaVuSans-64" d="M 2906 2969 
L 2906 4863 
L 3481 4863 
L 3481 0 
L 2906 0 
L 2906 525 
Q 2725 213 2448 61 
Q 2172 -91 1784 -91 
Q 1150 -91 751 415 
Q 353 922 353 1747 
Q 353 2572 751 3078 
Q 1150 3584 1784 3584 
Q 2172 3584 2448 3432 
Q 2725 3281 2906 2969 
z
M 947 1747 
Q 947 1113 1208 752 
Q 1469 391 1925 391 
Q 2381 391 2643 752 
Q 2906 1113 2906 1747 
Q 2906 2381 2643 2742 
Q 2381 3103 1925 3103 
Q 1469 3103 1208 2742 
Q 947 2381 947 1747 
z
" transform="scale(0.015625)"/>
       <path id="DejaVuSans-6c" d="M 603 4863 
L 1178 4863 
L 1178 0 
L 603 0 
L 603 4863 
z
" transform="scale(0.015625)"/>
      </defs>
      <use xlink:href="#DejaVuSans-6d"/>
      <use xlink:href="#DejaVuSans-6f" x="97.412109"/>
      <use xlink:href="#DejaVuSans-64" x="158.59375"/>
      <use xlink:href="#DejaVuSans-65" x="222.070312"/>
      <use xlink:href="#DejaVuSans-6c" x="283.59375"/>
     </g>
    </g>
    <g id="line2d_25">
     <path d="M 405.059375 76.641406 
L 430.059375 76.641406 
L 455.059375 76.641406 
" style="fill: none; stroke: #008000; stroke-width: 3; stroke-linecap: square"/>
    </g>
    <g id="text_17">
     <!-- data -->
     <g transform="translate(475.059375 85.391406)scale(0.25 -0.25)">
      <use xlink:href="#DejaVuSans-64"/>
      <use xlink:href="#DejaVuSans-61" x="63.476562"/>
      <use xlink:href="#DejaVuSans-74" x="124.755859"/>
      <use xlink:href="#DejaVuSans-61" x="163.964844"/>
     </g>
    </g>
   </g>
  </g>
 </g>
 <defs>
  <clipPath id="p92c54d65f3">
   <rect x="94.559375" y="7.2" width="288" height="360"/>
  </clipPath>
 </defs>
</svg>
