<?xml version="1.0" encoding="utf-8" standalone="no"?>
<!DOCTYPE svg PUBLIC "-//W3C//DTD SVG 1.1//EN"
  "http://www.w3.org/Graphics/SVG/1.1/DTD/svg11.dtd">
<svg xmlns:xlink="http://www.w3.org/1999/xlink" width="636.732031pt" height="430.290625pt" viewBox="0 0 636.732031 430.290625" xmlns="http://www.w3.org/2000/svg" version="1.1">
 <metadata>
  <rdf:RDF xmlns:dc="http://purl.org/dc/elements/1.1/" xmlns:cc="http://creativecommons.org/ns#" xmlns:rdf="http://www.w3.org/1999/02/22-rdf-syntax-ns#">
   <cc:Work>
    <dc:type rdf:resource="http://purl.org/dc/dcmitype/StillImage"/>
    <dc:date>2024-06-03T09:52:40.235500</dc:date>
    <dc:format>image/svg+xml</dc:format>
    <dc:creator>
     <cc:Agent>
      <dc:title>Matplotlib v3.5.2, https://matplotlib.org/</dc:title>
     </cc:Agent>
    </dc:creator>
   </cc:Work>
  </rdf:RDF>
 </metadata>
 <defs>
  <style type="text/css">*{stroke-linejoin: round; stroke-linecap: butt}</style>
 </defs>
 <g id="figure_1">
  <g id="patch_1">
   <path d="M 0 430.290625 
L 636.732031 430.290625 
L 636.732031 -0 
L 0 -0 
z
" style="fill: #ffffff"/>
  </g>
  <g id="axes_1">
   <g id="patch_2">
    <path d="M 94.559375 367.2 
L 382.559375 367.2 
L 382.559375 7.2 
L 94.559375 7.2 
z
" style="fill: #ffffff"/>
   </g>
   <g id="matplotlib.axis_1">
    <g id="xtick_1">
     <g id="line2d_1">
      <defs>
       <path id="m55964e51a4" d="M 0 0 
L 0 -4 
" style="stroke: #000000; stroke-width: 3"/>
      </defs>
      <g>
       <use xlink:href="#m55964e51a4" x="106.32797" y="367.2" style="stroke: #000000; stroke-width: 3"/>
      </g>
     </g>
     <g id="text_1">
      <!-- 0 -->
      <g transform="translate(98.374845 389.696094)scale(0.25 -0.25)">
       <defs>
        <path id="DejaVuSans-30" d="M 2034 4250 
Q 1547 4250 1301 3770 
Q 1056 3291 1056 2328 
Q 1056 1369 1301 889 
Q 1547 409 2034 409 
Q 2525 409 2770 889 
Q 3016 1369 3016 2328 
Q 3016 3291 2770 3770 
Q 2525 4250 2034 4250 
z
M 2034 4750 
Q 2819 4750 3233 4129 
Q 3647 3509 3647 2328 
Q 3647 1150 3233 529 
Q 2819 -91 2034 -91 
Q 1250 -91 836 529 
Q 422 1150 422 2328 
Q 422 3509 836 4129 
Q 1250 4750 2034 4750 
z
" transform="scale(0.015625)"/>
       </defs>
       <use xlink:href="#DejaVuSans-30"/>
      </g>
     </g>
    </g>
    <g id="xtick_2">
     <g id="line2d_2">
      <g>
       <use xlink:href="#m55964e51a4" x="213.172997" y="367.2" style="stroke: #000000; stroke-width: 3"/>
      </g>
     </g>
     <g id="text_2">
      <!-- 25 -->
      <g transform="translate(197.266747 389.696094)scale(0.25 -0.25)">
       <defs>
        <path id="DejaVuSans-32" d="M 1228 531 
L 3431 531 
L 3431 0 
L 469 0 
L 469 531 
Q 828 903 1448 1529 
Q 2069 2156 2228 2338 
Q 2531 2678 2651 2914 
Q 2772 3150 2772 3378 
Q 2772 3750 2511 3984 
Q 2250 4219 1831 4219 
Q 1534 4219 1204 4116 
Q 875 4013 500 3803 
L 500 4441 
Q 881 4594 1212 4672 
Q 1544 4750 1819 4750 
Q 2544 4750 2975 4387 
Q 3406 4025 3406 3419 
Q 3406 3131 3298 2873 
Q 3191 2616 2906 2266 
Q 2828 2175 2409 1742 
Q 1991 1309 1228 531 
z
" transform="scale(0.015625)"/>
        <path id="DejaVuSans-35" d="M 691 4666 
L 3169 4666 
L 3169 4134 
L 1269 4134 
L 1269 2991 
Q 1406 3038 1543 3061 
Q 1681 3084 1819 3084 
Q 2600 3084 3056 2656 
Q 3513 2228 3513 1497 
Q 3513 744 3044 326 
Q 2575 -91 1722 -91 
Q 1428 -91 1123 -41 
Q 819 9 494 109 
L 494 744 
Q 775 591 1075 516 
Q 1375 441 1709 441 
Q 2250 441 2565 725 
Q 2881 1009 2881 1497 
Q 2881 1984 2565 2268 
Q 2250 2553 1709 2553 
Q 1456 2553 1204 2497 
Q 953 2441 691 2322 
L 691 4666 
z
" transform="scale(0.015625)"/>
       </defs>
       <use xlink:href="#DejaVuSans-32"/>
       <use xlink:href="#DejaVuSans-35" x="63.623047"/>
      </g>
     </g>
    </g>
    <g id="xtick_3">
     <g id="line2d_3">
      <g>
       <use xlink:href="#m55964e51a4" x="320.018023" y="367.2" style="stroke: #000000; stroke-width: 3"/>
      </g>
     </g>
     <g id="text_3">
      <!-- 50 -->
      <g transform="translate(304.111773 389.696094)scale(0.25 -0.25)">
       <use xlink:href="#DejaVuSans-35"/>
       <use xlink:href="#DejaVuSans-30" x="63.623047"/>
      </g>
     </g>
    </g>
    <g id="text_4">
     <!-- z-position [μm] -->
     <g transform="translate(144.121875 417.891406)scale(0.25 -0.25)">
      <defs>
       <path id="DejaVuSans-7a" d="M 353 3500 
L 3084 3500 
L 3084 2975 
L 922 459 
L 3084 459 
L 3084 0 
L 275 0 
L 275 525 
L 2438 3041 
L 353 3041 
L 353 3500 
z
" transform="scale(0.015625)"/>
       <path id="DejaVuSans-2d" d="M 313 2009 
L 1997 2009 
L 1997 1497 
L 313 1497 
L 313 2009 
z
" transform="scale(0.015625)"/>
       <path id="DejaVuSans-70" d="M 1159 525 
L 1159 -1331 
L 581 -1331 
L 581 3500 
L 1159 3500 
L 1159 2969 
Q 1341 3281 1617 3432 
Q 1894 3584 2278 3584 
Q 2916 3584 3314 3078 
Q 3713 2572 3713 1747 
Q 3713 922 3314 415 
Q 2916 -91 2278 -91 
Q 1894 -91 1617 61 
Q 1341 213 1159 525 
z
M 3116 1747 
Q 3116 2381 2855 2742 
Q 2594 3103 2138 3103 
Q 1681 3103 1420 2742 
Q 1159 2381 1159 1747 
Q 1159 1113 1420 752 
Q 1681 391 2138 391 
Q 2594 391 2855 752 
Q 3116 1113 3116 1747 
z
" transform="scale(0.015625)"/>
       <path id="DejaVuSans-6f" d="M 1959 3097 
Q 1497 3097 1228 2736 
Q 959 2375 959 1747 
Q 959 1119 1226 758 
Q 1494 397 1959 397 
Q 2419 397 2687 759 
Q 2956 1122 2956 1747 
Q 2956 2369 2687 2733 
Q 2419 3097 1959 3097 
z
M 1959 3584 
Q 2709 3584 3137 3096 
Q 3566 2609 3566 1747 
Q 3566 888 3137 398 
Q 2709 -91 1959 -91 
Q 1206 -91 779 398 
Q 353 888 353 1747 
Q 353 2609 779 3096 
Q 1206 3584 1959 3584 
z
" transform="scale(0.015625)"/>
       <path id="DejaVuSans-73" d="M 2834 3397 
L 2834 2853 
Q 2591 2978 2328 3040 
Q 2066 3103 1784 3103 
Q 1356 3103 1142 2972 
Q 928 2841 928 2578 
Q 928 2378 1081 2264 
Q 1234 2150 1697 2047 
L 1894 2003 
Q 2506 1872 2764 1633 
Q 3022 1394 3022 966 
Q 3022 478 2636 193 
Q 2250 -91 1575 -91 
Q 1294 -91 989 -36 
Q 684 19 347 128 
L 347 722 
Q 666 556 975 473 
Q 1284 391 1588 391 
Q 1994 391 2212 530 
Q 2431 669 2431 922 
Q 2431 1156 2273 1281 
Q 2116 1406 1581 1522 
L 1381 1569 
Q 847 1681 609 1914 
Q 372 2147 372 2553 
Q 372 3047 722 3315 
Q 1072 3584 1716 3584 
Q 2034 3584 2315 3537 
Q 2597 3491 2834 3397 
z
" transform="scale(0.015625)"/>
       <path id="DejaVuSans-69" d="M 603 3500 
L 1178 3500 
L 1178 0 
L 603 0 
L 603 3500 
z
M 603 4863 
L 1178 4863 
L 1178 4134 
L 603 4134 
L 603 4863 
z
" transform="scale(0.015625)"/>
       <path id="DejaVuSans-74" d="M 1172 4494 
L 1172 3500 
L 2356 3500 
L 2356 3053 
L 1172 3053 
L 1172 1153 
Q 1172 725 1289 603 
Q 1406 481 1766 481 
L 2356 481 
L 2356 0 
L 1766 0 
Q 1100 0 847 248 
Q 594 497 594 1153 
L 594 3053 
L 172 3053 
L 172 3500 
L 594 3500 
L 594 4494 
L 1172 4494 
z
" transform="scale(0.015625)"/>
       <path id="DejaVuSans-6e" d="M 3513 2113 
L 3513 0 
L 2938 0 
L 2938 2094 
Q 2938 2591 2744 2837 
Q 2550 3084 2163 3084 
Q 1697 3084 1428 2787 
Q 1159 2491 1159 1978 
L 1159 0 
L 581 0 
L 581 3500 
L 1159 3500 
L 1159 2956 
Q 1366 3272 1645 3428 
Q 1925 3584 2291 3584 
Q 2894 3584 3203 3211 
Q 3513 2838 3513 2113 
z
" transform="scale(0.015625)"/>
       <path id="DejaVuSans-20" transform="scale(0.015625)"/>
       <path id="DejaVuSans-5b" d="M 550 4863 
L 1875 4863 
L 1875 4416 
L 1125 4416 
L 1125 -397 
L 1875 -397 
L 1875 -844 
L 550 -844 
L 550 4863 
z
" transform="scale(0.015625)"/>
       <path id="DejaVuSans-3bc" d="M 544 -1331 
L 544 3500 
L 1119 3500 
L 1119 1325 
Q 1119 872 1334 640 
Q 1550 409 1972 409 
Q 2434 409 2667 671 
Q 2900 934 2900 1459 
L 2900 3500 
L 3475 3500 
L 3475 806 
Q 3475 619 3529 530 
Q 3584 441 3700 441 
Q 3728 441 3778 458 
Q 3828 475 3916 513 
L 3916 50 
Q 3788 -22 3673 -56 
Q 3559 -91 3450 -91 
Q 3234 -91 3106 31 
Q 2978 153 2931 403 
Q 2775 156 2548 32 
Q 2322 -91 2016 -91 
Q 1697 -91 1473 31 
Q 1250 153 1119 397 
L 1119 -1331 
L 544 -1331 
z
" transform="scale(0.015625)"/>
       <path id="DejaVuSans-6d" d="M 3328 2828 
Q 3544 3216 3844 3400 
Q 4144 3584 4550 3584 
Q 5097 3584 5394 3201 
Q 5691 2819 5691 2113 
L 5691 0 
L 5113 0 
L 5113 2094 
Q 5113 2597 4934 2840 
Q 4756 3084 4391 3084 
Q 3944 3084 3684 2787 
Q 3425 2491 3425 1978 
L 3425 0 
L 2847 0 
L 2847 2094 
Q 2847 2600 2669 2842 
Q 2491 3084 2119 3084 
Q 1678 3084 1418 2786 
Q 1159 2488 1159 1978 
L 1159 0 
L 581 0 
L 581 3500 
L 1159 3500 
L 1159 2956 
Q 1356 3278 1631 3431 
Q 1906 3584 2284 3584 
Q 2666 3584 2933 3390 
Q 3200 3197 3328 2828 
z
" transform="scale(0.015625)"/>
       <path id="DejaVuSans-5d" d="M 1947 4863 
L 1947 -844 
L 622 -844 
L 622 -397 
L 1369 -397 
L 1369 4416 
L 622 4416 
L 622 4863 
L 1947 4863 
z
" transform="scale(0.015625)"/>
      </defs>
      <use xlink:href="#DejaVuSans-7a"/>
      <use xlink:href="#DejaVuSans-2d" x="52.490234"/>
      <use xlink:href="#DejaVuSans-70" x="88.574219"/>
      <use xlink:href="#DejaVuSans-6f" x="152.050781"/>
      <use xlink:href="#DejaVuSans-73" x="213.232422"/>
      <use xlink:href="#DejaVuSans-69" x="265.332031"/>
      <use xlink:href="#DejaVuSans-74" x="293.115234"/>
      <use xlink:href="#DejaVuSans-69" x="332.324219"/>
      <use xlink:href="#DejaVuSans-6f" x="360.107422"/>
      <use xlink:href="#DejaVuSans-6e" x="421.289062"/>
      <use xlink:href="#DejaVuSans-20" x="484.667969"/>
      <use xlink:href="#DejaVuSans-5b" x="516.455078"/>
      <use xlink:href="#DejaVuSans-3bc" x="555.46875"/>
      <use xlink:href="#DejaVuSans-6d" x="619.091797"/>
      <use xlink:href="#DejaVuSans-5d" x="716.503906"/>
     </g>
    </g>
   </g>
   <g id="matplotlib.axis_2">
    <g id="ytick_1">
     <g id="line2d_4">
      <defs>
       <path id="ma6cd4a5283" d="M 0 0 
L 4 0 
" style="stroke: #000000; stroke-width: 3"/>
      </defs>
      <g>
       <use xlink:href="#ma6cd4a5283" x="94.559375" y="353.642961" style="stroke: #000000; stroke-width: 3"/>
      </g>
     </g>
     <g id="text_5">
      <!-- 0.00 -->
      <g transform="translate(35.395313 363.141008)scale(0.25 -0.25)">
       <defs>
        <path id="DejaVuSans-2e" d="M 684 794 
L 1344 794 
L 1344 0 
L 684 0 
L 684 794 
z
" transform="scale(0.015625)"/>
       </defs>
       <use xlink:href="#DejaVuSans-30"/>
       <use xlink:href="#DejaVuSans-2e" x="63.623047"/>
       <use xlink:href="#DejaVuSans-30" x="95.410156"/>
       <use xlink:href="#DejaVuSans-30" x="159.033203"/>
      </g>
     </g>
    </g>
    <g id="ytick_2">
     <g id="line2d_5">
      <g>
       <use xlink:href="#ma6cd4a5283" x="94.559375" y="277.232223" style="stroke: #000000; stroke-width: 3"/>
      </g>
     </g>
     <g id="text_6">
      <!-- 0.02 -->
      <g transform="translate(35.395313 286.73027)scale(0.25 -0.25)">
       <use xlink:href="#DejaVuSans-30"/>
       <use xlink:href="#DejaVuSans-2e" x="63.623047"/>
       <use xlink:href="#DejaVuSans-30" x="95.410156"/>
       <use xlink:href="#DejaVuSans-32" x="159.033203"/>
      </g>
     </g>
    </g>
    <g id="ytick_3">
     <g id="line2d_6">
      <g>
       <use xlink:href="#ma6cd4a5283" x="94.559375" y="200.821485" style="stroke: #000000; stroke-width: 3"/>
      </g>
     </g>
     <g id="text_7">
      <!-- 0.04 -->
      <g transform="translate(35.395313 210.319532)scale(0.25 -0.25)">
       <defs>
        <path id="DejaVuSans-34" d="M 2419 4116 
L 825 1625 
L 2419 1625 
L 2419 4116 
z
M 2253 4666 
L 3047 4666 
L 3047 1625 
L 3713 1625 
L 3713 1100 
L 3047 1100 
L 3047 0 
L 2419 0 
L 2419 1100 
L 313 1100 
L 313 1709 
L 2253 4666 
z
" transform="scale(0.015625)"/>
       </defs>
       <use xlink:href="#DejaVuSans-30"/>
       <use xlink:href="#DejaVuSans-2e" x="63.623047"/>
       <use xlink:href="#DejaVuSans-30" x="95.410156"/>
       <use xlink:href="#DejaVuSans-34" x="159.033203"/>
      </g>
     </g>
    </g>
    <g id="ytick_4">
     <g id="line2d_7">
      <g>
       <use xlink:href="#ma6cd4a5283" x="94.559375" y="124.410747" style="stroke: #000000; stroke-width: 3"/>
      </g>
     </g>
     <g id="text_8">
      <!-- 0.06 -->
      <g transform="translate(35.395313 133.908794)scale(0.25 -0.25)">
       <defs>
        <path id="DejaVuSans-36" d="M 2113 2584 
Q 1688 2584 1439 2293 
Q 1191 2003 1191 1497 
Q 1191 994 1439 701 
Q 1688 409 2113 409 
Q 2538 409 2786 701 
Q 3034 994 3034 1497 
Q 3034 2003 2786 2293 
Q 2538 2584 2113 2584 
z
M 3366 4563 
L 3366 3988 
Q 3128 4100 2886 4159 
Q 2644 4219 2406 4219 
Q 1781 4219 1451 3797 
Q 1122 3375 1075 2522 
Q 1259 2794 1537 2939 
Q 1816 3084 2150 3084 
Q 2853 3084 3261 2657 
Q 3669 2231 3669 1497 
Q 3669 778 3244 343 
Q 2819 -91 2113 -91 
Q 1303 -91 875 529 
Q 447 1150 447 2328 
Q 447 3434 972 4092 
Q 1497 4750 2381 4750 
Q 2619 4750 2861 4703 
Q 3103 4656 3366 4563 
z
" transform="scale(0.015625)"/>
       </defs>
       <use xlink:href="#DejaVuSans-30"/>
       <use xlink:href="#DejaVuSans-2e" x="63.623047"/>
       <use xlink:href="#DejaVuSans-30" x="95.410156"/>
       <use xlink:href="#DejaVuSans-36" x="159.033203"/>
      </g>
     </g>
    </g>
    <g id="ytick_5">
     <g id="line2d_8">
      <g>
       <use xlink:href="#ma6cd4a5283" x="94.559375" y="48.000009" style="stroke: #000000; stroke-width: 3"/>
      </g>
     </g>
     <g id="text_9">
      <!-- 0.08 -->
      <g transform="translate(35.395313 57.498056)scale(0.25 -0.25)">
       <defs>
        <path id="DejaVuSans-38" d="M 2034 2216 
Q 1584 2216 1326 1975 
Q 1069 1734 1069 1313 
Q 1069 891 1326 650 
Q 1584 409 2034 409 
Q 2484 409 2743 651 
Q 3003 894 3003 1313 
Q 3003 1734 2745 1975 
Q 2488 2216 2034 2216 
z
M 1403 2484 
Q 997 2584 770 2862 
Q 544 3141 544 3541 
Q 544 4100 942 4425 
Q 1341 4750 2034 4750 
Q 2731 4750 3128 4425 
Q 3525 4100 3525 3541 
Q 3525 3141 3298 2862 
Q 3072 2584 2669 2484 
Q 3125 2378 3379 2068 
Q 3634 1759 3634 1313 
Q 3634 634 3220 271 
Q 2806 -91 2034 -91 
Q 1263 -91 848 271 
Q 434 634 434 1313 
Q 434 1759 690 2068 
Q 947 2378 1403 2484 
z
M 1172 3481 
Q 1172 3119 1398 2916 
Q 1625 2713 2034 2713 
Q 2441 2713 2670 2916 
Q 2900 3119 2900 3481 
Q 2900 3844 2670 4047 
Q 2441 4250 2034 4250 
Q 1625 4250 1398 4047 
Q 1172 3844 1172 3481 
z
" transform="scale(0.015625)"/>
       </defs>
       <use xlink:href="#DejaVuSans-30"/>
       <use xlink:href="#DejaVuSans-2e" x="63.623047"/>
       <use xlink:href="#DejaVuSans-30" x="95.410156"/>
       <use xlink:href="#DejaVuSans-38" x="159.033203"/>
      </g>
     </g>
    </g>
    <g id="text_10">
     <!-- Concentration [mM] -->
     <g transform="translate(26.196094 312.315234)rotate(-90)scale(0.25 -0.25)">
      <defs>
       <path id="DejaVuSans-43" d="M 4122 4306 
L 4122 3641 
Q 3803 3938 3442 4084 
Q 3081 4231 2675 4231 
Q 1875 4231 1450 3742 
Q 1025 3253 1025 2328 
Q 1025 1406 1450 917 
Q 1875 428 2675 428 
Q 3081 428 3442 575 
Q 3803 722 4122 1019 
L 4122 359 
Q 3791 134 3420 21 
Q 3050 -91 2638 -91 
Q 1578 -91 968 557 
Q 359 1206 359 2328 
Q 359 3453 968 4101 
Q 1578 4750 2638 4750 
Q 3056 4750 3426 4639 
Q 3797 4528 4122 4306 
z
" transform="scale(0.015625)"/>
       <path id="DejaVuSans-63" d="M 3122 3366 
L 3122 2828 
Q 2878 2963 2633 3030 
Q 2388 3097 2138 3097 
Q 1578 3097 1268 2742 
Q 959 2388 959 1747 
Q 959 1106 1268 751 
Q 1578 397 2138 397 
Q 2388 397 2633 464 
Q 2878 531 3122 666 
L 3122 134 
Q 2881 22 2623 -34 
Q 2366 -91 2075 -91 
Q 1284 -91 818 406 
Q 353 903 353 1747 
Q 353 2603 823 3093 
Q 1294 3584 2113 3584 
Q 2378 3584 2631 3529 
Q 2884 3475 3122 3366 
z
" transform="scale(0.015625)"/>
       <path id="DejaVuSans-65" d="M 3597 1894 
L 3597 1613 
L 953 1613 
Q 991 1019 1311 708 
Q 1631 397 2203 397 
Q 2534 397 2845 478 
Q 3156 559 3463 722 
L 3463 178 
Q 3153 47 2828 -22 
Q 2503 -91 2169 -91 
Q 1331 -91 842 396 
Q 353 884 353 1716 
Q 353 2575 817 3079 
Q 1281 3584 2069 3584 
Q 2775 3584 3186 3129 
Q 3597 2675 3597 1894 
z
M 3022 2063 
Q 3016 2534 2758 2815 
Q 2500 3097 2075 3097 
Q 1594 3097 1305 2825 
Q 1016 2553 972 2059 
L 3022 2063 
z
" transform="scale(0.015625)"/>
       <path id="DejaVuSans-72" d="M 2631 2963 
Q 2534 3019 2420 3045 
Q 2306 3072 2169 3072 
Q 1681 3072 1420 2755 
Q 1159 2438 1159 1844 
L 1159 0 
L 581 0 
L 581 3500 
L 1159 3500 
L 1159 2956 
Q 1341 3275 1631 3429 
Q 1922 3584 2338 3584 
Q 2397 3584 2469 3576 
Q 2541 3569 2628 3553 
L 2631 2963 
z
" transform="scale(0.015625)"/>
       <path id="DejaVuSans-61" d="M 2194 1759 
Q 1497 1759 1228 1600 
Q 959 1441 959 1056 
Q 959 750 1161 570 
Q 1363 391 1709 391 
Q 2188 391 2477 730 
Q 2766 1069 2766 1631 
L 2766 1759 
L 2194 1759 
z
M 3341 1997 
L 3341 0 
L 2766 0 
L 2766 531 
Q 2569 213 2275 61 
Q 1981 -91 1556 -91 
Q 1019 -91 701 211 
Q 384 513 384 1019 
Q 384 1609 779 1909 
Q 1175 2209 1959 2209 
L 2766 2209 
L 2766 2266 
Q 2766 2663 2505 2880 
Q 2244 3097 1772 3097 
Q 1472 3097 1187 3025 
Q 903 2953 641 2809 
L 641 3341 
Q 956 3463 1253 3523 
Q 1550 3584 1831 3584 
Q 2591 3584 2966 3190 
Q 3341 2797 3341 1997 
z
" transform="scale(0.015625)"/>
       <path id="DejaVuSans-4d" d="M 628 4666 
L 1569 4666 
L 2759 1491 
L 3956 4666 
L 4897 4666 
L 4897 0 
L 4281 0 
L 4281 4097 
L 3078 897 
L 2444 897 
L 1241 4097 
L 1241 0 
L 628 0 
L 628 4666 
z
" transform="scale(0.015625)"/>
      </defs>
      <use xlink:href="#DejaVuSans-43"/>
      <use xlink:href="#DejaVuSans-6f" x="69.824219"/>
      <use xlink:href="#DejaVuSans-6e" x="131.005859"/>
      <use xlink:href="#DejaVuSans-63" x="194.384766"/>
      <use xlink:href="#DejaVuSans-65" x="249.365234"/>
      <use xlink:href="#DejaVuSans-6e" x="310.888672"/>
      <use xlink:href="#DejaVuSans-74" x="374.267578"/>
      <use xlink:href="#DejaVuSans-72" x="413.476562"/>
      <use xlink:href="#DejaVuSans-61" x="454.589844"/>
      <use xlink:href="#DejaVuSans-74" x="515.869141"/>
      <use xlink:href="#DejaVuSans-69" x="555.078125"/>
      <use xlink:href="#DejaVuSans-6f" x="582.861328"/>
      <use xlink:href="#DejaVuSans-6e" x="644.042969"/>
      <use xlink:href="#DejaVuSans-20" x="707.421875"/>
      <use xlink:href="#DejaVuSans-5b" x="739.208984"/>
      <use xlink:href="#DejaVuSans-6d" x="778.222656"/>
      <use xlink:href="#DejaVuSans-4d" x="875.634766"/>
      <use xlink:href="#DejaVuSans-5d" x="961.914062"/>
     </g>
    </g>
   </g>
   <g id="line2d_9">
    <path d="M 107.650284 339.997621 
L 110.294912 340.574456 
L 112.93954 341.124401 
L 115.584168 341.648418 
L 118.228796 342.147448 
L 120.873425 342.622409 
L 123.518053 343.074195 
L 126.162681 343.503683 
L 128.807309 343.911723 
L 131.451937 344.299149 
L 134.096565 344.666768 
L 136.741193 345.015369 
L 139.385821 345.345721 
L 142.030449 345.658569 
L 144.675077 345.954639 
L 147.319706 346.234636 
L 149.964334 346.499245 
L 152.608962 346.74913 
L 155.25359 346.984936 
L 157.898218 347.207288 
L 160.542846 347.416792 
L 163.187474 347.614032 
L 165.832102 347.799577 
L 168.47673 347.973973 
L 171.121358 348.13775 
L 173.765987 348.29142 
L 176.410615 348.435474 
L 179.055243 348.570389 
L 181.699871 348.696621 
L 184.344499 348.814611 
L 186.989127 348.924781 
L 189.633755 349.027537 
L 192.278383 349.123269 
L 194.923011 349.21235 
L 197.567639 349.295137 
L 200.212268 349.371972 
L 202.856896 349.44318 
L 205.501524 349.509071 
L 208.146152 349.569941 
L 210.79078 349.626071 
L 213.435408 349.677726 
L 216.080036 349.725159 
L 218.724664 349.768606 
L 221.369292 349.808292 
L 224.01392 349.844425 
L 226.658549 349.877204 
L 229.303177 349.906811 
L 231.947805 349.933415 
L 234.592433 349.957174 
L 237.237061 349.978231 
L 239.881689 349.996719 
L 242.526317 350.011996 
L 245.170945 350.024198 
L 247.815573 350.033436 
L 250.460201 350.039803 
L 253.10483 350.043369 
L 255.749458 350.044185 
L 258.394086 350.042279 
L 261.038714 350.037659 
L 263.683342 350.030313 
L 266.32797 350.020204 
L 268.972598 350.00728 
L 271.617226 349.991461 
L 274.261854 349.972651 
L 276.906482 349.950729 
L 279.551111 349.925552 
L 282.195739 349.896955 
L 284.840367 349.864752 
L 287.484995 349.828732 
L 290.129623 349.78866 
L 292.774251 349.74428 
L 295.418879 349.695308 
L 298.063507 349.641438 
L 300.708135 349.582337 
L 303.352763 349.517647 
L 305.997392 349.446984 
L 308.64202 349.369936 
L 311.286648 349.286062 
L 313.931276 349.194897 
L 316.575904 349.095943 
L 319.220532 348.988674 
L 321.86516 348.872533 
L 324.509788 348.746935 
L 327.154416 348.61126 
L 329.799044 348.464856 
L 332.443673 348.30704 
L 335.088301 348.137093 
L 337.732929 347.954263 
L 340.377557 347.757763 
L 343.022185 347.546768 
L 345.666813 347.320418 
L 348.311441 347.077815 
L 350.956069 346.818023 
L 353.600697 346.540067 
L 356.245325 346.242932 
L 358.889954 345.925563 
L 361.534582 345.586863 
L 364.17921 345.225695 
L 366.823838 344.840878 
L 369.468466 344.431187 
" clip-path="url(#p5b2c8a9bda)" style="fill: none; stroke: #000000; stroke-width: 3; stroke-linecap: square"/>
   </g>
   <g id="line2d_10">
    <path d="M 107.650284 349.309914 
L 110.294912 349.292232 
L 112.93954 348.770481 
L 115.584168 348.456966 
L 118.228796 348.366386 
L 120.873425 348.376704 
L 123.518053 348.673219 
L 126.162681 349.105678 
L 128.807309 349.532722 
L 131.451937 349.829249 
L 134.096565 349.591927 
L 136.741193 349.502967 
L 139.385821 349.948556 
L 142.030449 350.061868 
L 144.675077 350.19969 
L 147.319706 350.222316 
L 149.964334 350.166357 
L 152.608962 350.10855 
L 155.25359 350.089482 
L 157.898218 350.272206 
L 160.542846 350.375622 
L 163.187474 350.248988 
L 165.832102 350.450684 
L 168.47673 350.213321 
L 171.121358 349.928077 
L 173.765987 349.896315 
L 176.410615 350.241391 
L 179.055243 350.651787 
L 181.699871 350.737512 
L 184.344499 350.63044 
L 186.989127 350.592307 
L 189.633755 350.664395 
L 192.278383 350.836364 
L 194.923011 350.780855 
L 197.567639 350.508427 
L 200.212268 349.968705 
L 202.856896 349.900314 
L 205.501524 349.965001 
L 208.146152 350.092893 
L 210.79078 350.324029 
L 213.435408 350.27019 
L 216.080036 349.769402 
L 218.724664 349.323292 
L 221.369292 349.467975 
L 224.01392 349.947422 
L 226.658549 350.526533 
L 229.303177 350.454399 
L 231.947805 350.166165 
L 234.592433 349.752425 
L 237.237061 349.757958 
L 239.881689 349.756542 
L 242.526317 349.6235 
L 245.170945 349.886367 
L 247.815573 350.02099 
L 250.460201 349.760053 
L 253.10483 349.466147 
L 255.749458 349.454682 
L 258.394086 349.775534 
L 261.038714 350.106513 
L 263.683342 350.131625 
L 266.32797 349.979294 
L 268.972598 349.612188 
L 271.617226 349.279814 
L 274.261854 349.385272 
L 276.906482 349.692751 
L 279.551111 349.897748 
L 282.195739 349.676289 
L 284.840367 348.952152 
L 287.484995 349.260363 
L 290.129623 349.850641 
L 292.774251 349.920734 
L 295.418879 349.885588 
L 298.063507 349.783879 
L 300.708135 349.465346 
L 303.352763 349.180424 
L 305.997392 349.152909 
L 308.64202 349.442532 
L 311.286648 349.580778 
L 313.931276 349.572722 
L 316.575904 349.860561 
L 319.220532 349.7608 
L 321.86516 349.697304 
L 324.509788 349.68717 
L 327.154416 349.882963 
L 329.799044 350.07198 
L 332.443673 350.055475 
L 335.088301 350.332688 
L 337.732929 350.512123 
L 340.377557 350.440547 
L 343.022185 350.059389 
L 345.666813 349.641319 
L 348.311441 349.758655 
L 350.956069 349.701746 
L 353.600697 349.550927 
L 356.245325 349.431098 
L 358.889954 349.522294 
L 361.534582 349.6905 
L 364.17921 349.459679 
L 366.823838 349.18936 
L 369.468466 348.605392 
" clip-path="url(#p5b2c8a9bda)" style="fill: none; stroke: #008000; stroke-width: 3; stroke-linecap: square"/>
   </g>
   <g id="line2d_11">
    <path d="M 107.650284 271.327304 
L 110.294912 273.445138 
L 112.93954 275.509797 
L 115.584168 277.522091 
L 118.228796 279.482817 
L 120.873425 281.392764 
L 123.518053 283.252708 
L 126.162681 285.063413 
L 128.807309 286.825634 
L 131.451937 288.540112 
L 134.096565 290.207576 
L 136.741193 291.828744 
L 139.385821 293.404319 
L 142.030449 294.934995 
L 144.675077 296.42145 
L 147.319706 297.864349 
L 149.964334 299.264346 
L 152.608962 300.62208 
L 155.25359 301.938176 
L 157.898218 303.213244 
L 160.542846 304.447884 
L 163.187474 305.642679 
L 165.832102 306.798197 
L 168.47673 307.914993 
L 171.121358 308.993608 
L 173.765987 310.034565 
L 176.410615 311.038377 
L 179.055243 312.005538 
L 181.699871 312.936528 
L 184.344499 313.831812 
L 186.989127 314.69184 
L 189.633755 315.517046 
L 192.278383 316.307848 
L 194.923011 317.064649 
L 197.567639 317.787835 
L 200.212268 318.477778 
L 202.856896 319.134833 
L 205.501524 319.759337 
L 208.146152 320.351615 
L 210.79078 320.911972 
L 213.435408 321.440698 
L 216.080036 321.938066 
L 218.724664 322.404334 
L 221.369292 322.839742 
L 224.01392 323.244513 
L 226.658549 323.618855 
L 229.303177 323.962957 
L 231.947805 324.276994 
L 234.592433 324.561122 
L 237.237061 324.815479 
L 239.881689 325.040189 
L 242.526317 325.226207 
L 245.170945 325.373642 
L 247.815573 325.482573 
L 250.460201 325.553049 
L 253.10483 325.585093 
L 255.749458 325.578693 
L 258.394086 325.533813 
L 261.038714 325.450382 
L 263.683342 325.328304 
L 266.32797 325.167451 
L 268.972598 324.967665 
L 271.617226 324.728759 
L 274.261854 324.450517 
L 276.906482 324.132692 
L 279.551111 323.775007 
L 282.195739 323.377157 
L 284.840367 322.938807 
L 287.484995 322.459591 
L 290.129623 321.939115 
L 292.774251 321.376954 
L 295.418879 320.772655 
L 298.063507 320.125736 
L 300.708135 319.435682 
L 303.352763 318.701955 
L 305.997392 317.923981 
L 308.64202 317.101163 
L 311.286648 316.232871 
L 313.931276 315.318448 
L 316.575904 314.357208 
L 319.220532 313.348437 
L 321.86516 312.291392 
L 324.509788 311.185301 
L 327.154416 310.029366 
L 329.799044 308.82276 
L 332.443673 307.564629 
L 335.088301 306.25409 
L 337.732929 304.890235 
L 340.377557 303.472127 
L 343.022185 301.998805 
L 345.666813 300.469278 
L 348.311441 298.882531 
L 350.956069 297.237524 
L 353.600697 295.53319 
L 356.245325 293.768437 
L 358.889954 291.942148 
L 361.534582 290.053181 
L 364.17921 288.100372 
L 366.823838 286.082531 
L 369.468466 283.998446 
" clip-path="url(#p5b2c8a9bda)" style="fill: none; stroke-dasharray: 11.1,4.8; stroke-dashoffset: 0; stroke: #000000; stroke-width: 3"/>
   </g>
   <g id="line2d_12">
    <path d="M 107.650284 295.513121 
L 110.294912 299.315341 
L 112.93954 302.022672 
L 115.584168 304.607228 
L 118.228796 307.724243 
L 120.873425 309.826016 
L 123.518053 311.834092 
L 126.162681 314.120413 
L 128.807309 315.847132 
L 131.451937 318.053154 
L 134.096565 320.438514 
L 136.741193 320.529091 
L 139.385821 321.574645 
L 142.030449 323.03978 
L 144.675077 324.863935 
L 147.319706 325.620006 
L 149.964334 325.259557 
L 152.608962 325.423648 
L 155.25359 326.420604 
L 157.898218 327.105513 
L 160.542846 327.080076 
L 163.187474 326.987496 
L 165.832102 327.009681 
L 168.47673 326.437563 
L 171.121358 326.580538 
L 173.765987 327.315473 
L 176.410615 327.591137 
L 179.055243 328.562682 
L 181.699871 329.674821 
L 184.344499 329.945817 
L 186.989127 329.826802 
L 189.633755 329.991341 
L 192.278383 331.146436 
L 194.923011 331.179367 
L 197.567639 329.886451 
L 200.212268 329.108221 
L 202.856896 330.09532 
L 205.501524 330.683342 
L 208.146152 331.275756 
L 210.79078 331.703264 
L 213.435408 330.811041 
L 216.080036 329.542485 
L 218.724664 328.64119 
L 221.369292 328.278166 
L 224.01392 329.983608 
L 226.658549 331.245854 
L 229.303177 330.651834 
L 231.947805 331.004802 
L 234.592433 331.060236 
L 237.237061 330.829991 
L 239.881689 330.789609 
L 242.526317 330.772249 
L 245.170945 330.681801 
L 247.815573 330.371117 
L 250.460201 330.299867 
L 253.10483 329.907453 
L 255.749458 330.335962 
L 258.394086 331.347717 
L 261.038714 331.46791 
L 263.683342 331.356227 
L 266.32797 330.479937 
L 268.972598 329.858559 
L 271.617226 330.775521 
L 274.261854 332.203422 
L 276.906482 332.89872 
L 279.551111 332.494141 
L 282.195739 332.032205 
L 284.840367 332.179736 
L 287.484995 332.746733 
L 290.129623 333.416017 
L 292.774251 333.841479 
L 295.418879 332.709021 
L 298.063507 331.499768 
L 300.708135 331.113853 
L 303.352763 330.328163 
L 305.997392 329.599555 
L 308.64202 329.374353 
L 311.286648 329.313226 
L 313.931276 329.582171 
L 316.575904 329.706062 
L 319.220532 329.317794 
L 321.86516 328.439739 
L 324.509788 328.452059 
L 327.154416 327.922723 
L 329.799044 327.356766 
L 332.443673 327.070457 
L 335.088301 325.32281 
L 337.732929 324.80206 
L 340.377557 323.569413 
L 343.022185 322.05957 
L 345.666813 321.226616 
L 348.311441 320.43177 
L 350.956069 320.400115 
L 353.600697 319.619488 
L 356.245325 318.571112 
L 358.889954 317.568406 
L 361.534582 315.429941 
L 364.17921 313.680238 
L 366.823838 312.092289 
L 369.468466 309.265641 
" clip-path="url(#p5b2c8a9bda)" style="fill: none; stroke-dasharray: 11.1,4.8; stroke-dashoffset: 0; stroke: #008000; stroke-width: 3"/>
   </g>
   <g id="line2d_13">
    <path d="M 107.650284 144.475736 
L 110.294912 147.568996 
L 112.93954 150.604224 
L 115.584168 153.58147 
L 118.228796 156.500788 
L 120.873425 159.362235 
L 123.518053 162.165876 
L 126.162681 164.91178 
L 128.807309 167.600017 
L 131.451937 170.230665 
L 134.096565 172.803801 
L 136.741193 175.319509 
L 139.385821 177.777872 
L 142.030449 180.178977 
L 144.675077 182.522913 
L 147.319706 184.80977 
L 149.964334 187.039641 
L 152.608962 189.212617 
L 155.25359 191.328792 
L 157.898218 193.388261 
L 160.542846 195.391116 
L 163.187474 197.337452 
L 165.832102 199.227363 
L 168.47673 201.06094 
L 171.121358 202.838277 
L 173.765987 204.559463 
L 176.410615 206.224588 
L 179.055243 207.833741 
L 181.699871 209.387006 
L 184.344499 210.884469 
L 186.989127 212.32621 
L 189.633755 213.712309 
L 192.278383 215.042842 
L 194.923011 216.317883 
L 197.567639 217.537504 
L 200.212268 218.70177 
L 202.856896 219.810748 
L 205.501524 220.864497 
L 208.146152 221.863075 
L 210.79078 222.806535 
L 213.435408 223.694926 
L 216.080036 224.528293 
L 218.724664 225.306679 
L 221.369292 226.030119 
L 224.01392 226.698647 
L 226.658549 227.312289 
L 229.303177 227.871071 
L 231.947805 228.375009 
L 234.592433 228.824119 
L 237.237061 229.21841 
L 239.881689 229.557885 
L 242.526317 229.825566 
L 245.170945 230.021443 
L 247.815573 230.145499 
L 250.460201 230.197706 
L 253.10483 230.178029 
L 255.749458 230.086424 
L 258.394086 229.922838 
L 261.038714 229.687208 
L 263.683342 229.379465 
L 266.32797 228.99953 
L 268.972598 228.547314 
L 271.617226 228.022722 
L 274.261854 227.425649 
L 276.906482 226.75598 
L 279.551111 226.013597 
L 282.195739 225.198368 
L 284.840367 224.310156 
L 287.484995 223.348817 
L 290.129623 222.314197 
L 292.774251 221.206137 
L 295.418879 220.02447 
L 298.063507 218.769021 
L 300.708135 217.439609 
L 303.352763 216.036048 
L 305.997392 214.558144 
L 308.64202 213.005699 
L 311.286648 211.378507 
L 313.931276 209.676359 
L 316.575904 207.899041 
L 319.220532 206.046333 
L 321.86516 204.118014 
L 324.509788 202.113856 
L 327.154416 200.033629 
L 329.799044 197.877101 
L 332.443673 195.644038 
L 335.088301 193.334203 
L 337.732929 190.947357 
L 340.377557 188.483262 
L 343.022185 185.941679 
L 345.666813 183.322368 
L 348.311441 180.625092 
L 350.956069 177.849614 
L 353.600697 174.995698 
L 356.245325 172.063114 
L 358.889954 169.05163 
L 361.534582 165.961023 
L 364.17921 162.791072 
L 366.823838 159.54156 
L 369.468466 156.212278 
" clip-path="url(#p5b2c8a9bda)" style="fill: none; stroke-dasharray: 19.2,4.8,3,4.8; stroke-dashoffset: 0; stroke: #000000; stroke-width: 3"/>
   </g>
   <g id="line2d_14">
    <path d="M 107.650284 113.970764 
L 110.294912 117.342516 
L 112.93954 122.37954 
L 115.584168 126.848322 
L 118.228796 130.987337 
L 120.873425 140.176173 
L 123.518053 147.511511 
L 126.162681 151.342007 
L 128.807309 156.252108 
L 131.451937 158.84493 
L 134.096565 163.814751 
L 136.741193 169.8217 
L 139.385821 173.025004 
L 142.030449 179.525438 
L 144.675077 181.240524 
L 147.319706 186.846366 
L 149.964334 193.806305 
L 152.608962 193.802868 
L 155.25359 193.235022 
L 157.898218 196.857538 
L 160.542846 199.207073 
L 163.187474 199.219787 
L 165.832102 195.575308 
L 168.47673 192.381259 
L 171.121358 195.006539 
L 173.765987 202.227286 
L 176.410615 205.629639 
L 179.055243 209.270045 
L 181.699871 212.485771 
L 184.344499 213.448415 
L 186.989127 214.011068 
L 189.633755 212.459228 
L 192.278383 212.257109 
L 194.923011 214.024045 
L 197.567639 216.885153 
L 200.212268 217.586972 
L 202.856896 219.588022 
L 205.501524 222.598151 
L 208.146152 223.091336 
L 210.79078 224.482551 
L 213.435408 226.517749 
L 216.080036 223.580235 
L 218.724664 219.357789 
L 221.369292 218.961783 
L 224.01392 217.923567 
L 226.658549 218.698445 
L 229.303177 220.894349 
L 231.947805 224.56859 
L 234.592433 226.559593 
L 237.237061 224.534954 
L 239.881689 224.57791 
L 242.526317 225.238763 
L 245.170945 222.745528 
L 247.815573 222.961041 
L 250.460201 222.946268 
L 253.10483 220.499326 
L 255.749458 224.078004 
L 258.394086 222.41883 
L 261.038714 223.16087 
L 263.683342 224.338565 
L 266.32797 226.788079 
L 268.972598 226.041989 
L 271.617226 223.373449 
L 274.261854 226.054598 
L 276.906482 229.53957 
L 279.551111 231.130424 
L 282.195739 230.925761 
L 284.840367 228.526392 
L 287.484995 229.915331 
L 290.129623 229.887981 
L 292.774251 228.104285 
L 295.418879 227.076372 
L 298.063507 222.073272 
L 300.708135 216.590012 
L 303.352763 215.667559 
L 305.997392 212.061704 
L 308.64202 207.326013 
L 311.286648 207.215308 
L 313.931276 204.662525 
L 316.575904 202.624135 
L 319.220532 197.198945 
L 321.86516 194.425358 
L 324.509788 190.309716 
L 327.154416 185.327505 
L 329.799044 184.275599 
L 332.443673 179.843226 
L 335.088301 173.148027 
L 337.732929 174.911429 
L 340.377557 170.813025 
L 343.022185 166.503289 
L 345.666813 163.75369 
L 348.311441 162.602062 
L 350.956069 162.388483 
L 353.600697 158.583277 
L 356.245325 152.058375 
L 358.889954 146.923475 
L 361.534582 142.692714 
L 364.17921 136.963667 
L 366.823838 130.060863 
L 369.468466 126.486706 
" clip-path="url(#p5b2c8a9bda)" style="fill: none; stroke-dasharray: 19.2,4.8,3,4.8; stroke-dashoffset: 0; stroke: #008000; stroke-width: 3"/>
   </g>
   <g id="line2d_15">
    <path d="M 107.650284 64.380976 
L 110.294912 67.004277 
L 112.93954 69.589041 
L 115.584168 72.13466 
L 118.228796 74.640541 
L 120.873425 77.10611 
L 123.518053 79.530807 
L 126.162681 81.914093 
L 128.807309 84.255442 
L 131.451937 86.554345 
L 134.096565 88.810309 
L 136.741193 91.022855 
L 139.385821 93.191521 
L 142.030449 95.315857 
L 144.675077 97.395428 
L 147.319706 99.429813 
L 149.964334 101.418605 
L 152.608962 103.36141 
L 155.25359 105.257846 
L 157.898218 107.107544 
L 160.542846 108.910148 
L 163.187474 110.665312 
L 165.832102 112.372705 
L 168.47673 114.032005 
L 171.121358 115.642902 
L 173.765987 117.205096 
L 176.410615 118.7183 
L 179.055243 120.182234 
L 181.699871 121.596632 
L 184.344499 122.961236 
L 186.989127 124.275797 
L 189.633755 125.540078 
L 192.278383 126.753849 
L 194.923011 127.916891 
L 197.567639 129.028993 
L 200.212268 130.089954 
L 202.856896 131.09958 
L 205.501524 132.057687 
L 208.146152 132.964098 
L 210.79078 133.818647 
L 213.435408 134.621172 
L 216.080036 135.371522 
L 218.724664 136.069553 
L 221.369292 136.715129 
L 224.01392 137.308121 
L 226.658549 137.848407 
L 229.303177 138.335875 
L 231.947805 138.770418 
L 234.592433 139.151937 
L 237.237061 139.48034 
L 239.881689 139.755542 
L 242.526317 139.960964 
L 245.170945 140.096516 
L 247.815573 140.162121 
L 250.460201 140.157712 
L 253.10483 140.083238 
L 255.749458 139.938656 
L 258.394086 139.723936 
L 261.038714 139.439061 
L 263.683342 139.084026 
L 266.32797 138.658837 
L 268.972598 138.163514 
L 271.617226 137.598086 
L 274.261854 136.962597 
L 276.906482 136.257105 
L 279.551111 135.481676 
L 282.195739 134.636393 
L 284.840367 133.721351 
L 287.484995 132.736657 
L 290.129623 131.682432 
L 292.774251 130.558811 
L 295.418879 129.365944 
L 298.063507 128.103993 
L 300.708135 126.773137 
L 303.352763 125.373566 
L 305.997392 123.90549 
L 308.64202 122.36913 
L 311.286648 120.764726 
L 313.931276 119.092533 
L 316.575904 117.352823 
L 319.220532 115.545884 
L 321.86516 113.672022 
L 324.509788 111.731562 
L 327.154416 109.724845 
L 329.799044 107.652234 
L 332.443673 105.514109 
L 335.088301 103.310869 
L 337.732929 101.042937 
L 340.377557 98.710754 
L 343.022185 96.314783 
L 345.666813 93.85551 
L 348.311441 91.333443 
L 350.956069 88.749113 
L 353.600697 86.103077 
L 356.245325 83.395915 
L 358.889954 80.628232 
L 361.534582 77.80066 
L 364.17921 74.913858 
L 366.823838 71.968511 
L 369.468466 68.965333 
" clip-path="url(#p5b2c8a9bda)" style="fill: none; stroke-dasharray: 3,4.95; stroke-dashoffset: 0; stroke: #000000; stroke-width: 3"/>
   </g>
   <g id="line2d_16">
    <path d="M 107.650284 69.752462 
L 110.294912 73.203635 
L 112.93954 76.323493 
L 115.584168 79.119141 
L 118.228796 82.170474 
L 120.873425 84.524525 
L 123.518053 86.071037 
L 126.162681 87.189881 
L 128.807309 87.830764 
L 131.451937 89.403982 
L 134.096565 92.90974 
L 136.741193 94.177878 
L 139.385821 95.511864 
L 142.030449 98.972413 
L 144.675077 101.374842 
L 147.319706 102.81004 
L 149.964334 103.894633 
L 152.608962 104.55354 
L 155.25359 105.968039 
L 157.898218 107.67609 
L 160.542846 107.782488 
L 163.187474 106.832585 
L 165.832102 105.321571 
L 168.47673 106.047583 
L 171.121358 106.825533 
L 173.765987 108.395057 
L 176.410615 110.5322 
L 179.055243 112.724989 
L 181.699871 114.173687 
L 184.344499 114.550136 
L 186.989127 114.42115 
L 189.633755 114.63231 
L 192.278383 115.491686 
L 194.923011 115.521825 
L 197.567639 116.538285 
L 200.212268 118.555734 
L 202.856896 121.476012 
L 205.501524 121.965547 
L 208.146152 121.978195 
L 210.79078 123.130147 
L 213.435408 123.840071 
L 216.080036 122.001573 
L 218.724664 118.53725 
L 221.369292 117.474431 
L 224.01392 116.547971 
L 226.658549 117.587174 
L 229.303177 120.08895 
L 231.947805 122.081425 
L 234.592433 125.476678 
L 237.237061 126.683511 
L 239.881689 125.694783 
L 242.526317 126.434931 
L 245.170945 127.306712 
L 247.815573 126.004424 
L 250.460201 124.996584 
L 253.10483 124.505803 
L 255.749458 123.446443 
L 258.394086 124.012573 
L 261.038714 123.895265 
L 263.683342 126.559328 
L 266.32797 126.836362 
L 268.972598 124.299165 
L 271.617226 124.208301 
L 274.261854 127.440788 
L 276.906482 130.489788 
L 279.551111 129.512536 
L 282.195739 130.02143 
L 284.840367 129.654278 
L 287.484995 127.893245 
L 290.129623 128.916169 
L 292.774251 131.008659 
L 295.418879 126.020561 
L 298.063507 119.631681 
L 300.708135 116.845914 
L 303.352763 115.072492 
L 305.997392 114.643867 
L 308.64202 112.451411 
L 311.286648 111.056776 
L 313.931276 110.373464 
L 316.575904 108.944335 
L 319.220532 107.198293 
L 321.86516 105.354245 
L 324.509788 103.078223 
L 327.154416 101.393961 
L 329.799044 100.621651 
L 332.443673 98.76831 
L 335.088301 95.707723 
L 337.732929 94.044844 
L 340.377557 93.120278 
L 343.022185 91.819156 
L 345.666813 90.686315 
L 348.311441 90.392177 
L 350.956069 89.635544 
L 353.600697 87.963989 
L 356.245325 85.737094 
L 358.889954 83.562152 
L 361.534582 81.646356 
L 364.17921 79.665269 
L 366.823838 76.523424 
L 369.468466 72.490979 
" clip-path="url(#p5b2c8a9bda)" style="fill: none; stroke-dasharray: 3,4.95; stroke-dashoffset: 0; stroke: #008000; stroke-width: 3"/>
   </g>
   <g id="line2d_17">
    <path d="M 107.650284 38.772113 
L 110.294912 39.073341 
L 112.93954 39.393046 
L 115.584168 39.729731 
L 118.228796 40.081938 
L 120.873425 40.448241 
L 123.518053 40.827246 
L 126.162681 41.217594 
L 128.807309 41.617958 
L 131.451937 42.027045 
L 134.096565 42.443593 
L 136.741193 42.86637 
L 139.385821 43.294178 
L 142.030449 43.725848 
L 144.675077 44.160245 
L 147.319706 44.596259 
L 149.964334 45.032815 
L 152.608962 45.468865 
L 155.25359 45.903392 
L 157.898218 46.335406 
L 160.542846 46.763948 
L 163.187474 47.188088 
L 165.832102 47.606921 
L 168.47673 48.019574 
L 171.121358 48.425198 
L 173.765987 48.822976 
L 176.410615 49.212114 
L 179.055243 49.591847 
L 181.699871 49.961438 
L 184.344499 50.320175 
L 186.989127 50.667372 
L 189.633755 51.002371 
L 192.278383 51.324539 
L 194.923011 51.633269 
L 197.567639 51.92798 
L 200.212268 52.208115 
L 202.856896 52.473145 
L 205.501524 52.722565 
L 208.146152 52.955894 
L 210.79078 53.172677 
L 213.435408 53.372483 
L 216.080036 53.554907 
L 218.724664 53.719568 
L 221.369292 53.866109 
L 224.01392 53.994197 
L 226.658549 54.103525 
L 229.303177 54.193808 
L 231.947805 54.264787 
L 234.592433 54.316226 
L 237.237061 54.347912 
L 239.881689 54.359659 
L 242.526317 54.345075 
L 245.170945 54.303987 
L 247.815573 54.236261 
L 250.460201 54.141805 
L 253.10483 54.020568 
L 255.749458 53.872539 
L 258.394086 53.69775 
L 261.038714 53.49627 
L 263.683342 53.268213 
L 266.32797 53.013732 
L 268.972598 52.733021 
L 271.617226 52.426316 
L 274.261854 52.093894 
L 276.906482 51.736075 
L 279.551111 51.353218 
L 282.195739 50.945727 
L 284.840367 50.514045 
L 287.484995 50.05866 
L 290.129623 49.580101 
L 292.774251 49.078941 
L 295.418879 48.555795 
L 298.063507 48.011322 
L 300.708135 47.446225 
L 303.352763 46.861251 
L 305.997392 46.25719 
L 308.64202 45.634879 
L 311.286648 44.995199 
L 313.931276 44.339076 
L 316.575904 43.667484 
L 319.220532 42.981441 
L 321.86516 42.282013 
L 324.509788 41.570315 
L 327.154416 40.847507 
L 329.799044 40.114798 
L 332.443673 39.373448 
L 335.088301 38.624764 
L 337.732929 37.870104 
L 340.377557 37.110876 
L 343.022185 36.348542 
L 345.666813 35.584611 
L 348.311441 34.820649 
L 350.956069 34.058271 
L 353.600697 33.29915 
L 356.245325 32.54501 
L 358.889954 31.797632 
L 361.534582 31.058853 
L 364.17921 30.330565 
L 366.823838 29.614719 
L 369.468466 28.913324 
" clip-path="url(#p5b2c8a9bda)" style="fill: none; stroke-dasharray: 9,15,3,15,3,15; stroke-dashoffset: 0; stroke: #000000; stroke-width: 3"/>
   </g>
   <g id="line2d_18">
    <path d="M 107.650284 33.621649 
L 110.294912 35.582158 
L 112.93954 37.436467 
L 115.584168 38.538272 
L 118.228796 39.54256 
L 120.873425 40.725027 
L 123.518053 41.624145 
L 126.162681 42.355443 
L 128.807309 43.706541 
L 131.451937 45.347203 
L 134.096565 46.772148 
L 136.741193 48.676523 
L 139.385821 50.878675 
L 142.030449 53.172752 
L 144.675077 55.282209 
L 147.319706 56.959142 
L 149.964334 57.925702 
L 152.608962 58.165193 
L 155.25359 58.232889 
L 157.898218 58.383595 
L 160.542846 58.204877 
L 163.187474 57.696237 
L 165.832102 57.413662 
L 168.47673 58.254716 
L 171.121358 60.136598 
L 173.765987 62.401915 
L 176.410615 64.395303 
L 179.055243 65.44174 
L 181.699871 65.781913 
L 184.344499 65.864168 
L 186.989127 65.752253 
L 189.633755 66.154876 
L 192.278383 67.641443 
L 194.923011 69.28035 
L 197.567639 70.94425 
L 200.212268 71.848212 
L 202.856896 72.152089 
L 205.501524 72.223889 
L 208.146152 72.17331 
L 210.79078 71.786833 
L 213.435408 70.813304 
L 216.080036 69.320726 
L 218.724664 68.2926 
L 221.369292 68.723198 
L 224.01392 69.436372 
L 226.658549 70.095873 
L 229.303177 71.211741 
L 231.947805 72.918417 
L 234.592433 74.085268 
L 237.237061 74.093735 
L 239.881689 73.338121 
L 242.526317 72.683971 
L 245.170945 72.579693 
L 247.815573 72.500718 
L 250.460201 72.118591 
L 253.10483 71.811759 
L 255.749458 70.992554 
L 258.394086 70.95431 
L 261.038714 71.813879 
L 263.683342 72.942326 
L 266.32797 73.962963 
L 268.972598 74.594509 
L 271.617226 75.052268 
L 274.261854 76.137307 
L 276.906482 77.554788 
L 279.551111 77.675339 
L 282.195739 76.251895 
L 284.840367 74.271476 
L 287.484995 73.493587 
L 290.129623 73.01149 
L 292.774251 71.73063 
L 295.418879 69.929673 
L 298.063507 68.249523 
L 300.708135 66.678149 
L 303.352763 64.904522 
L 305.997392 63.064769 
L 308.64202 61.367071 
L 311.286648 59.593981 
L 313.931276 58.105027 
L 316.575904 56.72526 
L 319.220532 55.430625 
L 321.86516 53.837847 
L 324.509788 52.305734 
L 327.154416 50.939234 
L 329.799044 49.653447 
L 332.443673 48.40641 
L 335.088301 47.081544 
L 337.732929 46.127602 
L 340.377557 45.500896 
L 343.022185 44.963633 
L 345.666813 44.124962 
L 348.311441 42.526638 
L 350.956069 40.643785 
L 353.600697 38.529303 
L 356.245325 36.188334 
L 358.889954 33.725271 
L 361.534582 31.180387 
L 364.17921 28.647397 
L 366.823838 25.756981 
L 369.468466 23.563636 
" clip-path="url(#p5b2c8a9bda)" style="fill: none; stroke-dasharray: 9,15,3,15,3,15; stroke-dashoffset: 0; stroke: #008000; stroke-width: 3"/>
   </g>
   <g id="patch_3">
    <path d="M 94.559375 367.2 
L 94.559375 7.2 
" style="fill: none; stroke: #000000; stroke-width: 2; stroke-linejoin: miter; stroke-linecap: square"/>
   </g>
   <g id="patch_4">
    <path d="M 382.559375 367.2 
L 382.559375 7.2 
" style="fill: none; stroke: #000000; stroke-width: 2; stroke-linejoin: miter; stroke-linecap: square"/>
   </g>
   <g id="patch_5">
    <path d="M 94.559375 367.2 
L 382.559375 367.2 
" style="fill: none; stroke: #000000; stroke-width: 2; stroke-linejoin: miter; stroke-linecap: square"/>
   </g>
   <g id="patch_6">
    <path d="M 94.559375 7.2 
L 382.559375 7.2 
" style="fill: none; stroke: #000000; stroke-width: 2; stroke-linejoin: miter; stroke-linecap: square"/>
   </g>
   <g id="legend_1">
    <g id="patch_7">
     <path d="M 402.059375 302.7 
L 626.532031 302.7 
Q 631.532031 302.7 631.532031 297.7 
L 631.532031 116.723438 
Q 631.532031 111.723438 626.532031 111.723438 
L 402.059375 111.723438 
Q 397.059375 111.723438 397.059375 116.723438 
L 397.059375 297.7 
Q 397.059375 302.7 402.059375 302.7 
z
" style="fill: #4c4c4c; opacity: 0.5; stroke: #4c4c4c; stroke-linejoin: miter"/>
    </g>
    <g id="patch_8">
     <path d="M 400.059375 300.7 
L 624.532031 300.7 
Q 629.532031 300.7 629.532031 295.7 
L 629.532031 114.723438 
Q 629.532031 109.723438 624.532031 109.723438 
L 400.059375 109.723438 
Q 395.059375 109.723438 395.059375 114.723438 
L 395.059375 295.7 
Q 395.059375 300.7 400.059375 300.7 
z
" style="fill: #ffffff; stroke: #cccccc; stroke-linejoin: miter"/>
    </g>
    <g id="line2d_19">
     <path d="M 405.059375 129.969531 
L 430.059375 129.969531 
L 455.059375 129.969531 
" style="fill: none; stroke: #008000; stroke-width: 3; stroke-linecap: square"/>
    </g>
    <g id="text_11">
     <!-- t=137 sec -->
     <g transform="translate(475.059375 138.719531)scale(0.25 -0.25)">
      <defs>
       <path id="DejaVuSans-3d" d="M 678 2906 
L 4684 2906 
L 4684 2381 
L 678 2381 
L 678 2906 
z
M 678 1631 
L 4684 1631 
L 4684 1100 
L 678 1100 
L 678 1631 
z
" transform="scale(0.015625)"/>
       <path id="DejaVuSans-31" d="M 794 531 
L 1825 531 
L 1825 4091 
L 703 3866 
L 703 4441 
L 1819 4666 
L 2450 4666 
L 2450 531 
L 3481 531 
L 3481 0 
L 794 0 
L 794 531 
z
" transform="scale(0.015625)"/>
       <path id="DejaVuSans-33" d="M 2597 2516 
Q 3050 2419 3304 2112 
Q 3559 1806 3559 1356 
Q 3559 666 3084 287 
Q 2609 -91 1734 -91 
Q 1441 -91 1130 -33 
Q 819 25 488 141 
L 488 750 
Q 750 597 1062 519 
Q 1375 441 1716 441 
Q 2309 441 2620 675 
Q 2931 909 2931 1356 
Q 2931 1769 2642 2001 
Q 2353 2234 1838 2234 
L 1294 2234 
L 1294 2753 
L 1863 2753 
Q 2328 2753 2575 2939 
Q 2822 3125 2822 3475 
Q 2822 3834 2567 4026 
Q 2313 4219 1838 4219 
Q 1578 4219 1281 4162 
Q 984 4106 628 3988 
L 628 4550 
Q 988 4650 1302 4700 
Q 1616 4750 1894 4750 
Q 2613 4750 3031 4423 
Q 3450 4097 3450 3541 
Q 3450 3153 3228 2886 
Q 3006 2619 2597 2516 
z
" transform="scale(0.015625)"/>
       <path id="DejaVuSans-37" d="M 525 4666 
L 3525 4666 
L 3525 4397 
L 1831 0 
L 1172 0 
L 2766 4134 
L 525 4134 
L 525 4666 
z
" transform="scale(0.015625)"/>
      </defs>
      <use xlink:href="#DejaVuSans-74"/>
      <use xlink:href="#DejaVuSans-3d" x="39.208984"/>
      <use xlink:href="#DejaVuSans-31" x="122.998047"/>
      <use xlink:href="#DejaVuSans-33" x="186.621094"/>
      <use xlink:href="#DejaVuSans-37" x="250.244141"/>
      <use xlink:href="#DejaVuSans-20" x="313.867188"/>
      <use xlink:href="#DejaVuSans-73" x="345.654297"/>
      <use xlink:href="#DejaVuSans-65" x="397.753906"/>
      <use xlink:href="#DejaVuSans-63" x="459.277344"/>
     </g>
    </g>
    <g id="line2d_20">
     <path d="M 405.059375 166.664844 
L 430.059375 166.664844 
L 455.059375 166.664844 
" style="fill: none; stroke-dasharray: 11.1,4.8; stroke-dashoffset: 0; stroke: #008000; stroke-width: 3"/>
    </g>
    <g id="text_12">
     <!-- t=497 sec -->
     <g transform="translate(475.059375 175.414844)scale(0.25 -0.25)">
      <defs>
       <path id="DejaVuSans-39" d="M 703 97 
L 703 672 
Q 941 559 1184 500 
Q 1428 441 1663 441 
Q 2288 441 2617 861 
Q 2947 1281 2994 2138 
Q 2813 1869 2534 1725 
Q 2256 1581 1919 1581 
Q 1219 1581 811 2004 
Q 403 2428 403 3163 
Q 403 3881 828 4315 
Q 1253 4750 1959 4750 
Q 2769 4750 3195 4129 
Q 3622 3509 3622 2328 
Q 3622 1225 3098 567 
Q 2575 -91 1691 -91 
Q 1453 -91 1209 -44 
Q 966 3 703 97 
z
M 1959 2075 
Q 2384 2075 2632 2365 
Q 2881 2656 2881 3163 
Q 2881 3666 2632 3958 
Q 2384 4250 1959 4250 
Q 1534 4250 1286 3958 
Q 1038 3666 1038 3163 
Q 1038 2656 1286 2365 
Q 1534 2075 1959 2075 
z
" transform="scale(0.015625)"/>
      </defs>
      <use xlink:href="#DejaVuSans-74"/>
      <use xlink:href="#DejaVuSans-3d" x="39.208984"/>
      <use xlink:href="#DejaVuSans-34" x="122.998047"/>
      <use xlink:href="#DejaVuSans-39" x="186.621094"/>
      <use xlink:href="#DejaVuSans-37" x="250.244141"/>
      <use xlink:href="#DejaVuSans-20" x="313.867188"/>
      <use xlink:href="#DejaVuSans-73" x="345.654297"/>
      <use xlink:href="#DejaVuSans-65" x="397.753906"/>
      <use xlink:href="#DejaVuSans-63" x="459.277344"/>
     </g>
    </g>
    <g id="line2d_21">
     <path d="M 405.059375 203.360156 
L 430.059375 203.360156 
L 455.059375 203.360156 
" style="fill: none; stroke-dasharray: 19.2,4.8,3,4.8; stroke-dashoffset: 0; stroke: #008000; stroke-width: 3"/>
    </g>
    <g id="text_13">
     <!-- t=977 sec -->
     <g transform="translate(475.059375 212.110156)scale(0.25 -0.25)">
      <use xlink:href="#DejaVuSans-74"/>
      <use xlink:href="#DejaVuSans-3d" x="39.208984"/>
      <use xlink:href="#DejaVuSans-39" x="122.998047"/>
      <use xlink:href="#DejaVuSans-37" x="186.621094"/>
      <use xlink:href="#DejaVuSans-37" x="250.244141"/>
      <use xlink:href="#DejaVuSans-20" x="313.867188"/>
      <use xlink:href="#DejaVuSans-73" x="345.654297"/>
      <use xlink:href="#DejaVuSans-65" x="397.753906"/>
      <use xlink:href="#DejaVuSans-63" x="459.277344"/>
     </g>
    </g>
    <g id="line2d_22">
     <path d="M 405.059375 240.055469 
L 430.059375 240.055469 
L 455.059375 240.055469 
" style="fill: none; stroke-dasharray: 3,4.95; stroke-dashoffset: 0; stroke: #008000; stroke-width: 3"/>
    </g>
    <g id="text_14">
     <!-- t=1337 sec -->
     <g transform="translate(475.059375 248.805469)scale(0.25 -0.25)">
      <use xlink:href="#DejaVuSans-74"/>
      <use xlink:href="#DejaVuSans-3d" x="39.208984"/>
      <use xlink:href="#DejaVuSans-31" x="122.998047"/>
      <use xlink:href="#DejaVuSans-33" x="186.621094"/>
      <use xlink:href="#DejaVuSans-33" x="250.244141"/>
      <use xlink:href="#DejaVuSans-37" x="313.867188"/>
      <use xlink:href="#DejaVuSans-20" x="377.490234"/>
      <use xlink:href="#DejaVuSans-73" x="409.277344"/>
      <use xlink:href="#DejaVuSans-65" x="461.376953"/>
      <use xlink:href="#DejaVuSans-63" x="522.900391"/>
     </g>
    </g>
    <g id="line2d_23">
     <path d="M 405.059375 276.750781 
L 430.059375 276.750781 
L 455.059375 276.750781 
" style="fill: none; stroke-dasharray: 9,15,3,15,3,15; stroke-dashoffset: 0; stroke: #008000; stroke-width: 3"/>
    </g>
    <g id="text_15">
     <!-- t=1817 sec -->
     <g transform="translate(475.059375 285.500781)scale(0.25 -0.25)">
      <use xlink:href="#DejaVuSans-74"/>
      <use xlink:href="#DejaVuSans-3d" x="39.208984"/>
      <use xlink:href="#DejaVuSans-31" x="122.998047"/>
      <use xlink:href="#DejaVuSans-38" x="186.621094"/>
      <use xlink:href="#DejaVuSans-31" x="250.244141"/>
      <use xlink:href="#DejaVuSans-37" x="313.867188"/>
      <use xlink:href="#DejaVuSans-20" x="377.490234"/>
      <use xlink:href="#DejaVuSans-73" x="409.277344"/>
      <use xlink:href="#DejaVuSans-65" x="461.376953"/>
      <use xlink:href="#DejaVuSans-63" x="522.900391"/>
     </g>
    </g>
   </g>
   <g id="legend_2">
    <g id="patch_9">
     <path d="M 402.059375 102.590625 
L 559.907031 102.590625 
Q 564.907031 102.590625 564.907031 97.590625 
L 564.907031 26.7 
Q 564.907031 21.7 559.907031 21.7 
L 402.059375 21.7 
Q 397.059375 21.7 397.059375 26.7 
L 397.059375 97.590625 
Q 397.059375 102.590625 402.059375 102.590625 
z
" style="fill: #4c4c4c; opacity: 0.5; stroke: #4c4c4c; stroke-linejoin: miter"/>
    </g>
    <g id="patch_10">
     <path d="M 400.059375 100.590625 
L 557.907031 100.590625 
Q 562.907031 100.590625 562.907031 95.590625 
L 562.907031 24.7 
Q 562.907031 19.7 557.907031 19.7 
L 400.059375 19.7 
Q 395.059375 19.7 395.059375 24.7 
L 395.059375 95.590625 
Q 395.059375 100.590625 400.059375 100.590625 
z
" style="fill: #ffffff; stroke: #cccccc; stroke-linejoin: miter"/>
    </g>
    <g id="line2d_24">
     <path d="M 405.059375 39.946094 
L 430.059375 39.946094 
L 455.059375 39.946094 
" style="fill: none; stroke: #000000; stroke-width: 3; stroke-linecap: square"/>
    </g>
    <g id="text_16">
     <!-- model -->
     <g transform="translate(475.059375 48.696094)scale(0.25 -0.25)">
      <defs>
       <path id="DejaVuSans-64" d="M 2906 2969 
L 2906 4863 
L 3481 4863 
L 3481 0 
L 2906 0 
L 2906 525 
Q 2725 213 2448 61 
Q 2172 -91 1784 -91 
Q 1150 -91 751 415 
Q 353 922 353 1747 
Q 353 2572 751 3078 
Q 1150 3584 1784 3584 
Q 2172 3584 2448 3432 
Q 2725 3281 2906 2969 
z
M 947 1747 
Q 947 1113 1208 752 
Q 1469 391 1925 391 
Q 2381 391 2643 752 
Q 2906 1113 2906 1747 
Q 2906 2381 2643 2742 
Q 2381 3103 1925 3103 
Q 1469 3103 1208 2742 
Q 947 2381 947 1747 
z
" transform="scale(0.015625)"/>
       <path id="DejaVuSans-6c" d="M 603 4863 
L 1178 4863 
L 1178 0 
L 603 0 
L 603 4863 
z
" transform="scale(0.015625)"/>
      </defs>
      <use xlink:href="#DejaVuSans-6d"/>
      <use xlink:href="#DejaVuSans-6f" x="97.412109"/>
      <use xlink:href="#DejaVuSans-64" x="158.59375"/>
      <use xlink:href="#DejaVuSans-65" x="222.070312"/>
      <use xlink:href="#DejaVuSans-6c" x="283.59375"/>
     </g>
    </g>
    <g id="line2d_25">
     <path d="M 405.059375 76.641406 
L 430.059375 76.641406 
L 455.059375 76.641406 
" style="fill: none; stroke: #008000; stroke-width: 3; stroke-linecap: square"/>
    </g>
    <g id="text_17">
     <!-- data -->
     <g transform="translate(475.059375 85.391406)scale(0.25 -0.25)">
      <use xlink:href="#DejaVuSans-64"/>
      <use xlink:href="#DejaVuSans-61" x="63.476562"/>
      <use xlink:href="#DejaVuSans-74" x="124.755859"/>
      <use xlink:href="#DejaVuSans-61" x="163.964844"/>
     </g>
    </g>
   </g>
  </g>
 </g>
 <defs>
  <clipPath id="p5b2c8a9bda">
   <rect x="94.559375" y="7.2" width="288" height="360"/>
  </clipPath>
 </defs>
</svg>
